<svg xmlns="http://www.w3.org/2000/svg" viewBox="0 0 199.53 196.4"><defs><style>.cls-1{fill:#3bd8ff;}</style></defs><g id="Layer_2" data-name="Layer 2"><g id="Layer_1-2" data-name="Layer 1"><path d="M199.53,50.65c-1.91,4.36-4.45,6.27-8,6a7.61,7.61,0,0,1-7.13-6.78,7.71,7.71,0,0,1,5.57-8.14,7.6,7.6,0,0,1,9,4.39c.21.46.41.93.62,1.39Z"/><path d="M130.65,142.62a45.16,45.16,0,0,1-14-1.94c-9.89-3.24-15.37-11.25-14.65-21.66.74-10.68,6.72-17.92,15.55-23.21a54.31,54.31,0,0,0,6.16-3.7c3.46-2.74,4.12-5.08,2.55-9.2a12.69,12.69,0,0,0-3-4.48c-4.25-4.24-8-8.85-10.31-14.47-3.75-9.15-2-17.83,5.39-24.42,12-10.71,26.2-13.78,41.21-6.9,15.47,7.1,25.28,18.8,28.87,35.51a43.55,43.55,0,0,1-1.16,23.45c-4.63,13.58-11.43,26-21.61,36.25C156,137.55,144.49,142.84,130.65,142.62Z"/><path d="M68.8,196.37A45.7,45.7,0,0,1,36.43,184a85.26,85.26,0,0,1-24.57-40.34c-6.32-22.23,4.46-45.14,25.34-55.9,9-4.65,18.39-6.6,28.35-3.54a40,40,0,0,1,15.81,9.24c7.33,6.92,9,15.63,5,24.84a45,45,0,0,1-10,13.79,13.16,13.16,0,0,0-3.68,6.5,6.07,6.07,0,0,0,1.82,6.18,29.13,29.13,0,0,0,6.79,4.47c6.51,3.57,11.55,8.54,14.43,15.48,3.67,8.83,2.07,18.48-4.1,24.61-4.41,4.38-10.06,5.94-16,6.69A38.83,38.83,0,0,1,68.8,196.37Z"/><path d="M98.18,70.15A16.52,16.52,0,1,1,81.63,53.76,16.61,16.61,0,0,1,98.18,70.15Z"/><path d="M101.34,16.48a16.52,16.52,0,0,1,33-.05,16.52,16.52,0,1,1-33,.05Z"/><path d="M52.34,56.76a10.55,10.55,0,0,1,10.3,10.72,10.59,10.59,0,1,1-21.17-.38A10.53,10.53,0,0,1,52.34,56.76Z"/><path d="M158,13.55A10.58,10.58,0,1,1,147.56,3,10.62,10.62,0,0,1,158,13.55Z"/><path d="M23.73,74.78a9.07,9.07,0,1,1,9.05,9A9.07,9.07,0,0,1,23.73,74.78Z"/><path d="M190.6,32.84a9.07,9.07,0,1,1-8.92-9.1A9.07,9.07,0,0,1,190.6,32.84Z"/><path d="M175.79,21a9.06,9.06,0,1,1-9.09-9.14A9,9,0,0,1,175.79,21Z"/><path d="M17.92,77.49a9.06,9.06,0,1,1-9,9A9,9,0,0,1,17.92,77.49Z"/><path d="M15.19,102.8a7.6,7.6,0,1,1-7.55-7.55A7.6,7.6,0,0,1,15.19,102.8Z"/><path class="cls-1" d="M193.21,49.05c-.11.65-.39,1.18-1.17,1.25a1.22,1.22,0,1,1-.14-2.43C192.67,47.84,193,48.34,193.21,49.05Z"/><path class="cls-1" d="M183,77.78c.1,7.73-2.37,14.77-5.67,21.61-4.8,9.94-10.52,19.22-18.95,26.57-10.94,9.53-23.61,12.18-37.59,9.29-12.3-2.54-14.58-13.13-11.1-21.94,2.21-5.61,6.45-9.46,11.63-12.35,1.53-.85,3.09-1.65,4.55-2.61,9-5.93,10.06-16,2.45-23.78a53.17,53.17,0,0,1-7.45-8.95,21,21,0,0,1-3.45-9.4c-.42-5,1.74-9,5.37-12.17,10.39-9.13,21.88-11.33,34.57-5.45C170.68,44.76,179.1,55,182.2,69.47A44.64,44.64,0,0,1,183,77.78Z"/><path class="cls-1" d="M68.92,190.06a39.33,39.33,0,0,1-28.46-11,77.9,77.9,0,0,1-22.9-39c-4.35-17.95,4.6-36.73,20.8-45.73,6.14-3.42,12.55-5.66,19.64-5a30.22,30.22,0,0,1,21.2,11.3c3.62,4.35,3.71,9.37,1.66,14.49s-5.45,9.09-9.25,12.85a18.19,18.19,0,0,0-5,9A12.51,12.51,0,0,0,70.85,150a39,39,0,0,0,7.35,4.69,25.41,25.41,0,0,1,11,10.92c5.59,11.13.27,21.65-12,23.75A64.68,64.68,0,0,1,68.92,190.06Z"/><path class="cls-1" d="M81.67,80.39a10.1,10.1,0,0,1-10.14-10.1,10.17,10.17,0,1,1,10.14,10.1Z"/><path class="cls-1" d="M128,16.8a10.08,10.08,0,0,1-10.42,9.85,10.21,10.21,0,0,1-9.89-10.44A10.16,10.16,0,1,1,128,16.8Z"/><path class="cls-1" d="M56.24,67.3a4.19,4.19,0,1,1-8.38-.12,4.19,4.19,0,0,1,8.38.12Z"/><path class="cls-1" d="M143.27,13.55a4.2,4.2,0,0,1,8.39-.09,4.2,4.2,0,1,1-8.39.09Z"/><path class="cls-1" d="M32.77,72a2.64,2.64,0,0,1,2.74,2.65,2.8,2.8,0,0,1-2.62,2.83A2.83,2.83,0,0,1,30,74.67,2.71,2.71,0,0,1,32.77,72Z"/><path class="cls-1" d="M181.48,30a2.82,2.82,0,0,1,2.82,2.65,2.72,2.72,0,0,1-2.59,2.82,2.63,2.63,0,0,1-2.88-2.69A2.75,2.75,0,0,1,181.48,30Z"/><path class="cls-1" d="M169.49,21a2.83,2.83,0,0,1-2.76,2.7A2.77,2.77,0,0,1,164,20.81a2.64,2.64,0,0,1,2.82-2.56A2.73,2.73,0,0,1,169.49,21Z"/><path class="cls-1" d="M15.22,86.36a2.83,2.83,0,0,1,2.89-2.57,2.76,2.76,0,0,1,2.57,3,2.67,2.67,0,0,1-2.94,2.43A2.77,2.77,0,0,1,15.22,86.36Z"/><path class="cls-1" d="M7.4,104.06a1.23,1.23,0,1,1,.38-2.43A1.12,1.12,0,0,1,8.84,103,1.22,1.22,0,0,1,7.4,104.06Z"/></g></g></svg>