<svg xmlns="http://www.w3.org/2000/svg" viewBox="0 0 135.45 199.67"><defs><style>.cls-1{fill:#3bd8ff;}</style></defs><g id="Layer_2" data-name="Layer 2"><g id="Layer_1-2" data-name="Layer 1"><path d="M67.74,35.55a36.38,36.38,0,0,1,5.91-7.73,15.87,15.87,0,0,1,5.7-3.69c1.51-.5,1.76-1.33,1.74-2.75-.08-5.15,0-10.31,0-15.46C81.08,1.85,82.92,0,87,0c2.06,0,4.13,0,6.19,0,3.15.07,5.06,2,5.09,5.13,0,5.89,0,11.78,0,17.67a2.19,2.19,0,0,0,1.21,2.28c9.67,5.55,13.9,15.09,11.83,26.21-1.4,7.5-4.61,14.2-8.66,20.57-.19.3-.34.62-.55,1a4.8,4.8,0,0,0,4.77-.54,14,14,0,0,1,7.64-2.54,8.2,8.2,0,0,1,8.06,4.75,8,8,0,0,1-1,9.27c-.64.77-.74,1.14,0,2a8.58,8.58,0,0,1-6.53,14c-1.46,0-1.54.55-1.24,1.66a18.54,18.54,0,0,0,3.38,7.11c.78,1,1.29,2,.37,3.19a2.31,2.31,0,0,1-3,.55c-.88-.36-1.81-.6-2.94-1,.72,3.28,1.47,6.44,2.09,9.63,3.24,16.66,6.84,33.23,12.38,49.31,1,2.77,2,5.51,3.22,8.19a25.14,25.14,0,0,0,5.32,8.3c1.45,1.4,1,3.47-.91,3.68-4.3.46-7.64,2.89-11.17,5-.57.33-1.13.69-1.68,1.06-6.25,4.12-12.48,4.16-18.76,0-2-1.33-4.15-2.5-6.2-3.78a11.11,11.11,0,0,0-12.65,0c-2.43,1.51-4.92,2.94-7.37,4.43-5.41,3.29-10.82,3.25-16.23,0-2.39-1.44-4.83-2.8-7.18-4.3-4.45-2.84-8.8-2.78-13.22.08-2.34,1.51-4.78,2.87-7.18,4.3a14.57,14.57,0,0,1-15.86.07c-2-1.15-3.91-2.34-5.86-3.51a20.51,20.51,0,0,0-8.1-3.26C.08,190.33-.71,188.4.74,187c4.34-4.3,6.27-9.88,8.24-15.4,5.6-15.67,9.17-31.88,12.36-48.18,1.51-7.72,3.12-15.41,6.72-22.5a22.28,22.28,0,0,1,6.14-8A2,2,0,0,0,35,91c0-2.28,0-4.56,0-6.85A5.18,5.18,0,0,1,36.65,80c1.28-1,.7-1.67,0-2.62C32,71.1,27.93,64.48,25.56,57,23.9,51.7,23,46.32,24.17,40.86A22.43,22.43,0,0,1,35.72,25.25a2.47,2.47,0,0,0,1.5-2.56c-.06-5.67,0-11.34,0-17C37.21,1.79,39,0,42.88,0,44.94,0,47,0,49.06,0c3.37.05,5.32,2,5.36,5.38,0,5.44,0,10.89,0,16.34,0,.76-.28,1.62.82,2C61,25.8,64.55,30.25,67.74,35.55Z"/><path class="cls-1" d="M89.91,164a112,112,0,0,1-1.35,20.18c-.26,1.54-.82,2.44-2.47,2.77a19.37,19.37,0,0,0-6,2.72c-1.84,1.08-3.68,2.16-5.46,3.34-4.63,3.07-9.12,2.87-13.78-.1-3.95-2.51-7.8-5.27-12.49-6.4-1.37-.33-1-1.82-1.21-2.8a101,101,0,0,1-1.25-22.44c.87-21.58,4.24-42.86,8-64.09.23-1.32.67-1.85,2.07-1.73,1.68.13,3.38,0,5.08,0,2.73,0,5.44-.43,7.37,2.5,1,1.49,3.1,2,5,1.88s1.71.65,1.36,1.91a19,19,0,0,1-3.19,6.72c-.75,1-1.47,1.94-.61,3.18s2,1,3.35.65c1.85-.54,4-2.28,5.47-1.36,1.3.81,1.52,3.34,2.23,5.11.57,1.41.87,3,3,3,.94,0,.58,1,.67,1.61A340.17,340.17,0,0,1,89.91,164Z"/><path class="cls-1" d="M28.15,46.16A19.15,19.15,0,0,1,54,27.85c3.83,1.43,6.47,4.25,8.62,7.59,1.11,1.72,2.06,3.55,3.09,5.33C67,43,68.75,43,70,40.79c1.15-2,2.23-4,3.45-5.88,5.29-8.34,14-9.59,21.21-7.14a18.62,18.62,0,0,1,12.83,19.64c-.82,9.4-5.1,17.37-10.32,25a1.84,1.84,0,0,1-1.67.81c-3.83.09-7.66-.26-11.47.21-.76.09-1.21-.44-1.77-.77a16.82,16.82,0,0,0-8.25-2.8,8.45,8.45,0,0,0-8.66,6.43c-.31,1.24-.66,1.63-2,1.62-6.48-.07-13,0-19.44,0-.71,0-1.41.11-2-.63-5.72-7.62-11-15.46-13.09-25A34.78,34.78,0,0,1,28.15,46.16Z"/><path class="cls-1" d="M44.18,95.46c1.61.19,4.41-.88,5.28.4s-.38,3.75-.72,5.7c-3.3,18.93-6.19,37.9-7.08,57.12-.42,8.92-.36,17.81,1.38,26.61.15.77.23,1.36-.83,1.66-3,.85-5.57,2.59-8.21,4.18q-2.46,1.49-5,2.87a9.72,9.72,0,0,1-9.69,0c-4.05-2.08-7.65-5-11.92-6.64-.73-.28-.63-.63-.32-1.16C14.9,172.8,18,157.78,21.76,143c2.61-10.26,4-20.78,6.79-31a45.81,45.81,0,0,1,3.75-9.62C35.58,96.24,36.9,95.46,44.18,95.46Z"/><path class="cls-1" d="M107.66,113.8c1.46,5,2.11,9.59,3.07,14.16,3.47,16.54,7.06,33,13.22,48.85a53,53,0,0,0,4.46,9.07c.43.69.83,1.17-.33,1.62-3.79,1.48-7.07,3.89-10.54,5.94a10.89,10.89,0,0,1-11.87.07c-4.06-2.32-7.79-5.31-12.39-6.63-1-.28-.69-1-.57-1.62,2.51-12.88,1.64-25.81.54-38.73-1-11.66-2.66-23.23-4.5-34.78-.44-2.72.83-5.36.88-8.08,0-1.92.28-3.83.24-5.73,0-1.22.39-1.51,1.51-1.47,2,.07,4,.1,6,0,1.36-.07,1.54.5,1.52,1.67a61.45,61.45,0,0,0,2.81,18.46c.34,1.17.71,2.32,2.19,2.41s2.13-1,2.56-2.24C106.71,115.9,107.12,115.08,107.66,113.8Z"/><path class="cls-1" d="M94.47,77.49c2.13,0,4.25.05,6.38,0,1.15,0,1.74.17,1.71,1.54-.08,3.89-.06,7.79,0,11.69,0,1-.28,1.34-1.35,1.37-4.63.14-9.25.15-13.88,0-.91,0-1.14-.32-1.13-1.13,0-4,0-8.09,0-12.13,0-1.11.47-1.36,1.46-1.34C89.91,77.52,92.19,77.49,94.47,77.49Z"/><path class="cls-1" d="M52.12,91.07c-3.67,0-7.34,0-11,0-1.18,0-1.71-.22-1.62-1.54.11-1.68,0-3.38,0-5.07,0-1.42.64-2.25,2.09-2.25,7.79,0,15.57,0,23.36,0,1.6,0,1.79,1.55,2.6,2.38.57.59-.49,1-.83,1.52a6.59,6.59,0,0,0-1.49,3.61c0,1.27-.65,1.38-1.65,1.37C59.77,91.05,55.94,91.07,52.12,91.07Z"/><path class="cls-1" d="M81.87,84.94a30.87,30.87,0,0,0,0,4.41c.33,2.3-.72,3.53-2.66,4.43a13.21,13.21,0,0,1-5.39,1.71A3.9,3.9,0,0,1,70,93.15a4.1,4.1,0,0,1,.55-4.71c2.28-2.74,2.28-4.46,0-7.19a4.16,4.16,0,0,1-.6-4.71,3.9,3.9,0,0,1,3.91-2.34c2.86.06,5.18,1.45,7.43,3,.65.44.62,1.1.61,1.77Z"/><path class="cls-1" d="M106.87,84.66c0-1.32,0-2.65,0-4,0-1.77-.18-3.43,1.92-4.42,2.6-1.22,5.08-2.9,8.09-1.64a4.16,4.16,0,0,1,1.44,6.49c-2.37,3-2.42,4.51,0,7.36a4.09,4.09,0,0,1,.61,4.53,3.85,3.85,0,0,1-3.83,2.47c-2.93,0-5.33-1.43-7.63-3-.66-.46-.55-1.15-.55-1.81Z"/><path class="cls-1" d="M41.67,13.77c0-2.57,0-5.15,0-7.72,0-1.16.18-1.77,1.55-1.68a50.64,50.64,0,0,0,5.51,0c1.19-.06,1.5.4,1.49,1.53-.05,5.08-.07,10.15,0,15.22,0,1.28-.47,1.39-1.55,1.35a21.06,21.06,0,0,0-5.27.21c-1.74.38-1.76-.36-1.73-1.64C41.71,18.63,41.67,16.2,41.67,13.77Z"/><path class="cls-1" d="M94.06,13.72c0,2.65,0,5.3,0,8,0,.91-.13,1.3-1.23,1.07a19,19,0,0,0-5.93-.26c-1.08.11-1.39-.22-1.38-1.29q.08-7.73,0-15.45c0-1.1.42-1.46,1.43-1.34h.22c2.19,0,5-.72,6.4.38s.33,4.12.47,6.3C94.11,12,94.06,12.84,94.06,13.72Z"/><path class="cls-1" d="M77.9,106.36a44.46,44.46,0,0,0,1.73-7c.18-1.21,3.61-3.2,4.83-3,.84.14,1.05.58,1.07,1.35a49.43,49.43,0,0,1-1.16,11.51c-1.09-1.19-.91-2.94-2.35-3.49S79.49,106.11,77.9,106.36Z"/><path class="cls-1" d="M110.79,106.21c-4.33-1-4.33-1-6.34,3a42.34,42.34,0,0,1-1.2-12c0-.55.39-.7.85-.83,1.13-.31,4.76,1.61,5,2.81A47.93,47.93,0,0,0,110.79,106.21Z"/></g></g></svg>