<svg xmlns="http://www.w3.org/2000/svg" viewBox="0 0 179.87 200.32"><defs><style>.cls-1{fill:#3bd8ff;}.cls-2{fill:#010101;}</style></defs><g id="Layer_2" data-name="Layer 2"><g id="Layer_1-2" data-name="Layer 1"><path d="M90,0c2.28.9,3.19,2.6,3.13,5-.08,3.64,0,7.28,0,10.92,0,2.83-1.58,4.63-3.91,4.65s-3.9-1.8-3.92-4.61c0-3.51.1-7,0-10.53C85.13,3,85.82,1.16,88,0Z"/><path d="M179.56,179.38c-1.23-5.87-6.08-9-12.12-7.78-5.17,1-10.36,2-15.51,3-1.16.24-1.46,0-1.66-1.08q-4-20.79-8.11-41.57a1.37,1.37,0,0,1,.85-1.82c5.12-2.49,8.63-6.6,11.3-11.5,4.66-8.57,6.1-17.9,6.46-27.48a89.37,89.37,0,0,0-.39-10.35c-.11-1.49-.27-3-.51-4.47a189.82,189.82,0,0,0-20.21-58.72c-1.42-2.65-2.76-3.23-5.77-2.63s-6.13,1.21-9.19,1.81c-8.94,1.74-17.89,3.46-26.82,5.22-2.66.52-3.71,1.66-4,4.09A185.81,185.81,0,0,0,96.7,86.2c2.74,12.74,7.7,24.57,16.41,34.51,5.37,6.12,11.68,10.78,20.18,11.44,1.18.1,1.11.89,1.25,1.6,2.65,13.6,5.24,27.21,8,40.79.36,1.76-.22,2-1.63,2.28-5.38,1-10.76,2-16.09,3.17s-8.29,6.42-7,12.3c1.16,5.41,6,8.87,11.25,7.86q21.38-4.1,42.71-8.37C177.93,190.53,180.88,185.67,179.56,179.38ZM127.13,75.47c-7.62,0-15.24,0-22.86,0-1.33,0-1.69-.36-1.88-1.68a197.54,197.54,0,0,1-1.1-43.27c.09-1.24.76-1.31,1.57-1.47q13.4-2.61,26.8-5.2c4.05-.78,4.07-.74,5.89,3a185.53,185.53,0,0,1,16,47.07c.27,1.41-.07,1.59-1.33,1.58C142.5,75.44,134.82,75.47,127.13,75.47Z"/><path d="M85.72,27.22c-.4-3.63-1.23-4.62-4.76-5.3Q63.43,18.53,45.9,15.1c-3.5-.69-4.62-.2-6.31,3a195.05,195.05,0,0,0-18,48.25c-3.32,14.49-4.28,29,0,43.45,2.55,8.62,6.62,16.3,15.2,20.54.77.38.76.83.62,1.56q-3.89,20.82-7.71,41.65c-.18,1-.4,1.39-1.62,1.13-5-1.08-10.08-2-15.13-3C5.64,170.31.51,174.28,0,181.68c-.34,5.27,3.23,9.22,9.29,10.39,11.88,2.3,23.75,4.68,35.64,6.93,3,.56,5.94,1.69,9,1.19,5.18-.83,8.5-5.08,8.56-10.78,0-4.91-3.31-8.72-8.65-9.76Q46.44,178.2,39,176.79c-1.29-.24-2-.5-1.57-2.18.66-2.38.92-4.86,1.37-7.29L45,133.54c.13-.73.23-1.31,1.24-1.38,7.52-.55,13.39-4.38,18.41-9.64,9.06-9.48,14.26-21,17.44-33.56,3.45-13.51,4.52-27.34,4.71-41.16C86.74,40.87,86.48,34,85.72,27.22ZM78.2,64.32A156.55,156.55,0,0,1,75,85.53c-.28,1.26-.77,1.63-2,1.62-7.43-.07-14.86,0-22.29,0S36,87,28.71,87.17c-2,0-2.13-.65-2-2.32,1.65-20.54,8.4-39.56,17.2-58,1.8-3.77,1.85-3.79,5.88-3,8.94,1.71,17.87,3.48,26.81,5.18,1.14.22,1.54.68,1.64,1.89A196.87,196.87,0,0,1,78.2,64.32Z"/><path d="M80.51,12.84a4,4,0,0,1-2.63,3.64,3.37,3.37,0,0,1-4.2-1.13q-2.94-4.35-5.44-9a3.68,3.68,0,0,1,1.42-4.78A3.63,3.63,0,0,1,74.32,2a48,48,0,0,1,6,9.94A3.62,3.62,0,0,1,80.51,12.84Z"/><path d="M111.19,5.57c-1.78,3.42-3.49,7.66-7,10.69-1.19,1-2.88.65-4.14-.45s-1.94-2.54-1.19-4.17a50.63,50.63,0,0,1,5.73-9.46,3.41,3.41,0,0,1,4.27-.86C110.39,2,111.19,3.17,111.19,5.57Z"/><path class="cls-1" d="M104.09,83.31h29.72c5.8,0,11.6,0,17.4,0,.63,0,1.43-.34,1.5.89.57,10.73-.34,21.21-5.43,30.93a18.36,18.36,0,0,1-6.55,7.35c-5.08,3.1-10,2.08-14.7-.81-5.37-3.28-9.06-8.17-12.29-13.41A79.73,79.73,0,0,1,104.09,83.31Z"/><path class="cls-1" d="M172.11,182c0,1.53-1,1.95-2.26,2.19q-9,1.77-18,3.51c-7.79,1.52-15.58,3-23.35,4.55-1.79.36-2.73-.12-3-1.94s.09-2.56,2.09-3l41.33-8.1C171,178.89,172.09,179.86,172.11,182Z"/><path class="cls-1" d="M72.19,95c-4.39,10.72-9.29,20.69-19.31,27-6.74,4.23-14,2.72-18.69-3.79S27.71,104,26.93,96.05c-.16-1.63,1-1,1.65-1q15.93,0,31.85,0Z"/><path class="cls-1" d="M54.69,189.24c0,2.53-1.12,3.41-3.36,3l-41-8c-2.2-.43-2.73-1.09-2.33-3s1.07-2.39,3.21-2q20.57,4,41.15,8C53.68,187.62,54.63,188.05,54.69,189.24Z"/><path d="M143.21,62a3.92,3.92,0,0,1-3.16,4.17,3.65,3.65,0,0,1-4.38-2.67c-1.45-4.36-2.79-8.77-4.22-13.14-1.11-3.39-.51-5.61,1.82-6.43,2.49-.88,4.41.43,5.62,3.87,1.48,4.22,2.86,8.47,4,12.8C143,61.14,143.15,61.71,143.21,62Z"/><path class="cls-2" d="M128.82,37a4,4,0,0,1-4-3.92,3.91,3.91,0,0,1,7.82-.18A4,4,0,0,1,128.82,37Z"/><path d="M74,51.06c-.28,4.42-.53,8.84-.87,13.26a3.89,3.89,0,1,1-7.77-.39c.65-7.94.65-15.88.63-23.82a3.87,3.87,0,0,1,3.84-4.06,4,4,0,0,1,3.92,4.06c.14,3.65,0,7.3,0,10.94Z"/><path class="cls-2" d="M67.1,75.91A3.91,3.91,0,0,1,67,83.73a3.91,3.91,0,1,1,.08-7.82Z"/></g></g></svg>