<svg xmlns="http://www.w3.org/2000/svg" viewBox="0 0 200.88 200.88"><defs><style>.cls-1{fill:#3bd8ff;}.cls-2{fill:#fff;}</style></defs><g id="Layer_2" data-name="Layer 2"><g id="Layer_1-2" data-name="Layer 1"><path class="cls-1" d="M169.36,128c-2.65-2-5.51-1.93-8.48-.57q-24.9,11.39-49.8,22.72a3.39,3.39,0,0,1-3.56-.12c-9.62-5.65-19.29-11.2-29-16.73a4.7,4.7,0,0,1-2.49-3.2c-1.76-7-3.7-14-5.57-21-3.12-11.65-6.21-23.31-9.4-34.95-.41-1.49-.11-1.91,1.33-2.17,1.79-.33,3.52-1,5.29-1.42l43.82-11.76c2.27-.61,2.82-1.51,2.17-3.69-.58-1.93-1.21-3.86-2-5.73-10-25-36.27-39.79-62.16-35.77-1.41.21-3,1-4.17.55s-.88-2.55-1.43-3.85c0-.12-.06-.26-.11-.38a2.09,2.09,0,0,0-2.72-1.29,2,2,0,0,0-1.47,2.45,13.21,13.21,0,0,0,.72,2.64c.58,1.39.16,1.88-1.26,2.41-20,7.39-32.52,21.49-37.72,42.16C.86,60.59.91,63,0,65.12v4.31a5.1,5.1,0,0,1,0,3.14v1.18c.24.21.19.51.2.78s0,.57-.2.79v2A1.09,1.09,0,0,1,.21,78a34.67,34.67,0,0,0,1.05,7.16c.75,2.37,2,3.1,4.46,2.6.58-.12,1.14-.29,1.71-.45,15.33-4.14,30.68-8.21,46-12.35,2.46-.66,2.64-.54,3.28,1.86q6.51,24.35,13,48.67a2.88,2.88,0,0,1,.22,2.05,11.46,11.46,0,0,1-2.55-1.27c-18.11-10.47-36.3-20.79-54.31-31.42C7.37,91.45.74,94.78,0,100.43v3.92A8.34,8.34,0,0,0,4.48,110a15.46,15.46,0,0,0,1.52.89,6.55,6.55,0,0,1,3.37,3.64,82.09,82.09,0,0,0,28.57,35.12,5.13,5.13,0,0,1,2.38,4.73c-.08,12.75-.06,25.49,0,38.24,0,4.6,2.08,7.24,6.4,8.29h3.93c3.16-1.11,5.77-2.86,6.2-6.46a2.88,2.88,0,0,1,2-2.64Q82.82,181,106.72,170a2.91,2.91,0,0,1,3.06.13c6.24,3.68,12.53,7.26,18.8,10.88q14.23,8.22,28.48,16.43c4.26,2.44,8.4,1.56,11-2.23,2.95-4.32,1.85-9.15-2.81-11.86q-18.36-10.66-36.76-21.25c-.57-.33-1.13-.69-1.83-1.12l2.87-1.32,38.08-17.32c2.72-1.23,4.7-3.08,5.09-6.19A8.38,8.38,0,0,0,169.36,128ZM57.06,174.71V159.37a89.29,89.29,0,0,0,22.45,5.12Z"/><path class="cls-1" d="M128,37.37c1.43,0,3.15.49,4.23-.13s.58-2.64,1-4a19.87,19.87,0,0,1,1.09-3.53c1.16-2,.71-3.05-1.35-3.91a38.73,38.73,0,0,1-4.42-2.5c-1.9-1.11-2.5-2.3-1.65-3.54,1.17-1.69,2.54-1,3.92-.21,1.85,1.1,3.76,2.1,5.59,3.24.83.51,1.28.46,1.87-.37a24.53,24.53,0,0,1,5.8-5.79c.79-.57.77-1,.31-1.74-1.22-2-2.36-4.05-3.54-6.08-.73-1.26-1-2.55.44-3.43s2.58-.17,3.36,1.2c1.17,2,2.36,4.06,3.51,6.11.38.67.63,1.12,1.59.66a23.51,23.51,0,0,1,7.89-2.16c1.09-.1,1.37-.59,1.33-1.63-.08-2.15,0-4.31,0-6.47,0-1.57.27-2.95,2.18-3.1,1.44-.12,2.23,1,2.25,3,0,2.22.06,4.45,0,6.67,0,1,.26,1.41,1.25,1.5a25.27,25.27,0,0,1,8.08,2.2c.87.4,1.1,0,1.45-.61,1.15-2,2.36-4.06,3.51-6.11.77-1.37,1.81-2.2,3.33-1.31s1.22,2.26.46,3.57c-1.15,2-2.25,4-3.45,5.91-.49.8-.54,1.26.33,1.86a23.81,23.81,0,0,1,5.79,5.8c.62.89,1.07.77,1.85.29,2-1.22,4-2.37,6.09-3.54,1.28-.73,2.56-.87,3.39.57s.12,2.49-1.17,3.24c-2.08,1.21-4.15,2.46-6.28,3.58-.85.45-.89.85-.52,1.66a23.49,23.49,0,0,1,2.08,7.7c.11,1.17.6,1.51,1.75,1.46,2.09-.11,4.18,0,6.28,0s3.33.75,3.2,2.24c-.18,2-1.7,2.18-3.31,2.17-2.09,0-4.18,0-6.27,0-1.06,0-1.53.27-1.63,1.35a24.36,24.36,0,0,1-2.15,7.89c-.35.78-.21,1.11.5,1.5,2.12,1.16,4.19,2.4,6.28,3.59,1.29.74,2.07,1.77,1.28,3.21s-2.2,1.35-3.55.57c-2-1.17-4.09-2.31-6.08-3.53-.77-.48-1.17-.45-1.72.32a24.34,24.34,0,0,1-5.79,5.8c-.83.58-.89,1-.37,1.85,1.21,1.94,2.3,3.94,3.45,5.92.76,1.3,1.09,2.59-.4,3.6-1.21.82-2.4.28-3.44-1.48-1.16-2-2.34-3.92-3.42-5.93-.42-.79-.78-1-1.63-.58a23.47,23.47,0,0,1-7.7,2.11c-1.12.11-1.54.51-1.48,1.71.11,2.28,0,4.58,0,6.86,0,1.48-.54,2.65-2.21,2.64S159.05,78,159,76.56c0-2.29-.08-4.58,0-6.86.06-1.21-.38-1.59-1.49-1.7a23.48,23.48,0,0,1-7.7-2.12c-.88-.41-1.2-.15-1.61.61-1.13,2.06-2.34,4.07-3.51,6.11-.78,1.36-1.84,2.16-3.35,1.26s-1.21-2.15-.48-3.42c1.14-2,2.27-4,3.45-5.91.5-.82.67-1.37-.32-2.05a22.81,22.81,0,0,1-5.66-5.64c-.68-1-1.21-.84-2.05-.33-1.95,1.19-3.94,2.3-5.92,3.44-1.27.74-2.57.93-3.41-.49s-.11-2.57,1.27-3.35c2.05-1.15,4.05-2.38,6.11-3.49.79-.43,1-.77.59-1.63a23.73,23.73,0,0,1-2.12-7.7c-.11-1.1-.48-1.55-1.69-1.49-2.22.12-4.44,0-6.67,0-1.52,0-2.83-.41-2.84-2.21s1.3-2.21,2.84-2.2c1.17,0,2.35,0,3.53,0Z"/><path class="cls-2" d="M165.22,190.15c0,3.4-3.05,5-6.21,3.16q-20.52-11.82-41-23.66L46,128.08,6.87,105.48c-2.65-1.54-3.19-3.37-1.74-5.62,1.21-1.9,3.06-2.29,5.25-1q9.51,5.44,19,10.94l75.22,43.44q29,16.72,57.95,33.43C163.9,187.43,165.32,188.22,165.22,190.15Z"/><path class="cls-2" d="M25.45,49.29a76.75,76.75,0,0,1,3.18-21.82,4.71,4.71,0,0,1,2.45-3,65.79,65.79,0,0,1,9.59-4.37c1.14-.42,1.43-.11,1.71.93Q48.62,44.42,55,67.83c.35,1.28-.14,1.52-1.14,1.79-7.37,1.95-14.75,3.89-22.09,5.94-1.29.37-1.64,0-2-1.1A75.73,75.73,0,0,1,25.45,49.29Z"/><path class="cls-2" d="M56.22,17.28c2.8-.88,5,.67,7.12,2.88a76.88,76.88,0,0,1,20.94,39.5c.21,1.05.26,1.77-1.13,2.13-7.38,1.89-14.73,3.88-22.08,5.89-1.14.32-1.62.31-2-1.06Q53,43.28,46.61,20c-.38-1.39,0-1.63,1.22-1.84A59.88,59.88,0,0,1,56.22,17.28Z"/><path class="cls-2" d="M23.21,30.49C22.59,34,21.85,37.4,21.5,40.9a78.91,78.91,0,0,0,3.89,34.33c.56,1.6.18,2-1.34,2.37C18.49,79,13,80.54,7.45,82.06c-1.14.32-1.81.44-2.08-1.17-3.3-19.54,2.39-36,16.56-49.75a6.54,6.54,0,0,1,.76-.61C22.78,30.47,22.94,30.51,23.21,30.49Z"/><path class="cls-2" d="M67.31,18.14a37.41,37.41,0,0,1,9.15,2.41q23.33,9,32.05,32.46c.54,1.45.28,1.93-1.24,2.31-5.43,1.35-10.86,2.77-16.21,4.38-2,.59-2.4,0-2.76-1.79A78.7,78.7,0,0,0,69,19.85c-.26-.29-.52-.58-.8-.86S67.8,18.59,67.31,18.14Z"/><path class="cls-2" d="M45.12,132.65c2.4,1.37,4.46,2.61,6.58,3.74.87.46.92,1.11.92,1.92q0,25.89,0,51.78v2c0,2.77-1.26,4.24-3.69,4.27s-3.79-1.47-3.79-4.18q0-20.89,0-41.78Z"/><path class="cls-2" d="M113.89,153.49,136,143.43l26.51-12.08c2.65-1.2,4.36-.72,5.47,1.48s.41,4.15-2.2,5.35q-12.63,5.76-25.27,11.49c-5.64,2.56-11.29,5.1-16.9,7.71a2.94,2.94,0,0,1-3.24-.12C118.33,155.94,116.19,154.82,113.89,153.49Z"/><path class="cls-2" d="M103.62,166.41l-15.41,7L58.89,186.79c-1.9.87-1.6.81-2-1.27-.83-4.77,1.18-7,5.57-8.82,10.7-4.42,21.15-9.45,31.68-14.28a2.61,2.61,0,0,1,2.84.14C99.11,163.89,101.29,165.07,103.62,166.41Z"/><path class="cls-2" d="M90.8,159a7,7,0,0,1-4.36,1.27A82.73,82.73,0,0,1,58.52,155,2,2,0,0,1,57,152.77c.09-4.3,0-8.6,0-13.28Z"/><path class="cls-2" d="M15.58,116.11c.81-.31,1.19.16,1.61.4,7.4,4.26,14.77,8.55,22.2,12.76a2.42,2.42,0,0,1,1.38,2.46c-.07,4.43,0,8.86,0,13.69A79.21,79.21,0,0,1,15.58,116.11Z"/><path class="cls-2" d="M137,39.47A24.28,24.28,0,1,1,161.16,63.7,24.36,24.36,0,0,1,137,39.47Z"/><path class="cls-1" d="M108.78,162.49a2,2,0,0,1-2.22-2.19,2,2,0,0,1,2.08-2.14,2.17,2.17,0,0,1,.14,4.33Z"/><path class="cls-1" d="M51.05,125.49A2,2,0,0,1,49,127.6a2,2,0,0,1-2.26-2.13A2,2,0,0,1,49,123.31,2.08,2.08,0,0,1,51.05,125.49Z"/><path class="cls-1" d="M48.86,184.64c1.29.13,2.11.76,2.15,2.09a2.15,2.15,0,1,1-4.3,0A2.06,2.06,0,0,1,48.86,184.64Z"/></g></g></svg>