<svg xmlns="http://www.w3.org/2000/svg" viewBox="0 0 199.25 199.24"><defs><style>.cls-1{fill:#3bd8ff;}.cls-2{fill:#565656;}.cls-3{fill:#727272;}.cls-4{fill:#141414;}.cls-5{fill:#fff;}</style></defs><g id="Layer_2" data-name="Layer 2"><g id="Layer_1-2" data-name="Layer 1"><path class="cls-1" d="M.34,167.28a18.27,18.27,0,0,1,3.91-9.56,11.62,11.62,0,0,1,6.43-4.08c2.51-.6,5-1.34,7.49-2-4-10.55-2.29-20.42,3.57-29.68,3-4.68,6.94-8.21,12.79-8.87,2.24-.26,4.34.46,6.75,1.11a80.65,80.65,0,0,1-2.74-8.58c-2.13-9.46-.11-18.08,5.2-26.06,3.25-4.88,7.19-9.18,10.88-13.7,4.2-5.15,8-10.51,9.34-17.22a28.8,28.8,0,0,0-.29-12.33c-.46-2-.38-3.75,1.4-5.05,1.49-1.09,3.18-.84,5.35.68A41.06,41.06,0,0,1,84.61,48.22c2.89-6.54,7.26-11.75,11.12-17.3,4.45-6.4,4-13,1-19.71-.77-1.71-1.6-3.39-2.47-5.05s-1-3.23.22-4.71A3.89,3.89,0,0,1,99.18.36q22.35,8.25,29.59,30.93c2.65,8.34,3,16.92,2.13,25.58,0,.43-.06.86-.12,1.68a29.49,29.49,0,0,0,7-11.39,34.18,34.18,0,0,0,1.12-4.11,3.83,3.83,0,0,1,3.19-3.44,3.94,3.94,0,0,1,4.24,2.06A92.49,92.49,0,0,1,158,67.34c4.29,15.07,4.88,30.23.9,45.48a5.54,5.54,0,0,0-.1,1c10.5-1.61,17.36,2.76,21.79,13.79,3.28,8.16,3.41,14.21.54,24,1.93.53,3.84,1.18,5.8,1.55,7.3,1.41,10.71,6.43,11.86,13.18,1.56,9.1-.65,17.48-5.91,25a19.42,19.42,0,0,1-11.11,7.88h-4.28c-18.38-4.24-36.45-9.61-54.7-14.36-7.27-1.89-14.52-3.9-21.79-5.83a5.38,5.38,0,0,0-2.87,0q-36,9.63-71.95,19.31c-1.56.42-3.2.37-4.75.83H17.12c-5-.83-8.49-3.79-11.23-7.81-3.28-4.81-5.73-9.94-5.69-16-.1-.77.22-1.57-.2-2.32v-1.94c.41-.66.11-1.4.2-2.09A5.5,5.5,0,0,1,.34,167.28Z"/><path class="cls-2" d="M.34,177.61a1.86,1.86,0,0,1-.34-.06v-2.34A2.94,2.94,0,0,1,.34,177.61Z"/><path class="cls-3" d="M.34,169.33l0,1.88c0,.27-.13.31-.32.11v-1.94Z"/><path class="cls-4" d="M0,171.32a1.21,1.21,0,0,1,.32-.11c0,.7.32,1.45-.32,2.06Z"/><path class="cls-5" d="M72.46,44.53a29.25,29.25,0,0,1,7.3,14.3,53,53,0,0,1,.92,9.66,3.91,3.91,0,0,0,4,4.13c2.18-.05,3.63-1.62,3.78-4.1,0-.45,0-.9,0-1.36a39.11,39.11,0,0,1,7.45-22.49c1.41-2,2.82-3.88,4.19-5.85,1.11-1.59,2.21-3.19,3.22-4.85A23.63,23.63,0,0,0,106,15.46c-.19-.81-.39-1.61-.68-2.75A39.07,39.07,0,0,1,118.3,26.78c4,7.37,5.36,15.34,5.27,23.62a77.88,77.88,0,0,1-2,16.37c-.41,1.84-.25,3.5,1.39,4.7s3.27.86,4.9-.11a39.68,39.68,0,0,0,15.85-17.43c.72.16.77.83,1,1.29,7.1,14.66,10.42,30,8.57,46.33a76.33,76.33,0,0,1-3.17,14.38,1.94,1.94,0,0,1-1.59,1.43q-10.61,2.81-21.18,5.67c-1.12.3-1.75.4-1.36-1.12a12.69,12.69,0,0,0,.29-2.7A3.86,3.86,0,0,0,123,115a3.74,3.74,0,0,0-4.38,3.17c-.39,2-.69,4.08-1,6.14A1.67,1.67,0,0,1,116.2,126c-5.14,1.31-10.24,2.74-15.36,4.13a4.54,4.54,0,0,1-2.48,0q-10-2.7-20-5.37c-.82-.22-1.35-.52-1.52-1.46-1.28-6.86-.78-13.41,3.28-19.56a43.55,43.55,0,0,0,3,5.5,20,20,0,0,0,4,4.25c1.83,1.44,3.5,1.55,5.3.08,8.7-7.1,14.71-15.92,17.09-27,.12-.56.26-1.13.45-2,.72,1.05,1.28,2,1.94,2.8a3.8,3.8,0,0,0,5.18,1,3.84,3.84,0,0,0,1.26-5.29,54,54,0,0,0-9.47-11.78,3.68,3.68,0,0,0-4.31-.73,3.61,3.61,0,0,0-2.24,3.93c1.23,11.6-3.08,21.15-10.85,29.42-1.56,1.65-1.56,1.64-2.69-.41A22.33,22.33,0,0,1,86,95.26c-.21-1.85-1-3.26-2.77-3.83a4.09,4.09,0,0,0-4.37,1.36c-7.59,7.73-11.45,16.84-10.33,27.78.16,1.57-.25,1.51-1.49,1.16-4.79-1.36-9.61-2.62-14.43-3.89a2.13,2.13,0,0,1-1.58-1c-3.09-5.74-5.63-11.64-5.61-18.35,0-5.77,2.32-10.67,5.55-15.24C54.5,78.36,58.67,74,62.38,69.23c4.5-5.78,8.18-12,9.4-19.34C72.06,48.2,72.22,46.49,72.46,44.53Z"/><path class="cls-5" d="M175.1,144.6c-.58,4.72-2,6.42-6.2,7.54L33.44,188.48c-.5.13-1,.23-1.67.38,2-11.19-.53-21.14-8.08-30,2.14-.59,4.21-1.19,6.28-1.74Q95.84,139.5,161.7,121.83a6.21,6.21,0,0,1,6.12,1.35c3.79,3.26,5.73,7.58,6.91,12.32.23.92-.12,1.22-1,1.42-1.89.42-3.75,1-5.62,1.5-2.42.7-3.61,2.61-3.06,4.85s2.66,3.24,5.05,2.66c.81-.2,1.63-.4,2.44-.62S174.14,144.87,175.1,144.6Z"/><path class="cls-5" d="M83.85,134.64c-5,1.35-9.94,2.71-14.91,4-13.61,3.65-27.23,7.26-40.81,11-1.8.49-2.57,0-3.16-1.57a21.54,21.54,0,0,1-.52-12.24c.21-1,.7-.71,1.25-.58,2.06.53,4.11,1.12,6.19,1.62A3.87,3.87,0,1,0,34,129.47c-2-.64-4.11-1.13-6.36-1.74a14.67,14.67,0,0,1,5.49-5.67,4.88,4.88,0,0,1,3.75-.39q23.49,6.31,47,12.6Z"/><path class="cls-5" d="M145.61,167.87l29.67-7.94c-7.15,9-9.81,18.91-7.76,30.38L114.7,176.16c4.44-1.19,8.4-2.07,12.24-3.35a11.86,11.86,0,0,1,7.54.14c2.41.73,4.87,1.32,7.3,2s4.27.17,5.27-1.56S147.63,169.91,145.61,167.87Z"/><path class="cls-5" d="M24.67,181.3c0,3.06-.29,5.62-1.54,8-1.6,3-3.84,3.63-6.72,1.77a16.63,16.63,0,0,1-6-7.47C8,178.19,6.93,172.63,8.52,166.79a10.76,10.76,0,0,1,1.13-2.66c1.48-2.45,3.43-3,5.93-1.58a13.36,13.36,0,0,1,4.67,4.57A26.28,26.28,0,0,1,24.67,181.3Z"/><path class="cls-5" d="M174.57,182.63a26.57,26.57,0,0,1,5-14.9,13.13,13.13,0,0,1,3.77-3.58c2.72-1.66,5-1.08,6.49,1.71a15.29,15.29,0,0,1,1.64,7.69,26.15,26.15,0,0,1-5.61,16.17,11.73,11.73,0,0,1-3.17,2.83c-2.76,1.68-4.9,1.12-6.47-1.71C174.81,188.33,174.58,185.57,174.57,182.63Z"/><path class="cls-1" d="M125.29,102.85a3.88,3.88,0,1,1-7.76-.14,3.88,3.88,0,0,1,7.76.14Z"/><path class="cls-5" d="M120.3,149.72a3.58,3.58,0,0,1-2.83,3.18q-4.36,1.31-8.81,2.36a3.78,3.78,0,0,1-4.49-2.77,3.58,3.58,0,0,1,2.26-4.56,97.86,97.86,0,0,1,9.53-2.59C118.26,144.84,120.3,146.8,120.3,149.72Z"/><path class="cls-5" d="M61.15,166.67a3.77,3.77,0,0,1-3,3.81q-4.19,1.22-8.42,2.26A3.82,3.82,0,0,1,45,170.05a3.73,3.73,0,0,1,2.57-4.75c3-.91,6-1.72,9-2.41A3.78,3.78,0,0,1,61.15,166.67Z"/></g></g></svg>