<svg xmlns="http://www.w3.org/2000/svg" viewBox="0 0 199.4 199.8"><defs><style>.cls-1{fill:#010101;}.cls-2{fill:#3bd8ff;}</style></defs><g id="Layer_2" data-name="Layer 2"><g id="Layer_1-2" data-name="Layer 1"><path d="M.09,195.42c2.06-4.09,3.41-8.48,5-12.74q14.52-38.24,29-76.49c.12-.3.22-.61.34-.91.66-1.63,1.82-2.6,3.62-2.25s2.52,1.61,2.56,3.4a60.66,60.66,0,0,0,2.85,16.84c3.17,10.23,10,17.36,19,22.71a107.12,107.12,0,0,0,21.91,9.83c1.58.5,2.92,1.14,3.06,3s-1.16,2.82-2.74,3.54q-30.19,13.95-60.39,27.94c-6.28,2.9-12.57,5.78-18.84,8.7-.37.17-.92.16-1.07.7H2a2.4,2.4,0,0,1-1.95-2Z"/><path d="M119.6,0a7.09,7.09,0,0,1,2.26,3c1.69,3.78,3.45,7.53,5.09,11.33a3.87,3.87,0,0,0,2.25,2.18c4,1.71,7.91,3.53,11.88,5.25,1.42.62,2.51,1.49,2.53,3.11s-1.1,2.62-2.59,3.26c-4,1.73-7.9,3.56-11.89,5.25A3.78,3.78,0,0,0,127,35.64c-1.67,3.94-3.45,7.82-5.16,11.74-.63,1.44-1.41,2.64-3.2,2.65s-2.61-1.13-3.24-2.6c-1.72-4-3.51-7.93-5.22-11.92a3.57,3.57,0,0,0-2.08-2.09c-4.29-1.79-8.53-3.7-12.8-5.55a2.82,2.82,0,0,1-1.83-2.72,3,3,0,0,1,2-3c4.08-1.79,8.14-3.64,12.24-5.39a4,4,0,0,0,2.35-2.33c1.6-3.82,3.33-7.59,5-11.39a7,7,0,0,1,2.24-3Z"/><path class="cls-1" d="M185,0a4.52,4.52,0,0,1,2,4.45c-.14,1.61,0,3.24,0,4.85a3.1,3.1,0,1,1-6.19,0c-.06-2,0-4,0-6,0-1.55,1-2.39,2-3.29Z"/><path d="M.09,197.76l2,2Q-.43,200.24.09,197.76Z"/><path d="M34.36,52.46c.78-4.11,1.54-8.39,2.44-12.64a2.22,2.22,0,0,0-.68-2.38c-2.28-2.22-4.47-4.52-6.72-6.78a3.19,3.19,0,0,1,1.91-5.75c2.9-.34,5.78-.82,8.67-1.17a2.81,2.81,0,0,0,2.66-2c1.25-3.33,2.78-6.55,4.15-9.84.59-1.44,1.45-2.48,3.11-2.49s2.54,1,3.14,2.45c1.42,3.41,2.91,6.78,4.3,10.2a2.13,2.13,0,0,0,1.92,1.55c3.15.38,6.28.9,9.43,1.32a3.2,3.2,0,0,1,2.89,2.23,3.16,3.16,0,0,1-1,3.36c-2.31,2.37-4.6,4.77-6.95,7.1A2.11,2.11,0,0,0,63,39.82c.83,4,1.5,8,2.3,12a3.32,3.32,0,0,1-1.27,3.78c-1.38.94-2.69.53-4-.37-3-2.14-6.06-4.22-9.05-6.39a1.63,1.63,0,0,0-2.23,0c-3.11,2.21-6.28,4.36-9.42,6.54a3.13,3.13,0,0,1-5-3Z"/><path d="M162,169.47c.78-4.06,1.52-8.34,2.46-12.58a2.38,2.38,0,0,0-.83-2.52c-2.17-2.14-4.28-4.35-6.44-6.51-1-1-1.76-2.12-1.26-3.63s1.71-2.11,3.27-2.29c2.9-.35,5.77-.85,8.66-1.22a2.55,2.55,0,0,0,2.37-1.84c1.31-3.38,2.82-6.68,4.21-10,.59-1.43,1.45-2.46,3.12-2.47s2.53,1,3.13,2.46c1.37,3.29,2.88,6.52,4.14,9.85a2.79,2.79,0,0,0,2.63,2c2.77.33,5.52.77,8.28,1.14,1.58.21,2.92.77,3.46,2.4s-.33,2.72-1.39,3.78c-2.12,2.11-4.18,4.27-6.31,6.36a2.37,2.37,0,0,0-.83,2.52c.86,3.93,1.48,7.91,2.28,11.85.31,1.55.14,2.86-1.19,3.81s-2.79.55-4.11-.39c-2.9-2.06-5.88-4-8.74-6.16a1.92,1.92,0,0,0-2.7,0c-3.05,2.2-6.18,4.28-9.28,6.41a3,3,0,0,1-3.46.18A3.09,3.09,0,0,1,162,169.47Z"/><path d="M177.24,93.83c-.05,1.76-1.13,2.6-2.51,3.22-3.89,1.74-7.77,3.51-11.67,5.22a3.9,3.9,0,0,0-2.23,2.22c-1.67,4-3.49,7.94-5.21,11.91-.64,1.48-1.51,2.6-3.27,2.56s-2.49-1.17-3.09-2.55c-1.76-4-3.56-8-5.29-12.09a3.4,3.4,0,0,0-2-2c-4.11-1.72-8.18-3.55-12.28-5.29-1.49-.63-2.62-1.54-2.59-3.26s1.09-2.48,2.53-3.1c4-1.7,7.9-3.53,11.88-5.23a3.81,3.81,0,0,0,2.23-2.2c1.66-3.94,3.44-7.81,5.13-11.73.66-1.53,1.5-2.81,3.33-2.78s2.56,1.23,3.19,2.7c1.66,3.86,3.42,7.68,5.06,11.55a4.27,4.27,0,0,0,2.45,2.49c4.05,1.7,8,3.56,12.05,5.33A3.24,3.24,0,0,1,177.24,93.83Z"/><path d="M90.4,47.15A108.88,108.88,0,0,1,83,78.25a159.2,159.2,0,0,1-27.1,44.89c-1.48,1.74-2.9,2.11-4.39,1.25-1.89-1.08-2.1-3.21-.46-5.14A158,158,0,0,0,65.72,98.68C74,84.88,80.43,70.31,83.18,54.3c.42-2.42.67-4.88,1-7.33.26-2.13,1.51-3.39,3.33-3.28A3.13,3.13,0,0,1,90.4,47.15Z"/><path d="M65.32,131.06a3,3,0,0,1-2.61-1.82,3,3,0,0,1,.65-3.57c2.27-2.41,4.56-4.82,6.89-7.16C83.92,104.79,98,91.56,114,80.57a76.79,76.79,0,0,1,15.28-8.41c2-.8,3.64-.23,4.4,1.5a3.06,3.06,0,0,1-1.92,4.23c-9.79,4-18.13,10.25-26.26,16.81a382.7,382.7,0,0,0-37.12,34.68A4.12,4.12,0,0,1,65.32,131.06Z"/><path d="M139.45,137.2c-17.91-1.37-34,4.35-49.43,12.72-1.31.71-2.56,1.52-3.85,2.27-1.87,1.11-3.59.82-4.57-.76s-.52-3.32,1.3-4.47a112.7,112.7,0,0,1,25.24-11.79,83,83,0,0,1,26.31-4.44c1.81,0,3.62.19,5.43.32,2.27.16,3.59,1.45,3.46,3.34S141.72,137.38,139.45,137.2Z"/><path d="M54,76.91a149.72,149.72,0,0,1-3.75,34.93c-.07.31-.17.62-.26.93a3.37,3.37,0,0,1-4.07,2.66c-1.71-.37-2.6-2-2.19-4.15.68-3.49,1.5-7,2.08-10.48a137.92,137.92,0,0,0,1.13-36.47c0-.45-.1-.91-.12-1.36-.07-2.12,1-3.55,2.88-3.67s3.09,1.09,3.37,3.23A138.37,138.37,0,0,1,54,76.91Z"/><path d="M22.78,90.5c-2,0-3.07-.57-3.71-1.86-2.06-4.11-4.16-8.19-6.14-12.33A3,3,0,0,1,15,71.78c4-1.07,8-2.08,12-3.06a3.22,3.22,0,0,1,4,1.91c2,4,4,8,6,12,.93,1.92.49,3.88-1.31,4.43C31.27,88.4,26.74,89.46,22.78,90.5Z"/><path d="M180.71,46.8a4.14,4.14,0,0,1-.63,2c-1.87,3.77-3.72,7.55-5.63,11.31-1.39,2.74-3.56,3.08-5.76.9q-5.81-5.76-11.56-11.57c-2-2-1.79-3.91.52-5.49,2.84-1.93,5.72-3.81,8.56-5.74a3.24,3.24,0,0,1,4-.09c3,2,6,4,9,6A3.23,3.23,0,0,1,180.71,46.8Z"/><path d="M121.3,109.17a3.15,3.15,0,0,1,3.36,2.91,3.1,3.1,0,0,1-2.85,3.34,48.71,48.71,0,0,0-9.75,2.53,86.93,86.93,0,0,0-28.2,17.87A3.94,3.94,0,0,1,81,137.27a3,3,0,0,1-2.84-2,3,3,0,0,1,.89-3.53,85,85,0,0,1,9.36-7.9c8.91-6.5,18.44-11.72,29.35-14C119,109.55,120.32,109.35,121.3,109.17Z"/><path d="M115.32,183.93a3.35,3.35,0,0,1-1.57,2.88l-9,6a3.06,3.06,0,0,1-4.22-.44c-3-3-6.08-6-9.06-9.09a3,3,0,0,1,0-4.66c1.93-2,3.92-4,5.9-5.93a3.06,3.06,0,0,1,4.37-.38q6.15,4.59,12.27,9.22A3.24,3.24,0,0,1,115.32,183.93Z"/><path class="cls-1" d="M174.47,18.72c-1,0-2.07.05-3.1,0a3.08,3.08,0,0,1-3.09-3.09,3,3,0,0,1,3-3.11c2.13-.08,4.26-.09,6.39,0a3,3,0,0,1,3,3.16,3.13,3.13,0,0,1-3,3h-3.29Z"/><path class="cls-1" d="M193.18,12.49c1,0,2.07-.05,3.1,0a3.09,3.09,0,0,1,3.12,3.06,3,3,0,0,1-3,3.13c-2.13.09-4.27.09-6.4,0a3,3,0,0,1-3-3.15,3.08,3.08,0,0,1,3.13-3C191.12,12.44,192.15,12.49,193.18,12.49Z"/><path class="cls-1" d="M140.22,162.33c0,1.1.07,2.21,0,3.3a3.08,3.08,0,0,1-3.1,2.87,3,3,0,0,1-3-2.9c-.1-2.2-.1-4.41,0-6.6a3,3,0,0,1,3-3,3.07,3.07,0,0,1,3.17,3c.08,1.09,0,2.2,0,3.3Z"/><path class="cls-1" d="M180.74,24.93c0-1.1-.07-2.21,0-3.3a3.08,3.08,0,0,1,3.07-2.9,3,3,0,0,1,3.09,2.87q.15,3.3,0,6.6a3.09,3.09,0,0,1-6.17,0C180.67,27.13,180.73,26,180.74,24.93Z"/><path class="cls-1" d="M127.82,174.73c-1.1,0-2.2.07-3.29,0a3.08,3.08,0,0,1-3-3.19,3,3,0,0,1,3-3c2.2-.09,4.4-.1,6.59,0a3,3,0,0,1,2.87,3.08,3.07,3.07,0,0,1-2.88,3.08C130,174.81,128.92,174.73,127.82,174.73Z"/><path class="cls-1" d="M146.42,174.73c-1.1,0-2.2.08-3.29,0a3.06,3.06,0,0,1-2.88-3.08,3,3,0,0,1,2.87-3.08,58.81,58.81,0,0,1,6.77,0,2.87,2.87,0,0,1,2.78,3,3.11,3.11,0,0,1-2.76,3.2h-3.49Z"/><path class="cls-1" d="M134,181c0-1.1-.07-2.21,0-3.3a3.06,3.06,0,0,1,3-2.92,3,3,0,0,1,3.11,2.84c.11,2.26.11,4.54,0,6.8a3,3,0,0,1-3.13,2.82,3.06,3.06,0,0,1-3-2.95C134,183.18,134,182.08,134,181Z"/><path d="M53,134c0-2.93,0-2.93,2.91-2.93,3.31,0,3.31,0,3.31,3.31,0,2.93,0,2.93-2.91,2.93C53,137.3,53,137.3,53,134Z"/><path d="M71.88,137.3c3,0,3,0,3,3.08s0,3.16-3.08,3.16-3.15,0-3.15-3.08S68.61,137.3,71.88,137.3Z"/><path class="cls-2" d="M35.88,118.92a61.3,61.3,0,0,0,2.83,9.47c3.88,9.73,10.79,16.77,19.51,22.27a92.5,92.5,0,0,0,17.13,8.61c-.18.71-.86.74-1.33,1-8,3.79-16,7.52-24,11.35a1.71,1.71,0,0,1-2.42-.58,65.56,65.56,0,0,1-16.27-38.34,4.55,4.55,0,0,1,.21-2.09C32.94,126.89,34.29,123.18,35.88,118.92Z"/><path class="cls-2" d="M26.75,144.1A70.07,70.07,0,0,0,42.69,175c-6,2.75-11.85,5.41-17.69,8.13-.9.42-1-.09-1.12-.69q-2.29-9.15-4.59-18.28a2.37,2.37,0,0,1,.1-1.51c2.31-6,4.59-12.1,6.89-18.15C26.31,144.35,26.47,144.3,26.75,144.1Z"/><path class="cls-2" d="M8.86,190.38l6.39-16.79c.75,3,1.39,5.53,2,8.07,1.08,4.39,1.09,4.42-3,6.31A35,35,0,0,1,8.86,190.38Z"/><path class="cls-2" d="M132.38,25c-2.71,1.18-5,2.26-7.31,3.14a5.75,5.75,0,0,0-3.52,3.59c-.88,2.3-1.93,4.52-3.09,7.21-1-2.27-2-4.17-2.69-6.18a7.38,7.38,0,0,0-5.09-5.1c-2-.65-3.87-1.65-6.2-2.68,2.72-1.17,5-2.21,7.41-3.17a5.53,5.53,0,0,0,3.33-3.29c.92-2.4,2-4.73,3.2-7.49,1.23,2.8,2.36,5.23,3.36,7.7a4.85,4.85,0,0,0,2.9,2.91C127.14,22.59,129.53,23.72,132.38,25Z"/><path class="cls-2" d="M42,46.1c.51-2.83.9-5.26,1.41-7.66a3.58,3.58,0,0,0-1.08-3.54c-1.43-1.39-2.88-2.78-4.56-4.39a22.62,22.62,0,0,1,5.41-1,4.44,4.44,0,0,0,4.14-3.22c.67-1.87,1.6-3.65,2.59-5.86,1,2.29,1.92,4.24,2.75,6.23a3.9,3.9,0,0,0,3.44,2.71c1.9.2,3.79.58,5.69.88l.4.58c-1.4,1.23-2.77,2.49-4.21,3.67a4.23,4.23,0,0,0-1.36,4.56c.44,2.13.81,4.27,1.32,7-2.21-1.53-4-2.7-5.68-3.94a3.55,3.55,0,0,0-4.63,0C45.93,43.43,44.15,44.61,42,46.1Z"/><path class="cls-2" d="M177.62,137.35c1,2.33,1.93,4.2,2.69,6.12a4.09,4.09,0,0,0,3.75,2.87c1.8.15,3.59.53,5.71.86-1.49,1.54-2.81,3-4.24,4.35a4.08,4.08,0,0,0-1.34,4.19c.49,2.27.85,4.57,1.36,7.31l-4.26-2.94c-3.67-2.54-3.72-2.53-7.34-.05a25.35,25.35,0,0,1-4.38,2.81c.48-2.42.88-4.61,1.36-6.77a4.48,4.48,0,0,0-1.46-4.73c-1.07-.94-2-2-3-3.07-.24-.26-.73-.47-.53-.92s.68-.24,1-.32.65-.06,1-.12c6.82-1.19,5.47,0,8.37-6.58C176.71,139.49,177.07,138.62,177.62,137.35Z"/><path class="cls-2" d="M152.33,79.88c1.2,2.79,2.27,5.14,3.23,7.53a5.18,5.18,0,0,0,3.15,3.17c2.46.94,4.84,2.1,7.53,3.28-2.7,1.24-5.12,2.44-7.62,3.46a5.41,5.41,0,0,0-3.15,3.2c-.95,2.32-2,4.6-3.13,7.31-1.24-2.8-2.39-5.23-3.38-7.71a5,5,0,0,0-2.91-2.92c-2.49-1-5-2.14-7.69-3.34,2.78-1.21,5.25-2.32,7.75-3.35a4.72,4.72,0,0,0,2.78-2.77C149.9,85.24,151.05,82.79,152.33,79.88Z"/><path class="cls-2" d="M29.73,82.18c-2.09.46-4.3,1.92-6,1.19-1.34-.58-1.85-3.07-2.71-4.71-.27-.51-.5-1-.73-1.51.1-.11.13-.18.17-.2C26.68,75,26.68,75,29.73,82.18Z"/><path class="cls-2" d="M170.51,54c-.29-.23-.5-.36-.68-.53l-6-6c1.37-1,2.67-1.84,3.94-2.75.47-.33.81-.18,1.22.1,1.28.87,2.56,1.73,3.87,2.56a.93.93,0,0,1,.34,1.44C172.27,50.48,171.42,52.21,170.51,54Z"/><path class="cls-2" d="M99.89,178.82l.88.63c1.74,1.33,3.46,2.68,5.21,4,.61.46.71.7,0,1.23-2.49,1.84-2.47,1.88-4.67-.31-.82-.82-1.66-1.62-2.45-2.47-.31-.33-1-.59-.56-1.23S99.36,179.43,99.89,178.82Z"/></g></g></svg>