<svg xmlns="http://www.w3.org/2000/svg" viewBox="0 0 184.34 199.6"><defs><style>.cls-1{fill:#3bd8ff;}.cls-2{fill:#fff;}</style></defs><g id="Layer_2" data-name="Layer 2"><g id="Layer_1-2" data-name="Layer 1"><path class="cls-1" d="M41.44,39.74c0-4.36,0-8.72,0-13.08,0-1.13-.29-1.61-1.45-1.89-4.42-1.09-8.79-2.35-13.2-3.48-1.83-.47-3.1-1.42-3-3.41s1.3-2.7,3.06-3.16Q54.11,7.52,81.34.23a5.77,5.77,0,0,1,3.14,0q27.15,7.23,54.31,14.41c1.67.44,3.09,1.08,3.29,3a3.09,3.09,0,0,1-2.57,3.54c-.89.25-.71.85-.71,1.41,0,7.11,0,14.22,0,21.33a1.89,1.89,0,0,0,1.2,1.84c5.83,3.27,5.25,2.4,5.26,9.4,0,4.7,0,9.4,0,14.09,0,1.56-.22,3-1.73,3.8s-2.94.23-4.24-.79-2.49-2.49-3.74-2.48-2.51,1.56-3.73,2.49-2.5,1.61-4.06.87-1.84-2.27-1.83-3.9c0-5.84.08-11.68,0-17.51,0-2.15.63-3.71,2.65-4.45,3.25-1.18,4.13-3.36,3.91-6.77-.35-5.27-.12-10.59-.08-15.89,0-1.14-.16-1.6-1.44-1.15a23.63,23.63,0,0,1-4.65,1.23c-1.53.22-1.9.88-1.89,2.37.07,8.45,0,16.9,0,25.36,0,2.74-.81,3.74-3.51,4.21-9.9,1.74-19.72,3.87-29.64,5.46a61.33,61.33,0,0,1-21.19-.76c-8.35-1.6-16.71-3.13-25.07-4.69-2.66-.49-3.55-1.51-3.56-4.21C41.43,48.19,41.44,44,41.44,39.74Z"/><path class="cls-1" d="M33.82,139.73a4,4,0,0,1-6,3.44,72.92,72.92,0,0,1-6.22-4.06,2.24,2.24,0,0,0-3.14-.05c-1.87,1.4-3.91,2.58-5.87,3.86a3.91,3.91,0,0,1-4.86,0,3.83,3.83,0,0,1-1.39-4.46c.69-2.38,1.26-4.79,2-7.16a1.9,1.9,0,0,0-.78-2.39c-1.93-1.44-3.78-3-5.66-4.5-1.47-1.19-2.28-2.64-1.64-4.58A4,4,0,0,1,4.36,117c2.41-.06,4.82-.28,7.23-.32a1.71,1.71,0,0,0,1.88-1.35c.81-2.33,1.75-4.63,2.61-6.94a4,4,0,0,1,7.77,0c.87,2.32,1.83,4.6,2.63,6.94a1.82,1.82,0,0,0,2,1.41c2.48,0,4.95.24,7.43.34a3.8,3.8,0,0,1,3.79,2.75,3.92,3.92,0,0,1-1.42,4.49c-2,1.6-3.93,3.24-6,4.77a1.66,1.66,0,0,0-.67,2.18c.8,2.62,1.43,5.29,2.12,7.94A3,3,0,0,1,33.82,139.73Z"/><path class="cls-1" d="M77.06,117.93a4,4,0,0,1-2.48-.9c-1.79-1.18-3.68-2.23-5.35-3.56-1.42-1.12-2.47-1-3.82.06-1.76,1.33-3.67,2.46-5.53,3.66a4,4,0,0,1-6.17-4.62c.64-2.32,1.17-4.68,1.91-7a1.9,1.9,0,0,0-.77-2.52c-1.94-1.44-3.76-3-5.66-4.51A4,4,0,0,1,47.61,94a3.9,3.9,0,0,1,4-2.77c2.41-.07,4.82-.29,7.24-.32a1.81,1.81,0,0,0,2-1.42c.8-2.34,1.77-4.62,2.63-6.94a4,4,0,0,1,7.77.06c.85,2.32,1.82,4.61,2.62,6.94a1.72,1.72,0,0,0,1.88,1.35c2.55,0,5.1.24,7.64.36a4,4,0,0,1,2.37,7.13c-2,1.63-3.93,3.24-6,4.78a1.86,1.86,0,0,0-.75,2.38c.76,2.49,1.46,5,2.06,7.55A4,4,0,0,1,77.06,117.93Z"/><path class="cls-1" d="M174,161.44a5,5,0,0,1-2.77-1.12c-2.32-1.43-4.5-4.16-6.92-4.06s-4.56,2.53-6.77,4c-1.76,1.19-3.53,1.72-5.38.39s-1.9-3.18-1.27-5.22c.68-2.24,1.16-4.54,1.85-6.78a1.43,1.43,0,0,0-.61-1.84c-2-1.56-4-3.2-6-4.77a4,4,0,0,1-1.54-4.63,3.89,3.89,0,0,1,4-2.75c2.48-.06,5-.28,7.44-.33a1.58,1.58,0,0,0,1.73-1.23c.78-2.2,1.63-4.38,2.46-6.57.92-2.41,2.22-3.51,4.15-3.44,2.18.07,3.33,1.39,4,3.35.77,2.21,1.73,4.35,2.47,6.57a1.69,1.69,0,0,0,1.89,1.32c2.48.06,5,.26,7.44.35a3.89,3.89,0,0,1,3.92,2.85,3.82,3.82,0,0,1-1.51,4.43c-1.86,1.54-3.73,3.07-5.66,4.52a2.1,2.1,0,0,0-.85,2.71c.78,2.42,1.42,4.89,2,7.36A3.94,3.94,0,0,1,174,161.44Z"/><path class="cls-1" d="M138,120.35a4,4,0,0,1-2.49-.86c-2-1.33-4.06-2.61-6-4a1.83,1.83,0,0,0-2.46,0c-2,1.4-4,2.66-6,4-1.67,1.11-3.39,1.33-5,.08a3.94,3.94,0,0,1-1.34-4.67c.71-2.37,1.25-4.8,2-7.16a1.61,1.61,0,0,0-.67-2c-2-1.54-4-3.18-6-4.77a4,4,0,0,1,2.44-7.29c2.48-.08,4.95-.28,7.43-.33a1.71,1.71,0,0,0,1.88-1.35c.8-2.34,1.78-4.62,2.63-6.94a4,4,0,0,1,7.76-.06c.84,2.26,1.8,4.47,2.54,6.76a2.06,2.06,0,0,0,2.33,1.61c2.34,0,4.69.24,7,.31a3.91,3.91,0,0,1,4,2.78,4,4,0,0,1-1.59,4.6c-1.84,1.47-3.62,3-5.5,4.39a2,2,0,0,0-.92,2.67c.8,2.4,1.43,4.88,2,7.35A4,4,0,0,1,138,120.35Z"/><path class="cls-1" d="M82.48,172.56c0,1,0,2,0,3a3.21,3.21,0,0,1-3.08,3.1,3.17,3.17,0,0,1-3.32-3c-.16-2.06-.28-4.13-.31-6.2A3.27,3.27,0,0,1,79,165.8c1.82,0,3.06,1.27,3.22,3.36.09,1.13.14,2.26.22,3.4Z"/><path class="cls-1" d="M74.47,124.52c-.21,1.82-.9,2.93-2.33,3.34a2.94,2.94,0,0,1-3.65-1.35A70.14,70.14,0,0,1,65.35,120a2.88,2.88,0,0,1,1.1-3.56,2.76,2.76,0,0,1,3.71,0C72.49,118.74,73.36,121.88,74.47,124.52Z"/><path class="cls-1" d="M137.87,157.15a3.17,3.17,0,0,1-3-2.07,2.87,2.87,0,0,1,.81-3.46,68.36,68.36,0,0,1,5.79-4.26,2.86,2.86,0,0,1,4,.7,2.78,2.78,0,0,1,.07,4,37.2,37.2,0,0,1-6.55,4.86A2.81,2.81,0,0,1,137.87,157.15Z"/><path class="cls-1" d="M56,170.85a3.34,3.34,0,0,1-3.26-2.49c-.59-2-1.22-4-1.77-5.93a3.09,3.09,0,0,1,2-4,3,3,0,0,1,3.92,1.81A57.22,57.22,0,0,1,59,167.15,3.1,3.1,0,0,1,56,170.85Z"/><path class="cls-1" d="M110.32,115.1a3.57,3.57,0,0,1-.69,2.07c-1,1.58-1.95,3.18-2.94,4.75-1.15,1.82-2.8,2.37-4.41,1.52a3.19,3.19,0,0,1-1.19-4.65c1.07-1.91,2.25-3.78,3.51-5.58a2.86,2.86,0,0,1,3.53-1.1A3.07,3.07,0,0,1,110.32,115.1Z"/><path class="cls-1" d="M48.21,144.45a3.39,3.39,0,0,1-2,2.92,2.75,2.75,0,0,1-3.34-.5,69.46,69.46,0,0,1-4.78-5.64,2.84,2.84,0,0,1,.34-3.84c1.08-1.14,2.55-1.55,3.8-.6a20.93,20.93,0,0,1,5.74,6.8A3.15,3.15,0,0,1,48.21,144.45Z"/><path class="cls-1" d="M73.17,144c-.09-2.16.91-3.48,2.7-3.73a3,3,0,0,1,3.53,2.5,63.06,63.06,0,0,1,1,6.7,3.08,3.08,0,0,1-2.62,3.46,3.14,3.14,0,0,1-3.7-2.57C73.72,148.19,73.47,146,73.17,144Z"/><path class="cls-1" d="M127.57,167.55a3.56,3.56,0,0,1-.73,2.25c-1.16,1.64-2.29,3.29-3.49,4.88s-3,2-4.55.95a3.22,3.22,0,0,1-.71-4.6c1.17-1.78,2.43-3.51,3.72-5.21a3,3,0,0,1,3.75-1A3.08,3.08,0,0,1,127.57,167.55Z"/><path class="cls-1" d="M100.71,139.37c-.38,2-.73,4.44-1.35,6.82a2.84,2.84,0,0,1-3.4,2.14,2.89,2.89,0,0,1-2.74-3.15,31.06,31.06,0,0,1,1.37-7.45,2.93,2.93,0,0,1,3.47-2.06C99.65,135.89,100.7,137.23,100.71,139.37Z"/><path class="cls-1" d="M62,190.32c0,1,0,2,0,3a2.94,2.94,0,0,1-2.89,3,2.8,2.8,0,0,1-3.28-2.3,27.23,27.23,0,0,1-.23-8.16,2.74,2.74,0,0,1,3.06-2.33,3,3,0,0,1,3.14,2.79A33.12,33.12,0,0,1,62,190.32Z"/><path class="cls-1" d="M110.38,199.59a3.19,3.19,0,0,1-3.47-3.54,30.29,30.29,0,0,1,2.24-7.23,3.16,3.16,0,0,1,5.93,2.05,63.21,63.21,0,0,1-2.15,6.85A2.85,2.85,0,0,1,110.38,199.59Z"/><path class="cls-1" d="M97.34,167.41c-.09,1.2-.14,2.41-.28,3.61a3.13,3.13,0,0,1-3.18,3,3.09,3.09,0,0,1-3.17-3,56,56,0,0,1,.44-7.21,3.18,3.18,0,0,1,6.29.62c0,1,0,2,0,3Z"/><path class="cls-1" d="M96.59,193.31c0,1,0,2,0,3a3.22,3.22,0,0,1-3.31,3.28,3.17,3.17,0,0,1-3.1-3.27c-.06-2,0-4,0-6a3.21,3.21,0,1,1,6.42,0c0,1,0,2,0,3Z"/><path class="cls-1" d="M76.41,195.6c0-2.54,1.12-4,3.12-4s3.34,1.54,3.32,4.1-1.29,4-3.28,3.94S76.41,198.12,76.41,195.6Z"/><path class="cls-2" d="M119.86,25.71c0,7.8,0,15.4,0,23,0,1.15-.76,1.14-1.46,1.27-7.06,1.29-14.21,2.25-21.19,3.9-13,3.07-25.66.64-38.35-1.83q-5.8-1.12-11.63-2.15c-.88-.16-1.3-.34-1.3-1.36C46,41,46,33.47,46,25.69L59.47,29.1c7.22,1.84,14.45,3.66,21.65,5.58a8.55,8.55,0,0,0,4.55-.25C97,31.54,108.27,28.67,119.86,25.71Z"/><path class="cls-2" d="M36.62,16.91c15.31-4.08,30-8,44.74-11.93a6.05,6.05,0,0,1,3.16,0l43.94,11.71c.11,0,.19.15.56.46l-8.19,2.17c-11.8,3.14-23.61,6.26-35.4,9.46a8.84,8.84,0,0,1-4.84,0c-13.73-3.69-27.49-7.3-41.24-10.94C38.61,17.61,37.9,17.33,36.62,16.91Z"/><path class="cls-2" d="M140.87,65.75c-3.65-2.57-7.05-3.14-10.82.37,0-5.94-.08-11.09,0-16.24,0-1.7,4.85-3.76,6.65-3.06,2.88,1.12,4.8,2.47,4.39,5.81-.49,4-.12,8-.13,12C141,64.84,141,65,140.87,65.75Z"/><path class="cls-2" d="M114.45,97.79c7.9.93,12.32-2.26,13.7-10.11,1.55,7.69,5.74,11.16,13.8,10-6.8,3.88-8.86,9-5.14,16.29-5.89-5.52-11.4-5.57-17.19.08C123,106.92,121.57,101.6,114.45,97.79Z"/><path class="cls-2" d="M53.62,94.71c7.9.93,12.32-2.26,13.7-10.11,1.55,7.68,5.74,11.15,13.8,10-6.8,3.88-8.86,9-5.14,16.29-5.88-5.52-11.4-5.57-17.19.09C62.19,103.84,60.74,98.52,53.62,94.71Z"/><path class="cls-2" d="M6.22,120.49c7.91.93,12.33-2.27,13.71-10.12,1.54,7.69,5.74,11.16,13.8,10-6.8,3.88-8.86,9-5.14,16.29-5.89-5.52-11.4-5.57-17.19.09C14.79,129.62,13.34,124.3,6.22,120.49Z"/><path class="cls-2" d="M150.61,139.66c7.91.93,12.33-2.26,13.71-10.11,1.54,7.69,5.74,11.16,13.8,10-6.8,3.88-8.86,9-5.14,16.29-5.89-5.52-11.4-5.57-17.19.08C159.18,148.79,157.73,143.47,150.61,139.66Z"/></g></g></svg>