<svg xmlns="http://www.w3.org/2000/svg" viewBox="0 0 200.52 201.29"><defs><style>.cls-1{fill:#3bd8ff;}.cls-2{fill:#fff;}.cls-3{fill:#414141;}</style></defs><g id="Layer_2" data-name="Layer 2"><g id="Layer_1-2" data-name="Layer 1"><path class="cls-1" d="M200.52,191.91c-.47.19-.34.65-.46,1-1.67,4.83-5,7.8-10.1,8.3A11.09,11.09,0,0,1,178.48,195c-4.57-8.47-9-17-13.55-25.51-2.68-5.06-5.38-10.11-8-15.2-.55-1.08-1-1.29-2.23-.85a58,58,0,0,1-12.62,3.34c-1.36.18-1.78.66-1.76,2.09q.1,12.91,0,25.84a10,10,0,0,1-15.65,8.11,9.9,9.9,0,0,1-4.37-8.71c0-8.42,0-16.83,0-25.25,0-1.39-.35-1.9-1.73-2.09a54.54,54.54,0,0,1-12.43-3.29c-1.38-.54-1.86-.2-2.5,1-7,13.31-14,26.58-21.06,39.87-2.17,4.12-5.45,6.66-10.15,6.91a11.57,11.57,0,0,1-11-16.75c4.33-8.67,9-17.18,13.53-25.75,2.91-5.52,5.82-11.05,8.8-16.54.57-1.07.68-1.73-.39-2.59a53.57,53.57,0,0,1-6.4-6.47c-.54.27-.49.71-.62,1.07a10,10,0,0,1-9.64,6.9c-23.51.21-44.86-17.46-49-40.6-.12-.64-.25-1.28-.34-1.93-.19-1.35.1-3.39-.65-3.89-1.06-.7-2.87-.27-4.36-.32a21.71,21.71,0,0,1-4.48-.27A9.9,9.9,0,0,1,.05,84.6Q0,71,.05,57.39a9.75,9.75,0,0,1,9-9.66,46.72,46.72,0,0,1,6.26-.1c1.24,0,1.66-.32,1.78-1.57a48.28,48.28,0,0,1,9.2-24.37A49.42,49.42,0,0,1,61.1,1.2c.3,0,.66.05.8-.37h1.56a.51.51,0,0,0,.79,0h4.3c6.12,1.17,8.8,4.47,8.8,10.86q0,26.72,0,53.42v1.56c0,2.27.22,2.4,2.38,1.6C90.14,64.4,101,62.5,112,61.3a181.24,181.24,0,0,1,27.16-.65c13.85.55,27.56,2.42,40.69,7.17,5.59,2,11,4.42,15.48,8.55,2.8,2.59,5.07,5.41,5.23,9.43v5.88a.9.9,0,0,0,0,1.17v2a67.54,67.54,0,0,1-2.5,13.36,68.66,68.66,0,0,1-16.34,27.91c-1.23,1.26-2.47,2.51-3.73,3.73a1.79,1.79,0,0,0-.38,2.43c4.42,8.57,9,17,13.51,25.58,2.79,5.3,5.55,10.62,8.44,15.87.69,1.24.6,2.63,1,3.92Z"/><path class="cls-1" d="M111.24.83c2.38,1.53,2.78,2.62,2.07,5.41a10,10,0,0,1-3.56,5.46,25.19,25.19,0,0,0-2.07,1.78,2,2,0,0,0,0,3.09,24.92,24.92,0,0,0,2.07,1.78c5.1,4.1,5.14,10.88.09,15-3.93,3.2-3.93,3.65,0,6.78a9.56,9.56,0,0,1,3.78,7.41,3.26,3.26,0,0,1-2.89,3.38,3.14,3.14,0,0,1-3.6-2.58c-.18-1.8-1.25-2.77-2.48-3.74-5.82-4.61-5.77-11.2.12-15.8,3-2.37,3-3.44,0-5.85-5.88-4.62-5.9-11.2-.06-15.78,1.24-1,2.36-1.95,2.44-3.76.06-1.26,1.23-1.9,2.19-2.57Z"/><path class="cls-1" d="M151.57.83c2.22,1.78,2.58,3.08,1.7,5.93a10.78,10.78,0,0,1-4.16,5.5c-2.76,2.07-2.87,3.51,0,5.45,5.83,4,6.33,11.89-.06,16.37-2.77,2-2.67,3.36.13,5.46a10.19,10.19,0,0,1,4.48,7.24c.23,2.21-.78,3.76-2.67,4.11a3.23,3.23,0,0,1-3.82-3,4.52,4.52,0,0,0-2.16-3.1c-6.29-4.33-5.78-12.25,0-16.2,2.84-1.94,2.86-3.5,0-5.44-5.75-3.89-6.45-11.9.11-16.33a3.94,3.94,0,0,0,2-3.16c.07-1.39,1.19-2,2.08-2.85Z"/><path class="cls-1" d="M131.6.83c2.23,1.93,2.59,3.53,1.44,6.51a10.39,10.39,0,0,1-3.53,4.58c-3.4,2.61-3.38,3.56,0,6.18,4,3.11,5.2,7.46,3.3,11.57a10.55,10.55,0,0,1-3.18,3.9c-3.52,2.78-3.5,3.6.11,6.42a9.56,9.56,0,0,1,3.93,7.32,3.26,3.26,0,0,1-2.84,3.6,3.18,3.18,0,0,1-3.66-2.75,5,5,0,0,0-2.28-3.43c-6-4.87-6-11.23.07-16,2.86-2.26,2.87-3.36,0-5.62-6.11-4.84-6.17-11.19-.12-16,1.2-1,2.22-1.93,2.32-3.62.08-1.29,1.22-1.9,2.11-2.62Z"/><path class="cls-2" d="M200.52,92c-.63-.4-.44-.79,0-1.18Z"/><path class="cls-3" d="M64.25,0c-.26.39-.52.5-.79,0Z"/><path class="cls-2" d="M70.17,70.21v58.72c0,3.81-1,4.75-4.74,4.65A43.42,43.42,0,0,1,23.83,96a45.49,45.49,0,0,1-.37-6c0-13.18-.06-26.36,0-39.54.1-21,13.83-38.11,34.32-42.78a39.71,39.71,0,0,1,8.14-1C69,6.64,70.17,7.8,70.17,10.9Z"/><path class="cls-2" d="M192.47,99.85a61.72,61.72,0,0,1-6.81,18.21,63,63,0,0,1-11.51,14.73c-.82.77-1.16,1-1.92-.18a11.64,11.64,0,0,0-20.16,11.63c1,1.8.43,2.15-1.19,2.7a63.22,63.22,0,0,1-41.24-.05c-1.69-.56-1.85-1-1-2.58,3.93-7.64-.29-16.08-8.71-17.25-4.82-.67-8.7,1.3-11.31,5.42-.76,1.2-1.16,1.14-2.07.24a66.84,66.84,0,0,1-9-10.78,3.41,3.41,0,0,1-.65-2c0-5,0-10,0-15.06.59-.31,1,.06,1.47.24,11.23,4.49,23,6.54,35,7.66a171.29,171.29,0,0,0,29.7.35c13.67-1.09,27.21-2.85,40-8.24A75.33,75.33,0,0,0,192.47,99.85Z"/><path class="cls-2" d="M193.84,188.85A5,5,0,0,1,185,192a10,10,0,0,1-1-1.66q-12.91-24.37-25.82-48.78c-1.85-3.51-.36-7,3.22-7.76,2.25-.45,4.25.59,5.55,3q5.25,9.79,10.44,19.63l15.41,29.14A6.81,6.81,0,0,1,193.84,188.85Z"/><path class="cls-2" d="M103.4,138.68a5.69,5.69,0,0,1-.88,2.95Q89.6,166,76.69,190.41c-1.64,3.08-4.45,4.15-7.12,2.78s-3.42-4.29-1.78-7.4q12.93-24.49,25.91-49c1.38-2.6,3.48-3.62,5.92-3A4.91,4.91,0,0,1,103.4,138.68Z"/><path class="cls-2" d="M130.14,106.72c-2.73,0-5.47,0-8.21,0-1,0-1.3-.32-1.2-1.38q1.81-18.18,3.5-36.37c.15-1.55.54-2.25,2.3-2.13,2.79.19,5.6.08,8.4.06.87,0,1.35.07,1.45,1.2q1.67,18.39,3.51,36.76c.16,1.57-.35,1.91-1.73,1.88-2.67-.05-5.35,0-8,0Z"/><path class="cls-2" d="M117.57,69.1c-1.13,11.83-2.27,23.37-3.29,34.92-.17,1.9-.81,2.32-2.61,2-4.23-.73-8.49-1.29-12.75-1.9-1.06-.15-1.53-.37-1.15-1.72,3-10.89,6-21.81,8.89-32.74a1.75,1.75,0,0,1,1.83-1.55c2.34-.14,4.68-.42,7-.71C117.06,67.21,118.29,67.24,117.57,69.1Z"/><path class="cls-2" d="M144.4,67.32c3,.31,5.48.62,8,.81,1,.08,1.3.52,1.54,1.4q4.45,16.45,9,32.89c.35,1.26,0,1.53-1.15,1.73-4.36.76-8.75,1.32-13.13,1.91-1.6.21-2.07-.19-2.22-1.85-1-11.67-2.13-23.34-3.29-35C143,67.76,143,66.79,144.4,67.32Z"/><path class="cls-2" d="M99.72,69.81q-2.09,7.68-4.16,15.36c-1.41,5.2-2.89,10.4-4.23,15.62-.33,1.27-.69,1.48-2,1.1A85.88,85.88,0,0,1,78,97.72a1.76,1.76,0,0,1-1.21-1.91c0-5.93,0-11.86,0-17.8,0-.81,0-1.44,1-1.87a84.36,84.36,0,0,1,21.4-6.47C99.31,69.65,99.44,69.73,99.72,69.81Z"/><path class="cls-2" d="M16.77,70.26c0,5-.05,10,0,15,0,1.31-.37,1.7-1.65,1.61-1.62-.11-3.26,0-4.89,0a3.33,3.33,0,0,1-3.55-3.57q0-13.09,0-26.2a3.27,3.27,0,0,1,3.48-3.61c1.69-.08,3.39,0,5.08,0,1.22-.07,1.54.38,1.52,1.56C16.73,60.09,16.77,65.17,16.77,70.26Z"/><path class="cls-2" d="M160.81,69.39c3.12.7,5.89,1.33,8.66,1.93.78.16,1,.75,1.26,1.34,3.49,8.12,7,16.25,10.5,24.35.45,1,.19,1.37-.8,1.76-3.08,1.24-6.22,2.29-9.4,3.24-1,.31-1.31,0-1.57-.94C166.65,90.66,163.78,80.25,160.81,69.39Z"/><path class="cls-2" d="M133.66,171.08c0,4,0,8.09,0,12.13,0,2.38-1.24,3.83-3.19,3.91s-3.47-1.49-3.47-3.87c0-8.29,0-16.57,0-24.86,0-1.09.28-1.56,1.41-1.4a8.93,8.93,0,0,0,1.37,0c3.93,0,3.93,0,3.93,4.08Z"/><path class="cls-2" d="M178.68,74.26c4.37,1.78,8.2,3.5,11.44,6.29,6.12,5.26,4,9.87-1.77,14-.65.46-.89.14-1.13-.42C184.44,87.67,181.66,81.19,178.68,74.26Z"/><path class="cls-1" d="M30.16,49.34c.42-16.15,12.74-30.85,28.73-34.28,2.2-.47,4,.48,4.46,2.4s-.67,3.57-2.92,4.12a30,30,0,0,0-20.5,16.11,28.59,28.59,0,0,0-3.1,12.2,5.71,5.71,0,0,1-.33,2.31,3.11,3.11,0,0,1-3.62,2,3,3,0,0,1-2.71-2.88A16,16,0,0,1,30.16,49.34Z"/></g></g></svg>