<svg xmlns="http://www.w3.org/2000/svg" viewBox="0 0 199.65 200.15"><defs><style>.cls-1{fill:#3bd7fe;}.cls-2{fill:#fff;}</style></defs><g id="Layer_2" data-name="Layer 2"><g id="Layer_1-2" data-name="Layer 1"><path class="cls-1" d="M191.37,143.37c0,8.37-.16,16.74,0,25.1.15,5.65-2.16,9.88-6.37,13.3-5.59,4.52-12.13,7.2-18.87,9.39-13.27,4.31-27,6.49-40.8,7.76a286.74,286.74,0,0,1-42.67.77c-18.28-1-36.37-3.29-53.79-9.3-6-2.08-11.77-4.64-16.75-8.72A15.87,15.87,0,0,1,5.9,168.54q.22-25.11,0-50.21a15.81,15.81,0,0,1,6.27-13.13c6.08-4.94,13.24-7.67,20.59-10a17.72,17.72,0,0,0,5.72-2.84c3.9-3,8-5.79,11.82-8.85a27.21,27.21,0,0,1,10.06-5L79.44,73.4a20.16,20.16,0,0,1,5.42-.52,236.94,236.94,0,0,1,38.29,3c8,1.36,15.8,3.87,23.66,6a7.79,7.79,0,0,1,5.7,5.8c.92,3.67,3,5.26,6.73,6.13,8.6,2,16.95,4.92,24.23,10.15,3.74,2.69,6.89,5.88,7.71,10.7a17.66,17.66,0,0,1,.18,2.82Q191.38,130.41,191.37,143.37Z"/><path class="cls-1" d="M121.36,54.1a18,18,0,1,1-18.09-17.92A18,18,0,0,1,121.36,54.1Z"/><path class="cls-1" d="M55.65,42.48a24.35,24.35,0,0,1,3.08-11.83c1.19-2.34,2.42-4.65,3.66-7,3-5.6,2.7-11.1-.5-16.52-.48-.81-1-1.6-1.42-2.44A2.63,2.63,0,0,1,61.35,1a2.52,2.52,0,0,1,3.76.65C69.57,8.17,71.74,15.14,68.84,23a52.41,52.41,0,0,1-4.36,8.86c-4.19,7-4.2,13.69.43,20.44,1.3,1.9,1,3.6-.64,4.53s-2.94.34-4.18-1.58C57.09,50.56,55.65,46.21,55.65,42.48Z"/><path class="cls-1" d="M14.48,16.25c.09,3.69-1.33,7.37-3.14,10.94Q9.6,30.61,7.78,34c-3,5.68-2.68,11.23.53,16.7.45.75.95,1.48,1.34,2.26a2.74,2.74,0,0,1-1,3.85,2.64,2.64,0,0,1-3.73-.88C.25,49-1.68,41.7,1.73,33.61c1.41-3.36,3.24-6.49,4.93-9.7,3.15-6,2.72-11.76-.78-17.42-.36-.58-.75-1.13-1-1.73A2.79,2.79,0,0,1,5.84.9a2.6,2.6,0,0,1,3.72.87C12.43,6,14.5,10.57,14.48,16.25Z"/><path class="cls-1" d="M42.33,15.45a24,24,0,0,1-3,11c-1.18,2.34-2.4,4.67-3.66,7-3.23,5.89-2.72,11.62.7,17.23.38.63.8,1.25,1.14,1.9a2.62,2.62,0,0,1-.91,3.71,2.51,2.51,0,0,1-3.75-.67C28.33,49,26.19,42,29.2,34a54.13,54.13,0,0,1,4.3-8.66c4.19-6.95,4.16-13.7-.46-20.44-1.27-1.84-1-3.42.5-4.41S36.6,0,37.88,2C40.86,6.69,42.32,11.09,42.33,15.45Z"/><path class="cls-1" d="M157.31,41.23a24.18,24.18,0,0,1,3-10.8c1.21-2.4,2.49-4.76,3.76-7.14,3-5.67,2.74-11.23-.54-16.69-.45-.75-.92-1.49-1.33-2.27a2.64,2.64,0,0,1,1-3.84,2.53,2.53,0,0,1,3.72.81c4.47,6.63,6.59,13.66,3.53,21.55a56.81,56.81,0,0,1-4.31,8.66c-4.13,6.9-4.11,13.59.47,20.26,1.32,1.93,1,3.6-.55,4.56s-3,.39-4.2-1.5C159.18,50.68,157.3,46.27,157.31,41.23Z"/><path class="cls-1" d="M199.65,15.88c0,3.71-1.37,7.4-3.2,11-1.11,2.15-2.25,4.28-3.41,6.41-3.31,6.11-2.74,12,.88,17.77,1.65,2.61,1.6,4.26,0,5.28s-3.1.36-4.75-2.28c-4.79-7.65-5.36-15.48-1-23.53,1.3-2.43,2.54-4.9,3.83-7.33,2.92-5.54,2.66-11-.46-16.34a29.73,29.73,0,0,1-1.52-2.62,2.67,2.67,0,0,1,1-3.7,2.56,2.56,0,0,1,3.74.74C197.6,5.54,199.66,10.17,199.65,15.88Z"/><path class="cls-2" d="M11.26,127.19c10.46,7.9,22.39,11.22,34.55,13.73C72,146.33,98.4,147,125,144.71c15.14-1.32,30.06-3.79,44.42-9a54,54,0,0,0,16-8.62v2.29c0,12.95-.12,25.91.06,38.86a10.86,10.86,0,0,1-4.58,9.35c-4.47,3.48-9.6,5.67-14.89,7.52-11.89,4.15-24.22,6.3-36.7,7.67A279.94,279.94,0,0,1,82.55,194c-18.42-1.07-36.63-3.32-54.1-9.72A47.8,47.8,0,0,1,16.31,178a11.4,11.4,0,0,1-5.13-10.1c.24-12.82.08-25.64.08-38.46Z"/><path class="cls-2" d="M82.12,115.86c.73-8.23,1.46-16.9,2.27-25.56.34-3.72-1.1-5-4.71-4-6,1.67-12.05,3.38-18.08,5a10.43,10.43,0,0,0-3.54,1.85q-10.62,7.91-21.28,15.77c-1.91,1.42-3.8,1.37-5.08-.05a3.28,3.28,0,0,1,.45-5c8-6,15.92-12,24.07-17.77,2.85-2,6.55-2.39,9.9-3.37,4.58-1.33,9.21-2.52,13.84-3.69,4.4-1.11,8.87-.51,13.29-.28,8.89.45,17.78,1.06,26.61,2.25,5.54.75,10.84,2.62,16.27,3.92,2.68.64,5.33,1.43,8,2.09a3.69,3.69,0,0,1,2.73,2.45c2.67,7,5.35,14.08,8,21.13.8,2.15,0,4-1.8,4.75s-3.73-.12-4.6-2.39c-2.2-5.72-4.37-11.44-6.47-17.18a4.53,4.53,0,0,0-3.49-3.2c-5.36-1.29-10.68-2.77-16-4.14-2.75-.7-4.09.32-4.34,3.15-.77,8.86-1.58,17.73-2.32,26.6-.09,1-.34,1.31-1.39,1.37a259.74,259.74,0,0,1-29.53-.19C81.93,119.22,81.93,119.15,82.12,115.86Z"/><path class="cls-2" d="M25.47,103.81a9.81,9.81,0,0,0,.73,7c.31.58-.16.8-.49,1.15-3.42,3.6-2.53,7.94,2,9.86a128.42,128.42,0,0,0,30.54,8.19,275.09,275.09,0,0,0,56.92,2.37c16.79-.93,33.4-3.09,49.34-8.87,1.58-.57,3.13-1.24,4.68-1.88a5.68,5.68,0,0,0-.09-10.67c-2.63-1-5.27-2-7.95-2.91a2.86,2.86,0,0,1-2-2c-.78-2.33-1.68-4.61-2.64-7.2,8.19,2.23,15.89,4.7,22.76,9.26a18.33,18.33,0,0,1,4,3.43c2.78,3.31,2.74,6.34-.1,9.6a23.91,23.91,0,0,1-6.54,5c-7.18,4-14.95,6.39-22.9,8.25-20.69,4.85-41.72,6.16-62.89,5.66-18.72-.44-37.26-2.37-55.32-7.65a68,68,0,0,1-17-7.2,21.53,21.53,0,0,1-5-4.09c-2.88-3.3-2.89-6.46,0-9.76,2.54-2.9,5.86-4.7,9.24-6.42C23.52,104.61,24.4,104.28,25.47,103.81Z"/><path class="cls-2" d="M150.51,121.89c-38.89,9.21-97.3,6-120.8-5.52a3.8,3.8,0,0,1,3.2-.84c2.06.34,4.24.22,5.8-1.13,3.41-3,7.58-3.64,11.71-4.49A218.68,218.68,0,0,1,76,106.32c1.65-.14,1.18.82,1.11,1.58-.35,4.24-.79,8.46-1.11,12.7-.22,3,.61,3.87,3.62,4.11a277.54,277.54,0,0,0,37.82.41c2.65-.15,3.43-.84,3.69-3.55q.66-6.64,1.12-13.31c.09-1.34.47-1.85,1.93-1.64,5.07.74,10.15,1.37,15.24,2a2,2,0,0,1,1.83,1.54c.54,1.66,1.25,3.27,1.85,4.91a9,9,0,0,0,7.38,6.12A.41.41,0,0,1,150.51,121.89Z"/><path class="cls-2" d="M54.38,103.32c6.23-7.24,15.37-8.22,24.07-10.79-.21,2.44-.43,4.75-.58,7.07-.07,1.15-.9,1-1.59,1-6.43.56-12.85,1.24-19.22,2.3A8.79,8.79,0,0,1,54.38,103.32Z"/><path class="cls-2" d="M138.23,102.58c-4.86-.55-9.71-1.12-14.56-1.65-.72-.08-.62-.51-.64-1-.19-5.19.13-5.47,5-4.2A29.82,29.82,0,0,0,133.05,97C136.54,97.3,137.73,99.5,138.23,102.58Z"/><path class="cls-2" d="M156.78,119.91a10,10,0,0,0,3.73-5.24c.14-.42.15-.91.9-.6a38,38,0,0,1,5.67,2.37A51.63,51.63,0,0,1,156.78,119.91Z"/><path class="cls-2" d="M150.51,121.89v-.7h1.94C151.65,121.61,151.18,122,150.51,121.89Z"/><path class="cls-2" d="M115.32,54.3a12.3,12.3,0,0,1-24.6-.13,12.3,12.3,0,1,1,24.6.13Z"/></g></g></svg>