<svg xmlns="http://www.w3.org/2000/svg" id="canvas" viewBox="207.820 237.106 981.465 163.291"><path d="M 218.02,264.57 C 217.69 265.30, 217.59 266.16, 217.26 268.29 C 216.93 270.41, 216.72 271.72, 216.38 275.19 C 216.04 278.67, 215.92 280.98, 215.57 285.67 C 215.22 290.35, 215.04 293.16, 214.62 298.62 C 214.20 304.09, 213.93 307.29, 213.47 313.00 C 213.01 318.70, 212.73 321.86, 212.33 327.14 C 211.93 332.43, 211.78 335.15, 211.48 339.42 C 211.17 343.68, 210.81 345.68, 210.82 348.46 C 210.82 351.23, 211.06 352.31, 211.52 353.30 C 211.97 354.28, 212.48 354.28, 213.11 353.37 C 213.74 352.46, 214.22 351.41, 214.66 348.73 C 215.10 346.05, 215.03 344.08, 215.30 339.97 C 215.58 335.86, 215.72 333.22, 216.05 328.19 C 216.39 323.16, 216.54 320.21, 216.97 314.83 C 217.41 309.45, 217.63 306.51, 218.22 301.31 C 218.82 296.10, 219.22 293.42, 219.94 288.81 C 220.65 284.21, 221.06 282.12, 221.80 278.28 C 222.55 274.44, 223.05 272.64, 223.66 269.63 C 224.26 266.62, 224.55 265.05, 224.83 263.22 C 225.11 261.39, 225.06 260.77, 225.05 260.47 C 225.04 260.18, 224.80 260.38, 224.78 261.73 C 224.76 263.09, 224.73 264.40, 224.97 267.26 C 225.21 270.13, 225.57 272.10, 225.98 276.05 C 226.40 280.00, 226.61 282.54, 227.04 287.01 C 227.47 291.48, 227.71 293.99, 228.12 298.40 C 228.54 302.81, 228.71 305.09, 229.13 309.05 C 229.55 313.02, 229.71 315.03, 230.21 318.24 C 230.70 321.46, 230.96 322.94, 231.60 325.11 C 232.25 327.29, 232.59 328.07, 233.44 329.11 C 234.29 330.16, 234.82 330.44, 235.85 330.34 C 236.88 330.25, 237.50 330.02, 238.59 328.63 C 239.68 327.24, 240.28 326.13, 241.30 323.41 C 242.33 320.69, 242.67 318.86, 243.71 315.01 C 244.75 311.16, 245.27 308.77, 246.50 304.15 C 247.72 299.53, 248.42 296.71, 249.84 291.90 C 251.26 287.08, 252.10 284.49, 253.58 280.08 C 255.06 275.67, 255.84 273.46, 257.25 269.85 C 258.66 266.25, 259.51 264.60, 260.63 262.06 C 261.74 259.53, 262.18 258.36, 262.83 257.18 C 263.47 255.99, 263.59 255.70, 263.86 256.15 C 264.13 256.60, 264.02 257.27, 264.16 259.42 C 264.30 261.57, 264.47 263.19, 264.58 266.89 C 264.68 270.59, 264.75 273.01, 264.67 277.91 C 264.60 282.80, 264.42 285.79, 264.21 291.36 C 263.99 296.94, 263.81 300.03, 263.61 305.77 C 263.40 311.51, 263.29 314.59, 263.18 320.06 C 263.06 325.53, 263.03 328.32, 263.03 333.12 C 263.03 337.92, 262.99 340.21, 263.17 344.08 C 263.34 347.96, 263.42 349.79, 263.90 352.49 C 264.39 355.18, 264.91 356.09, 265.59 357.56 C 266.27 359.02, 266.86 359.41, 267.30 359.81 C 267.74 360.20, 267.89 360.07, 267.79 359.53 C 267.70 358.98, 267.22 358.57, 266.82 357.10 C 266.42 355.63, 266.21 354.79, 265.79 352.17 C 265.37 349.54, 265.00 347.80, 264.71 343.99 C 264.42 340.18, 264.40 337.89, 264.34 333.11 C 264.28 328.33, 264.29 325.54, 264.39 320.08 C 264.48 314.62, 264.59 311.55, 264.81 305.81 C 265.04 300.08, 265.23 296.99, 265.52 291.42 C 265.81 285.85, 266.03 282.87, 266.27 277.96 C 266.50 273.05, 266.69 270.63, 266.69 266.86 C 266.69 263.10, 266.73 261.40, 266.27 259.13 C 265.81 256.87, 265.29 256.10, 264.39 255.54 C 263.48 254.98, 262.87 255.22, 261.74 256.35 C 260.62 257.49, 259.98 258.64, 258.78 261.23 C 257.58 263.82, 257.07 265.61, 255.75 269.29 C 254.44 272.97, 253.67 275.19, 252.22 279.63 C 250.76 284.07, 249.92 286.67, 248.47 291.49 C 247.02 296.31, 246.30 299.13, 244.97 303.73 C 243.65 308.32, 243.07 310.70, 241.84 314.45 C 240.61 318.20, 239.82 319.85, 238.83 322.48 C 237.84 325.10, 237.52 326.20, 236.89 327.57 C 236.26 328.94, 236.14 329.19, 235.68 329.35 C 235.22 329.51, 235.03 329.32, 234.58 328.37 C 234.13 327.43, 233.95 326.70, 233.44 324.62 C 232.94 322.53, 232.61 321.09, 232.07 317.94 C 231.53 314.79, 231.22 312.81, 230.74 308.87 C 230.27 304.93, 230.08 302.65, 229.68 298.25 C 229.27 293.85, 229.04 291.34, 228.72 286.87 C 228.39 282.39, 228.28 279.86, 228.06 275.88 C 227.85 271.91, 227.99 269.88, 227.64 266.99 C 227.29 264.10, 226.90 262.79, 226.32 261.42 C 225.74 260.04, 225.37 259.84, 224.73 260.12 C 224.09 260.40, 223.71 260.98, 223.12 262.81 C 222.53 264.64, 222.34 266.22, 221.77 269.26 C 221.21 272.30, 220.93 274.14, 220.30 278.01 C 219.67 281.88, 219.27 283.98, 218.60 288.61 C 217.93 293.24, 217.54 295.94, 216.95 301.16 C 216.36 306.38, 216.13 309.34, 215.65 314.72 C 215.17 320.10, 215.00 323.06, 214.53 328.07 C 214.05 333.08, 213.75 335.71, 213.28 339.78 C 212.81 343.85, 212.40 345.77, 212.18 348.42 C 211.95 351.08, 212.12 352.13, 212.16 353.07 C 212.20 354.01, 212.26 354.05, 212.38 353.14 C 212.49 352.22, 212.62 351.22, 212.73 348.49 C 212.85 345.77, 212.76 343.75, 212.94 339.50 C 213.11 335.25, 213.25 332.51, 213.60 327.23 C 213.96 321.95, 214.24 318.80, 214.71 313.10 C 215.18 307.40, 215.47 304.19, 215.97 298.74 C 216.47 293.28, 216.71 290.48, 217.20 285.81 C 217.70 281.15, 218.07 278.88, 218.47 275.41 C 218.87 271.95, 219.12 270.63, 219.21 268.48 C 219.30 266.32, 219.15 265.40, 218.91 264.62 C 218.67 263.84, 218.35 263.83, 218.02 264.57" style="stroke: black; fill: black;"/><path d="M 301.73,299.88 C 302.02 299.51, 302.14 298.96, 302.16 298.11 C 302.18 297.26, 302.20 296.63, 301.83 295.63 C 301.47 294.63, 301.17 293.88, 300.33 293.10 C 299.50 292.33, 298.90 291.89, 297.64 291.76 C 296.37 291.63, 295.62 291.59, 294.02 292.45 C 292.42 293.31, 291.38 293.93, 289.65 296.07 C 287.92 298.22, 287.10 299.76, 285.37 303.19 C 283.64 306.63, 282.59 308.85, 280.99 313.24 C 279.39 317.63, 278.56 320.37, 277.37 325.15 C 276.18 329.93, 275.74 332.67, 275.05 337.12 C 274.36 341.58, 274.04 343.88, 273.94 347.42 C 273.84 350.97, 273.94 352.57, 274.56 354.85 C 275.18 357.13, 275.83 357.97, 277.05 358.81 C 278.27 359.66, 279.13 359.72, 280.66 359.07 C 282.20 358.42, 283.21 357.65, 284.73 355.55 C 286.25 353.44, 286.85 351.88, 288.28 348.55 C 289.70 345.23, 290.41 343.09, 291.84 338.93 C 293.26 334.77, 294.06 332.22, 295.40 327.76 C 296.75 323.30, 297.37 320.79, 298.56 316.64 C 299.74 312.49, 300.47 310.20, 301.33 307.03 C 302.18 303.85, 302.47 302.49, 302.84 300.77 C 303.21 299.05, 303.19 298.56, 303.18 298.43 C 303.17 298.29, 302.93 298.68, 302.79 300.08 C 302.66 301.48, 302.49 302.76, 302.50 305.41 C 302.51 308.05, 302.72 309.93, 302.85 313.32 C 302.97 316.70, 303.00 318.68, 303.14 322.33 C 303.28 325.97, 303.34 328.01, 303.55 331.54 C 303.75 335.07, 303.81 336.94, 304.15 339.97 C 304.50 343.00, 304.72 344.46, 305.28 346.69 C 305.84 348.92, 306.18 349.89, 306.94 351.13 C 307.71 352.38, 308.15 352.80, 309.12 352.92 C 310.08 353.04, 310.65 353.06, 311.76 351.74 C 312.87 350.41, 313.65 348.89, 314.67 346.30 C 315.70 343.72, 316.25 341.59, 316.87 338.80 C 317.48 336.01, 317.79 333.69, 317.75 332.34 C 317.72 330.99, 317.42 330.92, 316.69 332.05 C 315.97 333.18, 315.11 335.34, 314.11 337.98 C 313.11 340.62, 312.49 342.69, 311.68 345.24 C 310.87 347.78, 310.55 349.36, 310.06 350.72 C 309.57 352.09, 309.57 352.11, 309.23 352.06 C 308.90 352.00, 308.76 351.61, 308.37 350.45 C 307.98 349.28, 307.71 348.39, 307.29 346.24 C 306.87 344.09, 306.61 342.68, 306.25 339.72 C 305.89 336.75, 305.70 334.91, 305.48 331.42 C 305.26 327.93, 305.19 325.90, 305.14 322.28 C 305.09 318.65, 305.20 316.68, 305.24 313.29 C 305.29 309.90, 305.51 308.00, 305.35 305.32 C 305.20 302.64, 304.94 301.34, 304.48 299.89 C 304.02 298.44, 303.69 298.01, 303.07 298.09 C 302.44 298.17, 302.05 298.60, 301.33 300.29 C 300.62 301.98, 300.36 303.35, 299.50 306.53 C 298.63 309.72, 298.13 312.06, 297.01 316.21 C 295.90 320.36, 295.27 322.87, 293.91 327.30 C 292.54 331.73, 291.72 334.27, 290.20 338.35 C 288.69 342.42, 287.81 344.51, 286.32 347.68 C 284.83 350.85, 284.04 352.20, 282.76 354.21 C 281.49 356.22, 280.93 356.99, 279.93 357.73 C 278.93 358.46, 278.51 358.52, 277.77 357.87 C 277.04 357.21, 276.67 356.52, 276.25 354.44 C 275.83 352.36, 275.61 350.88, 275.67 347.46 C 275.73 344.04, 275.92 341.73, 276.55 337.35 C 277.18 332.96, 277.62 330.22, 278.82 325.51 C 280.01 320.81, 280.86 318.10, 282.53 313.82 C 284.19 309.55, 285.33 307.37, 287.15 304.14 C 288.98 300.91, 290.04 299.65, 291.64 297.68 C 293.24 295.72, 293.99 295.13, 295.15 294.31 C 296.32 293.50, 296.76 293.54, 297.46 293.59 C 298.17 293.65, 298.31 294.01, 298.69 294.59 C 299.07 295.17, 299.12 295.71, 299.38 296.49 C 299.63 297.26, 299.69 297.77, 299.96 298.47 C 300.23 299.17, 300.37 299.70, 300.72 299.98 C 301.08 300.26, 301.44 300.25, 301.73 299.88" style="stroke: black; fill: black;"/><path d="M 331.46,247.77 C 331.16 248.17, 330.97 248.43, 330.74 249.84 C 330.50 251.25, 330.28 252.14, 330.28 254.82 C 330.27 257.49, 330.50 259.27, 330.72 263.20 C 330.93 267.13, 331.10 269.64, 331.35 274.46 C 331.59 279.29, 331.69 282.06, 331.94 287.31 C 332.19 292.56, 332.38 295.40, 332.58 300.70 C 332.78 306.01, 332.88 308.81, 332.95 313.86 C 333.03 318.91, 333.02 321.47, 332.97 325.96 C 332.91 330.45, 332.83 332.59, 332.68 336.29 C 332.53 339.98, 332.34 341.76, 332.23 344.45 C 332.12 347.14, 332.11 348.18, 332.13 349.75 C 332.15 351.31, 332.24 351.62, 332.32 352.28 C 332.40 352.93, 332.42 352.86, 332.51 353.01 C 332.61 353.17, 332.66 353.19, 332.80 353.06 C 332.94 352.92, 333.01 353.00, 333.20 352.36 C 333.40 351.71, 333.57 351.41, 333.78 349.85 C 333.98 348.28, 334.13 347.23, 334.24 344.53 C 334.34 341.82, 334.28 340.04, 334.31 336.32 C 334.33 332.61, 334.38 330.46, 334.36 325.97 C 334.35 321.47, 334.35 318.90, 334.24 313.84 C 334.14 308.77, 334.04 305.97, 333.85 300.66 C 333.66 295.34, 333.48 292.50, 333.29 287.25 C 333.10 282.00, 333.03 279.23, 332.92 274.41 C 332.81 269.58, 332.74 267.07, 332.74 263.15 C 332.74 259.23, 332.95 257.45, 332.92 254.80 C 332.89 252.15, 332.71 251.30, 332.57 249.91 C 332.43 248.51, 332.46 248.27, 332.24 247.84 C 332.01 247.42, 331.76 247.37, 331.46 247.77" style="stroke: black; fill: black;"/><path d="M 316.27,304.49 C 316.40 304.76, 316.45 304.96, 317.04 305.14 C 317.64 305.32, 318.07 305.45, 319.25 305.39 C 320.43 305.34, 321.19 305.23, 322.95 304.84 C 324.72 304.45, 325.82 304.33, 328.08 303.46 C 330.34 302.59, 331.70 301.96, 334.26 300.50 C 336.82 299.04, 338.26 298.16, 340.87 296.16 C 343.48 294.16, 344.82 293.00, 347.33 290.51 C 349.83 288.03, 351.09 286.63, 353.38 283.74 C 355.67 280.84, 356.85 279.24, 358.77 276.04 C 360.68 272.83, 361.55 271.05, 362.96 267.73 C 364.37 264.40, 364.94 262.60, 365.83 259.41 C 366.73 256.23, 367.11 254.49, 367.42 251.79 C 367.72 249.10, 367.68 247.78, 367.35 245.93 C 367.03 244.07, 366.63 243.31, 365.80 242.53 C 364.96 241.76, 364.27 241.61, 363.18 242.07 C 362.10 242.52, 361.42 243.10, 360.36 244.80 C 359.31 246.50, 358.75 247.63, 357.89 250.58 C 357.03 253.52, 356.69 255.37, 356.08 259.52 C 355.47 263.68, 355.24 266.26, 354.85 271.34 C 354.45 276.43, 354.32 279.42, 354.10 284.95 C 353.88 290.48, 353.80 293.58, 353.73 298.97 C 353.66 304.36, 353.69 307.18, 353.75 311.88 C 353.81 316.58, 353.89 318.85, 354.03 322.47 C 354.17 326.09, 354.16 327.60, 354.45 329.98 C 354.74 332.36, 354.97 333.28, 355.47 334.37 C 355.97 335.46, 356.31 335.74, 356.94 335.43 C 357.58 335.12, 357.97 334.56, 358.65 332.81 C 359.34 331.06, 359.64 329.64, 360.37 326.67 C 361.10 323.70, 361.35 321.62, 362.31 317.94 C 363.27 314.26, 363.86 311.97, 365.16 308.26 C 366.46 304.56, 367.27 302.50, 368.79 299.42 C 370.31 296.33, 371.35 294.97, 372.77 292.83 C 374.20 290.70, 374.84 289.82, 375.91 288.74 C 376.98 287.67, 377.37 287.34, 378.14 287.46 C 378.91 287.59, 379.17 288.05, 379.77 289.37 C 380.37 290.69, 380.57 291.67, 381.13 294.08 C 381.69 296.50, 382.08 298.12, 382.56 301.45 C 383.04 304.78, 383.24 306.95, 383.53 310.75 C 383.82 314.54, 383.84 316.74, 384.01 320.41 C 384.17 324.09, 384.09 325.96, 384.35 329.12 C 384.62 332.28, 384.75 333.90, 385.33 336.21 C 385.91 338.51, 386.32 339.48, 387.26 340.63 C 388.20 341.77, 388.75 342.02, 390.02 341.95 C 391.29 341.88, 392.14 341.58, 393.61 340.27 C 395.08 338.95, 395.84 338.00, 397.38 335.38 C 398.93 332.76, 399.64 330.92, 401.33 327.16 C 403.03 323.39, 404.10 320.99, 405.88 316.55 C 407.65 312.11, 408.59 309.46, 410.23 304.97 C 411.86 300.48, 412.72 298.02, 414.06 294.08 C 415.40 290.15, 416.14 288.26, 416.92 285.29 C 417.70 282.33, 417.91 281.10, 417.98 279.25 C 418.04 277.39, 417.88 276.77, 417.25 276.02 C 416.63 275.28, 416.04 275.12, 414.85 275.53 C 413.67 275.93, 412.81 276.41, 411.34 278.06 C 409.86 279.70, 408.98 280.88, 407.48 283.74 C 405.98 286.59, 405.19 288.47, 403.86 292.34 C 402.53 296.21, 401.81 298.61, 400.83 303.08 C 399.86 307.55, 399.43 310.14, 399.00 314.69 C 398.56 319.23, 398.50 321.72, 398.67 325.80 C 398.84 329.88, 399.07 331.91, 399.84 335.10 C 400.62 338.28, 401.23 339.65, 402.54 341.73 C 403.85 343.80, 404.69 344.61, 406.40 345.46 C 408.10 346.31, 409.12 346.34, 411.08 345.96 C 413.05 345.59, 414.21 345.14, 416.24 343.57 C 418.26 342.00, 419.28 340.87, 421.22 338.13 C 423.15 335.38, 424.08 333.44, 425.92 329.84 C 427.77 326.24, 428.72 324.11, 430.44 320.12 C 432.16 316.14, 433.00 313.88, 434.50 309.91 C 436.01 305.95, 436.75 303.83, 437.97 300.30 C 439.19 296.76, 439.84 294.98, 440.59 292.23 C 441.35 289.47, 441.56 288.12, 441.73 286.52 C 441.90 284.93, 441.75 284.26, 441.44 284.25 C 441.14 284.23, 440.66 284.64, 440.19 286.45 C 439.73 288.26, 439.47 289.87, 439.10 293.30 C 438.74 296.73, 438.72 299.23, 438.37 303.59 C 438.02 307.96, 437.76 310.71, 437.35 315.13 C 436.93 319.54, 436.62 321.96, 436.28 325.67 C 435.95 329.37, 435.72 331.15, 435.66 333.66 C 435.60 336.16, 435.70 337.10, 436.00 338.17 C 436.30 339.24, 436.60 339.42, 437.16 339.01 C 437.72 338.60, 438.22 337.98, 438.80 336.12 C 439.39 334.27, 439.56 332.86, 440.08 329.73 C 440.61 326.61, 440.68 324.49, 441.43 320.49 C 442.17 316.49, 442.65 313.99, 443.81 309.72 C 444.96 305.45, 445.72 303.10, 447.21 299.15 C 448.71 295.20, 449.63 293.12, 451.29 289.97 C 452.95 286.81, 453.89 285.49, 455.52 283.37 C 457.16 281.25, 458.01 280.45, 459.47 279.36 C 460.94 278.28, 461.67 277.91, 462.85 277.96 C 464.02 278.01, 464.44 278.27, 465.34 279.63 C 466.25 281.00, 466.60 282.13, 467.37 284.78 C 468.13 287.43, 468.63 289.23, 469.17 292.90 C 469.70 296.56, 469.83 298.95, 470.04 303.11 C 470.24 307.26, 470.26 309.73, 470.20 313.66 C 470.14 317.59, 469.95 319.64, 469.74 322.74 C 469.54 325.83, 469.29 327.28, 469.17 329.15 C 469.06 331.02, 469.10 331.64, 469.17 332.07 C 469.23 332.50, 469.35 332.28, 469.49 331.30 C 469.64 330.31, 469.70 329.44, 469.88 327.16 C 470.05 324.88, 470.03 323.16, 470.36 319.88 C 470.69 316.60, 470.80 314.46, 471.54 310.74 C 472.28 307.01, 472.85 304.89, 474.07 301.26 C 475.29 297.63, 476.10 295.72, 477.64 292.59 C 479.17 289.46, 480.12 287.95, 481.75 285.61 C 483.37 283.28, 484.22 282.29, 485.76 280.91 C 487.30 279.52, 488.10 279.10, 489.44 278.70 C 490.78 278.31, 491.37 278.30, 492.47 278.93 C 493.57 279.57, 494.03 280.13, 494.94 281.87 C 495.86 283.61, 496.32 284.83, 497.03 287.64 C 497.74 290.45, 498.09 292.24, 498.50 295.91 C 498.91 299.57, 498.96 301.77, 499.08 305.96 C 499.20 310.16, 499.15 312.64, 499.09 316.90 C 499.04 321.16, 498.91 323.50, 498.80 327.29 C 498.68 331.08, 498.46 332.94, 498.52 335.86 C 498.57 338.78, 498.68 340.07, 499.06 341.90 C 499.44 343.72, 499.66 344.36, 500.40 344.98 C 501.13 345.59, 501.64 345.57, 502.72 344.95 C 503.79 344.34, 504.65 343.47, 505.76 341.91 C 506.87 340.35, 507.57 339.04, 508.28 337.16 C 509.00 335.27, 509.33 333.52, 509.32 332.50 C 509.32 331.48, 509.01 331.37, 508.27 332.05 C 507.54 332.72, 506.63 334.21, 505.64 335.89 C 504.65 337.57, 504.10 338.84, 503.31 340.43 C 502.52 342.02, 502.15 343.05, 501.69 343.85 C 501.24 344.64, 501.23 344.85, 501.05 344.41 C 500.86 343.97, 500.87 343.38, 500.78 341.67 C 500.68 339.95, 500.62 338.69, 500.57 335.82 C 500.52 332.95, 500.50 331.10, 500.53 327.32 C 500.57 323.54, 500.68 321.20, 500.74 316.92 C 500.79 312.64, 500.85 310.17, 500.80 305.93 C 500.74 301.69, 500.75 299.49, 500.46 295.72 C 500.18 291.95, 500.10 290.05, 499.37 287.06 C 498.64 284.07, 498.06 282.69, 496.83 280.77 C 495.61 278.84, 494.79 278.18, 493.23 277.45 C 491.67 276.71, 490.77 276.69, 489.03 277.09 C 487.28 277.49, 486.31 277.97, 484.51 279.44 C 482.72 280.91, 481.76 281.97, 480.05 284.44 C 478.35 286.91, 477.52 288.54, 475.98 291.79 C 474.44 295.04, 473.64 296.97, 472.37 300.68 C 471.09 304.38, 470.51 306.54, 469.61 310.32 C 468.71 314.10, 468.36 316.22, 467.88 319.58 C 467.40 322.93, 467.15 324.71, 467.21 327.10 C 467.27 329.48, 467.69 330.47, 468.19 331.52 C 468.68 332.57, 469.12 332.78, 469.68 332.36 C 470.23 331.94, 470.53 331.30, 470.95 329.40 C 471.37 327.50, 471.55 326.01, 471.76 322.87 C 471.96 319.72, 471.96 317.64, 471.97 313.68 C 471.99 309.71, 471.99 307.24, 471.83 303.03 C 471.68 298.82, 471.62 296.43, 471.20 292.64 C 470.78 288.85, 470.60 286.91, 469.72 284.08 C 468.84 281.25, 468.16 280.00, 466.80 278.49 C 465.45 276.97, 464.60 276.61, 462.93 276.50 C 461.27 276.38, 460.28 276.78, 458.49 277.90 C 456.69 279.03, 455.68 279.89, 453.94 282.14 C 452.19 284.40, 451.40 285.89, 449.76 289.18 C 448.11 292.47, 447.22 294.56, 445.71 298.58 C 444.20 302.60, 443.45 304.97, 442.21 309.27 C 440.97 313.57, 440.46 316.09, 439.53 320.09 C 438.59 324.09, 438.12 326.16, 437.53 329.28 C 436.94 332.39, 436.78 333.78, 436.59 335.67 C 436.41 337.56, 436.50 338.23, 436.60 338.72 C 436.70 339.21, 436.88 339.12, 437.10 338.13 C 437.31 337.13, 437.47 336.22, 437.66 333.76 C 437.85 331.29, 437.79 329.50, 438.06 325.81 C 438.33 322.12, 438.58 319.70, 439.03 315.29 C 439.47 310.89, 439.78 308.13, 440.27 303.78 C 440.77 299.43, 441.12 296.97, 441.49 293.55 C 441.85 290.13, 442.10 288.56, 442.10 286.69 C 442.10 284.82, 441.88 284.32, 441.50 284.21 C 441.12 284.10, 440.80 284.66, 440.21 286.15 C 439.62 287.63, 439.32 288.93, 438.54 291.65 C 437.76 294.37, 437.43 296.22, 436.32 299.75 C 435.21 303.29, 434.48 305.40, 433.00 309.34 C 431.52 313.28, 430.66 315.53, 428.92 319.46 C 427.18 323.38, 426.19 325.50, 424.29 328.97 C 422.39 332.45, 421.33 334.28, 419.44 336.84 C 417.55 339.41, 416.58 340.35, 414.83 341.82 C 413.07 343.29, 412.21 343.75, 410.67 344.19 C 409.13 344.63, 408.43 344.72, 407.11 344.04 C 405.80 343.35, 405.20 342.65, 404.10 340.78 C 403.00 338.90, 402.39 337.67, 401.62 334.66 C 400.86 331.64, 400.49 329.69, 400.27 325.72 C 400.05 321.76, 400.10 319.29, 400.52 314.83 C 400.95 310.37, 401.39 307.80, 402.41 303.43 C 403.43 299.06, 404.18 296.69, 405.63 292.99 C 407.07 289.28, 408.11 287.59, 409.64 284.91 C 411.16 282.24, 412.07 281.24, 413.25 279.61 C 414.43 277.98, 414.89 277.39, 415.55 276.76 C 416.20 276.14, 416.36 276.03, 416.53 276.50 C 416.69 276.96, 416.66 277.42, 416.38 279.09 C 416.09 280.75, 415.84 281.91, 415.08 284.81 C 414.32 287.71, 413.81 289.66, 412.56 293.59 C 411.31 297.52, 410.45 299.99, 408.82 304.46 C 407.19 308.93, 406.24 311.57, 404.40 315.95 C 402.56 320.32, 401.46 322.71, 399.62 326.34 C 397.79 329.97, 396.75 331.62, 395.25 334.11 C 393.75 336.61, 393.20 337.50, 392.12 338.82 C 391.04 340.15, 390.59 340.52, 389.85 340.72 C 389.12 340.92, 388.94 340.82, 388.43 339.83 C 387.93 338.84, 387.72 337.95, 387.31 335.77 C 386.90 333.59, 386.66 332.03, 386.38 328.94 C 386.09 325.85, 386.06 323.99, 385.89 320.33 C 385.71 316.66, 385.71 314.45, 385.49 310.62 C 385.28 306.79, 385.20 304.60, 384.82 301.17 C 384.45 297.74, 384.31 296.01, 383.62 293.46 C 382.94 290.91, 382.44 289.84, 381.38 288.40 C 380.32 286.96, 379.62 286.44, 378.32 286.26 C 377.01 286.08, 376.31 286.43, 374.86 287.50 C 373.40 288.58, 372.61 289.44, 371.06 291.65 C 369.50 293.87, 368.61 295.39, 367.08 298.59 C 365.55 301.78, 364.77 303.89, 363.41 307.64 C 362.05 311.40, 361.42 313.69, 360.29 317.37 C 359.15 321.04, 358.50 323.04, 357.74 326.01 C 356.99 328.99, 356.77 330.44, 356.52 332.25 C 356.27 334.05, 356.49 334.67, 356.51 335.04 C 356.53 335.40, 356.67 335.12, 356.62 334.07 C 356.58 333.03, 356.49 332.13, 356.29 329.79 C 356.09 327.46, 355.88 325.97, 355.64 322.39 C 355.41 318.80, 355.24 316.54, 355.11 311.86 C 354.98 307.18, 354.94 304.35, 355.00 298.99 C 355.06 293.62, 355.14 290.51, 355.40 285.01 C 355.67 279.50, 355.81 276.51, 356.31 271.47 C 356.80 266.44, 357.08 263.86, 357.88 259.83 C 358.67 255.80, 359.37 254.10, 360.27 251.31 C 361.16 248.51, 361.65 247.49, 362.37 245.87 C 363.09 244.25, 363.35 243.70, 363.86 243.19 C 364.37 242.67, 364.58 242.70, 364.91 243.29 C 365.24 243.88, 365.44 244.48, 365.51 246.13 C 365.57 247.78, 365.56 248.98, 365.24 251.54 C 364.92 254.09, 364.72 255.80, 363.92 258.90 C 363.13 262.00, 362.61 263.78, 361.27 267.02 C 359.94 270.26, 359.09 272.00, 357.23 275.11 C 355.36 278.23, 354.20 279.79, 351.95 282.59 C 349.70 285.39, 348.44 286.75, 345.97 289.12 C 343.50 291.48, 342.17 292.59, 339.59 294.42 C 337.00 296.25, 335.53 296.97, 333.04 298.28 C 330.56 299.59, 329.29 300.20, 327.15 300.98 C 325.02 301.75, 324.02 301.80, 322.37 302.16 C 320.72 302.51, 319.97 302.52, 318.90 302.76 C 317.82 303.01, 317.50 303.16, 317.00 303.37 C 316.50 303.58, 316.53 303.58, 316.38 303.80 C 316.23 304.02, 316.14 304.22, 316.27 304.49" style="stroke: black; fill: black;"/><path d="M 538.02,285.97 C 537.84 285.53, 537.50 285.06, 536.69 284.60 C 535.87 284.14, 535.24 283.82, 533.94 283.67 C 532.64 283.53, 531.79 283.37, 530.18 283.87 C 528.58 284.37, 527.69 284.74, 525.90 286.18 C 524.11 287.62, 523.09 288.55, 521.23 291.06 C 519.38 293.57, 518.39 295.24, 516.62 298.73 C 514.85 302.22, 513.89 304.44, 512.40 308.53 C 510.92 312.61, 510.21 315.04, 509.18 319.17 C 508.16 323.30, 507.73 325.55, 507.30 329.19 C 506.86 332.83, 506.76 334.59, 507.00 337.37 C 507.23 340.15, 507.66 341.34, 508.48 343.09 C 509.30 344.85, 509.83 345.51, 511.09 346.17 C 512.36 346.83, 513.23 346.94, 514.78 346.41 C 516.33 345.88, 517.24 345.30, 518.83 343.51 C 520.42 341.71, 521.19 340.41, 522.72 337.42 C 524.24 334.43, 524.97 332.52, 526.45 328.56 C 527.94 324.60, 528.76 322.14, 530.13 317.61 C 531.50 313.09, 532.16 310.27, 533.31 305.94 C 534.45 301.61, 535.12 299.17, 535.85 295.95 C 536.57 292.72, 536.71 291.25, 536.93 289.81 C 537.15 288.38, 537.07 288.14, 536.95 288.78 C 536.84 289.42, 536.47 290.47, 536.37 293.00 C 536.26 295.53, 536.38 297.62, 536.42 301.44 C 536.46 305.25, 536.57 307.75, 536.56 312.08 C 536.54 316.41, 536.41 318.86, 536.37 323.08 C 536.32 327.29, 536.21 329.55, 536.32 333.15 C 536.43 336.75, 536.42 338.54, 536.91 341.07 C 537.40 343.60, 537.88 344.57, 538.78 345.79 C 539.68 347.00, 540.43 346.99, 541.40 347.17 C 542.38 347.34, 542.92 347.09, 543.64 346.65 C 544.36 346.22, 544.88 345.47, 545.00 344.98 C 545.11 344.49, 544.66 344.14, 544.22 344.22 C 543.78 344.29, 543.34 345.00, 542.81 345.36 C 542.29 345.71, 542.15 346.07, 541.59 346.00 C 541.02 345.93, 540.53 346.07, 539.99 345.02 C 539.44 343.96, 539.23 343.11, 538.86 340.73 C 538.48 338.34, 538.29 336.61, 538.13 333.08 C 537.96 329.55, 537.99 327.29, 538.03 323.10 C 538.08 318.90, 538.23 316.44, 538.35 312.11 C 538.48 307.78, 538.58 305.28, 538.66 301.45 C 538.73 297.62, 538.93 295.53, 538.72 292.95 C 538.50 290.37, 538.17 289.26, 537.58 288.56 C 536.99 287.85, 536.48 288.03, 535.76 289.42 C 535.03 290.81, 534.77 292.28, 533.97 295.50 C 533.17 298.73, 532.82 301.21, 531.75 305.54 C 530.67 309.87, 530.00 312.67, 528.61 317.15 C 527.22 321.62, 526.36 324.06, 524.78 327.91 C 523.21 331.75, 522.28 333.55, 520.73 336.37 C 519.18 339.19, 518.35 340.30, 517.02 342.00 C 515.70 343.69, 515.16 344.25, 514.10 344.84 C 513.05 345.44, 512.57 345.45, 511.75 344.97 C 510.94 344.49, 510.59 344.00, 510.04 342.45 C 509.49 340.90, 509.21 339.82, 509.01 337.21 C 508.81 334.60, 508.69 332.91, 509.05 329.39 C 509.41 325.86, 509.80 323.62, 510.79 319.56 C 511.78 315.51, 512.49 313.10, 514.00 309.12 C 515.51 305.13, 516.51 302.96, 518.33 299.63 C 520.16 296.31, 521.32 294.83, 523.13 292.51 C 524.95 290.19, 525.87 289.33, 527.42 288.04 C 528.97 286.76, 529.62 286.47, 530.87 286.08 C 532.13 285.69, 532.67 286.00, 533.68 286.09 C 534.70 286.19, 535.17 286.42, 535.94 286.56 C 536.71 286.71, 537.13 286.93, 537.55 286.82 C 537.96 286.70, 538.19 286.42, 538.02 285.97" style="stroke: black; fill: black;"/><path d="M 564.75,245.01 C 564.35 245.33, 563.96 245.47, 563.45 246.89 C 562.94 248.31, 562.51 249.30, 562.19 252.11 C 561.86 254.92, 561.99 256.89, 561.83 260.95 C 561.67 265.02, 561.61 267.51, 561.39 272.44 C 561.17 277.36, 561.03 280.27, 560.74 285.58 C 560.46 290.90, 560.31 293.72, 559.98 299.01 C 559.65 304.30, 559.37 307.05, 559.09 312.02 C 558.80 317.00, 558.71 319.63, 558.55 323.88 C 558.39 328.14, 558.23 330.23, 558.28 333.30 C 558.33 336.37, 558.43 337.66, 558.82 339.24 C 559.22 340.82, 559.68 341.22, 560.26 341.20 C 560.84 341.18, 561.27 340.61, 561.71 339.14 C 562.14 337.67, 562.35 336.33, 562.45 333.83 C 562.55 331.34, 562.39 329.73, 562.20 326.66 C 562.01 323.59, 561.73 321.77, 561.49 318.48 C 561.26 315.18, 561.15 313.30, 561.02 310.17 C 560.88 307.05, 560.83 305.50, 560.82 302.86 C 560.80 300.21, 560.79 298.94, 560.93 296.95 C 561.07 294.96, 561.14 294.19, 561.50 292.90 C 561.86 291.60, 562.00 291.26, 562.73 290.49 C 563.46 289.72, 564.03 289.52, 565.15 289.05 C 566.28 288.59, 566.88 288.49, 568.38 288.16 C 569.88 287.84, 570.86 287.65, 572.67 287.42 C 574.47 287.20, 575.47 287.13, 577.41 287.03 C 579.35 286.94, 580.41 286.95, 582.36 286.96 C 584.32 286.97, 585.40 286.98, 587.19 287.09 C 588.97 287.20, 589.88 287.26, 591.31 287.51 C 592.74 287.76, 593.39 287.81, 594.34 288.32 C 595.30 288.83, 595.61 289.05, 596.06 290.07 C 596.52 291.08, 596.58 291.71, 596.62 293.39 C 596.67 295.08, 596.53 296.13, 596.29 298.49 C 596.05 300.85, 595.83 302.30, 595.42 305.19 C 595.01 308.07, 594.75 309.75, 594.23 312.93 C 593.71 316.10, 593.34 317.87, 592.82 321.06 C 592.30 324.25, 591.93 326.09, 591.63 328.89 C 591.33 331.69, 591.32 332.96, 591.32 335.06 C 591.32 337.16, 591.42 338.16, 591.64 339.40 C 591.86 340.64, 592.15 340.90, 592.40 341.26 C 592.66 341.61, 592.79 341.55, 592.92 341.16 C 593.04 340.78, 592.93 340.54, 593.03 339.33 C 593.12 338.13, 593.22 337.19, 593.40 335.15 C 593.58 333.11, 593.63 331.90, 593.94 329.15 C 594.25 326.40, 594.47 324.57, 594.96 321.40 C 595.46 318.23, 595.83 316.47, 596.41 313.31 C 597.00 310.14, 597.39 308.49, 597.89 305.57 C 598.38 302.66, 598.67 301.20, 598.87 298.73 C 599.08 296.26, 599.14 295.12, 598.92 293.22 C 598.69 291.32, 598.46 290.51, 597.73 289.21 C 597.00 287.92, 596.48 287.50, 595.28 286.74 C 594.08 285.98, 593.34 285.82, 591.75 285.42 C 590.17 285.03, 589.24 284.94, 587.36 284.77 C 585.49 284.60, 584.41 284.60, 582.40 284.56 C 580.38 284.52, 579.32 284.50, 577.31 284.57 C 575.30 284.64, 574.25 284.66, 572.34 284.92 C 570.44 285.17, 569.41 285.38, 567.79 285.84 C 566.18 286.30, 565.53 286.51, 564.26 287.21 C 562.99 287.91, 562.33 288.31, 561.45 289.35 C 560.57 290.38, 560.35 290.90, 559.84 292.38 C 559.34 293.86, 559.17 294.66, 558.92 296.76 C 558.67 298.86, 558.60 300.16, 558.58 302.86 C 558.57 305.56, 558.72 307.12, 558.86 310.27 C 559.00 313.42, 559.14 315.31, 559.29 318.61 C 559.44 321.91, 559.56 323.72, 559.62 326.76 C 559.68 329.80, 559.54 331.37, 559.59 333.80 C 559.64 336.24, 559.73 337.52, 559.86 338.94 C 559.99 340.36, 560.16 340.88, 560.23 340.91 C 560.31 340.93, 560.25 340.58, 560.24 339.06 C 560.23 337.53, 560.22 336.30, 560.18 333.27 C 560.14 330.24, 560.00 328.16, 560.04 323.92 C 560.09 319.68, 560.16 317.06, 560.40 312.09 C 560.64 307.13, 560.91 304.38, 561.24 299.09 C 561.58 293.80, 561.74 290.97, 562.07 285.66 C 562.41 280.35, 562.58 277.44, 562.92 272.52 C 563.27 267.61, 563.40 265.11, 563.79 261.08 C 564.18 257.06, 564.58 255.16, 564.86 252.40 C 565.15 249.64, 565.12 248.71, 565.24 247.28 C 565.36 245.86, 565.56 245.74, 565.46 245.29 C 565.36 244.83, 565.15 244.69, 564.75 245.01" style="stroke: black; fill: black;"/><path d="M 601.77,257.81 C 602.09 257.42, 602.33 256.74, 602.30 255.93 C 602.27 255.13, 602.01 254.20, 601.62 253.78 C 601.23 253.37, 600.68 253.41, 600.35 253.87 C 600.02 254.32, 599.89 255.27, 599.96 256.08 C 600.03 256.88, 600.34 257.53, 600.70 257.87 C 601.06 258.22, 601.45 258.20, 601.77 257.81" style="stroke: black; fill: black;"/><path d="M 640.99,280.87 C 640.75 280.53, 640.38 280.36, 639.64 280.14 C 638.90 279.91, 638.49 279.75, 637.29 279.73 C 636.09 279.71, 635.26 279.73, 633.65 280.04 C 632.04 280.35, 631.18 280.54, 629.22 281.29 C 627.26 282.05, 626.06 282.42, 623.85 283.82 C 621.63 285.22, 620.38 286.08, 618.14 288.31 C 615.90 290.54, 614.72 291.93, 612.65 294.98 C 610.59 298.02, 609.43 299.82, 607.83 303.53 C 606.23 307.24, 605.47 309.51, 604.66 313.52 C 603.86 317.52, 603.65 319.81, 603.80 323.55 C 603.94 327.30, 604.29 329.16, 605.40 332.24 C 606.51 335.32, 607.37 336.78, 609.35 338.94 C 611.32 341.10, 612.63 341.91, 615.29 343.03 C 617.96 344.16, 619.60 344.49, 622.68 344.57 C 625.76 344.65, 627.51 344.39, 630.68 343.45 C 633.85 342.51, 635.46 341.73, 638.51 339.87 C 641.57 338.02, 643.36 336.60, 645.95 334.19 C 648.54 331.78, 649.78 330.13, 651.48 327.83 C 653.18 325.52, 654.01 323.79, 654.46 322.66 C 654.92 321.53, 654.67 321.38, 653.76 322.16 C 652.85 322.94, 651.74 324.45, 649.90 326.56 C 648.07 328.67, 647.05 330.38, 644.57 332.71 C 642.08 335.03, 640.39 336.44, 637.49 338.20 C 634.60 339.95, 633.06 340.65, 630.11 341.49 C 627.16 342.34, 625.54 342.51, 622.74 342.44 C 619.93 342.36, 618.47 342.09, 616.09 341.12 C 613.70 340.15, 612.59 339.50, 610.80 337.59 C 609.02 335.69, 608.20 334.42, 607.15 331.60 C 606.10 328.78, 605.70 327.03, 605.54 323.48 C 605.38 319.93, 605.56 317.70, 606.34 313.86 C 607.12 310.01, 607.87 307.80, 609.45 304.24 C 611.03 300.69, 612.20 298.95, 614.25 296.09 C 616.30 293.23, 617.54 291.98, 619.72 289.95 C 621.90 287.92, 623.08 287.20, 625.16 285.94 C 627.24 284.68, 628.32 284.32, 630.11 283.65 C 631.91 282.98, 632.69 282.88, 634.15 282.60 C 635.60 282.32, 636.33 282.35, 637.39 282.24 C 638.45 282.14, 638.76 282.16, 639.45 282.07 C 640.14 281.98, 640.52 282.04, 640.83 281.80 C 641.13 281.56, 641.22 281.20, 640.99 280.87" style="stroke: black; fill: black;"/><path d="M 676.99,279.39 C 676.68 279.04, 676.20 278.71, 675.26 278.57 C 674.31 278.43, 673.70 278.37, 672.27 278.68 C 670.83 278.99, 669.82 279.23, 668.08 280.12 C 666.34 281.01, 665.38 281.72, 663.55 283.15 C 661.72 284.58, 660.65 285.50, 658.92 287.27 C 657.19 289.05, 656.22 290.06, 654.90 292.03 C 653.59 294.01, 652.96 295.13, 652.35 297.15 C 651.75 299.18, 651.62 300.25, 651.87 302.16 C 652.12 304.06, 652.51 304.97, 653.60 306.68 C 654.69 308.39, 655.48 309.18, 657.32 310.70 C 659.16 312.21, 660.44 312.91, 662.80 314.24 C 665.16 315.57, 666.66 316.14, 669.10 317.34 C 671.54 318.54, 672.83 319.09, 674.99 320.26 C 677.16 321.43, 678.26 322.04, 679.92 323.18 C 681.58 324.33, 682.35 324.85, 683.29 325.98 C 684.22 327.11, 684.49 327.73, 684.59 328.83 C 684.69 329.92, 684.47 330.43, 683.78 331.48 C 683.09 332.53, 682.48 333.00, 681.13 334.07 C 679.77 335.14, 678.89 335.73, 677.01 336.83 C 675.13 337.92, 673.96 338.53, 671.75 339.53 C 669.53 340.53, 668.24 341.02, 665.93 341.83 C 663.63 342.65, 662.24 343.00, 660.21 343.62 C 658.19 344.24, 657.18 344.57, 655.82 344.92 C 654.46 345.27, 653.89 345.15, 653.41 345.37 C 652.92 345.59, 652.87 345.78, 653.40 346.02 C 653.92 346.26, 654.55 346.59, 656.03 346.57 C 657.52 346.55, 658.67 346.41, 660.82 345.93 C 662.96 345.46, 664.36 345.01, 666.75 344.20 C 669.15 343.38, 670.48 342.90, 672.79 341.86 C 675.11 340.83, 676.35 340.23, 678.32 339.03 C 680.29 337.83, 681.22 337.17, 682.66 335.86 C 684.09 334.54, 684.75 333.89, 685.48 332.45 C 686.22 331.02, 686.46 330.20, 686.33 328.67 C 686.20 327.15, 685.84 326.27, 684.81 324.82 C 683.79 323.38, 682.93 322.76, 681.19 321.44 C 679.45 320.12, 678.33 319.49, 676.14 318.22 C 673.94 316.95, 672.65 316.34, 670.23 315.10 C 667.82 313.85, 666.34 313.24, 664.05 311.99 C 661.76 310.73, 660.53 310.12, 658.78 308.83 C 657.03 307.53, 656.30 306.91, 655.31 305.53 C 654.31 304.15, 653.99 303.46, 653.80 301.91 C 653.62 300.37, 653.76 299.51, 654.37 297.81 C 654.98 296.10, 655.58 295.14, 656.85 293.39 C 658.13 291.64, 659.07 290.71, 660.74 289.08 C 662.40 287.45, 663.46 286.57, 665.17 285.25 C 666.89 283.94, 667.77 283.33, 669.32 282.50 C 670.87 281.67, 671.73 281.52, 672.92 281.12 C 674.12 280.72, 674.50 280.66, 675.28 280.50 C 676.06 280.34, 676.47 280.54, 676.81 280.32 C 677.15 280.10, 677.30 279.74, 676.99 279.39" style="stroke: black; fill: black;"/><path d="M 769.87,242.59 C 769.45 242.84, 769.15 242.99, 768.51 244.20 C 767.86 245.41, 767.39 246.11, 766.65 248.64 C 765.90 251.17, 765.67 252.93, 764.79 256.83 C 763.92 260.74, 763.39 263.24, 762.27 268.18 C 761.15 273.13, 760.42 276.02, 759.18 281.56 C 757.95 287.10, 757.29 290.24, 756.12 295.88 C 754.94 301.52, 754.28 304.46, 753.31 309.77 C 752.33 315.08, 751.95 317.79, 751.26 322.43 C 750.57 327.06, 750.24 329.40, 749.85 332.94 C 749.46 336.48, 749.29 337.96, 749.31 340.14 C 749.33 342.32, 749.50 343.13, 749.96 343.85 C 750.41 344.57, 750.97 344.34, 751.60 343.72 C 752.22 343.10, 752.78 342.03, 753.08 340.75 C 753.37 339.46, 753.39 338.04, 753.07 337.30 C 752.76 336.55, 752.03 336.45, 751.50 337.04 C 750.97 337.63, 750.60 338.99, 750.41 340.24 C 750.22 341.48, 750.50 342.59, 750.56 343.27 C 750.62 343.95, 750.61 344.26, 750.71 343.65 C 750.81 343.03, 750.91 342.30, 751.06 340.19 C 751.22 338.09, 751.19 336.62, 751.49 333.10 C 751.80 329.59, 751.99 327.24, 752.59 322.61 C 753.19 317.99, 753.56 315.28, 754.50 309.99 C 755.44 304.69, 756.10 301.76, 757.29 296.13 C 758.47 290.50, 759.14 287.36, 760.43 281.85 C 761.72 276.33, 762.48 273.44, 763.73 268.53 C 764.99 263.63, 765.63 261.16, 766.71 257.32 C 767.80 253.48, 768.46 251.86, 769.15 249.36 C 769.85 246.86, 769.90 246.11, 770.18 244.82 C 770.46 243.54, 770.63 243.38, 770.56 242.93 C 770.50 242.49, 770.28 242.33, 769.87 242.59" style="stroke: black; fill: black;"/><path d="M 769.85,244.54 C 769.73 245.02, 769.76 245.28, 769.99 246.69 C 770.22 248.09, 770.33 249.08, 771.00 251.56 C 771.68 254.04, 772.33 255.56, 773.36 259.07 C 774.40 262.59, 775.01 264.80, 776.18 269.13 C 777.35 273.46, 778.01 275.95, 779.19 280.72 C 780.38 285.48, 781.00 288.10, 782.12 292.95 C 783.23 297.81, 783.76 300.36, 784.77 304.99 C 785.78 309.61, 786.30 312.04, 787.19 316.08 C 788.08 320.12, 788.45 322.10, 789.24 325.19 C 790.03 328.28, 790.37 329.60, 791.14 331.53 C 791.92 333.46, 792.50 334.38, 793.11 334.83 C 793.71 335.29, 794.03 334.73, 794.16 333.80 C 794.28 332.88, 794.23 331.58, 793.73 330.20 C 793.23 328.83, 792.39 327.45, 791.67 326.92 C 790.96 326.39, 790.29 326.70, 790.17 327.56 C 790.05 328.43, 790.54 329.92, 791.09 331.23 C 791.64 332.55, 792.38 333.48, 792.92 334.13 C 793.46 334.77, 793.77 335.10, 793.77 334.46 C 793.76 333.83, 793.44 332.88, 792.89 330.93 C 792.34 328.98, 791.87 327.76, 791.03 324.72 C 790.18 321.68, 789.66 319.74, 788.68 315.73 C 787.70 311.73, 787.17 309.30, 786.13 304.69 C 785.08 300.07, 784.55 297.51, 783.45 292.65 C 782.34 287.79, 781.73 285.16, 780.60 280.38 C 779.47 275.59, 778.83 273.09, 777.80 268.72 C 776.76 264.35, 776.27 262.10, 775.42 258.52 C 774.58 254.95, 774.30 253.31, 773.57 250.83 C 772.85 248.36, 772.40 247.44, 771.80 246.13 C 771.21 244.82, 770.98 244.60, 770.59 244.28 C 770.20 243.97, 769.97 244.06, 769.85 244.54" style="stroke: black; fill: black;"/><path d="M 756.19,299.01 C 756.49 299.28, 756.80 299.31, 757.64 299.47 C 758.49 299.63, 758.97 299.76, 760.42 299.81 C 761.87 299.86, 762.89 299.86, 764.90 299.74 C 766.91 299.62, 768.09 299.50, 770.46 299.20 C 772.82 298.90, 774.13 298.76, 776.72 298.25 C 779.32 297.74, 780.98 297.38, 783.41 296.65 C 785.85 295.93, 787.13 295.41, 788.90 294.61 C 790.67 293.82, 791.66 293.23, 792.27 292.70 C 792.89 292.16, 792.79 291.93, 791.98 291.95 C 791.18 291.97, 790.12 292.34, 788.27 292.79 C 786.42 293.23, 785.16 293.61, 782.75 294.20 C 780.34 294.78, 778.75 295.22, 776.23 295.71 C 773.71 296.19, 772.45 296.36, 770.15 296.61 C 767.85 296.87, 766.69 296.85, 764.73 296.97 C 762.78 297.08, 761.79 297.06, 760.36 297.18 C 758.94 297.30, 758.45 297.37, 757.60 297.56 C 756.76 297.75, 756.44 297.85, 756.16 298.14 C 755.88 298.43, 755.90 298.74, 756.19 299.01" style="stroke: black; fill: black;"/><path d="M 825.84,278.36 C 825.61 278.02, 825.28 277.76, 824.49 277.55 C 823.71 277.35, 823.17 277.23, 821.91 277.32 C 820.65 277.42, 819.78 277.55, 818.19 278.03 C 816.60 278.51, 815.66 278.90, 813.97 279.73 C 812.27 280.55, 811.27 281.07, 809.72 282.16 C 808.16 283.25, 807.34 283.89, 806.19 285.18 C 805.04 286.48, 804.48 287.20, 803.96 288.65 C 803.43 290.11, 803.29 290.92, 803.55 292.46 C 803.80 294.00, 804.19 294.82, 805.23 296.37 C 806.28 297.93, 807.08 298.70, 808.78 300.24 C 810.49 301.78, 811.61 302.55, 813.75 304.07 C 815.88 305.59, 817.17 306.33, 819.45 307.85 C 821.72 309.36, 823.01 310.13, 825.11 311.63 C 827.21 313.13, 828.31 313.90, 829.94 315.34 C 831.57 316.79, 832.25 317.44, 833.27 318.86 C 834.28 320.29, 834.69 321.03, 835.02 322.48 C 835.36 323.92, 835.34 324.68, 834.93 326.07 C 834.53 327.46, 834.06 328.06, 833.00 329.41 C 831.94 330.76, 831.19 331.62, 829.63 332.84 C 828.06 334.05, 827.08 334.59, 825.16 335.49 C 823.23 336.38, 822.11 336.82, 819.99 337.33 C 817.87 337.83, 816.67 337.93, 814.56 338.00 C 812.45 338.07, 811.32 337.99, 809.45 337.68 C 807.58 337.38, 806.61 337.15, 805.21 336.46 C 803.82 335.78, 803.24 335.27, 802.48 334.27 C 801.73 333.27, 801.49 332.77, 801.42 331.48 C 801.35 330.19, 801.52 329.49, 802.13 327.81 C 802.75 326.13, 803.49 324.96, 804.48 323.08 C 805.47 321.20, 806.16 320.11, 807.09 318.40 C 808.02 316.70, 808.87 315.45, 809.13 314.56 C 809.38 313.68, 809.14 313.47, 808.35 313.98 C 807.56 314.49, 806.43 315.56, 805.18 317.12 C 803.93 318.69, 803.15 319.81, 802.08 321.80 C 801.01 323.79, 800.34 325.12, 799.83 327.09 C 799.31 329.07, 799.27 330.02, 799.50 331.67 C 799.72 333.33, 800.01 334.07, 800.96 335.39 C 801.90 336.72, 802.62 337.41, 804.24 338.31 C 805.86 339.21, 806.97 339.49, 809.05 339.89 C 811.13 340.30, 812.33 340.38, 814.63 340.33 C 816.92 340.27, 818.22 340.16, 820.53 339.63 C 822.84 339.11, 824.05 338.66, 826.17 337.68 C 828.29 336.71, 829.40 336.13, 831.13 334.75 C 832.86 333.36, 833.68 332.40, 834.83 330.76 C 835.98 329.13, 836.46 328.33, 836.88 326.59 C 837.31 324.84, 837.33 323.82, 836.93 322.04 C 836.54 320.27, 836.02 319.39, 834.92 317.73 C 833.82 316.07, 833.10 315.34, 831.42 313.73 C 829.74 312.13, 828.64 311.29, 826.53 309.70 C 824.42 308.11, 823.11 307.31, 820.85 305.76 C 818.60 304.21, 817.33 303.45, 815.25 301.97 C 813.17 300.48, 812.09 299.72, 810.45 298.34 C 808.82 296.95, 808.06 296.29, 807.06 295.04 C 806.05 293.79, 805.69 293.23, 805.44 292.10 C 805.18 290.96, 805.29 290.45, 805.77 289.37 C 806.24 288.30, 806.75 287.76, 807.81 286.73 C 808.88 285.70, 809.64 285.15, 811.10 284.23 C 812.55 283.31, 813.52 282.85, 815.10 282.14 C 816.68 281.43, 817.57 281.12, 819.01 280.67 C 820.44 280.22, 821.20 280.13, 822.28 279.90 C 823.36 279.66, 823.72 279.62, 824.39 279.49 C 825.06 279.36, 825.36 279.48, 825.65 279.25 C 825.94 279.02, 826.07 278.70, 825.84 278.36" style="stroke: black; fill: black;"/><path d="M 864.29,272.67 C 864.17 272.23, 863.91 271.77, 863.16 271.23 C 862.41 270.69, 861.91 270.29, 860.54 269.96 C 859.16 269.63, 858.16 269.41, 856.29 269.60 C 854.42 269.79, 853.34 270.11, 851.20 270.91 C 849.06 271.71, 847.82 272.27, 845.60 273.61 C 843.38 274.95, 842.12 275.83, 840.11 277.59 C 838.10 279.35, 836.98 280.43, 835.54 282.39 C 834.10 284.36, 833.45 285.48, 832.91 287.42 C 832.37 289.36, 832.37 290.36, 832.85 292.10 C 833.33 293.83, 833.87 294.64, 835.32 296.10 C 836.77 297.57, 837.89 298.22, 840.10 299.44 C 842.30 300.65, 843.81 301.13, 846.37 302.18 C 848.92 303.23, 850.38 303.67, 852.88 304.68 C 855.38 305.70, 856.72 306.18, 858.88 307.25 C 861.04 308.32, 862.14 308.88, 863.67 310.02 C 865.20 311.17, 865.80 311.74, 866.52 312.98 C 867.25 314.22, 867.45 314.84, 867.30 316.22 C 867.15 317.60, 866.77 318.31, 865.77 319.88 C 864.77 321.44, 863.95 322.34, 862.30 324.04 C 860.65 325.75, 859.60 326.77, 857.52 328.42 C 855.45 330.06, 854.13 330.95, 851.93 332.27 C 849.73 333.59, 848.48 334.19, 846.52 335.01 C 844.56 335.82, 843.50 336.09, 842.13 336.34 C 840.76 336.60, 840.31 336.60, 839.67 336.27 C 839.03 335.95, 838.94 335.61, 838.92 334.72 C 838.90 333.83, 839.12 333.28, 839.57 331.81 C 840.02 330.34, 840.34 329.33, 841.18 327.37 C 842.02 325.42, 842.51 324.27, 843.76 322.04 C 845.01 319.82, 845.82 318.63, 847.43 316.23 C 849.04 313.83, 850.00 312.47, 851.81 310.04 C 853.61 307.62, 854.61 306.41, 856.45 304.13 C 858.29 301.85, 859.25 300.70, 861.01 298.65 C 862.78 296.59, 863.63 295.53, 865.26 293.84 C 866.89 292.15, 867.72 291.46, 869.17 290.22 C 870.61 288.98, 871.33 288.38, 872.47 287.65 C 873.61 286.91, 874.05 286.66, 874.87 286.55 C 875.69 286.45, 876.05 286.43, 876.56 287.14 C 877.08 287.84, 877.17 288.44, 877.44 290.09 C 877.71 291.75, 877.77 292.98, 877.93 295.40 C 878.08 297.83, 878.13 299.34, 878.21 302.22 C 878.29 305.11, 878.33 306.80, 878.31 309.84 C 878.29 312.88, 878.18 314.55, 878.12 317.41 C 878.05 320.26, 878.02 321.74, 877.99 324.12 C 877.96 326.51, 877.87 327.70, 877.96 329.34 C 878.05 330.97, 878.17 331.62, 878.44 332.28 C 878.71 332.93, 879.05 333.10, 879.30 332.61 C 879.56 332.13, 879.77 331.70, 879.72 329.85 C 879.67 327.99, 879.45 326.65, 879.05 323.34 C 878.65 320.04, 878.20 317.37, 877.71 313.32 C 877.21 309.27, 876.98 306.61, 876.57 303.09 C 876.16 299.57, 876.03 297.17, 875.66 295.71 C 875.30 294.24, 874.94 294.25, 874.75 295.76 C 874.56 297.27, 874.56 299.68, 874.72 303.24 C 874.88 306.79, 875.23 309.46, 875.57 313.54 C 875.91 317.62, 876.04 320.33, 876.41 323.65 C 876.78 326.97, 876.98 328.33, 877.41 330.15 C 877.84 331.97, 878.15 332.31, 878.57 332.74 C 878.98 333.17, 879.21 332.96, 879.49 332.29 C 879.78 331.62, 879.84 330.99, 879.99 329.37 C 880.14 327.75, 880.15 326.57, 880.25 324.18 C 880.34 321.80, 880.39 320.33, 880.46 317.46 C 880.54 314.60, 880.57 312.92, 880.63 309.87 C 880.69 306.82, 880.77 305.12, 880.77 302.19 C 880.77 299.26, 880.84 297.74, 880.64 295.21 C 880.44 292.68, 880.33 291.37, 879.76 289.53 C 879.19 287.69, 878.77 286.91, 877.78 286.00 C 876.79 285.09, 876.04 284.99, 874.79 284.98 C 873.54 284.98, 872.91 285.26, 871.52 285.99 C 870.12 286.71, 869.38 287.33, 867.82 288.60 C 866.25 289.86, 865.40 290.59, 863.70 292.31 C 861.99 294.02, 861.09 295.08, 859.29 297.16 C 857.49 299.25, 856.57 300.42, 854.71 302.73 C 852.86 305.03, 851.86 306.26, 850.01 308.69 C 848.15 311.11, 847.14 312.45, 845.45 314.87 C 843.75 317.29, 842.87 318.47, 841.53 320.77 C 840.19 323.06, 839.59 324.25, 838.74 326.35 C 837.88 328.45, 837.54 329.54, 837.25 331.27 C 836.95 333.00, 836.92 333.76, 837.26 335.00 C 837.61 336.24, 837.96 336.83, 838.97 337.47 C 839.98 338.11, 840.65 338.27, 842.32 338.20 C 843.99 338.13, 845.16 337.90, 847.33 337.14 C 849.50 336.38, 850.81 335.75, 853.17 334.41 C 855.53 333.07, 856.93 332.17, 859.12 330.45 C 861.32 328.72, 862.44 327.67, 864.16 325.79 C 865.88 323.90, 866.73 322.90, 867.73 321.02 C 868.73 319.13, 869.09 318.14, 869.17 316.35 C 869.25 314.57, 868.97 313.68, 868.13 312.09 C 867.29 310.50, 866.61 309.77, 864.97 308.39 C 863.33 307.01, 862.17 306.40, 859.94 305.20 C 857.71 304.01, 856.34 303.50, 853.83 302.42 C 851.31 301.33, 849.87 300.82, 847.36 299.78 C 844.85 298.73, 843.39 298.23, 841.26 297.19 C 839.14 296.15, 838.09 295.68, 836.75 294.57 C 835.40 293.45, 834.95 292.92, 834.55 291.61 C 834.16 290.30, 834.22 289.57, 834.79 288.01 C 835.35 286.45, 835.99 285.52, 837.38 283.82 C 838.78 282.12, 839.85 281.11, 841.75 279.51 C 843.66 277.91, 844.85 277.05, 846.92 275.82 C 848.99 274.58, 850.18 274.06, 852.11 273.33 C 854.04 272.61, 854.98 272.38, 856.57 272.19 C 858.16 272.01, 858.92 272.26, 860.06 272.42 C 861.20 272.58, 861.54 272.79, 862.28 272.99 C 863.01 273.19, 863.33 273.50, 863.73 273.43 C 864.14 273.37, 864.40 273.10, 864.29 272.67" style="stroke: black; fill: black;"/><path d="M 881.47,253.99 C 881.64 254.33, 881.95 254.52, 882.32 254.64 C 882.70 254.76, 882.97 254.76, 883.34 254.60 C 883.71 254.45, 884.01 254.26, 884.16 253.88 C 884.31 253.50, 884.32 253.06, 884.10 252.70 C 883.88 252.34, 883.47 252.15, 883.08 252.07 C 882.69 252.00, 882.46 252.15, 882.14 252.33 C 881.82 252.50, 881.62 252.62, 881.48 252.96 C 881.35 253.29, 881.30 253.66, 881.47 253.99" style="stroke: black; fill: black;"/><path d="M 915.33,288.57 C 915.40 288.16, 915.34 287.78, 914.96 287.02 C 914.59 286.27, 914.33 285.71, 913.44 284.79 C 912.55 283.87, 911.89 283.18, 910.51 282.44 C 909.13 281.71, 908.18 281.28, 906.56 281.11 C 904.95 280.94, 904.12 280.96, 902.44 281.60 C 900.77 282.23, 899.84 282.72, 898.19 284.31 C 896.54 285.89, 895.58 287.01, 894.18 289.53 C 892.78 292.05, 892.18 293.81, 891.19 296.89 C 890.19 299.98, 889.70 301.84, 889.20 304.97 C 888.70 308.10, 888.54 309.84, 888.66 312.53 C 888.79 315.23, 889.10 316.54, 889.82 318.46 C 890.53 320.38, 891.07 321.13, 892.23 322.15 C 893.40 323.16, 894.21 323.49, 895.66 323.52 C 897.11 323.56, 897.96 323.29, 899.48 322.32 C 901.01 321.35, 901.82 320.56, 903.28 318.67 C 904.75 316.78, 905.52 315.49, 906.79 312.88 C 908.07 310.27, 908.58 308.59, 909.66 305.62 C 910.74 302.65, 911.29 300.90, 912.20 298.02 C 913.11 295.13, 913.58 293.60, 914.21 291.20 C 914.84 288.80, 915.07 287.53, 915.33 286.00 C 915.58 284.48, 915.51 283.88, 915.48 283.57 C 915.45 283.26, 915.27 283.42, 915.17 284.45 C 915.07 285.48, 914.93 286.31, 914.99 288.73 C 915.04 291.14, 915.27 292.83, 915.44 296.53 C 915.61 300.22, 915.73 302.54, 915.83 307.19 C 915.92 311.85, 915.92 314.61, 915.91 319.81 C 915.90 325.00, 915.86 327.87, 915.75 333.17 C 915.65 338.46, 915.61 341.18, 915.40 346.26 C 915.19 351.35, 915.10 353.97, 914.69 358.60 C 914.29 363.23, 914.04 365.44, 913.37 369.41 C 912.71 373.39, 912.28 375.19, 911.37 378.47 C 910.47 381.76, 909.95 383.29, 908.85 385.84 C 907.75 388.39, 907.15 389.48, 905.87 391.20 C 904.60 392.92, 903.81 393.56, 902.47 394.44 C 901.13 395.31, 900.46 395.52, 899.16 395.57 C 897.86 395.63, 897.16 395.44, 895.96 394.71 C 894.76 393.97, 894.17 393.43, 893.16 391.88 C 892.14 390.34, 891.65 389.34, 890.89 386.96 C 890.13 384.59, 889.72 383.13, 889.34 380.02 C 888.97 376.91, 888.84 375.11, 889.03 371.40 C 889.22 367.70, 889.49 365.59, 890.29 361.48 C 891.10 357.38, 891.68 355.18, 893.05 350.90 C 894.42 346.62, 895.31 344.39, 897.13 340.10 C 898.95 335.82, 900.02 333.55, 902.17 329.48 C 904.31 325.42, 905.48 323.44, 907.86 319.78 C 910.24 316.12, 911.58 314.36, 914.07 311.18 C 916.57 308.01, 917.89 306.47, 920.35 303.89 C 922.81 301.32, 924.10 300.23, 926.36 298.29 C 928.62 296.36, 929.76 295.54, 931.66 294.22 C 933.55 292.91, 934.40 292.39, 935.82 291.71 C 937.24 291.03, 937.84 290.79, 938.76 290.83 C 939.67 290.88, 939.95 291.01, 940.41 291.93 C 940.87 292.86, 940.93 293.58, 941.06 295.47 C 941.20 297.36, 941.10 298.65, 941.06 301.37 C 941.03 304.10, 941.05 305.95, 940.88 309.09 C 940.71 312.24, 940.57 314.03, 940.21 317.11 C 939.86 320.20, 939.45 321.86, 939.11 324.54 C 938.76 327.21, 938.52 328.60, 938.48 330.48 C 938.45 332.36, 938.57 333.09, 938.93 333.94 C 939.29 334.78, 939.64 335.03, 940.30 334.71 C 940.96 334.39, 941.42 333.95, 942.23 332.33 C 943.04 330.71, 943.48 329.39, 944.34 326.60 C 945.21 323.80, 945.45 321.84, 946.56 318.36 C 947.67 314.89, 948.46 312.78, 949.89 309.24 C 951.32 305.70, 952.15 303.71, 953.72 300.67 C 955.30 297.63, 956.19 296.22, 957.76 294.02 C 959.34 291.82, 960.15 290.90, 961.60 289.68 C 963.06 288.46, 963.84 288.16, 965.03 287.90 C 966.23 287.64, 966.70 287.67, 967.59 288.37 C 968.48 289.08, 968.80 289.69, 969.46 291.42 C 970.13 293.15, 970.40 294.42, 970.92 297.01 C 971.43 299.59, 971.71 301.23, 972.03 304.35 C 972.36 307.46, 972.44 309.33, 972.55 312.59 C 972.67 315.85, 972.60 317.67, 972.62 320.63 C 972.63 323.58, 972.56 325.05, 972.60 327.37 C 972.64 329.69, 972.61 330.75, 972.82 332.23 C 973.03 333.71, 973.25 334.15, 973.66 334.75 C 974.08 335.35, 974.46 335.25, 974.87 335.21 C 975.29 335.17, 975.67 334.78, 975.74 334.53 C 975.81 334.28, 975.42 333.96, 975.21 333.96 C 975.01 333.96, 974.83 334.45, 974.71 334.53 C 974.60 334.61, 974.67 334.84, 974.65 334.36 C 974.63 333.87, 974.60 333.51, 974.62 332.11 C 974.64 330.71, 974.72 329.67, 974.77 327.37 C 974.82 325.07, 974.88 323.59, 974.87 320.62 C 974.86 317.65, 974.82 315.82, 974.73 312.52 C 974.63 309.22, 974.61 307.34, 974.37 304.14 C 974.13 300.93, 974.09 299.21, 973.52 296.48 C 972.94 293.75, 972.52 292.37, 971.52 290.48 C 970.52 288.58, 969.87 287.85, 968.51 287.02 C 967.16 286.19, 966.37 286.09, 964.76 286.33 C 963.14 286.57, 962.19 286.92, 960.45 288.21 C 958.70 289.50, 957.73 290.46, 956.04 292.78 C 954.36 295.10, 953.60 296.65, 952.02 299.80 C 950.43 302.95, 949.63 304.94, 948.12 308.51 C 946.62 312.08, 945.80 314.20, 944.50 317.65 C 943.19 321.09, 942.51 322.95, 941.62 325.73 C 940.72 328.51, 940.40 329.84, 940.02 331.54 C 939.64 333.23, 939.71 333.76, 939.71 334.21 C 939.71 334.66, 939.86 334.51, 940.03 333.80 C 940.19 333.09, 940.24 332.44, 940.53 330.65 C 940.81 328.87, 941.05 327.51, 941.44 324.86 C 941.82 322.20, 942.09 320.49, 942.45 317.37 C 942.82 314.25, 942.99 312.45, 943.26 309.26 C 943.54 306.07, 943.80 304.23, 943.83 301.41 C 943.86 298.59, 943.83 297.23, 943.42 295.15 C 943.02 293.07, 942.71 292.18, 941.81 291.02 C 940.90 289.86, 940.26 289.57, 938.92 289.37 C 937.58 289.17, 936.79 289.39, 935.11 290.03 C 933.43 290.66, 932.52 291.20, 930.51 292.55 C 928.50 293.91, 927.35 294.77, 925.06 296.81 C 922.78 298.84, 921.54 300.04, 919.10 302.73 C 916.66 305.42, 915.35 306.99, 912.85 310.24 C 910.36 313.49, 909.03 315.27, 906.64 318.99 C 904.25 322.71, 903.08 324.71, 900.92 328.82 C 898.75 332.93, 897.67 335.22, 895.81 339.54 C 893.96 343.86, 893.05 346.11, 891.63 350.44 C 890.20 354.76, 889.58 356.99, 888.69 361.16 C 887.80 365.33, 887.48 367.46, 887.18 371.28 C 886.87 375.10, 886.89 376.95, 887.16 380.24 C 887.44 383.53, 887.72 385.13, 888.55 387.72 C 889.37 390.30, 890.02 391.44, 891.31 393.18 C 892.60 394.92, 893.40 395.59, 894.99 396.43 C 896.57 397.27, 897.55 397.46, 899.24 397.38 C 900.93 397.29, 901.81 397.00, 903.45 396.01 C 905.09 395.01, 905.99 394.27, 907.44 392.39 C 908.90 390.52, 909.59 389.32, 910.71 386.62 C 911.83 383.93, 912.20 382.29, 913.02 378.90 C 913.85 375.50, 914.24 373.68, 914.84 369.64 C 915.44 365.61, 915.67 363.38, 916.04 358.71 C 916.41 354.05, 916.48 351.42, 916.68 346.32 C 916.88 341.21, 916.92 338.49, 917.04 333.19 C 917.16 327.89, 917.21 325.02, 917.30 319.82 C 917.38 314.62, 917.40 311.86, 917.46 307.19 C 917.53 302.52, 917.59 300.20, 917.62 296.48 C 917.65 292.76, 917.82 291.05, 917.61 288.59 C 917.41 286.13, 917.10 285.26, 916.60 284.17 C 916.09 283.09, 915.69 282.91, 915.08 283.17 C 914.47 283.43, 914.16 284.00, 913.54 285.48 C 912.92 286.96, 912.69 288.21, 911.98 290.57 C 911.27 292.94, 910.89 294.48, 909.99 297.32 C 909.09 300.17, 908.57 301.92, 907.47 304.80 C 906.36 307.68, 905.69 309.25, 904.45 311.72 C 903.21 314.19, 902.49 315.39, 901.25 317.17 C 900.00 318.94, 899.36 319.66, 898.24 320.60 C 897.12 321.54, 896.61 321.81, 895.63 321.88 C 894.65 321.95, 894.13 321.76, 893.33 320.96 C 892.54 320.15, 892.13 319.56, 891.64 317.86 C 891.16 316.16, 890.96 314.97, 890.92 312.46 C 890.88 309.96, 890.94 308.30, 891.44 305.34 C 891.94 302.37, 892.41 300.54, 893.41 297.64 C 894.42 294.73, 895.17 293.14, 896.47 290.80 C 897.76 288.47, 898.52 287.41, 899.87 285.96 C 901.22 284.51, 901.94 284.07, 903.21 283.54 C 904.48 283.02, 905.04 283.10, 906.22 283.35 C 907.40 283.61, 908.05 284.15, 909.12 284.83 C 910.20 285.52, 910.74 286.09, 911.60 286.79 C 912.45 287.48, 912.78 287.84, 913.38 288.29 C 913.98 288.75, 914.18 289.02, 914.57 289.08 C 914.96 289.13, 915.25 288.98, 915.33 288.57" style="stroke: black; fill: black;"/><path d="M 991.03,286.21 C 990.74 286.64, 990.69 287.10, 990.46 288.38 C 990.24 289.65, 990.04 290.44, 989.90 292.60 C 989.75 294.77, 989.70 296.32, 989.71 299.22 C 989.73 302.12, 989.97 303.91, 989.96 307.10 C 989.95 310.30, 989.82 312.08, 989.67 315.18 C 989.52 318.28, 989.38 320.00, 989.22 322.59 C 989.07 325.18, 988.95 326.39, 988.87 328.14 C 988.79 329.90, 988.71 330.60, 988.82 331.36 C 988.93 332.13, 989.12 332.29, 989.44 331.97 C 989.75 331.66, 989.97 331.19, 990.41 329.78 C 990.85 328.37, 991.11 327.37, 991.63 324.92 C 992.14 322.47, 992.25 320.77, 992.99 317.54 C 993.72 314.30, 994.16 312.25, 995.30 308.75 C 996.44 305.24, 997.28 303.27, 998.69 300.02 C 1000.09 296.76, 1000.93 295.04, 1002.32 292.46 C 1003.70 289.87, 1004.39 288.71, 1005.62 287.08 C 1006.85 285.45, 1007.46 284.91, 1008.46 284.30 C 1009.46 283.69, 1009.94 283.59, 1010.63 284.02 C 1011.33 284.46, 1011.46 284.98, 1011.93 286.48 C 1012.40 287.97, 1012.66 289.06, 1012.99 291.49 C 1013.32 293.92, 1013.49 295.57, 1013.58 298.64 C 1013.66 301.71, 1013.57 303.60, 1013.40 306.84 C 1013.23 310.08, 1013.01 311.87, 1012.74 314.86 C 1012.47 317.85, 1012.27 319.38, 1012.04 321.79 C 1011.82 324.20, 1011.64 325.27, 1011.61 326.92 C 1011.57 328.56, 1011.59 329.27, 1011.86 330.01 C 1012.14 330.75, 1012.46 330.95, 1013.00 330.62 C 1013.53 330.29, 1013.88 329.79, 1014.52 328.34 C 1015.16 326.90, 1015.52 325.88, 1016.21 323.38 C 1016.90 320.89, 1017.02 319.11, 1017.97 315.87 C 1018.93 312.63, 1019.56 310.57, 1020.97 307.18 C 1022.37 303.79, 1023.29 301.96, 1025.01 298.91 C 1026.72 295.86, 1027.81 294.26, 1029.53 291.93 C 1031.26 289.60, 1032.19 288.60, 1033.62 287.27 C 1035.06 285.95, 1035.74 285.54, 1036.72 285.30 C 1037.70 285.07, 1037.96 285.24, 1038.51 286.12 C 1039.06 287.00, 1039.24 287.78, 1039.49 289.69 C 1039.73 291.61, 1039.73 292.87, 1039.73 295.68 C 1039.73 298.49, 1039.73 300.35, 1039.50 303.76 C 1039.28 307.17, 1039.01 309.16, 1038.60 312.74 C 1038.19 316.32, 1037.87 318.34, 1037.45 321.66 C 1037.03 324.97, 1036.72 326.69, 1036.49 329.31 C 1036.27 331.94, 1036.19 333.01, 1036.34 334.78 C 1036.49 336.55, 1036.67 337.26, 1037.25 338.18 C 1037.84 339.09, 1038.32 339.34, 1039.27 339.35 C 1040.21 339.36, 1040.79 339.07, 1041.98 338.24 C 1043.17 337.40, 1043.89 336.80, 1045.22 335.18 C 1046.56 333.56, 1047.25 332.41, 1048.64 330.15 C 1050.04 327.90, 1050.74 326.51, 1052.20 323.92 C 1053.66 321.34, 1054.45 319.93, 1055.96 317.23 C 1057.47 314.52, 1058.30 313.02, 1059.76 310.39 C 1061.23 307.77, 1062.02 306.49, 1063.30 304.10 C 1064.57 301.70, 1065.20 300.52, 1066.14 298.43 C 1067.08 296.35, 1067.47 295.32, 1067.98 293.67 C 1068.50 292.03, 1068.65 291.39, 1068.72 290.21 C 1068.78 289.04, 1068.71 288.53, 1068.30 287.80 C 1067.90 287.06, 1067.57 286.70, 1066.70 286.54 C 1065.84 286.37, 1065.15 286.40, 1063.97 286.96 C 1062.80 287.53, 1062.11 288.02, 1060.82 289.36 C 1059.53 290.70, 1058.85 291.57, 1057.52 293.66 C 1056.19 295.74, 1055.39 297.06, 1054.16 299.78 C 1052.94 302.50, 1052.38 304.19, 1051.41 307.26 C 1050.45 310.33, 1049.99 312.04, 1049.35 315.13 C 1048.71 318.22, 1048.37 319.81, 1048.20 322.70 C 1048.02 325.59, 1048.11 327.07, 1048.46 329.60 C 1048.81 332.13, 1049.15 333.34, 1049.96 335.35 C 1050.77 337.35, 1051.33 338.22, 1052.53 339.62 C 1053.72 341.03, 1054.44 341.68, 1055.92 342.37 C 1057.41 343.07, 1058.32 343.23, 1059.96 343.09 C 1061.60 342.96, 1062.44 342.66, 1064.14 341.69 C 1065.84 340.72, 1066.75 340.05, 1068.44 338.23 C 1070.14 336.42, 1071.02 335.27, 1072.60 332.61 C 1074.18 329.95, 1074.89 328.26, 1076.37 324.93 C 1077.84 321.60, 1078.64 319.69, 1079.99 315.97 C 1081.34 312.24, 1081.91 310.06, 1083.12 306.30 C 1084.32 302.55, 1084.84 300.42, 1086.01 297.19 C 1087.18 293.96, 1087.92 292.49, 1088.96 290.16 C 1090.00 287.84, 1090.53 286.83, 1091.23 285.55 C 1091.93 284.27, 1092.17 283.77, 1092.46 283.76 C 1092.75 283.75, 1092.71 284.10, 1092.70 285.50 C 1092.68 286.90, 1092.51 288.03, 1092.40 290.75 C 1092.28 293.46, 1092.32 295.40, 1092.13 299.08 C 1091.93 302.76, 1091.78 305.20, 1091.42 309.15 C 1091.06 313.10, 1090.71 315.28, 1090.32 318.83 C 1089.93 322.38, 1089.59 324.21, 1089.47 326.89 C 1089.35 329.56, 1089.42 330.79, 1089.71 332.20 C 1090.01 333.61, 1090.29 333.94, 1090.93 333.91 C 1091.57 333.89, 1092.08 333.48, 1092.90 332.07 C 1093.72 330.66, 1094.19 329.45, 1095.04 326.85 C 1095.90 324.26, 1096.17 322.42, 1097.18 319.10 C 1098.18 315.79, 1098.76 313.65, 1100.05 310.29 C 1101.34 306.93, 1102.14 305.08, 1103.62 302.30 C 1105.10 299.52, 1105.95 298.28, 1107.45 296.38 C 1108.95 294.47, 1109.70 293.72, 1111.09 292.77 C 1112.48 291.82, 1113.22 291.68, 1114.39 291.64 C 1115.56 291.60, 1116.07 291.78, 1116.92 292.55 C 1117.78 293.33, 1118.05 293.87, 1118.67 295.52 C 1119.29 297.17, 1119.64 298.39, 1120.02 300.82 C 1120.40 303.26, 1120.49 304.73, 1120.55 307.70 C 1120.61 310.68, 1120.46 312.53, 1120.31 315.70 C 1120.17 318.87, 1120.03 320.63, 1119.85 323.55 C 1119.67 326.47, 1119.46 327.96, 1119.41 330.31 C 1119.36 332.67, 1119.44 333.63, 1119.59 335.34 C 1119.74 337.05, 1119.71 337.84, 1120.16 338.87 C 1120.60 339.89, 1121.02 340.27, 1121.83 340.47 C 1122.64 340.67, 1123.20 340.57, 1124.19 339.85 C 1125.17 339.14, 1125.66 338.64, 1126.75 336.91 C 1127.84 335.17, 1128.45 333.96, 1129.64 331.19 C 1130.83 328.41, 1131.43 326.66, 1132.70 323.03 C 1133.98 319.39, 1134.68 317.31, 1136.03 313.02 C 1137.38 308.73, 1138.10 306.26, 1139.47 301.58 C 1140.85 296.90, 1141.54 294.38, 1142.90 289.62 C 1144.26 284.87, 1144.93 282.35, 1146.26 277.79 C 1147.59 273.23, 1148.31 270.95, 1149.56 266.82 C 1150.80 262.69, 1151.36 260.64, 1152.48 257.13 C 1153.60 253.63, 1154.28 252.03, 1155.16 249.29 C 1156.04 246.56, 1156.47 245.22, 1156.88 243.46 C 1157.29 241.70, 1157.32 240.94, 1157.20 240.49 C 1157.09 240.03, 1156.68 240.13, 1156.29 241.17 C 1155.90 242.21, 1155.55 243.17, 1155.25 245.68 C 1154.95 248.20, 1154.92 249.97, 1154.78 253.74 C 1154.65 257.52, 1154.64 259.96, 1154.58 264.56 C 1154.52 269.15, 1154.48 271.73, 1154.47 276.73 C 1154.46 281.74, 1154.49 284.44, 1154.53 289.58 C 1154.58 294.72, 1154.64 297.48, 1154.72 302.44 C 1154.80 307.41, 1154.80 309.90, 1154.94 314.41 C 1155.09 318.93, 1155.21 321.20, 1155.44 325.03 C 1155.67 328.85, 1155.73 330.64, 1156.09 333.54 C 1156.45 336.43, 1156.69 337.58, 1157.24 339.49 C 1157.79 341.41, 1158.19 342.20, 1158.84 343.10 C 1159.50 344.00, 1160.12 343.89, 1160.51 344.00 C 1160.90 344.10, 1160.93 343.90, 1160.81 343.60 C 1160.68 343.31, 1160.24 343.42, 1159.88 342.51 C 1159.52 341.61, 1159.37 340.91, 1159.00 339.06 C 1158.63 337.22, 1158.43 336.11, 1158.04 333.28 C 1157.64 330.45, 1157.38 328.69, 1157.04 324.91 C 1156.71 321.12, 1156.55 318.86, 1156.35 314.36 C 1156.15 309.86, 1156.14 307.38, 1156.04 302.42 C 1155.94 297.46, 1155.89 294.70, 1155.85 289.57 C 1155.82 284.43, 1155.81 281.74, 1155.88 276.74 C 1155.96 271.75, 1156.01 269.18, 1156.23 264.61 C 1156.45 260.03, 1156.64 257.62, 1156.97 253.88 C 1157.30 250.14, 1157.75 248.43, 1157.89 245.91 C 1158.03 243.39, 1157.90 242.40, 1157.66 241.27 C 1157.43 240.14, 1157.22 239.92, 1156.71 240.24 C 1156.21 240.57, 1155.84 241.21, 1155.14 242.90 C 1154.44 244.58, 1154.05 245.93, 1153.20 248.68 C 1152.35 251.43, 1151.90 253.11, 1150.90 256.65 C 1149.89 260.20, 1149.34 262.26, 1148.15 266.41 C 1146.96 270.56, 1146.26 272.84, 1144.94 277.41 C 1143.63 281.98, 1142.96 284.50, 1141.59 289.25 C 1140.22 294.00, 1139.52 296.52, 1138.10 301.17 C 1136.68 305.83, 1135.95 308.28, 1134.51 312.52 C 1133.06 316.75, 1132.33 318.81, 1130.88 322.33 C 1129.44 325.85, 1128.55 327.46, 1127.28 330.12 C 1126.01 332.78, 1125.40 333.94, 1124.53 335.63 C 1123.66 337.33, 1123.42 337.82, 1122.93 338.59 C 1122.43 339.36, 1122.31 339.51, 1122.04 339.47 C 1121.78 339.44, 1121.70 339.28, 1121.59 338.44 C 1121.49 337.59, 1121.52 336.86, 1121.51 335.25 C 1121.50 333.64, 1121.43 332.71, 1121.56 330.40 C 1121.69 328.09, 1121.94 326.62, 1122.14 323.70 C 1122.34 320.78, 1122.39 319.01, 1122.56 315.81 C 1122.73 312.60, 1122.99 310.76, 1123.00 307.68 C 1123.00 304.60, 1123.03 303.02, 1122.58 300.40 C 1122.13 297.79, 1121.66 296.45, 1120.75 294.61 C 1119.83 292.76, 1119.29 292.11, 1118.01 291.19 C 1116.73 290.27, 1115.94 289.99, 1114.36 290.00 C 1112.78 290.00, 1111.82 290.22, 1110.12 291.23 C 1108.42 292.25, 1107.50 293.06, 1105.84 295.08 C 1104.18 297.10, 1103.34 298.44, 1101.80 301.33 C 1100.26 304.23, 1099.52 306.13, 1098.15 309.54 C 1096.77 312.95, 1096.12 315.08, 1094.95 318.37 C 1093.78 321.66, 1093.06 323.39, 1092.28 325.99 C 1091.50 328.59, 1091.36 329.86, 1091.07 331.37 C 1090.77 332.88, 1090.80 333.37, 1090.82 333.52 C 1090.83 333.68, 1090.98 333.43, 1091.15 332.13 C 1091.31 330.83, 1091.42 329.65, 1091.64 327.03 C 1091.86 324.40, 1091.90 322.56, 1092.24 319.03 C 1092.57 315.49, 1092.91 313.29, 1093.33 309.34 C 1093.75 305.38, 1093.98 302.95, 1094.35 299.24 C 1094.71 295.54, 1095.12 293.62, 1095.14 290.81 C 1095.16 288.00, 1094.98 286.75, 1094.46 285.20 C 1093.94 283.64, 1093.43 283.14, 1092.52 283.02 C 1091.61 282.91, 1091.01 283.37, 1089.91 284.62 C 1088.82 285.87, 1088.19 286.89, 1087.05 289.28 C 1085.92 291.67, 1085.35 293.26, 1084.23 296.56 C 1083.11 299.86, 1082.63 302.01, 1081.44 305.77 C 1080.26 309.53, 1079.68 311.68, 1078.30 315.35 C 1076.93 319.01, 1076.10 320.89, 1074.56 324.09 C 1073.01 327.30, 1072.17 328.88, 1070.59 331.38 C 1069.01 333.88, 1068.17 334.90, 1066.65 336.59 C 1065.13 338.28, 1064.37 338.91, 1062.99 339.82 C 1061.61 340.73, 1061.01 341.00, 1059.76 341.16 C 1058.51 341.33, 1057.89 341.21, 1056.74 340.65 C 1055.60 340.09, 1055.02 339.58, 1054.05 338.36 C 1053.07 337.15, 1052.56 336.41, 1051.87 334.60 C 1051.18 332.79, 1050.89 331.67, 1050.60 329.31 C 1050.31 326.96, 1050.26 325.59, 1050.43 322.84 C 1050.60 320.09, 1050.85 318.55, 1051.47 315.57 C 1052.10 312.60, 1052.56 310.90, 1053.56 307.96 C 1054.56 305.01, 1055.23 303.42, 1056.47 300.85 C 1057.71 298.28, 1058.50 297.04, 1059.76 295.09 C 1061.01 293.15, 1061.66 292.37, 1062.74 291.13 C 1063.82 289.89, 1064.38 289.53, 1065.16 288.90 C 1065.94 288.27, 1066.26 288.09, 1066.65 287.97 C 1067.05 287.85, 1067.06 287.88, 1067.14 288.29 C 1067.21 288.69, 1067.24 289.05, 1067.03 290.00 C 1066.83 290.95, 1066.68 291.52, 1066.10 293.02 C 1065.53 294.53, 1065.13 295.52, 1064.17 297.52 C 1063.21 299.52, 1062.57 300.67, 1061.30 303.03 C 1060.03 305.39, 1059.29 306.69, 1057.83 309.31 C 1056.37 311.93, 1055.56 313.45, 1054.02 316.12 C 1052.47 318.80, 1051.63 320.17, 1050.10 322.69 C 1048.57 325.20, 1047.75 326.53, 1046.35 328.70 C 1044.94 330.86, 1044.25 331.93, 1043.09 333.52 C 1041.93 335.10, 1041.33 335.68, 1040.54 336.61 C 1039.74 337.55, 1039.54 337.98, 1039.11 338.18 C 1038.68 338.39, 1038.57 338.32, 1038.38 337.63 C 1038.19 336.94, 1038.09 336.35, 1038.15 334.73 C 1038.20 333.11, 1038.39 332.08, 1038.65 329.51 C 1038.92 326.95, 1039.08 325.21, 1039.47 321.90 C 1039.85 318.59, 1040.13 316.57, 1040.58 312.98 C 1041.02 309.38, 1041.32 307.40, 1041.68 303.94 C 1042.04 300.49, 1042.35 298.62, 1042.37 295.68 C 1042.38 292.75, 1042.29 291.36, 1041.76 289.25 C 1041.22 287.15, 1040.73 286.21, 1039.68 285.15 C 1038.64 284.09, 1037.98 283.82, 1036.52 283.96 C 1035.06 284.09, 1034.13 284.47, 1032.40 285.81 C 1030.66 287.15, 1029.64 288.23, 1027.83 290.66 C 1026.01 293.09, 1025.05 294.82, 1023.31 297.97 C 1021.57 301.12, 1020.65 302.96, 1019.13 306.39 C 1017.62 309.83, 1016.89 311.90, 1015.74 315.15 C 1014.60 318.39, 1014.08 320.09, 1013.39 322.60 C 1012.69 325.12, 1012.50 326.17, 1012.29 327.70 C 1012.07 329.23, 1012.18 329.82, 1012.31 330.27 C 1012.44 330.73, 1012.70 330.62, 1012.95 329.99 C 1013.20 329.35, 1013.30 328.69, 1013.56 327.09 C 1013.81 325.50, 1013.95 324.42, 1014.23 322.02 C 1014.51 319.61, 1014.68 318.07, 1014.96 315.06 C 1015.24 312.05, 1015.39 310.26, 1015.61 306.97 C 1015.82 303.68, 1016.04 301.78, 1016.04 298.60 C 1016.04 295.43, 1016.06 293.68, 1015.62 291.09 C 1015.19 288.50, 1014.74 287.31, 1013.87 285.65 C 1012.99 283.99, 1012.48 283.35, 1011.26 282.80 C 1010.04 282.26, 1009.20 282.32, 1007.77 282.93 C 1006.34 283.55, 1005.57 284.16, 1004.11 285.86 C 1002.65 287.57, 1001.90 288.78, 1000.46 291.46 C 999.02 294.14, 998.31 295.92, 996.90 299.25 C 995.49 302.58, 994.63 304.56, 993.39 308.10 C 992.15 311.64, 991.61 313.70, 990.68 316.95 C 989.76 320.20, 989.27 321.84, 988.77 324.34 C 988.27 326.84, 988.17 327.92, 988.18 329.46 C 988.19 330.99, 988.46 331.57, 988.81 332.00 C 989.16 332.43, 989.51 332.31, 989.92 331.59 C 990.34 330.86, 990.56 330.14, 990.88 328.37 C 991.20 326.60, 991.32 325.37, 991.52 322.75 C 991.73 320.14, 991.75 318.41, 991.91 315.29 C 992.06 312.17, 992.18 310.36, 992.29 307.15 C 992.40 303.94, 992.41 302.13, 992.47 299.24 C 992.52 296.34, 992.58 294.84, 992.57 292.69 C 992.55 290.53, 992.53 289.74, 992.39 288.45 C 992.26 287.15, 992.17 286.67, 991.90 286.23 C 991.62 285.78, 991.31 285.78, 991.03 286.21" style="stroke: black; fill: black;"/><path d="M 1140.52,312.08 C 1141.00 312.19, 1141.39 311.99, 1142.61 311.85 C 1143.84 311.71, 1144.60 311.68, 1146.65 311.38 C 1148.70 311.08, 1150.13 310.81, 1152.87 310.35 C 1155.60 309.90, 1157.22 309.56, 1160.33 309.09 C 1163.45 308.62, 1165.26 308.40, 1168.45 308.01 C 1171.64 307.62, 1173.53 307.52, 1176.28 307.14 C 1179.03 306.76, 1180.31 306.51, 1182.21 306.10 C 1184.12 305.69, 1185.09 305.42, 1185.79 305.08 C 1186.48 304.73, 1186.45 304.50, 1185.69 304.37 C 1184.93 304.23, 1183.93 304.32, 1182.00 304.40 C 1180.06 304.48, 1178.76 304.50, 1175.99 304.78 C 1173.23 305.07, 1171.37 305.41, 1168.18 305.81 C 1164.99 306.20, 1163.18 306.42, 1160.03 306.77 C 1156.88 307.13, 1155.21 307.19, 1152.44 307.59 C 1149.66 307.98, 1148.22 308.28, 1146.16 308.76 C 1144.09 309.23, 1143.31 309.48, 1142.12 309.98 C 1140.93 310.48, 1140.53 310.84, 1140.21 311.26 C 1139.89 311.68, 1140.03 311.96, 1140.52 312.08" style="stroke: black; fill: black;"/></svg>