<svg xmlns="http://www.w3.org/2000/svg" viewBox="0 0 199.93 199.94"><defs><style>.cls-1{fill:#3bd8ff;}.cls-2{fill:#fff;}</style></defs><g id="Layer_2" data-name="Layer 2"><g id="Layer_1-2" data-name="Layer 1"><path class="cls-1" d="M93.33,199.94c-.9-.77-2-.59-3.08-.73-27-3.59-50.08-26.2-54.79-53.13A65.81,65.81,0,0,1,77.74,72.75a59.85,59.85,0,0,1,10.7-2.84c1-.16,1.55-.15.86-1.46-3.7-7.07-.89-14.69,6.53-17.6,1.3-.51,1.21-1.26,1.21-2.23V4.5c0-3.11,1-4.56,3-4.5s2.84,1.43,2.84,4.48q0,22.07,0,44.12c0,1.11.07,1.81,1.39,2.32a12.16,12.16,0,0,1,6.48,17.35c-.58,1.1-.67,1.41.73,1.65a65.51,65.51,0,0,1,5.26,127.81,57.32,57.32,0,0,1-10.15,1.83c-.3,0-.66-.05-.77.38h-1.17a.87.87,0,0,0-1.17,0h-7c-.22-.24-.51-.2-.78-.2s-.57,0-.78.2Z"/><path class="cls-1" d="M0,133.55a3.78,3.78,0,0,1,3.82-2.08c6.76.07,13.51,0,20.27,0,2.37,0,3.61,1,3.65,2.84s-1.28,3-3.71,3c-6.76,0-13.52,0-20.27,0A4.42,4.42,0,0,1,0,135.5Z"/><path class="cls-1" d="M186.13,131.5c3.44,0,6.88,0,10.32,0,2.17,0,3.44,1.08,3.48,2.82s-1.26,3-3.52,3q-10.32,0-20.65,0c-2.29,0-3.56-1.12-3.55-3s1.26-2.86,3.6-2.88C179.25,131.48,182.69,131.5,186.13,131.5Z"/><path class="cls-1" d="M30.87,153.43A2.6,2.6,0,0,1,29,155.86c-3.24,1.13-6.48,2.26-9.76,3.26a2.65,2.65,0,0,1-3.41-1.82,2.46,2.46,0,0,1,1.29-3.45,108.27,108.27,0,0,1,10.49-3.48C29.36,149.9,30.85,151.41,30.87,153.43Z"/><path class="cls-1" d="M184.3,156.2a2.9,2.9,0,0,1-3.65,2.91c-3.28-1-6.53-2.11-9.76-3.27a2.64,2.64,0,0,1-1.7-3.47,2.59,2.59,0,0,1,3.31-2c3.42,1,6.78,2.17,10.13,3.36A2.63,2.63,0,0,1,184.3,156.2Z"/><path class="cls-1" d="M184.29,112.72a2.85,2.85,0,0,1-1.95,2.49c-3.13,1.07-6.25,2.15-9.4,3.12a2.85,2.85,0,0,1-3.75-1.82,2.88,2.88,0,0,1,2-3.68c3-1.07,6-2.1,9-3A3,3,0,0,1,184.29,112.72Z"/><path class="cls-1" d="M30.87,115.54a2.75,2.75,0,0,1-3.48,2.86c-3.36-1-6.68-2.06-9.95-3.28a2.86,2.86,0,0,1,1.73-5.42c3.41,1,6.78,2.15,10.13,3.35A2.53,2.53,0,0,1,30.87,115.54Z"/><path class="cls-2" d="M122.89,122.2c-6.12,0-12.24,0-18.35,0-1.27,0-1.7-.32-1.67-1.63.1-3.25.07-6.51,0-9.76,0-1.12.18-1.62,1.47-1.6,4.75.08,9.5.07,14.25,0,1.14,0,1.46.48,1.59,1.44a17.29,17.29,0,0,0,.48,2.68,2.66,2.66,0,0,0,3.27,2,2.73,2.73,0,0,0,2.39-3.06c0-1-.59-2.3-.15-2.78.7-.77,2.07-.27,3.16-.28,3.06-.05,6.12,0,9.17,0,.88,0,1.42.14,1.72,1.12A104,104,0,0,1,142.87,121c.3,1.43-.58,1.25-1.44,1.25Z"/><path class="cls-2" d="M78.5,159.77c-5.59,0-11.18,0-16.77,0a1.85,1.85,0,0,1-2.15-1.59c-1-3.29-1.78-6.63-2.47-10-.19-.94-.12-1.4,1.07-1.38,4.36.07,8.71.06,13.07,0,1,0,1.39.32,1.39,1.32a11.64,11.64,0,0,0,.3,2.7,2.65,2.65,0,0,0,3,2.19,2.75,2.75,0,0,0,2.64-2.86c.05-1.07-.68-2.56.13-3.11s2.24-.21,3.4-.21c4.36,0,8.72.07,13.07-.05,1.61,0,1.92.5,1.87,2q-.15,4.59,0,9.17c.05,1.41-.27,1.9-1.79,1.87C89.69,159.71,84.09,159.77,78.5,159.77Z"/><path class="cls-2" d="M87.28,141c-2.6,0-5.2,0-7.79,0-1,0-1.5-.15-1.54-1.33-.11-3.44-.13-6.88,0-10.32,0-1,.26-1.35,1.32-1.34,5.46.06,10.91.05,16.36,0,1.1,0,1.46.29,1.44,1.42-.07,3.37-.09,6.75,0,10.12,0,1.3-.52,1.48-1.61,1.45C92.73,141,90,141,87.28,141Z"/><path class="cls-2" d="M112.49,141c-2.73,0-5.46-.05-8.18,0-1.13,0-1.45-.36-1.43-1.45.06-3.37.07-6.75,0-10.12,0-1.11.31-1.44,1.42-1.43q8.17.09,16.36,0c1,0,1.29.36,1.32,1.33.14,3.44.12,6.88,0,10.32,0,1.17-.51,1.36-1.53,1.34C117.81,141,115.15,141,112.49,141Z"/><path class="cls-2" d="M87.65,122.2c-2.6,0-5.19,0-7.79,0-1,0-1.56-.17-1.39-1.38.48-3.47.89-6.94,1.33-10.42.1-.84.48-1.18,1.4-1.17q7.29.07,14.6,0c1.1,0,1.27.46,1.26,1.4,0,3.37,0,6.75,0,10.12,0,1.09-.3,1.48-1.43,1.45C93,122.15,90.31,122.2,87.65,122.2Z"/><path class="cls-2" d="M112.34,146.86c2.67,0,5.33,0,8,0,.93,0,1.28.22,1.14,1.2-.48,3.53-.91,7.08-1.35,10.62-.1.88-.51,1.14-1.41,1.13-4.81,0-9.62,0-14.43,0-.94,0-1.43-.15-1.41-1.25q.09-5.28,0-10.54c0-1,.4-1.17,1.27-1.15C106.88,146.89,109.61,146.86,112.34,146.86Z"/><path class="cls-2" d="M135.78,141c-2.21,0-4.42,0-6.64,0-1,0-1.41-.18-1.34-1.29a77.09,77.09,0,0,0,0-10.53c0-.85.21-1.16,1.07-1.15q6.93,0,13.86,0c.74,0,1,.23,1.06,1a68.64,68.64,0,0,1,0,10.92c-.07.85-.35,1.1-1.18,1.08C140.34,141,138.06,141,135.78,141Z"/><path class="cls-2" d="M64.37,128.06c2.14,0,4.29,0,6.44,0,1,0,1.41.18,1.33,1.29a74.34,74.34,0,0,0,0,10.34c.07,1-.2,1.37-1.26,1.35-4.49-.05-9,0-13.47,0-.74,0-1.18-.07-1.25-1a69.84,69.84,0,0,1,0-10.92c.07-.88.4-1.06,1.19-1.05C59.68,128.08,62,128.06,64.37,128.06Z"/><path class="cls-2" d="M64.69,122.2c-2.14,0-4.28,0-6.42,0-1,0-1.41-.21-1.19-1.31a97.82,97.82,0,0,1,2.64-10.54,1.35,1.35,0,0,1,1.52-1.11q5.83,0,11.67,0c.88,0,1.09.25,1,1.13q-.7,5.4-1.27,10.81c-.1.91-.57,1-1.3,1C69.1,122.19,66.9,122.2,64.69,122.2Z"/><path class="cls-2" d="M135.46,146.86c2.08,0,4.16,0,6.24,0,1,0,1.37.23,1.15,1.31a100.86,100.86,0,0,1-2.64,10.54,1.33,1.33,0,0,1-1.52,1.1q-5.74-.06-11.49,0c-.85,0-1.3,0-1.15-1.14.5-3.6.91-7.21,1.28-10.82.1-.95.62-1,1.31-1Z"/><path class="cls-2" d="M89,103.41c-2.21,0-4.42,0-6.63,0-.9,0-1.06-.22-.83-1.13a97.76,97.76,0,0,1,3.37-10.75,1.4,1.4,0,0,1,1.56-1.09c3.12.05,6.24,0,9.36,0,.9,0,1.27.27,1.26,1.22q-.06,5.26,0,10.53c0,1-.35,1.24-1.26,1.22C93.52,103.38,91.25,103.41,89,103.41Z"/><path class="cls-2" d="M110.8,103.41c-2.15,0-4.29,0-6.44,0-1,0-1.5-.23-1.48-1.39.07-3.45.05-6.89,0-10.33,0-.93.3-1.26,1.23-1.25q4.68.06,9.36,0a1.41,1.41,0,0,1,1.57,1.05,104.58,104.58,0,0,1,3.38,10.75c.29,1.13-.14,1.18-1,1.16C115.22,103.39,113,103.41,110.8,103.41Z"/><path class="cls-2" d="M118.66,165.63a85.88,85.88,0,0,1-3.67,12,1.26,1.26,0,0,1-1.44.92q-4.77,0-9.55,0c-.84,0-1.12-.25-1.11-1.1,0-3.58,0-7.15,0-10.72,0-.81.2-1.15,1.08-1.14C108.83,165.65,113.7,165.63,118.66,165.63Z"/><path class="cls-2" d="M81.29,165.63c5,0,9.95,0,14.88,0,.88,0,.88.49.88,1.12,0,3.57,0,7.14,0,10.71,0,.83-.24,1.13-1.1,1.12-3.25,0-6.49,0-9.74,0-.72,0-1-.31-1.23-.93A80.07,80.07,0,0,1,81.29,165.63Z"/><path class="cls-2" d="M62.5,103.41a56.26,56.26,0,0,1,7.2-12.2,1.81,1.81,0,0,1,1.66-.75c2.14,0,4.28.05,6.42,0,1,0,1.19.24.83,1.22a77.24,77.24,0,0,0-3.06,10.42c-.22,1-.61,1.36-1.66,1.34C70.19,103.38,66.49,103.41,62.5,103.41Z"/><path class="cls-2" d="M137.46,103.41c-4,0-7.69,0-11.39,0-1,0-1.45-.29-1.68-1.32a77.2,77.2,0,0,0-3-10.42c-.35-1-.26-1.31.81-1.24.84.06,1.69,0,2.53,0,5.27,0,5.28,0,8.15,4.37A52,52,0,0,1,137.46,103.41Z"/><path class="cls-2" d="M62.5,165.63c4.07,0,8,0,11.83,0,.73,0,1,.26,1.14,1a86.11,86.11,0,0,0,3.24,11c.32.86,0,1-.75,1-2.27,0-4.55,0-6.82,0a1.51,1.51,0,0,1-1.32-.63A56.34,56.34,0,0,1,62.5,165.63Z"/><path class="cls-2" d="M137.45,165.63a57.42,57.42,0,0,1-7.3,12.27,1.67,1.67,0,0,1-1.5.66c-2.46,0-4.93,0-7.66,0,.55-1.69,1.1-3.23,1.56-4.8.67-2.3,1.31-4.61,1.88-6.94.19-.8.38-1.22,1.34-1.21C129.6,165.66,133.42,165.63,137.45,165.63Z"/><path class="cls-2" d="M149.94,134.53c-.1-1.74-.15-3.5-.31-5.24-.08-.92.16-1.27,1.14-1.25,2.46.05,4.93.06,7.4,0,1,0,1.15.34,1.23,1.22a56.66,56.66,0,0,1,0,10.5c-.1,1-.43,1.29-1.41,1.26-2.4-.06-4.81-.05-7.21,0-.94,0-1.25-.27-1.16-1.23C149.79,138.05,149.84,136.29,149.94,134.53Z"/><path class="cls-2" d="M50,133.9c.09,1.74.15,3.81.32,5.88.07.94-.2,1.26-1.16,1.24-2.47-.05-4.94,0-7.4,0-.8,0-1.12-.19-1.2-1.06a56.6,56.6,0,0,1,0-10.89c.09-.9.46-1,1.22-1,2.47,0,4.94.05,7.4,0,1,0,1.24.31,1.14,1.24C50.16,130.7,50.12,132.13,50,133.9Z"/><path class="cls-2" d="M100.05,68.92a6.37,6.37,0,0,1-6.15-4.23,6.54,6.54,0,0,1,1.88-7.08c.67-.56,1.1-1,1.82.19a2.69,2.69,0,0,0,4.78-.06c.65-1.11,1-.74,1.67-.23a6.61,6.61,0,0,1,2.06,7A6.42,6.42,0,0,1,100.05,68.92Z"/><path class="cls-2" d="M153.26,122.2c-1.21-.13-3.08.62-4-.3s-.67-2.64-1-4c-.58-2.46-1.12-4.93-1.84-7.34-.34-1.14,0-1.32,1-1.29,1.81,0,3.63,0,5.44,0a1.61,1.61,0,0,1,1.76,1.12,72.6,72.6,0,0,1,3.51,10.46c.24,1,.1,1.46-1.05,1.39S154.69,122.2,153.26,122.2Z"/><path class="cls-2" d="M53.9,109.27a82.67,82.67,0,0,0-2.74,12c-.12.9-.61,1-1.33,1-2.33,0-4.67,0-7,0-1,0-1.21-.38-1-1.28a63.77,63.77,0,0,1,3.68-10.81,1.25,1.25,0,0,1,1.31-.87C49.09,109.29,51.35,109.27,53.9,109.27Z"/><path class="cls-2" d="M146,159.77a86.5,86.5,0,0,0,2.76-12.09c.09-.69.47-.82,1-.82,2.47,0,4.94,0,7.41,0,1,0,1,.47.84,1.2a62.89,62.89,0,0,1-3.67,10.84,1.22,1.22,0,0,1-1.28.9C150.83,159.74,148.51,159.77,146,159.77Z"/><path class="cls-2" d="M53.91,159.77H49.17c-3.37,0-3.38,0-4.63-3.18a76.09,76.09,0,0,1-2.66-8.33c-.3-1.15,0-1.46,1.16-1.42,2.27.07,4.55,0,6.82,0,.73,0,1.19.09,1.31,1A82.23,82.23,0,0,0,53.91,159.77Z"/><path class="cls-2" d="M137.07,90.67A4.5,4.5,0,0,1,141.91,92a64.51,64.51,0,0,1,8.94,11.37h-6.36a.88.88,0,0,1-.86-.63A71.07,71.07,0,0,0,137.07,90.67Z"/><path class="cls-2" d="M62.84,90.67a72.29,72.29,0,0,0-6.45,12,1.1,1.1,0,0,1-1.18.77c-1.93,0-3.85,0-6.11,0a62.45,62.45,0,0,1,8.57-11C59.06,91,60.48,90,62.84,90.67Z"/><path class="cls-2" d="M113.42,192.47a46.87,46.87,0,0,0,4.55-7.33c.36-.76.94-.74,1.6-.74h12.5C129.69,187,119.55,191.43,113.42,192.47Z"/><path class="cls-2" d="M67.33,184.41c4.83,0,9.09,0,13.35,0,.81,0,1.08.42,1.42,1,1,1.79,2.13,3.54,3.18,5.32.25.43.92.82.57,1.33s-1.08.16-1.61,0A60.51,60.51,0,0,1,67.33,184.41Z"/><path class="cls-2" d="M150.84,165.63a59.35,59.35,0,0,1-10.1,12.42c-1.06,1-2.32.24-3.88.67a74.32,74.32,0,0,0,6.74-12.47c.32-.77.9-.61,1.45-.62Z"/><path class="cls-2" d="M62.86,178.38a4.61,4.61,0,0,1-5-1.52,69.56,69.56,0,0,1-8.82-11.23h6.2a1,1,0,0,1,1.05.62A74.29,74.29,0,0,0,62.86,178.38Z"/><path class="cls-2" d="M86.16,76.7c-1.48,2.39-3,4.65-4.17,7.1a1.22,1.22,0,0,1-1.17.83c-4.26,0-8.52,0-12.82-.21A48.22,48.22,0,0,1,86.16,76.7Z"/><path class="cls-2" d="M113.78,76.71a53,53,0,0,1,18.48,7.64,8.45,8.45,0,0,1-3.2.26c-3.12,0-6.24,0-9.36,0-.74,0-1.37,0-1.77-.84A60.54,60.54,0,0,0,113.78,76.71Z"/><path class="cls-2" d="M111.77,184.41c-2.36,3.84-4.7,7.17-8.87,9.18,0-3,0-5.58,0-8.21,0-.78.3-1,1-1C106.43,184.42,108.94,184.41,111.77,184.41Z"/><path class="cls-2" d="M97.05,193.6c-4.17-2-6.5-5.35-8.86-9.19,2.87,0,5.48,0,8.09,0,.8,0,.77.51.77,1Z"/><path class="cls-2" d="M102.9,75.38c4.21,2.08,6.6,5.38,8.88,9.24-2.86,0-5.43,0-8,0-.86,0-.89-.55-.88-1.17Z"/><path class="cls-2" d="M97.05,75.43c0,2.93,0,5.57,0,8.22,0,.78-.36,1-1.07,1-2.47,0-4.93,0-7.81,0C90.49,80.78,92.84,77.46,97.05,75.43Z"/></g></g></svg>