<svg xmlns="http://www.w3.org/2000/svg" viewBox="0 0 200 169.57"><defs><style>.cls-1{fill:#3bd8ff;}.cls-2{fill:#fff;}</style></defs><g id="Layer_2" data-name="Layer 2"><g id="Layer_1-2" data-name="Layer 1"><path class="cls-1" d="M200,66c-1,2.67-1,5.53-1.7,8.27-3.57,14.15-11.4,25.4-22.67,34.55q-36,29.21-71.78,58.64c-3.4,2.78-4.38,2.81-7.75.05Q59.23,137.4,22.37,107.26A58.78,58.78,0,0,1,.72,68.82c-2.21-15.41.58-29.89,9.45-42.74C23.27,7.1,41.55-1.59,64.6.35A53.9,53.9,0,0,1,98.89,16.21c.89.89,1.28.75,2.1,0C113.22,4.3,128-1.07,144.85.18,169.9,2,186.62,15.65,196.06,38.59a53.38,53.38,0,0,1,3.56,14.92c0,.31,0,.66.38.78v2a.91.91,0,0,0,0,1.18v5.85a.51.51,0,0,0,0,.79Z"/><path class="cls-1" d="M200,57.42c-.45-.39-.6-.79,0-1.18Z"/><path class="cls-1" d="M200,64.06c-.53-.26-.42-.52,0-.79Z"/><path class="cls-2" d="M192.73,60.94c-.47,15.93-6.41,29.9-19.37,40.52Q137.6,130.77,101.78,160c-.77.63-1.25,1-2.24.14C75.45,140.41,51.28,120.75,27.22,101,16.07,91.77,10.11,79.72,8.77,65.43,7.39,50.63,11.34,37.4,21,26,39,4.51,69.7,3.32,89.2,17.94a71.27,71.27,0,0,1,8,7.41c2.33,2.37,4.45,2.45,6.69,0,5.58-6.07,12-11,19.77-13.84,31.31-11.46,62,8,68,38.16A63.79,63.79,0,0,1,192.73,60.94Z"/><path class="cls-1" d="M100.54,71.26c21.84-.1,40,18.76,38.58,40.08a16.73,16.73,0,0,1-17.65,15.36c-6.36-.49-12.7-1.17-19-1.83-3.54-.36-7,.48-10.48.69-5.06.3-10.06,1.53-15.16,1A16.69,16.69,0,0,1,62.07,110.9C61.11,89.61,78.82,71.35,100.54,71.26Z"/><path class="cls-1" d="M118.2,64.1a15.59,15.59,0,0,1-15.57-15.45,15.66,15.66,0,1,1,31.31.13A15.67,15.67,0,0,1,118.2,64.1Z"/><path class="cls-1" d="M81.62,64.1a15.62,15.62,0,0,1,0-31.24A15.42,15.42,0,0,1,97.31,48.77,15.58,15.58,0,0,1,81.62,64.1Z"/><path class="cls-1" d="M143.91,58.54a13.48,13.48,0,0,1,13.53,13.29,13.51,13.51,0,1,1-13.53-13.29Z"/><path class="cls-1" d="M42.51,72A13.19,13.19,0,0,1,56.15,58.54a13.51,13.51,0,0,1,0,27A13.22,13.22,0,0,1,42.51,72Z"/><path class="cls-2" d="M70.51,109.19c.43-15.77,12.92-28.51,29.05-29.62a30.81,30.81,0,0,1,32,25.28,28.74,28.74,0,0,1,.45,5.62,9,9,0,0,1-9.95,8.84c-5.82-.55-11.65-1.08-17.46-1.75-5.5-.63-10.87.65-16.31,1-2.33.14-4.65.47-7,.68C74.51,119.82,70.33,115.93,70.51,109.19Z"/><path class="cls-2" d="M118.87,56.68a7.64,7.64,0,0,1-7.77-8A7.81,7.81,0,0,1,118.85,41a7.94,7.94,0,0,1,7.92,7.74A7.73,7.73,0,0,1,118.87,56.68Z"/><path class="cls-2" d="M90.14,48.81a7.83,7.83,0,1,1-15.65.06,7.83,7.83,0,0,1,15.65-.06Z"/><path class="cls-2" d="M138.89,72.43a5.69,5.69,0,0,1,11.38,0,5.69,5.69,0,1,1-11.38,0Z"/><path class="cls-2" d="M56.59,78.16a5.7,5.7,0,0,1-5.69-5.71,5.54,5.54,0,0,1,5.69-5.65,5.65,5.65,0,0,1,5.74,5.66A5.82,5.82,0,0,1,56.59,78.16Z"/></g></g></svg>