<svg xmlns="http://www.w3.org/2000/svg" viewBox="0 0 200 183.84"><defs><style>.cls-1{fill:#3bd8ff;}.cls-2{fill:#fff;}</style></defs><g id="Layer_2" data-name="Layer 2"><g id="Layer_1-2" data-name="Layer 1"><path class="cls-1" d="M170.76,172.74a29.44,29.44,0,0,1-13,9.37,29,29,0,0,1-9.86,1.73H52.14a26.9,26.9,0,0,1-9.28-1.57,3.55,3.55,0,0,0-2.68.05A22.48,22.48,0,0,1,20,142.44c1.4-.89,1.22-1.78,1.08-3-1.48-12.67-3-25.34-4.36-38-.14-1.25-.52-1.54-1.69-1.48-1.81.1-3.63.06-5.44,0A9.65,9.65,0,0,1,0,90.44c0-2,0-4,0-6,0-6,3.88-10,9.84-10.22.33,0,.65,0,1.05-.09-2.36-11.16-4.69-22.24-7-33.32A22.57,22.57,0,1,1,48,31.05c1.88,8.36,3.58,16.77,5.42,25.44,3.3-3,6.45-5.92,9.6-8.83q5.85-5.38,11.68-10.81c1.15-1.07,2.36-1.8,4-1.11s2,2.12,2,3.79c0,10.95,0,21.91-.06,32.86,0,1.56.44,1.85,1.89,1.82,4.61-.08,4.61,0,4.61-4.71,0-18.81,0-37.62,0-56.44a12.89,12.89,0,1,1,25.77,0c.05,16.32,0,32.65,0,49,0,3.56,0,7.12,0,10.68,0,1.1.22,1.54,1.41,1.47,2.07-.12,4.56.59,6.11-.33s1.4-3.59,2-5.5c2-6.67,3.88-13.38,6-20a34.68,34.68,0,0,1,16.81-20.72,4.31,4.31,0,0,0,2.54-3.24,16.48,16.48,0,0,1,.9-3.08c.53-1.37.81-2.5-.75-3.53-1-.68-.93-2-.65-3.17,1-4,1.91-7.95,2.94-11.9A3.24,3.24,0,0,1,154.39.16q12.11,3,24.19,6c2.5.63,3.36,2.14,2.75,4.7-.91,3.78-1.87,7.54-2.81,11.31-.43,1.73-1.36,3-3.29,2.93-1,0-1.08.52-1.27,1.16-.55,1.86-1.06,3.74-1.65,5.58a2.16,2.16,0,0,0,.37,2c6.41,9.74,7.91,20.17,4.39,31.32-.91,2.87-1.69,5.77-2.53,8.67.57.5,1.19.27,1.74.27,4.64,0,9.28,0,13.91,0A9.64,9.64,0,0,1,200,83.85q.06,3.23,0,6.45a9.66,9.66,0,0,1-9.78,9.67c-1.27,0-2.55,0-3.83,0-2.83,0-2.88,0-3.19,2.71-1.52,13.07-3,26.15-4.54,39.21a4,4,0,0,0,1.31,3.7q7.8,7.6,15.41,15.38A12.69,12.69,0,0,1,198,175.47,12.84,12.84,0,0,1,185.71,183a12.69,12.69,0,0,1-8.63-3.82C175,177.09,172.94,175,170.76,172.74Z"/><path class="cls-2" d="M97.38,177.31c1.22-2.15,2.32-4.11,3.44-6.06a40.39,40.39,0,0,0,5.31-25.34c-1.33-11.11-11.88-16.81-21.85-11.79-.18.1-.37.18-.77.37a14.87,14.87,0,0,1,3.27-5.71,21.13,21.13,0,0,1,9-6.27,3.29,3.29,0,0,0,2.42-3.13,3.11,3.11,0,0,0-1.78-2.93,3.63,3.63,0,0,0-3.29.14c-8.31,3.43-13.93,9.33-16.59,18-.12.39-.26.77-.44,1.29-5.2-4-10.82-4.95-16.7-1.88s-7.95,8.38-8,15.18a23.78,23.78,0,0,0-11.85-9.29,20.56,20.56,0,0,1,8.82-7.19c.61-.27,1.25-.48,1.84-.8A3.19,3.19,0,0,0,47.57,126a27.34,27.34,0,0,0-14.08,11.17c-.6.93-4.65,2.26-5.66,1.86-.62-.24-.39-.78-.44-1.2q-1.59-13.5-3.16-27c-.36-3.06-.65-6.14-1.09-9.19-.17-1.21-.1-1.62,1.37-1.77,3.37-.36,5.69.73,7.89,3.39,4.05,4.91,8.55,9.47,12.86,14.17,2.34,2.55,4,2.52,6.34-.08,4.94-5.4,9.91-10.78,14.81-16.21A3.28,3.28,0,0,1,69.16,100q13.5.08,27,0a3.74,3.74,0,0,1,3,1.25q32.81,32.88,65.71,65.68c1.16,1.16,1,1.77,0,2.84-4.4,4.79-9.8,7.56-16.3,7.61-16.72.13-33.45,0-50.18,0C98.13,177.38,97.89,177.35,97.38,177.31Z"/><path class="cls-2" d="M107,83.86c1.57,0,3.19,1.06,4.68,2.55q25.62,25.66,51.28,51.3,13.68,13.68,27.37,27.35c1.79,1.79,2.75,3.82,2.24,6.34a6.47,6.47,0,0,1-10.3,3.76,12.19,12.19,0,0,1-1.18-1.09q-39.27-39.25-78.53-78.51c-2.11-2.11-3.18-4.46-2.15-7.44C101.29,85.57,103.71,83.88,107,83.86Z"/><path class="cls-2" d="M25.83,74.18c-2.35,0-4.7,0-7,0-.8,0-1.28,0-1.5-1.08-2.38-11.61-5-23.18-7.23-34.82C8.4,29.78,14.14,21.73,22.71,19.9A16,16,0,0,1,41.48,31.78c2.18,9.46,4.06,19,6.12,28.48a2.22,2.22,0,0,1-.85,2.41q-5.69,5.11-11.24,10.38a3.82,3.82,0,0,1-3,1.15C30.26,74.11,28.05,74.18,25.83,74.18Z"/><path class="cls-2" d="M100,149.91a34.29,34.29,0,0,1-3.55,15.7c-1.69,3.27-3.54,6.47-5.38,9.65-1.46,2.51-3.7,2.77-5.83.74-1.35-1.3-2.63-2.69-4-4-1.63-1.52-3.18-1.51-4.8,0s-2.81,2.88-4.3,4.24c-1.69,1.54-4,1.49-5.07-.36-3.52-6-7.48-11.78-8.73-18.84a33.65,33.65,0,0,1-.25-11.41,8.23,8.23,0,0,1,13.63-4.86,12.2,12.2,0,0,1,1.47,1.65c3.2,4,8.13,4,11.31,0,2.63-3.31,5.79-4.49,9.34-3.37a7.9,7.9,0,0,1,5.74,6.6A21.54,21.54,0,0,1,100,149.91Z"/><path class="cls-2" d="M115,80.63h74c3.59,0,4.56,1,4.57,4.48,0,1.48,0,3,0,4.43,0,2.86-1.15,4-4.06,4H152c-7.52,0-15,0-22.55,0a2.88,2.88,0,0,1-2.34-.8C123.21,88.78,119.25,84.88,115,80.63Z"/><path class="cls-2" d="M20.38,80.7H76.46l-4.33,4.72q-11.3,12.35-22.6,24.67c-.62.68-1,1.47-2.08.26C38.75,100.74,30,91.21,21.19,81.66,21,81.43,20.79,81.17,20.38,80.7Z"/><path class="cls-2" d="M93.55,42.74c0-9.93,0-19.87,0-29.81a6.43,6.43,0,0,1,12.67-1.58,9.54,9.54,0,0,1,.21,2.39c0,19.54,0,39.08,0,58.62,0,1.52-.36,1.92-1.87,1.86-3.15-.13-6.31-.11-9.46,0-1.32,0-1.65-.34-1.65-1.65C93.57,62.62,93.55,52.68,93.55,42.74Z"/><path class="cls-2" d="M172.53,137.68,134.84,100h1.86c12.82,0,25.64,0,38.45,0,1.72,0,1.85.47,1.66,2-1.34,11-2.58,22.11-3.84,33.17A8.23,8.23,0,0,1,172.53,137.68Z"/><path class="cls-2" d="M167.88,24.12c-.71,2.38-1.33,4.78-2.13,7.12a5.31,5.31,0,0,0,.93,5.41,28.55,28.55,0,0,1,5.76,19.24c-.07,1.39-.3,1.9-2,1.47C159.23,54.47,148,51.71,136.7,49c-1.44-.34-1.61-.72-1-2a28.44,28.44,0,0,1,14.18-14.5,5.46,5.46,0,0,0,3.33-3.92c.56-2.28,1.35-4.49,1.93-6.76.24-1,.55-1.38,1.62-1.09,3.37.9,6.76,1.71,10.13,2.59C167.3,23.36,168.12,23.17,167.88,24.12Z"/><path class="cls-2" d="M35.94,149.17a5.59,5.59,0,0,1,0-.87c.3-2.69.46-2.78,2.88-1.7a16.13,16.13,0,1,1-10.72-.82c.57-.16,1.58-.49,1.61-.1a8.08,8.08,0,0,1-.48,3.3c-.21.58-.94.09-1.42-.08-2.56-.89-4.33-.33-5,1.65a3,3,0,0,0,1.62,3.88,17.11,17.11,0,0,0,15.69,0,3,3,0,0,0,1.57-4.06,3.14,3.14,0,0,0-4.14-1.76C37,148.78,36.54,149,35.94,149.17Z"/><path class="cls-2" d="M127.39,74.18c1.85-6.25,3.66-12.26,5.4-18.3.31-1.08.77-1.08,1.73-.84,11.42,2.88,22.85,5.75,34.3,8.49,1.68.41,1.78,1,1.26,2.39-.85,2.32-1.59,4.69-2.29,7.06-.24.83-.54,1.22-1.48,1.22C153.42,74.17,140.54,74.18,127.39,74.18Z"/><path class="cls-2" d="M74.19,46.07c0,9.34,0,18.24,0,27.15,0,.84-.35,1-1.07,1-9.64,0-19.28,0-29.39,0Z"/><path class="cls-2" d="M73.57,93.43,84.84,81.1a1.31,1.31,0,0,1,1-.48H97.8c-3.61,3.77-5,7.89-3.83,12.8Z"/><path class="cls-2" d="M23.31,93.53c-4.72,0-8.94,0-13.15,0-2.48,0-3.65-1.23-3.69-3.73,0-1.94,0-3.88,0-5.82a3,3,0,0,1,2.29-3.16,3.29,3.29,0,0,1,3.78.88C16,85.6,19.51,89.38,23.31,93.53Z"/><path class="cls-2" d="M154.26,12.72c.41-1.63.84-3.24,1.22-4.87.19-.81.71-.61,1.23-.48,5.51,1.38,11,2.78,16.53,4.12.94.23,1.23.62.91,1.5,0,.06,0,.13,0,.2-.42,1.54-.38,3.67-1.39,4.46s-3-.4-4.48-.76c-4.29-1-8.56-2.11-12.83-3.19C154.88,13.57,154.12,13.66,154.26,12.72Z"/><path class="cls-2" d="M60.32,177.41c-4-.16-7.81.29-11.86-.4a24.14,24.14,0,0,0,5.8-10.67Z"/><path class="cls-1" d="M116,132.23c-3.09,0-3.09,0-3.09-3.16s0-3.29,3.36-3.29c3.09,0,3.09,0,3.09,3.16S119.35,132.23,116,132.23Z"/><path class="cls-1" d="M116.29,145.13c-3.39,0-3.39,0-3.39-3.46,0-3,0-3,3-3,3.4,0,3.4,0,3.4,3.46C119.35,145.13,119.35,145.13,116.29,145.13Z"/><path class="cls-1" d="M132.25,142c0,3.13,0,3.13-3.12,3.13-3.33,0-3.33,0-3.33-3.32,0-3.13,0-3.13,3.12-3.13C132.25,138.68,132.25,138.68,132.25,142Z"/><path class="cls-1" d="M119.35,154.81c0,3.22,0,3.22-3.23,3.22s-3.22,0-3.22-3.23,0-3.22,3.23-3.22S119.35,151.58,119.35,154.81Z"/><path class="cls-1" d="M132.22,154.81c0,3.22,0,3.22-3.23,3.22s-3.22,0-3.22-3.23,0-3.22,3.23-3.22S132.22,151.58,132.22,154.81Z"/><path class="cls-1" d="M145.12,154.81c0,3.22,0,3.22-3.23,3.22s-3.22,0-3.22-3.23,0-3.22,3.23-3.22S145.12,151.58,145.12,154.81Z"/><path class="cls-1" d="M119.35,167.8c0,3.13,0,3.13-3.12,3.13-3.33,0-3.33,0-3.33-3.32,0-3.13,0-3.13,3.12-3.13C119.35,164.48,119.35,164.48,119.35,167.8Z"/><path class="cls-1" d="M129,170.93c-3.22,0-3.22,0-3.22-3.23s0-3.22,3.23-3.22,3.22,0,3.22,3.23S132.22,170.93,129,170.93Z"/><path class="cls-1" d="M142,164.48c3.15,0,3.15,0,3.15,3.1,0,3.35,0,3.35-3.29,3.35s-3.16,0-3.16-3.09C138.67,164.48,138.67,164.48,142,164.48Z"/><path class="cls-1" d="M25.14,65.54c-1.74-.09-3-.83-3.32-2.49s.28-3.27,2-3.69c4.47-1.12,9-2.06,13.53-2.88A2.84,2.84,0,0,1,40.66,59a2.92,2.92,0,0,1-2.08,3.63,35.82,35.82,0,0,1-4.09,1C31.35,64.28,28.2,64.91,25.14,65.54Z"/><path class="cls-1" d="M35.43,34.54a3.08,3.08,0,0,1-2.28,2.9c-4.37,1-8.75,2-13.15,2.8a3,3,0,0,1-3.54-2.52A3.07,3.07,0,0,1,18.71,34c4.36-1,8.75-2,13.15-2.77A3.22,3.22,0,0,1,35.43,34.54Z"/><path class="cls-1" d="M22.88,52.88c-2.38,0-3.5-1-3.8-2.7a2.79,2.79,0,0,1,2.07-3.44q6.74-1.6,13.53-2.84a2.73,2.73,0,0,1,3.24,2.34c.4,1.7-.17,3.26-1.89,3.7C31.5,51.09,26.91,52,22.88,52.88Z"/><path class="cls-1" d="M78.9,156.35a18.84,18.84,0,0,1-7.6-1.73,3.27,3.27,0,0,1-1.85-4.32,3.17,3.17,0,0,1,4.39-1.56,12.11,12.11,0,0,0,10.13,0,3.15,3.15,0,0,1,4.25,1.52,3.27,3.27,0,0,1-1.74,4.35A18.6,18.6,0,0,1,78.9,156.35Z"/></g></g></svg>