<svg xmlns="http://www.w3.org/2000/svg" viewBox="0 0 199.8 109.59"><defs><style>.cls-1{fill:#fff;}.cls-2{fill:#3bd8ff;}</style></defs><g id="Layer_2" data-name="Layer 2"><g id="Layer_1-2" data-name="Layer 1"><path class="cls-1" d="M99.77,24.06c15.11,0,30.21,0,45.32,0,2.18,0,3.15.2,3,1.56a24.91,24.91,0,0,0,0,5.66c.12,1.19-.47,1.54-2.7,1.52-8.85-.08-17.7,0-26.55,0-21.24,0-42.48-.05-63.72,0-3.38,0-4.22-.55-3.94-2.27a17.65,17.65,0,0,0,0-4.87c-.16-1.3.63-1.63,3-1.62C69.33,24.09,84.55,24.06,99.77,24.06Z"/><path class="cls-1" d="M155,70.13c6.17,0,12.33,0,18.49,0,9.82,0,16.39-6.74,17.15-17,1-13.82,2.31-27.62,3.47-41.43.18-2.12.37-4.23.53-6.35a3.48,3.48,0,0,0-1.89-3.66C188-.7,181.49,2.94,180.84,8.37c-.38,3.16-.58,6.34-.85,9.51-.77,9-1.35,17.91-2.35,26.83-.8,7.14-5.57,11.25-12.48,11.29-8.26,0-16.52,0-24.78,0-5.93,0-9.73,4.19-9.57,10.36.07,2.59,1.13,3.73,3.64,3.74C141.29,70.15,148.13,70.13,155,70.13Z"/><path class="cls-2" d="M64.2,75.28a8.74,8.74,0,0,0,8.67-8.73c.31-9.35-5.93-15.9-15.26-15.94-7.8,0-15.61,0-23.42,0-3.94,0-6.18-2-6.53-6-.73-8-1.35-16.08-2.1-24.1a85.09,85.09,0,0,0-1.09-10.08c-1.75-8.1-12.42-13-19.77-9.1A8.08,8.08,0,0,0,.15,7.53C-.22,8.73.2,14,.23,14.3,1.41,27.71,2.54,41.12,3.77,54.53,4.63,63.89,9.22,70.61,18.15,74c1.19.46,1.21.9.87,2-1.44,4.5-2.8,9-4.18,13.57q-2.29,7.53-4.58,15.08c-.13.43-.26.87-.35,1.31a2.8,2.8,0,0,0,2,3.5,2.77,2.77,0,0,0,3.52-2c1.08-3.19,2.07-6.42,3-9.66.29-1,.65-1.47,1.82-1.47q18.75.08,37.48,0a1.5,1.5,0,0,1,1.74,1.29q1.37,4.66,2.84,9.3c.67,2.09,2.09,3,3.72,2.5,1.78-.55,2.47-2.1,1.82-4.25-1.38-4.6-2.8-9.18-4.2-13.77-1.62-5.32-3.24-10.65-4.9-16.13C60.7,75.28,62.45,75.33,64.2,75.28ZM24.85,90.5c-4.19,0-4.19,0-3-4,1-3.22,2-6.44,3-9.67.3-1,.67-1.57,1.94-1.56,8.13.08,16.26,0,24.39,0,1,0,1.51.14,1.82,1.21,1.33,4.61,2.77,9.18,4.26,14Z"/><path class="cls-2" d="M99.94,32.8h44.71c2.66,0,3-.6,1.85-3a7.43,7.43,0,0,0-7.16-4.16H80.57a10.89,10.89,0,0,1-2.14-.09,2.86,2.86,0,0,1-.49-5.47,5.69,5.69,0,0,1,2.31-.3q29.39,0,58.77,0c6.48,0,11.58,3.48,13.4,9.05s-1.22,9.75-6.95,9.78c-10.94.05-21.87,0-32.8,0a7.61,7.61,0,0,1-1.17,0c-1.26-.19-1.49.4-1.49,1.56q0,25.18,0,50.37c0,1.26.41,1.47,1.55,1.47,7.34,0,11,5.58,11.31,12.1a5.3,5.3,0,0,1-4.55,5.31,9.2,9.2,0,0,1-1.74.12q-16.69,0-33.39,0c-4.84,0-7.24-3.14-6.05-7.84,1.71-6.79,4.35-9.07,11.48-9.68,1.13-.09,1-.67,1-1.39,0-3.13,0-6.25,0-9.38,0-13.53,0-27.07,0-40.6,0-1.58-.33-2.08-2-2.07-10.87.08-21.74.05-32.61,0a13.47,13.47,0,0,1-3.48-.3,6.81,6.81,0,0,1-4.69-8.27A13.25,13.25,0,0,1,59.38,19.86c1.82-.12,3.65-.09,5.47,0,2.07.07,3.39,1.34,3.31,3.06s-1.36,2.73-3.37,2.78c-1.69,0-3.39-.06-5.08,0A7.26,7.26,0,0,0,53,30.21c-.91,2-.54,2.56,1.65,2.59.39,0,.78,0,1.17,0Z"/><path class="cls-2" d="M194.27,1.06c-8.28-2.73-18.44,1-19.45,11.71-1,10.49-1.87,21-2.77,31.5-.37,4.28-2.52,6.32-6.79,6.33-7.75,0-15.49,0-23.24,0-9.51,0-16,7.09-15.2,16.56a8.7,8.7,0,0,0,8.29,8.08c1.87.09,3.74,0,5.74,0-.18.75-.3,1.31-.47,1.86q-4.15,13.58-8.33,27.16c-.9,2.93-.38,4.58,1.63,5.17,1.83.53,3.11-.6,4-3.51.8-2.61,1.65-5.2,2.36-7.83a2,2,0,0,1,2.35-1.8q17.87.12,35.74,0c2,0,3,.36,3.45,2.49a77.18,77.18,0,0,0,2.67,8.74,2.72,2.72,0,0,0,3.4,1.91,2.85,2.85,0,0,0,2.11-3.44,11.41,11.41,0,0,0-.39-1.5l-8.25-27c-.86-2.82-.86-2.82,1.79-4,.41-.19.81-.41,1.21-.61,2.17-1.12,2.89-2.66,2-4.34s-2.41-1.93-4.55-.9A15.11,15.11,0,0,1,175,69.4q-19.51,0-39,0c-2.26,0-3.28-1.11-3.35-3.4-.18-5.68,3.48-9.53,9.17-9.56,7.62,0,15.23,0,22.85,0,8.3,0,12.67-4.23,13.3-12.51.76-9.92,1.67-19.83,2.62-29.74.56-5.8,3.25-8.11,9.08-8.07,3.39,0,4.57,1.32,4.21,4.73-1.68,15.91-2.37,31.91-4.57,47.77a2.87,2.87,0,0,0,2.26,3.53c1.55.33,2.94-.59,3.46-2.42a29.73,29.73,0,0,0,.91-5.56Q197.19,39.61,198.5,25c.43-4.86.91-9.71,1.27-14.58C200.09,6.09,198,2.3,194.27,1.06ZM146.83,76c.23-.75.82-.69,1.41-.68h25c.59,0,1.09-.06,1.33.74,1.43,4.77,2.92,9.53,4.43,14.42H142.44Z"/><path class="cls-1" d="M43.81,69.44c-5.93,0-11.85,0-17.77,0-9.44,0-15.75-6.19-16.48-15.64-1-12.7-2.22-25.39-3.34-38.08-.17-2-.35-3.89-.5-5.83A3.17,3.17,0,0,1,7.53,6.51c4.53-2.19,10.78,1.16,11.41,6.15.37,2.9.55,5.83.81,8.74.74,8.23,1.3,16.47,2.27,24.67.77,6.56,5.35,10.34,12,10.38,7.94,0,15.88,0,23.82,0,5.7,0,9.35,3.84,9.2,9.52-.07,2.38-1.09,3.43-3.5,3.44C57,69.46,50.38,69.44,43.81,69.44Z"/><path class="cls-1" d="M104.17,65.44c0,8.32,0,16.65,0,25,0,1.21-.2,1.74-1.57,1.65a46.3,46.3,0,0,0-5.65,0c-1.19.07-1.54-.25-1.52-1.48.07-4.88,0-9.76,0-14.64,0-11.71.05-23.42,0-35.13,0-1.86.55-2.32,2.27-2.17a31.67,31.67,0,0,0,4.87,0c1.3-.09,1.63.34,1.62,1.62C104.14,48.65,104.17,57.05,104.17,65.44Z"/><path class="cls-1" d="M116.86,103.66H82.8c.74-4.59,2.12-5.77,6.69-5.77h20.66C114.75,97.89,116.08,99,116.86,103.66Z"/></g></g></svg>