<svg xmlns="http://www.w3.org/2000/svg" viewBox="0 0 189.2 200.76"><defs><style>.cls-1{fill:#3bd8ff;}</style></defs><g id="Layer_2" data-name="Layer 2"><g id="Layer_1-2" data-name="Layer 1"><path d="M128.61,138.29v2.6c0,16.57,0,33.14,0,49.71a9.81,9.81,0,0,1-12.93,9.55A9.62,9.62,0,0,1,109,191.5c-.13-3-.06-5.93-.07-8.9V138.14l-.34-.14c-.4.67-.81,1.33-1.19,2q-15.12,26.82-30.22,53.64c-2.1,3.75-5.07,6-9.47,5.83a9.74,9.74,0,0,1-8.07-14.74c3.5-6.17,7.17-12.24,10.77-18.36q17.24-29.3,34.5-58.59c.74-1.25.91-1.9-.6-2.77-1.91-1.11-2.62-3.13-2.63-5.33,0-3-.09-6.07,0-9.11.06-1.5-.45-1.8-1.86-1.8-11.12.06-22.24-.2-33.35.1C56.7,89.15,48.31,81.81,48.7,71c.06-1.79,0-3.59,0-5.39,0-.84-.21-1.11-1.08-.77-5.07,2-10.14,3.93-15.23,5.83-1,.38-.85,1.11-.82,1.83,0,.89-.07,1.49-1.14,1.84-10,3.34-20.07,6.76-30.1,10.16-.52-.69-.3-1.39-.3-2Q0,45.17,0,7.88C0,6,.36,5.75,2.1,6.35q13.83,4.82,27.75,9.41c1.35.44,2,1,1.72,2.44-.43,1.95.58,2.57,2.31,3,4.89,1.13,9.74,2.43,14.83,3.72,0-2.52,0-4.92,0-7.32C48.76,7.1,55.82,0,66.24,0H172.5c9.88,0,16.65,6.7,16.67,16.61q.06,27.54,0,55.1c0,10.11-6.94,17-17,17.08q-17.08.09-34.18,0c-1.75,0-2.23.49-2.15,2.19.14,2.89,0,5.8,0,8.7,0,2.45-.87,4.58-3.11,5.68-1.48.73-1,1.34-.47,2.31q11.13,20.28,22.21,40.59c6.84,12.51,13.71,25,20.51,37.52,3.25,6,.65,12.65-5.56,14.56-4.66,1.43-9.38-.65-11.77-5.29-5-9.8-10-19.62-15-29.43q-6.37-12.51-12.78-25C129.55,140,129.23,139.44,128.61,138.29Z"/><path class="cls-1" d="M119.27,5.73c17.53,0,35.06.16,52.6-.08,6.78-.09,11.75,4.5,11.67,11.68-.19,17.88,0,35.76-.06,53.64,0,7.89-4.26,12.13-12.16,12.12-12.84,0-25.68-.12-38.51-.11-22,0-44-.07-66,.19-8,.09-12.46-5.57-12.38-12.29q.33-26.4,0-52.8c-.09-6.81,4.5-12.55,12.49-12.43C84.33,5.91,101.8,5.73,119.27,5.73Z"/><path class="cls-1" d="M122.87,115.23v33.32q0,20.82,0,41.64c0,2.94-1.55,4.68-4,4.69a3.9,3.9,0,0,1-4-3.23,14.91,14.91,0,0,1-.16-2.68q0-35.21,0-70.43a3.93,3.93,0,0,0-.31-2.39l-1.15,2q-20.3,36-40.6,72a15.08,15.08,0,0,1-1.31,2.1,4.05,4.05,0,0,1-6.92-4,12.76,12.76,0,0,1,1-1.83q23-39.09,46-78.21a3.11,3.11,0,0,1,3.24-1.86c3,.14,5.93.08,8.9,0a2.18,2.18,0,0,1,2.3,1.26q22,40.35,44.08,80.66c1.37,2.5.77,4.93-1.39,6.09s-4.53.28-5.91-2.42q-19.06-37.32-38.11-74.67c-.37-.72-.78-1.42-1.16-2.14Z"/><path class="cls-1" d="M5.75,45.21c0-9.79,0-19.59,0-29.38,0-2,.46-2.06,2.15-1.45,5.43,1.95,10.92,3.75,16.41,5.54A1.9,1.9,0,0,1,25.86,22q-.09,23.09,0,46.16a1.91,1.91,0,0,1-1.55,2.18Q16,73.07,7.68,76c-1.54.55-2,.4-2-1.36C5.78,64.81,5.75,55,5.75,45.21Z"/><path class="cls-1" d="M31.66,64.82V26.46c5.43,1.4,10.74,2.8,16.07,4.11.93.23,1,.73,1,1.47q0,12.52,0,25c0,.74-.08,1.25-.93,1.57C42.46,60.64,37.15,62.71,31.66,64.82Z"/><path class="cls-1" d="M118.87,89c3.16,0,6.33.08,9.5,0,1.49-.06,1.86.46,1.81,1.87-.11,2.75-.07,5.51,0,8.26,0,1.14-.36,1.59-1.54,1.58q-9.81,0-19.63,0c-1.15,0-1.57-.37-1.54-1.55.07-3,.07-5.93,0-8.89,0-1,.33-1.27,1.29-1.26C112.12,89,115.49,89,118.87,89Z"/><path d="M116,65.92c-12.22,0-24.44,0-36.65,0-1.67,0-2-.47-2-2q.09-19.57,0-39.14c0-1.56.4-1.94,1.95-1.94q36.75.09,73.51,0c1.72,0,2,.55,2,2.08q-.08,19.58,0,39.14c0,1.57-.4,1.91-1.92,1.9C140.61,65.89,128.32,65.92,116,65.92Z"/><path class="cls-1" d="M116.17,60.15c-10.42,0-20.84,0-31.26,0-1.42,0-1.84-.33-1.83-1.8q.11-14,0-27.95c0-1.44.34-1.83,1.81-1.83q31.24.07,62.51,0c1.35,0,1.71.35,1.7,1.7-.06,9.39-.08,18.77,0,28.15,0,1.59-.57,1.73-1.89,1.73C136.87,60.13,126.52,60.15,116.17,60.15Z"/></g></g></svg>