<svg xmlns="http://www.w3.org/2000/svg" viewBox="0 0 200.24 201.85"><defs><style>.cls-1{fill:#111;}.cls-2{fill:#010101;}.cls-3{fill:#3bd8ff;}.cls-4{fill:#030303;}.cls-5{fill:#020202;}.cls-6{fill:#040404;}</style></defs><g id="Layer_2" data-name="Layer 2"><g id="Layer_1-2" data-name="Layer 1"><path d="M200.13,199.55c-.42-1.12-1.37-1.28-2.42-1.24a17.35,17.35,0,0,0-1.77,0c-1.86.31-2.37-.33-2.37-2.27q.1-50.55.06-101.09c0-22.71-7.62-42.46-23.5-58.69-17.48-17.85-38.95-26-63.93-25a87.81,87.81,0,0,0-15.84,2.36c0-5.73-3.54-8.48-8.66-6.66-1.68.6-1.84.1-2.09-1.31A6.57,6.57,0,0,0,73.71,0a6.35,6.35,0,0,0-6.13,5.4c-.34,2-.84,2.06-2.62,1.45a6.27,6.27,0,0,0-7.6,2.51c-1.4,2.44-.69,5.68,1.76,8,.5.48,1.05.9,1.59,1.36-4.65,3.74-5.23,6.88-2.09,11.07a97.13,97.13,0,0,0-9.2,8.6c-1.83,1.93-3.18,4.32-5.61,5.68a3.07,3.07,0,0,0-1.39,2.09c-.45,2.35-2.25,3.95-3.21,6-.34.73-.71.7-1.37.32a7.72,7.72,0,0,0-7.71,0c-1.48-5.48-3.35-7.57-6.66-7.53a5.28,5.28,0,0,0-3.26,1.19c-2,1.59-2.78,3.84-3.05,6.3-5-1.62-8.14-1-9.78,1.87s-.64,5.77,3.29,9.38a9.66,9.66,0,0,0-3.48,3.86,5.59,5.59,0,0,0,5.09,8.21,6.13,6.13,0,0,0,3.09-.42c1.37-.69,1.77-.37,2,1.18.48,2.83,2.05,5,5,5.65,2.59.52,4.55-.74,6-2.83.14-.12.26-.29.46-.33a2,2,0,0,1-.08,1.09c-.53,2.08-.16,4.34-1.24,6.31a5.78,5.78,0,0,0,.15,6A10.64,10.64,0,0,0,31,95.71c-3.32,2.62-5.23,5.49-3.39,9.65a3.46,3.46,0,0,1,.05,1.37q0,44.9,0,89.79c0,1.46-.32,1.85-1.81,1.83-6.82-.09-13.65,0-20.47,0-.91,0-1.78.09-2.14,1s-.34,1.69.7,2.14a3.1,3.1,0,0,0,1.73.18q27.63,0,55.26,0a2.94,2.94,0,0,0,1.73-.19c1-.46,1-1.31.68-2.14s-1.25-1-2.15-1c-5.59,0-11.17-.07-16.75,0-1.67,0-2-.42-2-2q.09-31.23,0-62.46c0-6,0-11.95,0-17.93,0-1,0-1.7,1.39-1.59,2,.14,3.44-1,4.61-2.58a11.32,11.32,0,0,0,1.73-5,10,10,0,0,0,3.08,1c2.84.43,5.29-.49,6.54-2.57,1.47-2.46.89-4.75-.64-7-.68-1-2.39-1.69-2.31-2.45.09-1,1.6-1.68,2.32-2.64,1.51-2,2.08-4.24.78-6.61s-3.29-3-5.78-3a11.71,11.71,0,0,0-4,1.07c-.23-3.19-1.5-5.72-4.49-7.11-.58-.27-.72-.53-.52-1.19a65.89,65.89,0,0,1,3.28-8.83c.75-1.6,2.49-1.22,3.75-1.58.87-.25.52,1.2.7,1.87.79,3,3.15,5.26,5.78,5.46,2.32.18,4.8-1.52,5.9-4.16a30.58,30.58,0,0,0,1-3.34c4.59,1.61,8,1,9.6-1.81a5.54,5.54,0,0,0,.65-3.8c-.41-2.47-2-4.15-3.91-5.57,6.43-5.09,4.29-10.88-.49-12a6.82,6.82,0,0,0-2.11-.15c-.33,0-.86.11-.65-.57a60,60,0,0,1,14.14-8.54c0,.77.07,1.35.09,1.93a108,108,0,0,0,3.37,25.12q16.56,61.34,76.45,82.69c1.46.52,1.72.84,1,2.31a120.06,120.06,0,0,0-11.5,51.2c0,1.7-.63,1.83-2,1.82q-28.08,0-56.16,0c-.94,0-1.89,0-2.43.91s.07,1.84.65,2.62H199.08C199.81,201.26,200.53,200.63,200.13,199.55ZM120.55,29c-.28,2-.47,4.05-.63,6.07-.06.81-.23,1.1-1.17,1a65.72,65.72,0,0,0-19.4.45c-1,.18-1.27-.07-1.21-1,.08-1.31,0-2.62,0-3.93,0-3.48,0-3.5,3.49-3.91a60.24,60.24,0,0,1,8.71-.53,75.17,75.17,0,0,1,9,.46C120.32,27.69,120.69,28,120.55,29ZM154.2,44.43c-.56,1.53-.91,3.13-1.39,4.87a77,77,0,0,0-12.44-7.19A18.14,18.14,0,0,0,137,40.67c-2-.42-2.38-1.59-2.06-3.39a15.4,15.4,0,0,0,.27-3.52c-.1-1.75.35-2.14,2-1.39a74.68,74.68,0,0,1,16.28,9.77A1.73,1.73,0,0,1,154.2,44.43Zm24.46,77.44c-8.61-9-15.82-46.74-12.48-66a61.6,61.6,0,0,1,6.53,11.27,62.49,62.49,0,0,1,5.91,24.67C178.8,101.84,178.66,111.87,178.66,121.87Z"/><path class="cls-1" d="M3.94,201.46H62.66l0,.4H3.94Z"/><path d="M63.51,126.93a15.12,15.12,0,0,1-1.17,6.12c-.74,1.77-1.54,2.08-3.19,1.27a16.89,16.89,0,0,1-7.91-21.13c.74-1.78,1.61-2.08,3.38-1.18A16.79,16.79,0,0,1,63.51,126.93Z"/><path class="cls-2" d="M116.08,188.1c4,0,8,0,12,0,1.3,0,2.53.2,2.58,1.73,0,1.7-1.28,1.83-2.64,1.83q-12,0-24,0c-1.29,0-2.56-.14-2.59-1.69s1.27-1.88,2.64-1.87C108.08,188.12,112.08,188.1,116.08,188.1Z"/><path d="M29.94,30.66a3.68,3.68,0,0,0-1.56-3.17A16.63,16.63,0,0,1,23.92,6.76c1-1.92,1.74-2.11,3.54-.93A16.33,16.33,0,0,1,34,24.67c-1,2.71-.65,5,.33,7.83A19.09,19.09,0,0,1,38.17,28a17.42,17.42,0,0,1,6-3.21,1.85,1.85,0,0,1,2.67,1.45c2.23,8-3.65,18-11.7,19.85-1.53.36-2.35-.24-2.72-1.73-.32-1.3.33-3.14-.77-3.81-.92-.55-2.53.12-3.83.09A16.76,16.76,0,0,1,12.67,29.14c-.73-2.27-.2-3.12,2.17-3.48C20.25,24.82,24.41,26.18,29.94,30.66Z"/><path d="M13.26,95.92A16.88,16.88,0,0,1,1,89.25c-1.51-2-1.3-2.76.94-4A16.77,16.77,0,0,1,23.05,90a9.42,9.42,0,0,1,1.8,8,17,17,0,0,1-15,13.26c-2.12.17-2.76-.41-2.66-2.54a16.81,16.81,0,0,1,5-11.43c.36-.37.75-.73,1.11-1.1C13.33,96.17,13.29,96.08,13.26,95.92Z"/><path class="cls-3" d="M157.42,46.14a68.49,68.49,0,0,1,4.82,5,2.36,2.36,0,0,1,.44,2.18,116.5,116.5,0,0,0,14.29,74,12.58,12.58,0,0,1,1.57,3.13c.66,3,.18,3.8-2.69,5.27s-5.61,2.85-8.38,4.32a2.78,2.78,0,0,1-2.42.18q-62.12-21.66-76.6-85.83A99.76,99.76,0,0,1,86.3,33.21c0-1.27.36-1.85,1.59-2.17,1.84-.46,3.64-1.08,5.43-1.69,1-.35,1.39-.18,1.36,1-.08,2.55-.05,5.12,0,7.68,0,2.18.82,2.83,3,2.42a66.46,66.46,0,0,1,21.93-.7c3.24.45,3.45.25,3.76-3,.2-2.22.41-4.45.54-6.68.07-1.1.44-1.53,1.58-1.22,1.7.46,3.42.88,5.16,1.24,1,.2,1.2.69,1.13,1.64-.2,2.88-.27,5.77-.49,8.65A2.21,2.21,0,0,0,132.91,43a68.26,68.26,0,0,1,18.94,10.23c2,1.54,3.05,1.15,3.76-1.35.51-1.83,1-3.66,1.51-5.49C157.13,46.36,157.21,46.32,157.42,46.14Z"/><path class="cls-3" d="M90.3,26.49c.48-3.64-1.28-5.94-3.83-7.78.63-1.56,2-.88,3.09-1.16a71.47,71.47,0,0,1,9-1.93c27.19-3.7,50.57,4.18,69.61,23.81,15,15.48,22.07,34.43,21.92,56.05-.08,10.38-.05,20.76,0,31.14a2.43,2.43,0,0,1-1.67,2.66c-1.44.61-2.81,1.4-4.21,2.11-2,1-2,1-2-1.28,0-8.08,0-16.17,0-24.25,0-7.35.26-14.7-.87-22A71.51,71.51,0,0,0,91.67,26.17C91.29,26.27,90.91,26.35,90.3,26.49Z"/><path class="cls-3" d="M31.16,107.65a9.2,9.2,0,0,0,5.9-.73c2.62,4.8,1.93,10,1.93,15.11,0,24.69,0,49.38.06,74.07,0,1.87-.55,2.36-2.28,2.18a20.64,20.64,0,0,0-3.93,0c-1.43.14-1.72-.39-1.72-1.74.06-11.1,0-22.19,0-33.29v-55.6Z"/><path class="cls-3" d="M190.1,132.37v1.88q0,31,0,62c0,1.65-.42,2.2-2,2-1.86-.23-4.29.79-5.47-.4s-.31-3.5-.31-5.33c0-18.11,0-36.23,0-54.34a2.43,2.43,0,0,1,1.62-2.7C185.92,134.65,187.84,133.53,190.1,132.37Z"/><path class="cls-3" d="M26.23,52.46A14.55,14.55,0,0,1,25.09,57c-.43,1-.74,2.1.38,2.81s2.05,0,2.81-.93c1.31-1.65,2.65-3.27,4.85-3.81,1.3-.31,2.61-.32,3.36.9s.09,2.53-.85,3.54c-1.38,1.48-3.3,1.79-5.16,2.17-1.22.25-2.67.24-2.61,2,.06,1.6,1.37,1.6,2.56,1.85,1.84.38,3.78.65,5.18,2.15,1,1,1.66,2.2.92,3.54s-2.09,1.16-3.36.94c-1.73-.31-2.84-1.55-4-2.73-.45-.47-.83-1-1.26-1.51a1.7,1.7,0,0,0-2.28-.48,1.66,1.66,0,0,0-.72,2.22,16.1,16.1,0,0,1,1.23,4.54A4.38,4.38,0,0,1,24.5,78.4a1.69,1.69,0,0,1-2.19,0A4.48,4.48,0,0,1,20.68,74a16.23,16.23,0,0,1,1.2-4.14,1.71,1.71,0,0,0-.62-2.4,1.76,1.76,0,0,0-2.41.65,14.42,14.42,0,0,1-3.34,3.32c-1.81,1.23-4.44,1.11-5.17-.21s.39-3.65,2.4-4.6a13.33,13.33,0,0,1,4.53-1.2c1.15-.11,2.1-.52,2.07-1.88s-.89-1.59-2-1.73a16,16,0,0,1-4.18-1.06,4.47,4.47,0,0,1-3-3.56,1.73,1.73,0,0,1,1-2c1.77-.82,3.34-.23,4.77.84a13,13,0,0,1,2.74,2.81c.7.95,1.57,1.5,2.68.81s.91-1.63.48-2.62a14.35,14.35,0,0,1-1.15-4.36c-.19-2.09,1.15-4.18,2.65-4.28S26.21,50.2,26.23,52.46Z"/><path class="cls-3" d="M46.53,85.13a12.62,12.62,0,0,1-.92,3.57c-.44,1.2-1.15,2.42.39,3.26s2.17-.53,3-1.44a29.22,29.22,0,0,1,2.24-2.21,4.89,4.89,0,0,1,1.14-.75c1.8-.88,3.75-.59,4.44.64s-.05,2.94-1.59,4a10.28,10.28,0,0,1-4.61,1.58c-1.26.19-2.73.18-2.81,1.83-.1,1.87,1.57,1.74,2.81,2,1.08.26,2.16.52,3.22.86a4.16,4.16,0,0,1,1.53.84c1.11,1,2.26,2.17,1.44,3.9-.59,1.23-2.43,1.55-4.24.74a10.92,10.92,0,0,1-3.92-3.51c-.71-.89-1.48-1.63-2.64-1s-1,1.81-.55,2.92a11.5,11.5,0,0,1,1.08,4.76c-.09,2.09-1.35,3.74-2.8,3.72s-2.68-1.7-2.73-3.78a11.59,11.59,0,0,1,1.1-4.76c.43-1,.63-2.08-.52-2.77s-1.93,0-2.65.89c-1.28,1.59-2.57,3.2-4.65,3.78-1.33.37-2.7.45-3.55-.85s0-2.5.83-3.53c1.14-1.34,2.8-1.62,4.38-2a9.26,9.26,0,0,1,1.75-.28c1.1-.1,2-.56,2-1.75s-1-1.77-2.1-1.87a15.23,15.23,0,0,1-4-1,4.88,4.88,0,0,1-2.84-2.58,2.15,2.15,0,0,1,2-3.3,5.14,5.14,0,0,1,4.06,1.65c.8.78,1.54,1.62,2.26,2.47s1.45,1.41,2.53.74.95-1.6.6-2.61a30,30,0,0,1-1-3.17,5.2,5.2,0,0,1,.15-3.48c.51-1,1.1-2,2.41-2s2.07.93,2.54,2.09A5.68,5.68,0,0,1,46.53,85.13Z"/><path class="cls-3" d="M76.26,7.5a14.27,14.27,0,0,1-1.13,4.56c-.46,1.07-.6,2.13.56,2.76s1.93-.08,2.66-1C79.67,12.22,81,10.55,83.2,10c1.3-.3,2.58-.25,3.31,1s0,2.27-.73,3.23c-1.15,1.43-2.84,1.8-4.48,2.23a17.07,17.07,0,0,1-2.14.36,1.62,1.62,0,0,0-1.62,1.64,1.66,1.66,0,0,0,1.64,1.85,17.3,17.3,0,0,1,4.39,1A4.49,4.49,0,0,1,86.74,25,1.68,1.68,0,0,1,85.67,27a4.61,4.61,0,0,1-4.77-.89,16.1,16.1,0,0,1-2.86-3c-.59-.77-1.33-1.31-2.36-.75S74.61,23.88,75,24.9s.7,2,1,3A5.9,5.9,0,0,1,76,31c-.36,1.38-1,2.76-2.64,2.76s-2.15-1.27-2.55-2.6c-.62-2,.16-3.88.82-5.72.39-1.09.89-2.17-.39-3s-2.1.21-2.91,1.13c-1.55,1.76-3,3.69-5.75,3.65a2.34,2.34,0,0,1-2.21-1,2.31,2.31,0,0,1,.21-2.57c1.31-2.28,3.61-2.64,5.84-3.16.45-.11.92-.07,1.37-.16.91-.2,1.6-.66,1.61-1.7a1.66,1.66,0,0,0-1.67-1.8A16.12,16.12,0,0,1,63,15.68a4.3,4.3,0,0,1-2.79-3.53,1.77,1.77,0,0,1,1.08-1.92,4.24,4.24,0,0,1,4.42.72,13,13,0,0,1,3,3.07,1.82,1.82,0,0,0,2.54.78c1-.58,1-1.54.59-2.58A15.29,15.29,0,0,1,70.7,7.88c-.27-2.14,1.11-4.35,2.68-4.42S76.28,5.25,76.26,7.5Z"/><path class="cls-3" d="M69.31,63.15c-1.66.07-3-1-4.19-2.26-.55-.55-1.05-1.17-1.55-1.78-.66-.81-1.37-1.49-2.49-.85s-1,1.69-.64,2.75.68,1.84.92,2.79a5.88,5.88,0,0,1,0,3.5c-.43,1.2-1.09,2.4-2.55,2.38s-2-1.26-2.42-2.5a6.91,6.91,0,0,1,.11-3.69,20.87,20.87,0,0,1,.79-2.43c.42-1.06.62-2.06-.56-2.74s-1.94.11-2.64,1c-1.23,1.46-2.42,3-4.31,3.62-1.39.44-3,.74-3.9-.79s.07-2.79,1.19-3.8c1.49-1.34,3.4-1.64,5.28-1.92,1.23-.18,2.47-.31,2.45-1.93s-1.21-1.61-2.36-1.78A22.54,22.54,0,0,1,49.18,52a5.35,5.35,0,0,1-1.9-1c-1.19-1-2.2-2.21-1.5-3.91.48-1.17,2.53-1.52,4.26-.77a10.22,10.22,0,0,1,4,3.46c.75,1,1.6,1.71,2.81,1s.81-1.73.43-2.8c-.69-1.9-1.48-3.82-.86-5.91.39-1.31,1-2.58,2.59-2.57s2.16,1.28,2.55,2.6c.57,1.88-.08,3.62-.66,5.37-.38,1.16-1.18,2.45.3,3.32s2.22-.37,3.05-1.33c1.33-1.54,2.66-3.11,4.87-3.41,1.16-.16,2.31-.12,3,1s.16,2.28-.61,3.23c-1.55,1.9-3.82,2.19-6,2.55-1.19.2-2.31.38-2.32,1.83s1.09,1.65,2.29,1.86c2.31.39,4.74.64,6.21,2.89a2.55,2.55,0,0,1,.32,2.77C71.42,63,70.49,63.17,69.31,63.15Z"/><path class="cls-3" d="M46.1,54.64a9.51,9.51,0,0,0-3.5,3.86,5.45,5.45,0,0,0,1.56,6.88c.91.67.91,1.14.52,2.08-.85,2-1.58,4-2.26,6.07-.75,2.2-1.19,4.45-3.22,6.08-1.39,1.12-1.71,3-1.82,5a9.68,9.68,0,0,0-4.69-1.07c-.85.08-.8-.42-.7-1,.21-1.16.43-2.32.61-3.48.3-1.93.43-3.44,3.28-3.64,3.54-.26,5.25-4.11,4-7.53a9.41,9.41,0,0,0-3.73-4.38c4.69-2.43,3.73-8.33,7.39-11.3Z"/><path class="cls-3" d="M70.15,36.1l-5.32,4.08c-2.75-4.07-4.35-4.85-8.43-3.94,3-2.86,5.74-5.64,9.9-6.27.72-.11,1,0,1,.65A8.29,8.29,0,0,0,70.15,36.1Z"/><path class="cls-3" d="M50.16,42.74l3.37-3.69a17.22,17.22,0,0,1-.87,3.68C52.09,44.15,51.32,42.49,50.16,42.74Z"/><path class="cls-3" d="M59.43,130.3a12.83,12.83,0,0,1-5.38-14.17C58.46,118,61.23,125.23,59.43,130.3Z"/><path class="cls-3" d="M43.75,28.79c.11,5.67-2.08,9.89-6.82,12.76-1,.63-1.32.37-1.33-.79A13.2,13.2,0,0,1,43.75,28.79Z"/><path class="cls-3" d="M29.7,37a12.59,12.59,0,0,1-13-7.59C21.66,28.3,27.58,31.69,29.7,37Z"/><path class="cls-3" d="M26.59,9.72c4,3,5.92,9.52,4.16,13.94-.34.87-.6.77-1.2.26C25.88,20.79,24.47,14.12,26.59,9.72Z"/><path class="cls-3" d="M21.62,96.28c-1.05,5.44-4,9-9.08,10.82-.44.16-1,.57-1.41.13-.22-.25-.08-.87,0-1.3A13.08,13.08,0,0,1,21.62,96.28Z"/><path class="cls-3" d="M4.67,88c4.69-2.46,11.19-1.07,14.73,3.15C15,93.74,7.85,92.21,4.67,88Z"/><path d="M139.83,63.08c1.45.15,1.78,1.07,1.81,2.34A91.83,91.83,0,0,0,143,80.3a87,87,0,0,0,28.11,50.15l1.17,1.05c.93.81,1.21,1.76.33,2.73s-1.74.67-2.6-.06a85.93,85.93,0,0,1-9.12-9,90.76,90.76,0,0,1-22.8-59.09C138.09,64.74,138.06,63.4,139.83,63.08Z"/><path d="M165.26,133.73c0,1.55-1.45,2.18-3,1.23a80.9,80.9,0,0,1-9.54-6.94A90.33,90.33,0,0,1,130,99.41a11.64,11.64,0,0,1-.53-1.06,1.63,1.63,0,0,1,.78-2.18,1.53,1.53,0,0,1,2.22.54c.64,1,1.12,2.07,1.68,3.11a87.73,87.73,0,0,0,29.2,31.65C164.17,132,165.26,132.43,165.26,133.73Z"/><path class="cls-4" d="M23.59,66.2a2.63,2.63,0,0,1-2.67-2.73,2.41,2.41,0,0,1,2.6-2.38A2.45,2.45,0,0,1,26,63.77,2.53,2.53,0,0,1,23.59,66.2Z"/><path class="cls-5" d="M43.73,98.27a2.45,2.45,0,0,1-2.51-2.49,2.56,2.56,0,0,1,2.57-2.66,2.59,2.59,0,0,1,2.53,2.71A2.48,2.48,0,0,1,43.73,98.27Z"/><path class="cls-6" d="M76.13,18.7A2.56,2.56,0,0,1,71,18.62a2.51,2.51,0,0,1,2.61-2.55A2.48,2.48,0,0,1,76.13,18.7Z"/><path class="cls-4" d="M61.49,54.46a2.65,2.65,0,0,1-2.56,2.65,2.57,2.57,0,0,1-2.56-2.63A2.37,2.37,0,0,1,58.81,52,2.49,2.49,0,0,1,61.49,54.46Z"/><path class="cls-3" d="M178.8,138.58q0,29.11,0,58.17c0,1.22-.34,1.54-1.55,1.53-6.7-.05-13.4-.06-20.11,0-1.21,0-1.53-.31-1.52-1.53a120.72,120.72,0,0,1,12.23-52.22,2.22,2.22,0,0,1,.94-1.21c2.91-1.5,5.81-3,8.73-4.51C177.86,138.66,178.15,138.29,178.8,138.58Z"/></g></g></svg>