<svg xmlns="http://www.w3.org/2000/svg" viewBox="0 0 184.02 199.53"><defs><style>.cls-1{fill:#3bd8ff;}.cls-2{fill:#fff;}</style></defs><g id="Layer_2" data-name="Layer 2"><g id="Layer_1-2" data-name="Layer 1"><path class="cls-1" d="M72.14,0c1.43,2.05,1.32,2.63-.76,4.14a2.72,2.72,0,0,0-1,3.11,29.15,29.15,0,0,0,2,4.82c1,2.28,1.79,4.61.87,7.14a6,6,0,0,1-3.76,3.92c-1.2.42-2.25.24-2.81-.93a1.93,1.93,0,0,1,1.11-2.86c1.94-.81,1.89-2.35,1.34-3.9-.65-1.82-1.58-3.54-2.3-5.33A8.26,8.26,0,0,1,67,2.79C67.65,1.54,68.87.93,69.8,0Z"/><path class="cls-1" d="M88.51,0c1.8,1.77,1.73,2.66-.36,4.06a2.76,2.76,0,0,0-1,3.61c.66,1.82,1.52,3.56,2.28,5.35a8.43,8.43,0,0,1,.6,5.86A6,6,0,0,1,86,23.2,2,2,0,0,1,83.27,22a1.82,1.82,0,0,1,1.06-2.56c2-.82,2.13-2.28,1.49-4S84.33,12,83.64,10.26C81.85,5.76,82.72,2.77,86.56,0Z"/><path class="cls-1" d="M55.38,0c1.57,2,1.48,2.66-.63,4.1a2.69,2.69,0,0,0-1,3.09c.38,1.94,1.48,3.57,2.23,5.36,1,2.27,1.49,4.57.55,7a5.84,5.84,0,0,1-4,3.71A1.94,1.94,0,0,1,50,22.07a1.85,1.85,0,0,1,1-2.62c2.16-.84,2.08-2.5,1.5-4.17-.65-1.89-1.67-3.65-2.37-5.52C48.48,5.5,49.6,2.33,53.43,0Z"/><path class="cls-1" d="M105.27,0c1.73,1.91,1.65,2.64-.47,4.07-1.49,1-1.38,2.43-.88,3.82.56,1.57,1.38,3.06,2,4.6,1,2.32,1.51,4.69.5,7.15a5.89,5.89,0,0,1-3.66,3.52,2,2,0,0,1-2.78-1,1.85,1.85,0,0,1,1-2.72c1.9-.78,2-2.23,1.48-3.83-.69-1.94-1.64-3.79-2.36-5.73-1.62-4.36-.64-7.3,3.14-9.84Z"/><path class="cls-1" d="M177.92,68.36c-1.25-.09-1.93.69-2.18,2-.56,2.87-2.68,3.55-5,1.65a12.5,12.5,0,0,0-4.9-2.7c-1.16-.29-1.45-.82-1.37-2,.42-6-3-9.61-9-9.61H24.4c-6.09,0-9.5,3.6-9.11,9.71.07,1.1-.13,1.63-1.23,1.92A13.26,13.26,0,0,0,9.15,72c-2.46,2-4.4,1.36-5.08-1.68-.29-1.29-1-2-2.25-1.89S-.09,69.56,0,70.93a6.42,6.42,0,0,0,3.87,5.64,6.45,6.45,0,0,0,7-.63,25.07,25.07,0,0,1,3.53-2.38c1.3-.64,1.75-.34,2,1a63.78,63.78,0,0,0,3.8,13,73.77,73.77,0,0,0,32.77,37.48c1.06.6,1.27,1.08.85,2.22Q51,135,48.36,142.71a1.68,1.68,0,0,1-1.92,1.39c-2.92-.09-5.84,0-8.76,0a17.93,17.93,0,0,0-4.85.29A8,8,0,0,0,35,160c2.32.11,4.66,0,7.24,0-.7,2-1.27,3.61-1.85,5.25-2.72,7.76-5.48,15.5-8.16,23.27a8,8,0,1,0,15,5.35q5.69-16,11.24-32.06a2.24,2.24,0,0,1,2.6-1.81q9.43.14,18.89,0c1.53,0,1.93.38,1.92,1.92-.07,9.61,0,19.22-.05,28.83A7.88,7.88,0,0,0,85,197.55a7.55,7.55,0,0,0,8.26.81,7.87,7.87,0,0,0,4.55-7.56c0-9.68,0-19.35,0-29,0-1.33.28-1.75,1.68-1.73,6.23.09,12.47.12,18.7,0,1.81,0,2.54.5,3.13,2.21,3.56,10.48,7.27,20.9,10.91,31.35,1.2,3.46,3.52,5.61,7.2,5.91a7.86,7.86,0,0,0,8-10.68c-3.09-9.07-6.29-18.1-9.5-27.12-.44-1.24-.44-1.75,1.08-1.65,1.69.12,3.38,0,5.07,0,4.83-.06,8.35-3.36,8.41-7.86.06-4.67-3.34-8-8.3-8.11-3.5-.05-7-.07-10.52,0a2,2,0,0,1-2.34-1.61c-1.65-5-3.4-9.92-5.21-14.84-.48-1.29-.37-1.91.94-2.66a73.72,73.72,0,0,0,32.22-36.49,78.17,78.17,0,0,0,4.5-15.45c2.1.43,3.58,1.67,5.13,2.86a6.44,6.44,0,0,0,7.15.6,6.32,6.32,0,0,0,3.73-5.72C179.88,69.44,179.31,68.45,177.92,68.36ZM80.54,144.05c-2.39-.06-4.79,0-7.18,0s-4.66,0-7,0c-1.07,0-1.59-.12-1.13-1.37,1.19-3.21,2.31-6.43,3.4-9.67.29-.87.72-1.09,1.56-.85a61.21,61.21,0,0,0,10.65,2c.8.07,1.07.42,1.05,1.24-.05,2.46-.07,4.92,0,7.38C82,143.9,81.48,144.07,80.54,144.05Zm33,0c-2.4-.06-4.79,0-7.18,0s-4.79-.05-7.19,0c-1,0-1.33-.3-1.3-1.31.07-2.4.06-4.79,0-7.19,0-.86.2-1.3,1.12-1.39a56.7,56.7,0,0,0,10.65-2c.92-.26,1.24.12,1.51.92q1.65,4.84,3.4,9.67C114.92,143.81,114.56,144.07,113.51,144.05Z"/><path class="cls-1" d="M91.11,34.33a8.91,8.91,0,0,1,8.74-3.07,8.62,8.62,0,0,1,7.09,7.14c.23,1.08.59,1.61,1.75,1.39a3.76,3.76,0,0,1,1.16,0c2.56.34,4.19-.15,5.33-3,1.46-3.66,4.83-5.49,8.87-5.62q4.67-.14,9.35,0a10.36,10.36,0,0,1,9.67,7.17,1.86,1.86,0,0,0,2.15,1.52c11.82-.06,23.64,0,35.46,0a7.19,7.19,0,0,1,1.74.08A1.94,1.94,0,0,1,184,41.8a1.87,1.87,0,0,1-1.5,2,7.78,7.78,0,0,1-1.93.14c-11.76,0-23.51,0-35.27,0-1.26,0-1.87.24-2.32,1.59a10.55,10.55,0,0,1-9.95,7.1c-2.86,0-5.72,0-8.57,0a10.59,10.59,0,0,1-10.19-7.33c-.37-1.08-.83-1.51-1.91-1.33a2.25,2.25,0,0,1-.58,0c-2.72-.28-4.53-.1-5.69,3.36-1.91,5.68-9.32,7.05-13.92,3.06-1-.86-1.45-.84-2.42,0a8.69,8.69,0,0,1-11.71,0c-.86-.74-1.27-1-2.29-.08a8.89,8.89,0,0,1-14.69-4.67c-.37-1.6-1-1.77-2.3-1.68s-2.7-.33-3.61.22-.26,2.15-.42,3.28a5.82,5.82,0,0,1-5.63,5.19c-2.14.07-4.29,0-6.43,0-3.74-.05-6-2.33-6.14-6.07-.08-2.62-.08-2.62-2.73-2.62-1.1,0-2.21.06-3.31,0a2.06,2.06,0,1,1,.07-4.12,28.2,28.2,0,0,1,3.9,0c1.63.17,2.42-.24,2.14-2.06a5.37,5.37,0,0,1,.47-3.24,5.59,5.59,0,0,1,5-3.39c2.08-.07,4.16-.06,6.24,0,4.19.05,6.54,2.32,6.44,6.55,0,1.79.47,2.46,2.21,2.15a2,2,0,0,1,.59,0c2,.23,3.12,0,3.8-2.53,1.64-6.15,9.47-8.17,14.34-4,1,.86,1.42.85,2.39,0C81.93,30,86.6,30.41,91.11,34.33Z"/><path class="cls-2" d="M91.53,61.91l64.76,3.78c4.43.26,5.71,1.89,5,6.28a70.87,70.87,0,0,1-139.57.51,69.34,69.34,0,0,1-1.08-9.85A4.17,4.17,0,0,1,25,58.05c1.56,0,3.11.16,4.67.25Z"/><path class="cls-2" d="M89.37,155.89H36.2a18.09,18.09,0,0,1-2,0,3.84,3.84,0,0,1-.39-7.61,11.61,11.61,0,0,1,2.13-.1q53.37,0,106.74,0a10.79,10.79,0,0,1,2.13.1,3.79,3.79,0,0,1,3.14,4.06,3.84,3.84,0,0,1-3.52,3.55,17.9,17.9,0,0,1-1.94,0Z"/><path class="cls-2" d="M39,195.3c-2.74-.09-4.28-2.59-3.27-5.49q4.15-12,8.39-24c.67-1.88.91-4.35,2.25-5.43s3.88-.15,5.87-.35c1.83-.18,2,.39,1.41,2-3.55,9.93-7,19.89-10.52,29.84C42.24,194.32,41,195.35,39,195.3Z"/><path class="cls-2" d="M124.46,160.05c2.62,0,5,0,7.4,0,.8,0,.93.51,1.13,1.07,3.38,9.64,6.78,19.28,10.13,28.94a3.82,3.82,0,0,1-2.13,5,3.74,3.74,0,0,1-4.87-2.05C132.2,182.13,128.39,171.2,124.46,160.05Z"/><path class="cls-2" d="M85.52,176.13c0-4.86,0-9.72,0-14.58,0-1.15.23-1.62,1.48-1.53a46.34,46.34,0,0,0,4.86,0c.94,0,1.38.14,1.37,1.24,0,9.92,0,19.83,0,29.75A3.71,3.71,0,0,1,89.28,195c-2.22,0-3.72-1.57-3.75-4.06C85.48,186,85.52,181.06,85.52,176.13Z"/><path class="cls-2" d="M55.79,144c-4.08,0-4.08,0-2.71-3.87,1.23-3.47,2.59-6.91,3.64-10.44.55-1.86,1.29-1.89,2.76-1.12a35.39,35.39,0,0,0,4.14,1.66c.74.27.94.56.64,1.38-1.38,3.76-2.69,7.55-4,11.35a1.34,1.34,0,0,1-1.56,1.06C57.74,144,56.77,144,55.79,144Z"/><path class="cls-2" d="M126.91,144.07c-2.46,0-4.77,0-7.08,0-.83,0-1.13-.39-1.36-1-1.32-3.78-2.63-7.55-4-11.32-.25-.69-.29-1.13.55-1.43,1.82-.65,3.61-1.39,5.4-2.14.56-.23.86-.3,1.12.44,1.62,4.69,3.3,9.36,5,14.05C126.66,143.06,126.75,143.49,126.91,144.07Z"/><path class="cls-2" d="M85.56,138.88c.13-1.16-.61-2.94.27-3.88s2.58-.17,3.92-.19c3.43-.07,3.43,0,3.43,3.34v.19c0,6.42-.09,6.49-6.64,5.75-.77-.08-1-.35-1-1.06C85.58,141.73,85.56,140.43,85.56,138.88Z"/><path class="cls-2" d="M128.3,35.3c1.43,0,2.85,0,4.28,0A6.56,6.56,0,0,1,139,41.56a6.43,6.43,0,0,1-6,6.85,74.75,74.75,0,0,1-9.7,0,6.42,6.42,0,0,1-6-6.67,6.55,6.55,0,0,1,6.28-6.42c1.55-.09,3.11,0,4.66,0Z"/><path class="cls-2" d="M40.18,41.73c0-1.49,0-3,0-4.47a1.83,1.83,0,0,1,2-2H48a1.88,1.88,0,0,1,2.13,2.15c0,3,0,6.08,0,9.12a1.83,1.83,0,0,1-2,2.05c-1.94,0-3.88,0-5.82,0a1.9,1.9,0,0,1-2.14-2.16C40.18,44.83,40.17,43.28,40.18,41.73Z"/><path class="cls-2" d="M74.31,42.37A8.2,8.2,0,0,1,74,45.16a4.92,4.92,0,0,1-5,3.31,4.82,4.82,0,0,1-4.5-3.63,13.45,13.45,0,0,1-.15-5.21,4.93,4.93,0,0,1,5.08-4.39,5,5,0,0,1,4.82,4.9C74.34,40.72,74.31,41.31,74.31,42.37Z"/><path class="cls-2" d="M102.56,42a17.38,17.38,0,0,1-.31,3.08A4.85,4.85,0,0,1,97,48.44,4.73,4.73,0,0,1,92.63,44a32.66,32.66,0,0,1,0-4.08,4.93,4.93,0,0,1,9.85.06c0,.64,0,1.29,0,1.94Z"/><path class="cls-2" d="M88.32,42a15,15,0,0,1,0,2.51,4.89,4.89,0,0,1-5,4,4.73,4.73,0,0,1-4.72-4.27,23.73,23.73,0,0,1,0-4.46,4.88,4.88,0,0,1,4.94-4.51,5,5,0,0,1,4.9,4.8c0,.64,0,1.29,0,1.94Z"/></g></g></svg>