<svg xmlns="http://www.w3.org/2000/svg" viewBox="0 0 199.96 192.23"><defs><style>.cls-1{fill:#3bd8ff;}</style></defs><g id="Layer_2" data-name="Layer 2"><g id="Layer_1-2" data-name="Layer 1"><path d="M200,189.47c-1.18,2.05-2.91,2.76-5.3,2.76q-94.68-.07-189.38,0C1.25,192.19,0,191,0,187c0-5.85,0-11.71,0-17.57,0-3.24,1.37-4.6,4.62-4.66s3.2-.07,3.2-3.3q0-29.49,0-59c0-10.33,7-18.61,17-19.84,4.5-.55,9.1-.2,13.65-.22s4.59,0,4.59-4.66c0-7.22,0-14.44,0-21.66,0-3.72,1.33-5,5.06-5.05,4.78,0,4.78,0,4.78-4.88a12.5,12.5,0,0,1,0-1.37,2.71,2.71,0,0,0-1.77-3.13,11.18,11.18,0,0,1-5.49-13.44c1.73-5.44,4.81-10.2,8.07-14.82a3.7,3.7,0,0,1,6.17,0,56.61,56.61,0,0,1,8,14.44,11.25,11.25,0,0,1-5.72,14,2.17,2.17,0,0,0-1.4,2.39,45.13,45.13,0,0,1,0,5.07c-.08,1.31.25,1.92,1.69,1.77a27.4,27.4,0,0,1,3.51,0c3.19.06,4.62,1.48,4.63,4.7,0,8.07.08,16.14,0,24.2,0,2.06.53,2.66,2.54,2.5a51.39,51.39,0,0,1,7,0c1.71.1,2.29-.31,2.28-2.18-.1-11.9-.05-23.81-.05-35.72,0-4.12,1.19-5.3,5.38-5.3,2.34,0,4.69,0,7,0,1,0,1.44-.23,1.32-1.29a10.2,10.2,0,0,1,0-2.14c.29-3-.07-5.2-3.26-7.05-4.23-2.45-5.54-7.75-4-12.41C90.62,11,93.65,6.19,97,1.59a3.63,3.63,0,0,1,5.91-.13c3.5,4.77,6.7,9.77,8.4,15.51,1.55,5.27-1,10.57-6.07,13.19a2,2,0,0,0-1.32,2.22c.17,2.25-.93,5.28.43,6.54,1.2,1.12,4.2.32,6.41.32,6.28,0,6.88.61,6.88,6.94,0,11.45,0,22.91,0,34.36,0,1.56.41,2,1.94,1.91a73.62,73.62,0,0,1,8,0c1.63.09,1.88-.52,1.87-2-.07-8.07,0-16.14,0-24.2,0-4,1.27-5.22,5.27-5.24,4.55,0,4.55,0,4.55-4.51a5.08,5.08,0,0,1,0-.78c.33-2.12-.34-3.38-2.41-4.54a10.93,10.93,0,0,1-4.79-13c1.73-5.45,4.81-10.2,8.08-14.81a3.7,3.7,0,0,1,6.17,0,58.22,58.22,0,0,1,7.9,14.27,11.28,11.28,0,0,1-5.71,14.17,2.17,2.17,0,0,0-1.4,2.38c.09,1.82.07,3.65,0,5.47,0,1,.27,1.4,1.32,1.35a44.63,44.63,0,0,1,4.48,0,3.86,3.86,0,0,1,4,3.9c0,.58,0,1.17,0,1.76,0,7.94.05,15.87,0,23.81,0,1.58.46,1.93,2,1.9,4.42-.1,8.85-.06,13.27,0,11.62.09,20.05,8.49,20.09,20.08,0,14.58,0,29.16,0,43.74v15.81c0,2.68,0,2.78,2.63,2.66,2.41-.12,4.18.63,5.19,2.89Z"/><path class="cls-1" d="M184.29,120.75c0,6.25,0,12.5,0,18.74,0,1.36-.34,1.76-1.73,1.7a11.61,11.61,0,0,1-11.2-11.3c-.12-3.76.22-7.54-.29-11.3A19.48,19.48,0,0,0,152.29,102c-9.5-.16-18,6.62-19.51,15.76-.87,5.16-.25,10.39-.39,15.58a11.71,11.71,0,0,1-12.74,11.54c-6.13-.64-10.47-5.54-10.59-11.95,0-3.11.15-6.22-.76-9.29-2.76-9.35-11.44-15-21.45-13.85-8.9,1-16.17,8.88-16.64,18.13-.17,3.57,0,7.16-.24,10.72a11.33,11.33,0,0,1-9.68,10.24,11.59,11.59,0,0,1-12.66-7.26,12.26,12.26,0,0,1-.79-4.57q0-7.43,0-14.84c-.05-11.74-8.42-20.14-20.15-20.22-3.12,0-6.25,0-9.37,0-1.33,0-1.8-.19-1.53-1.7a11.77,11.77,0,0,1,11.83-10H171.69c7.64,0,12.58,4.91,12.6,12.53C184.31,108.78,184.29,114.77,184.29,120.75Z"/><path class="cls-1" d="M100,164.74q-41.1,0-82.2,0c-1.76,0-2.13-.45-2.12-2.15q.1-25.38,0-50.76c0-1.81.53-2.15,2.17-2.08,3.05.13,6.12,0,9.17,0a11.69,11.69,0,0,1,12,11.92c.07,5.6-.07,11.2.08,16.79.24,9.09,7.86,17.19,16.86,18.14C68.1,158,77.72,149.4,78,137c.06-2.73,0-5.47,0-8.2A11.61,11.61,0,0,1,101,126.62c.49,2.12.21,4.28.25,6.42a19.59,19.59,0,0,0,18,19.61c10.66,1.06,20.62-7.66,21-18.48.14-4.1,0-8.2.05-12.3.05-6.77,5-12,11.5-12s11.64,5.06,11.83,11.93c.11,3.9-.39,7.82.4,11.69A19.28,19.28,0,0,0,181.67,149c2.62.19,2.62.19,2.62,2.82,0,3.51-.1,7,.05,10.54.08,1.89-.32,2.49-2.39,2.48C154.62,164.71,127.28,164.74,100,164.74Z"/><path class="cls-1" d="M100,184.36q-45,0-90,0c-1.77,0-2.32-.41-2.22-2.2.16-2.79.08-5.6,0-8.39,0-.93.24-1.25,1.19-1.22,2,.06,4,0,6.05,0H184.88c2,0,4,0,6.05,0,.92,0,1.24.24,1.22,1.19-.06,3.13-.05,6.25,0,9.37,0,.91-.22,1.34-1.19,1.22a12.32,12.32,0,0,0-1.36,0Z"/><path class="cls-1" d="M90.19,72.48c0-2.73,0-5.46,0-8.19,0-1,.1-1.49,1.32-1.48,5.65.07,11.3,0,17,0,1,0,1.35.18,1.34,1.26q-.09,8.48,0,17c0,1.12-.33,1.41-1.42,1.4-5.59,0-11.18-.07-16.77,0-1.32,0-1.46-.5-1.44-1.59C90.23,78.07,90.19,75.28,90.19,72.48Z"/><path class="cls-1" d="M100,55c-2.8,0-5.6-.05-8.39,0-1.1,0-1.49-.28-1.43-1.41.12-2.07-.67-4.79.37-6s3.89-.35,5.94-.38c4,0,7.93,0,11.89,0,1.08,0,1.49.23,1.43,1.38-.12,2.07.69,4.8-.34,6s-3.9.3-6,.4C102.32,55,101.15,55,100,55Z"/><path class="cls-1" d="M57,82.47c-2-.25-4.5.8-5.7-.44s-.14-3.6-.35-5.45c-.18-1.65.41-2.09,2-2,2.72.13,5.45.09,8.18,0,1.2,0,1.89.21,1.64,1.57a2.54,2.54,0,0,0,0,.39c-.05,1.87.61,4.34-.33,5.46C61.35,83.3,58.79,82.17,57,82.47Z"/><path class="cls-1" d="M56.64,66.63c-1.81,0-4.22.7-5.27-.19-1.24-1-.18-3.55-.43-5.39s.54-2.27,2.25-2.18c2.72.13,5.45.08,8.17,0,1.11,0,1.48.32,1.43,1.44a47.45,47.45,0,0,0,0,5.06c.06,1.16-.41,1.44-1.48,1.39-1.55-.08-3.11,0-4.67,0Z"/><path class="cls-1" d="M143.14,74.73c1.87,0,4.39-.73,5.44.19,1.22,1.07.23,3.65.41,5.56.15,1.45-.22,2.07-1.86,2-2.78-.15-5.58-.12-8.37,0-1.33,0-1.67-.41-1.6-1.66a43.77,43.77,0,0,0,0-4.86c0-1,.25-1.4,1.3-1.34,1.56.07,3.12,0,4.68,0Z"/><path class="cls-1" d="M143.21,58.9c1.56,0,3.11,0,4.67,0,.85,0,1.13.28,1.11,1.12,0,1.88,0,3.76,0,5.65,0,.85-.35,1.11-1.16,1.1q-4.77,0-9.54,0c-.86,0-1.14-.32-1.12-1.14,0-1.88.05-3.77,0-5.65,0-.9.39-1.09,1.18-1.08C140,58.93,141.59,58.9,143.21,58.9Z"/><path class="cls-1" d="M100,11.38a34.87,34.87,0,0,1,3.73,7.42,3.38,3.38,0,0,1-1.48,4.06,3.69,3.69,0,0,1-4.52,0,3.4,3.4,0,0,1-1.43-4.08A38.29,38.29,0,0,1,100,11.38Z"/><path class="cls-1" d="M56.83,23.13a36,36,0,0,1,3.66,7.14,3.48,3.48,0,0,1-1.35,4.3,3.74,3.74,0,0,1-4.54,0,3.47,3.47,0,0,1-1.4-4.29A38.73,38.73,0,0,1,56.83,23.13Z"/><path class="cls-1" d="M143.13,23.13a42.23,42.23,0,0,1,3.45,6.75c.75,2,.38,3.6-1.16,4.68a3.84,3.84,0,0,1-4.55.06,3.66,3.66,0,0,1-1.3-4.65A38.82,38.82,0,0,1,143.13,23.13Z"/></g></g></svg>