<svg xmlns="http://www.w3.org/2000/svg" viewBox="0 0 200.56 200.65"><defs><style>.cls-1{fill:#3bd8ff;}.cls-2{fill:#fff;}</style></defs><g id="Layer_2" data-name="Layer 2"><g id="Layer_1-2" data-name="Layer 1"><path class="cls-1" d="M175.5,76.74c-15.31-13-33.23-18.14-53.18-16a4.3,4.3,0,0,1-4-1.32,68,68,0,0,0-17.76-12.3,79.57,79.57,0,0,0-15.25-5.35c.57-.67,1-1.19,1.46-1.69C91.91,34.39,97,28.67,102.18,23a4.18,4.18,0,0,0,.94-4.93Q100,10.49,97,2.81A3.94,3.94,0,0,0,92.88,0Q70.22.06,47.53,0A3.9,3.9,0,0,0,43.4,2.76c-1.91,4.92-3.78,9.86-5.91,14.69-1.06,2.41-.68,4.1,1.07,6,5.53,6,10.92,12.08,16.51,18.3-.64.22-1,.36-1.29.44-30.21,7-52.68,34-53.73,65C-.74,130.49,7.83,150,25.88,164.76c15.49,12.71,33.47,17.7,53.42,15.11a2.57,2.57,0,0,1,2.32,1c18.25,17.08,39.71,23.14,64.12,18.08,30.53-6.33,53.91-34.36,54.78-65.45C201.16,110.65,192.93,91.52,175.5,76.74ZM64.8,156.68c-12.15-.45-31.14-9.64-38.71-30.19A47,47,0,0,1,41.44,73.3C57.8,60.68,79.62,61.08,93.69,70.09,63.14,92,53.61,120.85,64.8,156.68Zm25.86-4.2c-1.14.57-1.5.15-2-.77-3.39-6.7-5.09-13.79-5.16-23.34.93-16.77,9.34-30.91,26.09-39.88,1.12-.6,1.65-.6,2.31.69C123.76,112.46,114.09,140.78,90.66,152.48Zm67.93,15.43c-16.62,12.41-38.24,11.54-51.7,2.79,30.42-21.88,40.05-50.64,28.85-86.59,12.26.51,31.5,9.68,38.93,30.82A46.9,46.9,0,0,1,158.59,167.91Z"/><path class="cls-2" d="M75,174a59.92,59.92,0,0,1-23.59-2.65C26.69,163,11.45,146,7.3,120.26,1.71,85.5,25.18,55.46,56,48.77c34.23-7.43,66.9,12.61,75.77,46.44,7.13,27.16-5.38,56.65-29.85,70.5a2.15,2.15,0,0,1-3-.34,52,52,0,0,1-5.72-6.31l2.36-1.26c19.7-10.7,31.06-33.26,27.61-54.81-3.65-22.83-20.49-40.46-42.83-44.85A53.43,53.43,0,1,0,63.09,163.56c4.17.52,6.88,1.66,8.56,5.5C72.38,170.74,73.72,172.16,75,174Z"/><path class="cls-2" d="M125.53,67.37c15.15-.85,28.79,2.53,40.83,11.09,18.92,13.48,28.16,32.06,27.45,55.26-.92,29.85-24.17,55.47-53.83,59.8a63.48,63.48,0,0,1-72.22-51.8c-4.73-25.88,8-53.12,30.93-66a2,2,0,0,1,2.87.28c1.66,1.6,3.22,3.27,4.77,5,1,1.09,1,1.5-.44,2.27a52.75,52.75,0,0,0-25,27.28A53.5,53.5,0,1,0,138.83,78a4.93,4.93,0,0,0-1.23-.23c-4.53.6-7.1-1.74-8.85-5.62A34.84,34.84,0,0,0,125.53,67.37Z"/><path class="cls-2" d="M81.89,7.14c-1.2,3-2.37,5.91-3.47,8.81a1.48,1.48,0,0,1-1.66,1.13q-6.58-.07-13.15,0A1.48,1.48,0,0,1,62,16c-1.11-2.91-2.28-5.79-3.48-8.82Z"/><path class="cls-2" d="M64.66,23.81h11C74.1,29.14,72.54,34.37,71,39.59c-.12.4-.21.85-.74.87s-.73-.52-.86-1C67.81,34.32,66.26,29.16,64.66,23.81Z"/><path class="cls-2" d="M47.59,23.75c3.32,0,6.22,0,9.12,0,.65,0,1,.17,1.23.82q2.14,7.29,4.29,14.57a2.8,2.8,0,0,1,0,.84C57.38,34.64,52.66,29.38,47.59,23.75Z"/><path class="cls-2" d="M77.93,39.51c1.43-4.74,2.93-9.46,4.27-14.22a1.78,1.78,0,0,1,2.14-1.57c2.68.09,5.36,0,8.45,0L78.28,39.84Z"/><path class="cls-2" d="M55.18,17H45.06c1.27-3.17,2.53-6.2,3.68-9.27.32-.84.88-.68,1.48-.74s1.08.24,1.35.93C52.71,10.91,53.91,13.85,55.18,17Z"/><path class="cls-2" d="M95.31,17H85.19c1.27-3.17,2.53-6.22,3.7-9.3.28-.72.74-.69,1.3-.69s1.14,0,1.45.77C92.77,10.84,94,13.83,95.31,17Z"/></g></g></svg>