<svg xmlns="http://www.w3.org/2000/svg" viewBox="0 0 185.44 200"><defs><style>.cls-1{fill:#3bd8ff;}.cls-2{fill:#fff;}</style></defs><g id="Layer_2" data-name="Layer 2"><g id="Layer_1-2" data-name="Layer 1"><path class="cls-1" d="M57.58,43.09C55.52,27.26,60.32,14.4,73.8,5.87c12.35-7.82,25.46-7.84,37.83,0,13.49,8.55,18.27,21.4,16.26,37.08a5.21,5.21,0,0,0,2.28.13c9.73,0,19.46.05,29.19,0a4.66,4.66,0,0,1,4.75,2.85q10.39,20.88,20.94,41.69a4.62,4.62,0,0,1,.39,2.15q0,52.92,0,105.84c0,3.17-1.27,4.41-4.49,4.41H4.46C1.27,200,0,198.74,0,195.56Q0,142.64,0,89.72a4.45,4.45,0,0,1,.41-2.14C7.3,73.89,14.21,60.21,21,46.48A5.37,5.37,0,0,1,26.54,43C36.85,43.17,47.17,43.09,57.58,43.09Z"/><path class="cls-2" d="M92.72,193.53q-41.67,0-83.35,0c-1.85,0-2.29-.42-2.28-2.27q.09-47.7,0-95.39c0-1.85.42-2.28,2.28-2.28q83.34.09,166.7,0c1.85,0,2.29.42,2.28,2.28q-.09,47.69,0,95.38c0,1.86-.42,2.29-2.28,2.28Q134.4,193.47,92.72,193.53Z"/><path class="cls-2" d="M71.26,65.15H50.32c-1.27,0-2.53,0-3.79,0a3.54,3.54,0,0,0-3.72,3.59c0,2,1.51,3.42,3.8,3.52.44,0,.89,0,1.33,0h89.58c.44,0,.89,0,1.33,0,2.28-.11,3.77-1.52,3.78-3.55a3.51,3.51,0,0,0-3.75-3.55c-3.49-.06-7,0-10.47,0H114.18A37,37,0,0,0,125,51.6c.38-.83,1-.72,1.65-.72q15.15,0,30.3,0a1.63,1.63,0,0,1,1.77,1Q167.27,69,175.86,86.2s0,.14-.08.28H9.64c-.12-.77.38-1.29.66-1.85C15.62,74,21,63.3,26.27,52.61a2.67,2.67,0,0,1,2.85-1.77q14.6.12,29.18,0a2.32,2.32,0,0,1,2.49,1.54A36.18,36.18,0,0,0,71.26,65.15Z"/><path class="cls-2" d="M92.87,8.09A28.53,28.53,0,1,1,64.2,36.36,28.59,28.59,0,0,1,92.87,8.09Z"/><path class="cls-1" d="M131.75,129.22c0,6.66-1.82,11.77-5.86,15.87-10.06,10.2-20.22,20.31-30.37,30.42-1.9,1.9-3.72,1.87-5.64,0-10-10-20.17-19.95-30.06-30.12a21.37,21.37,0,0,1,30.24-30.19c2.65,2.49,2.62,2.45,5.4-.06,6.87-6.18,14.72-7.88,23.27-4.27S131.19,121.16,131.75,129.22Z"/><path class="cls-1" d="M103.41,28.2c0,2.49-1.37,4-3.3,4.18A3.61,3.61,0,0,1,96.3,29.1c-.44-2.59-1.54-3.79-3.51-3.83a3.58,3.58,0,0,0-3.63,3.46c0,2,1.4,3.48,3.66,3.66,5.2.42,8.92,3.27,10.18,7.82a10.54,10.54,0,0,1-5.25,12.27,2.57,2.57,0,0,0-1.61,2.06,3.22,3.22,0,0,1-3.5,2.78,3.18,3.18,0,0,1-3.33-2.72,2.77,2.77,0,0,0-1.76-2.2,10.31,10.31,0,0,1-5.49-8.61c-.19-2.39,1.17-4.08,3.26-4.24s3.46,1.17,3.83,3.48,1.87,3.82,3.93,3.61A3.6,3.6,0,0,0,96.27,43c-.06-2-1.5-3.29-3.86-3.45a10.73,10.73,0,0,1-10.17-8.7,10.55,10.55,0,0,1,5.67-11.5,2.12,2.12,0,0,0,1.34-1.75,3.27,3.27,0,0,1,3.56-3,3.22,3.22,0,0,1,3.36,3c.14,1.13.75,1.44,1.53,1.86A10.5,10.5,0,0,1,103.41,28.2Z"/><path class="cls-2" d="M124.63,130.61A14.33,14.33,0,0,1,120.56,141c-8.9,8.95-17.85,17.84-26.74,26.81-.95,1-1.43.75-2.26-.09C82.72,158.85,73.79,150,65,141.11a14.23,14.23,0,0,1,20-20.29c1.62,1.52,3.15,3.15,4.74,4.7,2.2,2.14,3.92,2.12,6.14,0,1.65-1.61,3.19-3.33,4.92-4.85,4.54-4,9.7-4.9,15.29-2.59A14,14,0,0,1,124.63,130.61Z"/></g></g></svg>