<svg xmlns="http://www.w3.org/2000/svg" viewBox="0 0 200.56 201.54"><defs><style>.cls-1{fill:#3bd8ff;}.cls-2{fill:#fff;}</style></defs><g id="Layer_2" data-name="Layer 2"><g id="Layer_1-2" data-name="Layer 1"><path class="cls-1" d="M0,129.05c3.19-5.21,7.62-7.47,13.71-5.11.46-4.56.68-8.48,1.31-12.33.35-2.12-.58-5.17,2.49-6a9.65,9.65,0,0,1,8.87,1.85c1.64,1.37,3.47,3.34,2,5.22-1.78,2.26-2.85-.54-4.18-1.51-3.25-2.36-5.12-1.89-5.32,2.59-.17,3.9-.93,7.78-1.19,11.68-.3,4.54-.39,9-6,10.51S2.88,134.58,0,130.62Z"/><path class="cls-1" d="M25.19,0c.35,7.71-3.65,14.37-5.22,21.62a2.34,2.34,0,0,1-2.79,2.08C14.94,23.16,15.63,21.3,16,20,18,13.29,20,6.65,22,0Z"/><path class="cls-1" d="M81.6,36.26c7.12-2.85,10.52,0,13.71,6.79,7.79,16.64,8.41,31.82-3.47,47.12a59.24,59.24,0,0,0-10,20.25c-3.73,13.27-2.84,25.65,4.78,37.32,4.64,7.11,4.67,14.35,1.72,22.25-2.55,6.82-4.09,14-5.85,21.13-1.62,6.47-5,10.45-12.19,9-5.83-1.15-8.12-6.27-6.45-13.64.81-3.57,1.6-7.15,2.43-10.71,3.89-16.79,2.89-20-10.72-33-1.29,5.79-.31,11.11,0,16.36.61,9.67,1.53,19.32,2.22,29,.52,7.39-2.75,12-8.74,12.55-6.14.59-10.19-3.11-11.27-10.38-2.56-17.35-4.78-34.76-7.78-52-1.42-8.11,2.94-13.85,6.9-19.28,6.44-8.84,5.23-15.3-1.48-23.71C19.56,75.36,20.05,75,25.68,50.52c1.1-4.77,3.28-8.7,8.9-7.83s6.89,5,6.29,10a19.69,19.69,0,0,1-.62,4.66C35.35,70.16,42.81,78,51.52,85.19c3.81,3.17,21.34,0,24.57-4.26a46.55,46.55,0,0,1,2.66-3.88c6.92-7.24,7.84-15,3.42-24.08-2.51-5.18-5.14-11.14-.39-16.85Z"/><path class="cls-1" d="M127.29,106.85c-8,5-14.81,9.27-14.6,19.45.09,4.34-1.3,8.79-2.43,13.08s-4.34,6-8.44,5.18c-3.67-.7-6.51-3.26-5.89-7.16,2.24-14.08.07-29.86,14.47-39.54a11,11,0,0,0,2.77-2.77c7-9.69,16.64-13.71,28.34-13.35,7.64.24,12.2-3.25,15.37-10.34,4.26-9.52,9.71-18.51,14.63-27.74,2.78-5.21,5.6-11.26,12.92-7.34,6.8,3.64,3.74,9.13,1.26,14.25-4.45,9.17-8.28,18.65-13.13,27.59-8.53,15.72-9.41,33-11.28,50.13-.42,3.85,1.43,7.23,2.89,10.46,6.86,15.22,9.92,31.32,11.9,47.73,1,8.57-1.74,13.93-8.17,14.31-7.71.47-10.22-4.53-11.15-11.31-1.81-13.17-3.12-26.43-11.65-37.71-3-4-3.5-4.84-7.23-.49-10.27,12-14.64,26.22-18.45,41-2.37,9.18-10.63,12.06-16.47,6.32-3.77-3.71-2.81-8.1-1.87-12.51,3.73-17.51,9.52-34.32,19.24-49.39C126.2,127.58,126.19,117.72,127.29,106.85Z"/><path class="cls-1" d="M122.21,27.08c8.18,4.16,6.7-2.4,7.14-7,.29-3.13.66-6.25,1.13-9.36s-1.08-7.33,4.4-7.54,9.87,1.21,12.61,6.18c.47.85.83,2-.25,2.82-1.41,1-2.56.3-3.24-.86-1.84-3.12-4.95-4.79-7.9-3.54s-1.82,5.11-2.12,7.88q-1,9.36-1.69,18.76c-.31,4.46-2.47,7.19-6.66,8.68A11.61,11.61,0,0,1,113.86,41,6.63,6.63,0,0,1,112,32.5C113.85,28.43,117.78,27.62,122.21,27.08Z"/><path class="cls-1" d="M152,63.21a15.91,15.91,0,0,1-15.7,15.44,15.75,15.75,0,0,1-.18-31.49A15.91,15.91,0,0,1,152,63.21Z"/><path class="cls-1" d="M75.82,66.2A14.51,14.51,0,0,1,60.9,80.94a14.73,14.73,0,0,1,0-29.46A14.39,14.39,0,0,1,75.82,66.2Z"/><path class="cls-1" d="M191.59,92.83a10.79,10.79,0,0,1,6.79,2.47c1.48,1.23,2.88,3.17,1.8,4.7-1.61,2.25-2.87,0-4.29-1.1-4.18-3.19-5.19-.9-5.43,3.2-.29,5-.77,9.93-1.52,14.84a8.55,8.55,0,0,1-13.77,5.38A5.75,5.75,0,0,1,173,115.4a6.53,6.53,0,0,1,7.49-4.46c5.08,1,5.55-1.17,5.5-5.16,0-2.85.81-5.71.93-8.58C187.05,93.18,189.34,92.42,191.59,92.83Z"/><path class="cls-1" d="M68.18,35.87c-4.87-6.25-5.73-13.8-8.21-20.74-.44-1.22-.25-2.83,1.48-3a2.87,2.87,0,0,1,2.34,1.46C65.72,20.94,69.27,27.92,68.18,35.87Z"/><path class="cls-1" d="M174.72,3.43c.23.1.47.18.69.29,1,.51,7.57,21,7,22-1,1.75-2.91,2-3.58.33a97.33,97.33,0,0,1-6-20.78C172.65,4.2,173.43,3.38,174.72,3.43Z"/><path class="cls-1" d="M51.73,31.33c-.79,1.82-1.56,3.92-3.7,4.53a1.82,1.82,0,0,1-2.26-2.23c.43-2,1.54-4,3.61-4.64C50.61,28.61,51.63,29.75,51.73,31.33Z"/><path class="cls-1" d="M81.78,36.12c-3.87-.27-5-2.73-4.74-6.13,0-.41,1.37-1.19,1.68-1,2.93,1.6,4.78,3.75,2.88,7.3Z"/><path class="cls-1" d="M191.23,20.41c2.4.38,3,2.52,3.82,4.35A1.54,1.54,0,0,1,193.7,27c-3.09.19-3.64-2.46-4.39-4.53C188.93,21.44,190,20.67,191.23,20.41Z"/><path class="cls-1" d="M8.89,19c-.62,1.89-1.4,3.9-3.5,4.72-1.56.6-2.65-.35-2.25-2,.51-2,1.34-4.1,3.66-4.61A1.71,1.71,0,0,1,8.89,19Z"/><path class="cls-1" d="M35.89,17.4a6.12,6.12,0,0,1,3.47,4.73,1.48,1.48,0,0,1-1.92,1.75c-2.26-.55-3.31-2.45-3.66-4.54C33.59,18.23,34.62,17.55,35.89,17.4Z"/><path class="cls-1" d="M164.09,23c-.87,1.72-1.4,4-4,3.9-1.27-.05-1.59-1.29-1.21-2.29.71-1.87,1.26-4.18,3.92-4.06C163.94,20.63,164.17,21.84,164.09,23Z"/><path class="cls-2" d="M8.79,128.14c1.59.09,3.5.12,3.69,2.08.24,2.47-1.79,2.79-3.69,2.82-1.66,0-3.53-.42-3.73-2.12C4.77,128.45,7,128.38,8.79,128.14Z"/><path class="cls-2" d="M50.59,147.42c.93,13.61,1.85,27.48,2.84,41.33.29,4-.13,7.77-4.88,8.37s-6.22-2.72-6.81-6.81c-2.61-18.14-5.46-36.25-7.89-54.42-.79-5.92,3.49-10.47,6.64-14.61,7.56-9.93,7.5-18.6-1.87-27-.19-.17-.3-.44-.49-.61C24.68,82,25.6,67.46,29.6,52.18c.67-2.56,1.3-4.81,4.31-4.39,3.33.47,2.76,3.24,2.51,5.58A94.27,94.27,0,0,1,35,64.28c-1.49,6.38.58,10.79,4.62,16.15C47.62,91,56.72,93,68.82,89.8c5.13-1.35,9.41-2.48,11.65-7.63a9,9,0,0,1,1.77-2.59c7.64-7.83,8.42-16.34,4.09-26.35C84.73,49.54,79,42.94,86,40.66c5.86-1.92,4.75,6.43,6.92,10.09C100.15,63,97.45,73.92,90,85.37c-6.61,10.19-12.36,21-13.92,33.73-1,8.36-1.85,16.25,3.13,23.17C92,160,81.46,176.7,77.45,193.69c-.69,2.9-3.19,4.23-6.14,3.51-3.27-.8-4.8-3.17-4.08-6.52,1.7-7.93,3.14-16,5.48-23.69,1.39-4.61.64-8-2.28-11.49-3.16-3.83-5.79-8.09-8.88-12-1.6-2-2.28-6-6.34-4.16C51.92,140.81,49.27,142.9,50.59,147.42Z"/><path class="cls-2" d="M104.13,191.21c3.76-17.47,8.38-34.74,18.55-49.62,7.8-11.4,7.42-24.22,8.76-36.88.14-1.31.31-2.71-1.16-3.41-1.74-.83-2.85.56-4.1,1.39-10,6.61-19.17,13.7-18.23,27.63.17,2.53-.72,5.17-1.31,7.71-.44,1.94-1.6,3.39-3.83,3.15-2.64-.29-3.52-2.18-3.18-4.49,1.2-8,2.56-16,3.82-24,.31-2,1.8-3.13,3.06-4.43,2-2.07,4.34-3.89,6-6.19,8.19-11.16,19.16-16.54,32.92-16,6.75.28,10.25-3,13.07-8.83,5.26-10.8,11.17-21.28,16.9-31.85,1.41-2.6,2.41-6.82,6.56-4.86s1.51,5.37.26,8.06c-3.63,7.81-7.09,15.73-11.17,23.31-9.14,17-12.22,35.37-13.84,54.24a26.06,26.06,0,0,0,2.19,13,150.21,150.21,0,0,1,12.28,49.18c.31,4.13.87,8.49-4.53,9.11s-6.4-3.67-6.67-7.8c-1.07-16-5.53-30.61-14.9-43.85-3.45-4.88-4.85-4.43-8.14-.13-9.78,12.79-18.17,26.14-21,42.34a54.14,54.14,0,0,1-1.7,6c-1,3.39-3.49,4.49-6.7,3.73C104.7,196.9,103.57,194.44,104.13,191.21Z"/><path class="cls-2" d="M120.61,40.32c-2.63-.36-5.74-1.16-5.3-4.29.46-3.29,3.77-4,6.82-3.73,2.72.21,5.71,1,5.31,4.32C127,40.26,123.63,40.29,120.61,40.32Z"/><path class="cls-2" d="M147.74,64a11.71,11.71,0,0,1-23.41-.58,11.73,11.73,0,0,1,12.42-11.22A11.49,11.49,0,0,1,147.74,64Z"/><path class="cls-2" d="M71.81,67.09a11.21,11.21,0,0,1-11.17,10.7,10.75,10.75,0,0,1-10.39-11.3c.48-6.43,4.45-9.84,10.6-10.28C66.63,55.78,71.87,61.31,71.81,67.09Z"/><path class="cls-2" d="M180.34,115.71c1.91,0,3.94.35,3.82,2.73-.1,1.9-2,2.14-3.61,2.1-1.85,0-4-.31-3.87-2.63C176.78,116.22,178.66,115.72,180.34,115.71Z"/></g></g></svg>