<svg xmlns="http://www.w3.org/2000/svg" viewBox="0 0 200.56 201.54"><defs><style>.cls-1{fill:#090909;}.cls-2{fill:#101010;}.cls-3{fill:#020202;}.cls-4{fill:#060606;}.cls-5{fill:#0a0a0a;}.cls-6{fill:#161616;}.cls-7{fill:#141414;}.cls-8{fill:#2f2f2f;}.cls-9{fill:#333;}.cls-10{fill:#242424;}.cls-11{fill:#1c1c1c;}.cls-12{fill:#121212;}.cls-13{fill:#3bd8ff;}</style></defs><g id="Layer_2" data-name="Layer 2"><g id="Layer_1-2" data-name="Layer 1"><path class="cls-1" d="M0,129.05c3.19-5.21,7.62-7.47,13.71-5.11.46-4.56.68-8.48,1.31-12.33.35-2.12-.58-5.17,2.49-6a9.65,9.65,0,0,1,8.87,1.85c1.64,1.37,3.47,3.34,2,5.22-1.78,2.26-2.85-.54-4.18-1.51-3.25-2.36-5.12-1.89-5.32,2.59-.17,3.9-.93,7.78-1.19,11.68-.3,4.54-.39,9-6,10.51S2.88,134.58,0,130.62Z"/><path class="cls-2" d="M25.19,0c.35,7.71-3.65,14.37-5.22,21.62a2.34,2.34,0,0,1-2.79,2.08C14.94,23.16,15.63,21.3,16,20,18,13.29,20,6.65,22,0Z"/><path class="cls-3" d="M81.6,36.26c7.12-2.85,10.52,0,13.71,6.79,7.79,16.64,8.41,31.82-3.47,47.12a59.24,59.24,0,0,0-10,20.25c-3.73,13.27-2.84,25.65,4.78,37.32,4.64,7.11,4.67,14.35,1.72,22.25-2.55,6.82-4.09,14-5.85,21.13-1.62,6.47-5,10.45-12.19,9-5.83-1.15-8.12-6.27-6.45-13.64.81-3.57,1.6-7.15,2.43-10.71,3.89-16.79,2.89-20-10.72-33-1.29,5.79-.31,11.11,0,16.36.61,9.67,1.53,19.32,2.22,29,.52,7.39-2.75,12-8.74,12.55-6.14.59-10.19-3.11-11.27-10.38-2.56-17.35-4.78-34.76-7.78-52-1.42-8.11,2.94-13.85,6.9-19.28,6.44-8.84,5.23-15.3-1.48-23.71C19.56,75.36,20.05,75,25.68,50.52c1.1-4.77,3.28-8.7,8.9-7.83s6.89,5,6.29,10a19.69,19.69,0,0,1-.62,4.66C35.35,70.16,42.81,78,51.52,85.19c3.81,3.17,21.34,0,24.57-4.26a46.55,46.55,0,0,1,2.66-3.88c6.92-7.24,7.84-15,3.42-24.08-2.51-5.18-5.14-11.14-.39-16.85Z"/><path class="cls-3" d="M127.29,106.85c-8,5-14.81,9.27-14.6,19.45.09,4.34-1.3,8.79-2.43,13.08s-4.34,6-8.44,5.18c-3.67-.7-6.51-3.26-5.89-7.16,2.24-14.08.07-29.86,14.47-39.54a11,11,0,0,0,2.77-2.77c7-9.69,16.64-13.71,28.34-13.35,7.64.24,12.2-3.25,15.37-10.34,4.26-9.52,9.71-18.51,14.63-27.74,2.78-5.21,5.6-11.26,12.92-7.34,6.8,3.64,3.74,9.13,1.26,14.25-4.45,9.17-8.28,18.65-13.13,27.59-8.53,15.72-9.41,33-11.28,50.13-.42,3.85,1.43,7.23,2.89,10.46,6.86,15.22,9.92,31.32,11.9,47.73,1,8.57-1.74,13.93-8.17,14.31-7.71.47-10.22-4.53-11.15-11.31-1.81-13.17-3.12-26.43-11.65-37.71-3-4-3.5-4.84-7.23-.49-10.27,12-14.64,26.22-18.45,41-2.37,9.18-10.63,12.06-16.47,6.32-3.77-3.71-2.81-8.1-1.87-12.51,3.73-17.51,9.52-34.32,19.24-49.39C126.2,127.58,126.19,117.72,127.29,106.85Z"/><path class="cls-1" d="M122.21,27.08c8.18,4.16,6.7-2.4,7.14-7,.29-3.13.66-6.25,1.13-9.36s-1.08-7.33,4.4-7.54,9.87,1.21,12.61,6.18c.47.85.83,2-.25,2.82-1.41,1-2.56.3-3.24-.86-1.84-3.12-4.95-4.79-7.9-3.54s-1.82,5.11-2.12,7.88q-1,9.36-1.69,18.76c-.31,4.46-2.47,7.19-6.66,8.68A11.61,11.61,0,0,1,113.86,41,6.63,6.63,0,0,1,112,32.5C113.85,28.43,117.78,27.62,122.21,27.08Z"/><path class="cls-1" d="M152,63.21a15.91,15.91,0,0,1-15.7,15.44,15.75,15.75,0,0,1-.18-31.49A15.91,15.91,0,0,1,152,63.21Z"/><path class="cls-4" d="M75.82,66.2A14.51,14.51,0,0,1,60.9,80.94a14.73,14.73,0,0,1,0-29.46A14.39,14.39,0,0,1,75.82,66.2Z"/><path class="cls-5" d="M191.59,92.83a10.79,10.79,0,0,1,6.79,2.47c1.48,1.23,2.88,3.17,1.8,4.7-1.61,2.25-2.87,0-4.29-1.1-4.18-3.19-5.19-.9-5.43,3.2-.29,5-.77,9.93-1.52,14.84a8.55,8.55,0,0,1-13.77,5.38A5.75,5.75,0,0,1,173,115.4a6.53,6.53,0,0,1,7.49-4.46c5.08,1,5.55-1.17,5.5-5.16,0-2.85.81-5.71.93-8.58C187.05,93.18,189.34,92.42,191.59,92.83Z"/><path class="cls-6" d="M68.18,35.87c-4.87-6.25-5.73-13.8-8.21-20.74-.44-1.22-.25-2.83,1.48-3a2.87,2.87,0,0,1,2.34,1.46C65.72,20.94,69.27,27.92,68.18,35.87Z"/><path class="cls-7" d="M174.72,3.43c.23.1.47.18.69.29,1,.51,7.57,21,7,22-1,1.75-2.91,2-3.58.33a97.33,97.33,0,0,1-6-20.78C172.65,4.2,173.43,3.38,174.72,3.43Z"/><path class="cls-8" d="M51.73,31.33c-.79,1.82-1.56,3.92-3.7,4.53a1.82,1.82,0,0,1-2.26-2.23c.43-2,1.54-4,3.61-4.64C50.61,28.61,51.63,29.75,51.73,31.33Z"/><path class="cls-9" d="M81.78,36.12c-3.87-.27-5-2.73-4.74-6.13,0-.41,1.37-1.19,1.68-1,2.93,1.6,4.78,3.75,2.88,7.3Z"/><path class="cls-10" d="M191.23,20.41c2.4.38,3,2.52,3.82,4.35A1.54,1.54,0,0,1,193.7,27c-3.09.19-3.64-2.46-4.39-4.53C188.93,21.44,190,20.67,191.23,20.41Z"/><path class="cls-11" d="M8.89,19c-.62,1.89-1.4,3.9-3.5,4.72-1.56.6-2.65-.35-2.25-2,.51-2,1.34-4.1,3.66-4.61A1.71,1.71,0,0,1,8.89,19Z"/><path class="cls-6" d="M35.89,17.4a6.12,6.12,0,0,1,3.47,4.73,1.48,1.48,0,0,1-1.92,1.75c-2.26-.55-3.31-2.45-3.66-4.54C33.59,18.23,34.62,17.55,35.89,17.4Z"/><path class="cls-12" d="M164.09,23c-.87,1.72-1.4,4-4,3.9-1.27-.05-1.59-1.29-1.21-2.29.71-1.87,1.26-4.18,3.92-4.06C163.94,20.63,164.17,21.84,164.09,23Z"/><path class="cls-13" d="M9,127.32c1.59.09,3.5.12,3.69,2.08.24,2.47-1.78,2.79-3.69,2.82-1.65,0-3.53-.42-3.73-2.12C5,127.63,7.19,127.56,9,127.32Z"/><path class="cls-13" d="M50.77,146.6c.93,13.61,1.85,27.48,2.84,41.33.29,4-.13,7.76-4.87,8.37s-6.23-2.72-6.82-6.81c-2.61-18.14-5.46-36.25-7.89-54.42-.79-5.92,3.49-10.47,6.64-14.61,7.57-9.93,7.5-18.6-1.87-27-.19-.17-.29-.44-.49-.61C24.86,81.18,25.78,66.63,29.78,51.35c.67-2.55,1.31-4.8,4.31-4.38,3.33.47,2.77,3.24,2.51,5.58a92,92,0,0,1-1.38,10.9c-1.49,6.39.58,10.8,4.62,16.16C47.8,90.19,56.9,92.17,69,89c5.14-1.35,9.41-2.48,11.65-7.63a9,9,0,0,1,1.77-2.59c7.64-7.83,8.42-16.34,4.09-26.36-1.6-3.68-7.29-10.29-.34-12.56,5.87-1.92,4.75,6.43,6.92,10.09,7.24,12.23,4.54,23.16-2.88,34.62-6.6,10.19-12.36,21-13.92,33.73-1,8.36-1.85,16.25,3.13,23.17,12.77,17.75,2.22,34.43-1.79,51.42-.69,2.9-3.19,4.23-6.14,3.51-3.27-.8-4.79-3.18-4.08-6.52,1.7-7.93,3.14-16,5.48-23.69,1.4-4.61.64-7.95-2.28-11.49-3.16-3.83-5.79-8.09-8.88-12-1.6-2-2.28-6-6.34-4.16C52.1,140,49.45,142.07,50.77,146.6Z"/><path class="cls-13" d="M104.31,190.39c3.77-17.47,8.38-34.74,18.56-49.62,7.79-11.4,7.41-24.23,8.75-36.88.14-1.32.31-2.71-1.15-3.41-1.75-.84-2.86.56-4.11,1.39-10,6.61-19.17,13.7-18.23,27.63.17,2.53-.72,5.16-1.3,7.71-.45,1.94-1.61,3.39-3.84,3.15-2.64-.29-3.52-2.18-3.18-4.49,1.2-8,2.56-16,3.82-24,.31-2,1.8-3.13,3.06-4.43,2-2.07,4.34-3.89,6-6.19,8.19-11.16,19.16-16.54,32.92-16,6.75.28,10.25-3,13.07-8.82,5.26-10.8,11.18-21.28,16.9-31.85C177,42,178,37.74,182.17,39.7s1.51,5.37.26,8c-3.63,7.82-7.08,15.74-11.17,23.32-9.14,17-12.22,35.37-13.83,54.23a26,26,0,0,0,2.18,13,150.21,150.21,0,0,1,12.28,49.18c.31,4.13.87,8.48-4.52,9.11s-6.4-3.67-6.68-7.8c-1.07-16-5.53-30.61-14.9-43.86-3.44-4.87-4.84-4.42-8.13-.12-9.78,12.78-18.17,26.14-21,42.33a51.68,51.68,0,0,1-1.7,6c-1,3.39-3.49,4.49-6.7,3.73C104.88,196.08,103.75,193.62,104.31,190.39Z"/><path class="cls-13" d="M120.79,39.5c-2.62-.36-5.74-1.16-5.3-4.29.46-3.29,3.77-4,6.83-3.73,2.71.21,5.7,1,5.3,4.32C127.18,39.44,123.81,39.47,120.79,39.5Z"/><path class="cls-13" d="M147.92,63.16a11.71,11.71,0,0,1-23.41-.57,11.74,11.74,0,0,1,12.42-11.23A11.49,11.49,0,0,1,147.92,63.16Z"/><path class="cls-13" d="M72,66.27A11.2,11.2,0,0,1,60.82,77a10.75,10.75,0,0,1-10.39-11.3c.48-6.43,4.45-9.84,10.6-10.29C66.81,55,72.06,60.48,72,66.27Z"/><path class="cls-13" d="M180.53,114.89c1.9,0,3.93.35,3.81,2.73-.1,1.9-2,2.14-3.61,2.1-1.85,0-4-.31-3.87-2.64C177,115.4,178.84,114.89,180.53,114.89Z"/></g></g></svg>