<svg xmlns="http://www.w3.org/2000/svg" viewBox="0 0 199.97 176.69"><defs><style>.cls-1{fill:#fff;}.cls-2{fill:#3bd8ff;}</style></defs><g id="Layer_2" data-name="Layer 2"><g id="Layer_1-2" data-name="Layer 1"><path class="cls-1" d="M3.47,111.38c1.53-22.15,12-40.33,34.47-53C42.3,56.31,89.7,74.3,78,84.12c-.08.07,2.23,2.07,1.86,5-1.25,9.83-6.58,31.39-10,35.33-5.37,6.13-11,10-20.1,14.79-5.5,2.86-19.44.82-30.49-4.1-7.31-3.25-13.42-6.93-14.75-14.29C3.91,117.71,3.78,114.57,3.47,111.38Z"/><path class="cls-1" d="M102.21,91s.27-14.82,8.14-20.16S144.88,42,168.22,60c.54.8,17.31,16.22,17.31,16.22a48.3,48.3,0,0,1,5.05,38.2c.36,1.25-15.92,20.75-17,21.11s-8.05,4.29-8.05,4.29l-19.46-.67-7.24-.13"/><path class="cls-2" d="M0,100.83c.94-1.47.74-3.2,1.09-4.8,3.39-15.14,11.05-27.36,24.4-35.65,8-5,16.35-5.59,25-1.81,5.88,2.59,11.76,5.2,17.49,8.09,8.8,4.44,13.58,11.8,14.76,21.54A3.11,3.11,0,0,1,80,91.86c-1.89.23-3.27-.9-3.51-3a20.48,20.48,0,0,0-8.7-15c-4.78-3.37-10-3.35-15.28-1.61C45.33,74.54,40,79.39,35.47,85.27a52.07,52.07,0,0,0-9.3,20c-.68,2.88-3.24,4-5.2,2.26a3,3,0,0,1-1-3.18c3.56-14.89,10.77-27.23,24.49-35a47.36,47.36,0,0,1,7-3.2c-7.62-4.86-16-4.92-23.29,0C13.6,75.91,6.52,89.78,6.34,107.17c-.06,6.29,1.2,12.29,5.81,17.1a24.88,24.88,0,0,0,9.72,5.92,38.37,38.37,0,0,1-2.94-12,21.58,21.58,0,0,1-.11-2.54A3.08,3.08,0,0,1,22,112.43a3,3,0,0,1,3,3.17,32.83,32.83,0,0,0,2.53,12.13c4.26,9.4,13.72,13.08,23.22,9a10,10,0,0,1,1.81-.71,3.12,3.12,0,0,1,3.55,2.07,3.06,3.06,0,0,1-1.8,3.86c-6.22,2.75-12.71,3.84-19.12,1.21-7.56-3.11-15-6.49-22.24-10.32C5.63,129,2.4,121.94.76,114.07c-.21-1,0-2.18-.76-3.09v-3.12a6.78,6.78,0,0,0,0-3.52Z"/><path class="cls-1" d="M0,104a3.54,3.54,0,0,1,0,3.52Z"/><path class="cls-2" d="M166.21,0c-13,0-26,0-39.06,0a31.93,31.93,0,0,0-7,.67C98.6,5.48,87.48,27.78,96.62,47.94q4.78,10.55,9.76,21a2.36,2.36,0,0,1-.26,2.78,42.33,42.33,0,0,0-4.83,8.87A3.12,3.12,0,0,0,102.9,85c1.62.67,3.2-.06,4.12-1.91.2-.4.37-.83.55-1.24A42.58,42.58,0,0,1,188.19,91a42.81,42.81,0,0,1-18.59,44,5.62,5.62,0,0,1-3.26,1c-6.38-.05-12.76,0-19.14,0-2.27,0-3.66,1.25-3.64,3.15s1.41,3.07,3.71,3.09c3.45,0,6.9,0,10.35,0s6.77,0,10.15,0a6.42,6.42,0,0,0,3.5-.94,48.76,48.76,0,0,0,15.89-69,2.76,2.76,0,0,1-.31-3.15c3.32-7,6.51-14,9.78-21A33.5,33.5,0,0,0,166.21,0Zm12.5,39c-2.32,5.07-4.7,10.11-7,15.2-.48,1.06-.81,1.48-2.09.83q-22.32-11.19-44.78-.16c-1.13.56-1.47.33-2-.72-2.34-5.2-4.81-10.35-7.15-15.56-4.28-9.52,1.89-19.11,12.33-19.17,8.08,0,16.15,0,24.22,0h13.9C177.11,19.45,183.26,29,178.71,39Z"/><path class="cls-2" d="M58.69,138.49A50.55,50.55,0,0,1,61,123.58c.45-1.38.24-2-1.07-2.69-4-2.09-7.91-4.48-12-6.45s-5.46-5-4.91-9.19c.62-4.71,2.81-8.48,7.06-10.82a6.11,6.11,0,0,1,6.31,0c4.46,2.52,9,4.86,13.46,7.43,1.56.91,2.4.83,3.67-.57,5.46-6.06,12-10.56,20.05-12.4a22.88,22.88,0,0,1,15.21,1.55c5.46,2.55,10.88,5.22,16.43,7.56C134.47,102,139.25,109.3,141,118.8c3.63,20.19-6.88,43.07-24.55,53.51-8.39,5-17.12,6-26.18,1.5-4.87-2.44-9.8-4.78-14.83-6.86-9.49-3.92-14.1-11.4-16-21A45.29,45.29,0,0,1,58.69,138.49Z"/><path class="cls-2" d="M146.54,76.52c12,0,22.11,9.5,22.6,21.14.55,12.7-8.35,23.11-20.69,24.2a11.61,11.61,0,0,1-1.56,0,3.17,3.17,0,0,1-3.09-3.14,3.1,3.1,0,0,1,2.95-3.06,18.86,18.86,0,0,0,5.52-1.09c7-2.66,11.18-9.31,10.61-17.07-.53-7-6-13-13.24-14.5A16.45,16.45,0,0,0,132,91.37c-.25.46-.45.94-.72,1.38a3.09,3.09,0,0,1-5.56-2.69A22.31,22.31,0,0,1,141.7,77,20.82,20.82,0,0,1,146.54,76.52Z"/><path class="cls-1" d="M182.44,64.48c-1.95-1.66-3.68-3.23-5.51-4.68-.88-.69-.35-1.25-.07-1.84,2.57-5.6,5.21-11.17,7.76-16.79,5.46-12-1.31-25.18-14.26-27.67a34.53,34.53,0,0,0-7.4-.23c-1.75,0-7.42,0-9.23,0-3.06,0-6.12,0-9.18,0-5.59,0-11.19,0-16.79,0A19.43,19.43,0,0,0,109.9,41q3.75,8.34,7.68,16.6a1.58,1.58,0,0,1-.55,2.36c-1.71,1.27-3.27,2.75-5.08,4.29-3.43-8.73-8.8-16.61-11-25.75C97,22,109.71,5.76,126.61,5.5q20.6-.31,41.2,0c19.06.3,31.84,20,24.42,37.64C189.21,50.3,185.75,57.28,182.44,64.48Z"/><path class="cls-1" d="M83.68,146.42c1-16.52,7.48-30.07,21.46-39.5,5-3.38,10.63-5.06,16.67-3.46,7.7,2.05,11.45,7.89,12.87,15.18,2.72,14-1.51,26.32-9.7,37.52a39.59,39.59,0,0,1-12.51,11c-13.19,7.47-26.1.07-28.16-13.71C84,151.14,83.88,148.8,83.68,146.42Z"/><path class="cls-1" d="M109.72,97.74c-24.93,8.43-38.48,42.55-29.29,64.16-4.83-1.69-9-4-11.64-8.34A25.9,25.9,0,0,1,64.93,140c-.15-16,5.95-29.31,18.23-39.66A27,27,0,0,1,94,94.81C99.36,93.44,104.61,94.44,109.72,97.74Z"/><path class="cls-1" d="M49.2,106.07a7.46,7.46,0,0,1,.94-3.45c1.45-2.94,2.56-3.3,5.38-1.76,3.76,2,7.49,4.14,11.27,6.15,1,.52,1.34.84.6,2a59.8,59.8,0,0,0-3,5.43c-.4.78-.65,1.24-1.7.65-4.12-2.34-8.29-4.58-12.47-6.8A1.91,1.91,0,0,1,49.2,106.07Z"/></g></g></svg>