<svg xmlns="http://www.w3.org/2000/svg" viewBox="0 0 200 182.43"><defs><style>.cls-1{fill:#3bd8ff;}</style></defs><g id="Layer_2" data-name="Layer 2"><g id="Layer_1-2" data-name="Layer 1"><polyline class="cls-1" points="101.01 50.57 137.77 49.79 137.77 79.53 121.13 89.08 101.01 82.24 101.01 49.79"/><path class="cls-1" d="M13,110l152-.8,18.65.4s8.19-.8,9.66,12.21,4,30.19,4,30.73-1.48,8-1.48,8l-21.07,7.78-14-2.55-14.63,8.72-17.57,3.09-19.19-1.48-9.16-3.35-15.4,5.77-16.23-1.21L54,172.27l-13.68-5.36L20.9,168.25,8.56,163l-4.83-3.63-1.08-2.12,5-40.41Z"/><path d="M.33,156.74c.54-6.23,1.06-12.45,1.64-18.67a2.87,2.87,0,0,1,3.19-2.72,2.89,2.89,0,0,1,2.61,3.29c-.37,4.8-.85,9.59-1.29,14.38-.12,1.36-.21,2.73-.37,4.09-.43,3.7-.67,3,2.35,4.65a43.36,43.36,0,0,0,27.37,4.77c1.33-.19,1.77-.67,1.74-2.09-.11-5.66,0-11.32,0-17a3,3,0,0,1,2.19-3.28,2.76,2.76,0,0,1,3.21,1.23,3.87,3.87,0,0,1,.47,2.45c0,5.86,0,11.71,0,17.57a2.13,2.13,0,0,0,1.1,2.22c16,9.28,32.79,11.33,50.51,5.94,1.62-.49,2.17-1.26,2.14-3-.11-8.07-.05-16.15,0-24.22a9.43,9.43,0,0,1,.16-2.13,2.85,2.85,0,0,1,5.53,0,9.43,9.43,0,0,1,.16,2.13c0,8.14,0,16.28,0,24.41,0,1.44.31,2.2,1.79,2.66,17.83,5.62,34.75,3.5,50.87-5.8a2.13,2.13,0,0,0,1.07-2.24q0-8.79,0-17.58c0-2.43,1.09-3.82,2.93-3.8s2.92,1.42,2.93,3.85c0,5.6.05,11.19,0,16.79,0,1.28.46,1.67,1.57,1.83A43.63,43.63,0,0,0,192.93,161a2.15,2.15,0,0,0,1.17-2.38c-1.18-12.5-2.3-25-3.5-37.51a8.52,8.52,0,0,0-8.65-7.66c-7.81,0-15.62,0-23.44,0H19.26c-6.22,0-9.36,2.84-10,9-.08.84-.15,1.69-.3,2.52a2.79,2.79,0,0,1-3,2.52,2.87,2.87,0,0,1-2.82-2.92c-.1-11.46,7.19-17.28,15.84-17,4.13.14,8.27,0,12.93,0-2.25-1.72-4.1-3.1-5.92-4.51-2.05-1.57-2.73-3.4-2.05-5.41s2.29-3.07,4.88-3.08c6.78,0,13.55-.06,20.32,0,1.53,0,1.88-.32,1.8-1.93-.78-16.37.48-32.49,6.42-48A29.86,29.86,0,0,1,59,41.37a5.25,5.25,0,0,1,4.91-2.94,5.35,5.35,0,0,1,5,2.87,61,61,0,0,1,3.2,7.5c1.3-2.36,2.5-4.58,3.74-6.78s2.89-3,4.95-2.44,2.92,2,2.92,4.47c0,7.29,0,14.59,0,21.88,0,1.14-.08,1.85,1.56,1.79,2.41-.1,3.88,1.71,3.89,4.38,0,6.9.06,13.8,0,20.7,0,1.49.4,2,1.85,1.81,1.67-.19,3.86.69,4.89-.34s.3-3.21.3-4.89q0-16.89,0-33.79c0-7.9,3.1-14.24,9.57-18.82a3.59,3.59,0,0,0,1.71-3.34c-.08-9,0-18.1,0-27.15,0-4.45,1.81-6.24,6.3-6.26,3.06,0,6.12,0,9.18,0,4.2,0,6.08,1.93,6.09,6.09,0,9.18,0,18.36,0,27.54a3.17,3.17,0,0,0,1.56,3c8.27,5.63,10.38,13.87,9.67,23.24a2.93,2.93,0,0,1-3,2.72,2.9,2.9,0,0,1-2.76-3,27,27,0,0,1,0-3.71c.12-1.36-.33-1.76-1.71-1.75-8.14.06-16.28,0-24.42,0-1.56,0-3.13.06-4.68,0-1.14-.06-1.59.2-1.58,1.48q.09,11.82,0,23.63c0,1.14.38,1.54,1.41,1.89,4.49,1.52,8.94,3.13,13.39,4.74a3.43,3.43,0,0,0,2.44.11c4.58-1.64,9.16-3.28,13.77-4.84,1-.35,1.45-.8,1.39-1.93-.11-1.82-.05-3.64,0-5.47,0-2.15,1.12-3.37,2.94-3.35s2.87,1.28,2.91,3.43c0,1.75,0,3.51,0,5.27,0,8.92,0,17.84,0,26.76,0,1.36.35,1.62,1.7,1.74,2.94.25,4.79-.18,5.88-3.57,1.34-4.15,4.82-6.71,9-7.94A1.77,1.77,0,0,0,158.3,94c-.11-2.34-.07-4.69,0-7,0-.85-.2-1.17-1.08-1.43-6.34-1.91-9.31-6.48-8.41-13,.75-5.41,1.59-10.8,2.43-16.2a4.63,4.63,0,0,1,4.85-4.17q5.18-.08,10.35,0a4.43,4.43,0,0,1,4.72,4c.94,5.65,1.9,11.29,2.63,17,.76,5.93-2.54,10.67-8.38,12.33-1,.28-1.34.61-1.3,1.67.1,2.4.06,4.81,0,7.22,0,.91.19,1.3,1.18,1.6a14.58,14.58,0,0,1,10.41,10.38c.32,1.11.82,1.22,1.76,1.24,2.53,0,5.07-.25,7.59.3a14.33,14.33,0,0,1,11.38,12.57c1.24,12.7,2.36,25.4,3.53,38.1a7.11,7.11,0,0,1-3.81,7.3,48.86,48.86,0,0,1-34.74,6,3.26,3.26,0,0,0-2.51.52c-18.39,10.8-37.66,13-57.86,5.85a2.71,2.71,0,0,0-2,0c-20.35,7.21-39.73,4.95-58.2-6a2.76,2.76,0,0,0-2.17-.33,49.43,49.43,0,0,1-32.38-4.64c-2.64-1.33-5-2.89-6.27-5.75v-2.74C.46,158.16,0,157.38.33,156.74Z"/><path class="cls-1" d="M.62,155.22c.15.72.31,1.45-.32,2.05v-2A.2.2,0,0,1,.62,155.22Z"/><path class="cls-1" d="M104.76,106.08c2.25-1.71,4.1-3.09,5.92-4.49,2-1.55,2.71-3.4,2.06-5.43s-2.32-3-4.89-3.08c-1.43,0-2.86-.07-4.29,0-1.06.06-1.33-.36-1.3-1.35.07-2,0-4,0-6.31,3.6,1.25,7.15,2.25,10.48,3.73a13.13,13.13,0,0,0,11.24,0c3.37-1.47,6.92-2.5,10.62-3.8,0,6.75,0,13.29,0,19.83,0,.72-.36.84-1,.84Z"/><path class="cls-1" d="M32.71,99h71.65c-3.25,2.42-6.18,4.59-9.12,6.76a3,3,0,0,1-1.89.27H43.61a3.24,3.24,0,0,1-2.07-.4Z"/><path class="cls-1" d="M133.22,46.74H103.74a13.21,13.21,0,0,1,5.43-6.55c3.42-2.08,4.7-4.93,4.4-8.82-.2-2.65,0-5.33-.06-8,0-.93.28-1.24,1.22-1.21,2.47.05,5,.07,7.41,0,1.12,0,1.27.44,1.25,1.38,0,3,.08,6.11,0,9.17a7.29,7.29,0,0,0,3.56,6.88A16.28,16.28,0,0,1,133.22,46.74Z"/><path class="cls-1" d="M59.65,93.07a168.15,168.15,0,0,1,23.9-19.56V91.58c0,.78.16,1.52-1.11,1.51C75,93.05,67.64,93.07,59.65,93.07Z"/><path class="cls-1" d="M161.63,56.53c4.11,0,4.14,0,4.81,4.08q.93,5.56,1.76,11.14c.61,4.12-1.56,6.66-5.7,6.7-.78,0-1.56,0-2.34,0-3.73-.1-5.88-2.74-5.3-6.48.69-4.48,1.46-9,2-13.46.19-1.55.62-2.22,2.23-2A19.38,19.38,0,0,0,161.63,56.53Z"/><path class="cls-1" d="M56.86,84c.16-14.1,1.54-27.8,7.28-41.09a57.35,57.35,0,0,1,4.2,11.75,1.87,1.87,0,0,1-.27,1.3A201.69,201.69,0,0,0,57.31,83.66C57.28,83.75,57.14,83.8,56.86,84Z"/><path class="cls-1" d="M78.1,49.79q0,9.81,0,19.63a1.45,1.45,0,0,1-.71,1.26q-5.61,4.21-11.16,8.49a1.38,1.38,0,0,1-1.41.28A172,172,0,0,1,78.1,49.79Z"/><path class="cls-1" d="M123.38,10.76c-.19,1.6.85,4.17-.39,5.27-1.06.94-3.58.27-5.46.28-4,0-4,0-4-4,0-2.27,0-4.55,0-6.83,0-.82.21-1.14,1.08-1.12,2.6,0,5.21,0,7.81,0,.78,0,1,.28,1,1C123.35,7.05,123.38,8.74,123.38,10.76Z"/><path class="cls-1" d="M153,106a9,9,0,0,1,17.13,0Z"/></g></g></svg>