<svg xmlns="http://www.w3.org/2000/svg" viewBox="0 0 199.93 199.94"><defs><style>.cls-1{fill:#010101;}.cls-2{fill:#3bd8ff;}</style></defs><g id="Layer_2" data-name="Layer 2"><g id="Layer_1-2" data-name="Layer 1"><path d="M93.33,199.94c-.9-.77-2-.59-3.08-.73-27-3.59-50.08-26.2-54.79-53.13A65.81,65.81,0,0,1,77.74,72.75a59.85,59.85,0,0,1,10.7-2.84c1-.16,1.55-.15.86-1.46-3.7-7.07-.89-14.69,6.53-17.6,1.3-.51,1.21-1.26,1.21-2.23V4.5c0-3.11,1-4.56,3-4.5s2.84,1.43,2.84,4.48q0,22.07,0,44.12c0,1.11.07,1.81,1.39,2.32a12.16,12.16,0,0,1,6.48,17.35c-.58,1.1-.67,1.41.73,1.65a65.51,65.51,0,0,1,5.26,127.81,57.32,57.32,0,0,1-10.15,1.83c-.3,0-.66-.05-.77.38h-1.17a.87.87,0,0,0-1.17,0h-7c-.22-.24-.51-.2-.78-.2s-.57,0-.78.2Z"/><path class="cls-1" d="M0,133.55a3.78,3.78,0,0,1,3.82-2.08c6.76.07,13.51,0,20.27,0,2.37,0,3.61,1,3.65,2.84s-1.28,3-3.71,3c-6.76,0-13.52,0-20.27,0A4.42,4.42,0,0,1,0,135.5Z"/><path class="cls-1" d="M186.13,131.5c3.44,0,6.88,0,10.32,0,2.17,0,3.44,1.08,3.48,2.82s-1.26,3-3.52,3q-10.32,0-20.65,0c-2.29,0-3.56-1.12-3.55-3s1.26-2.86,3.6-2.88C179.25,131.48,182.69,131.5,186.13,131.5Z"/><path class="cls-1" d="M30.87,153.43A2.6,2.6,0,0,1,29,155.86c-3.24,1.13-6.48,2.26-9.76,3.26a2.65,2.65,0,0,1-3.41-1.82,2.46,2.46,0,0,1,1.29-3.45,108.27,108.27,0,0,1,10.49-3.48C29.36,149.9,30.85,151.41,30.87,153.43Z"/><path class="cls-1" d="M184.3,156.2a2.9,2.9,0,0,1-3.65,2.91c-3.28-1-6.53-2.11-9.76-3.27a2.64,2.64,0,0,1-1.7-3.47,2.59,2.59,0,0,1,3.31-2c3.42,1,6.78,2.17,10.13,3.36A2.63,2.63,0,0,1,184.3,156.2Z"/><path class="cls-1" d="M184.29,112.72a2.85,2.85,0,0,1-1.95,2.49c-3.13,1.07-6.25,2.15-9.4,3.12a2.85,2.85,0,0,1-3.75-1.82,2.88,2.88,0,0,1,2-3.68c3-1.07,6-2.1,9-3A3,3,0,0,1,184.29,112.72Z"/><path class="cls-1" d="M30.87,115.54a2.75,2.75,0,0,1-3.48,2.86c-3.36-1-6.68-2.06-9.95-3.28a2.86,2.86,0,0,1,1.73-5.42c3.41,1,6.78,2.15,10.13,3.35A2.53,2.53,0,0,1,30.87,115.54Z"/><path class="cls-2" d="M122.89,122.09c-6.12,0-12.24,0-18.35,0-1.27,0-1.7-.31-1.67-1.63.1-3.25.07-6.51,0-9.76,0-1.11.18-1.62,1.47-1.59q7.13.1,14.25,0c1.14,0,1.46.48,1.59,1.43a17.42,17.42,0,0,0,.48,2.69,2.66,2.66,0,0,0,3.27,2,2.73,2.73,0,0,0,2.39-3.07c0-.95-.59-2.29-.15-2.77.7-.78,2.07-.27,3.16-.29,3.06,0,6.12,0,9.17,0,.88,0,1.42.14,1.72,1.12a104.64,104.64,0,0,1,2.64,10.57c.3,1.44-.58,1.26-1.44,1.26Z"/><path class="cls-2" d="M78.5,159.66c-5.59,0-11.18,0-16.77,0a1.85,1.85,0,0,1-2.15-1.59c-1-3.3-1.78-6.64-2.47-10-.19-1-.12-1.4,1.07-1.38,4.36.07,8.71.05,13.07,0,1,0,1.39.32,1.39,1.33a11.7,11.7,0,0,0,.3,2.7,2.64,2.64,0,0,0,3,2.18,2.74,2.74,0,0,0,2.64-2.85c.05-1.08-.68-2.57.13-3.12s2.24-.21,3.4-.21c4.36,0,8.72.08,13.07,0,1.61,0,1.92.5,1.87,2q-.15,4.58,0,9.17c.05,1.4-.27,1.89-1.79,1.86C89.69,159.6,84.09,159.66,78.5,159.66Z"/><path class="cls-2" d="M87.28,140.9c-2.6,0-5.2,0-7.79,0-1,0-1.5-.15-1.54-1.34-.11-3.44-.13-6.88,0-10.32,0-.95.26-1.34,1.32-1.33q8.19.07,16.36,0c1.1,0,1.46.29,1.44,1.41-.07,3.37-.09,6.75,0,10.13,0,1.3-.52,1.47-1.61,1.45C92.73,140.86,90,140.9,87.28,140.9Z"/><path class="cls-2" d="M112.49,140.9c-2.73,0-5.46-.05-8.18,0-1.13,0-1.45-.36-1.43-1.44.06-3.38.07-6.76,0-10.13,0-1.11.31-1.43,1.42-1.42q8.17.07,16.36,0c1,0,1.29.35,1.32,1.32.14,3.44.12,6.88,0,10.32,0,1.18-.51,1.37-1.53,1.35C117.81,140.86,115.15,140.9,112.49,140.9Z"/><path class="cls-2" d="M87.65,122.09c-2.6,0-5.19,0-7.79,0-1,0-1.56-.16-1.39-1.38.48-3.46.89-6.94,1.33-10.41.1-.85.48-1.18,1.4-1.18,4.86,0,9.73.06,14.6,0,1.1,0,1.27.47,1.26,1.4,0,3.38,0,6.75,0,10.13,0,1.09-.3,1.48-1.43,1.45C93,122.05,90.31,122.09,87.65,122.09Z"/><path class="cls-2" d="M112.34,146.76c2.67,0,5.33,0,8,0,.93,0,1.28.21,1.14,1.19-.48,3.54-.91,7.08-1.35,10.63-.1.87-.51,1.14-1.41,1.13-4.81-.05-9.62,0-14.43,0-.94,0-1.43-.14-1.41-1.25q.09-5.27,0-10.53c0-1,.4-1.17,1.27-1.16C106.88,146.78,109.61,146.76,112.34,146.76Z"/><path class="cls-2" d="M135.78,140.9c-2.21,0-4.42,0-6.64,0-1,0-1.41-.17-1.34-1.28a77.09,77.09,0,0,0,0-10.53c0-.85.21-1.16,1.07-1.16,4.62,0,9.24,0,13.86,0,.74,0,1,.22,1.06,1a68.52,68.52,0,0,1,0,10.91c-.07.85-.35,1.1-1.18,1.08C140.34,140.87,138.06,140.9,135.78,140.9Z"/><path class="cls-2" d="M64.37,128c2.14,0,4.29,0,6.44,0,1,0,1.41.18,1.33,1.28a74.34,74.34,0,0,0,0,10.34c.07,1-.2,1.37-1.26,1.36-4.49,0-9,0-13.47,0-.74,0-1.18-.08-1.25-1a69.84,69.84,0,0,1,0-10.92c.07-.87.4-1.06,1.19-1C59.68,128,62,128,64.37,128Z"/><path class="cls-2" d="M64.69,122.09c-2.14,0-4.28,0-6.42,0-1,0-1.41-.21-1.19-1.31a98.41,98.41,0,0,1,2.64-10.54,1.35,1.35,0,0,1,1.52-1.11q5.83,0,11.67,0c.88,0,1.09.26,1,1.14-.47,3.59-.89,7.2-1.27,10.8-.1.91-.57,1-1.3,1C69.1,122.08,66.9,122.09,64.69,122.09Z"/><path class="cls-2" d="M135.46,146.76c2.08,0,4.16,0,6.24,0,1,0,1.37.24,1.15,1.31a100.41,100.41,0,0,1-2.64,10.55,1.33,1.33,0,0,1-1.52,1.09c-3.83,0-7.66,0-11.49,0-.85,0-1.3,0-1.15-1.14.5-3.6.91-7.21,1.28-10.82.1-1,.62-1,1.31-1Z"/><path class="cls-2" d="M89,103.31c-2.21,0-4.42,0-6.63,0-.9,0-1.06-.22-.83-1.13a99.13,99.13,0,0,1,3.37-10.75,1.42,1.42,0,0,1,1.56-1.09c3.12.05,6.24,0,9.36,0,.9,0,1.27.26,1.26,1.21q-.06,5.27,0,10.53c0,1-.35,1.24-1.26,1.22C93.52,103.28,91.25,103.31,89,103.31Z"/><path class="cls-2" d="M110.8,103.31c-2.15,0-4.29,0-6.44,0-1,0-1.5-.24-1.48-1.4.07-3.44.05-6.89,0-10.33,0-.92.3-1.26,1.23-1.24q4.68.06,9.36,0a1.41,1.41,0,0,1,1.57,1.06,103.06,103.06,0,0,1,3.38,10.75c.29,1.13-.14,1.17-1,1.16C115.22,103.29,113,103.31,110.8,103.31Z"/><path class="cls-2" d="M118.66,165.52a85.48,85.48,0,0,1-3.67,12,1.26,1.26,0,0,1-1.44.93q-4.77-.06-9.55,0c-.84,0-1.12-.25-1.11-1.1,0-3.57,0-7.15,0-10.72,0-.81.2-1.14,1.08-1.13C108.83,165.54,113.7,165.52,118.66,165.52Z"/><path class="cls-2" d="M81.29,165.52c5,0,9.95,0,14.88,0,.88,0,.88.49.88,1.12,0,3.57,0,7.14,0,10.71,0,.83-.24,1.13-1.1,1.12-3.25,0-6.49,0-9.74,0-.72,0-1-.32-1.23-.94A79.72,79.72,0,0,1,81.29,165.52Z"/><path class="cls-2" d="M62.5,103.31A56.58,56.58,0,0,1,69.7,91.1a1.83,1.83,0,0,1,1.66-.74c2.14,0,4.28,0,6.42,0,1,0,1.19.24.83,1.22A76.82,76.82,0,0,0,75.55,102c-.22,1-.61,1.35-1.66,1.33C70.19,103.27,66.49,103.31,62.5,103.31Z"/><path class="cls-2" d="M137.46,103.31c-4,0-7.69,0-11.39,0a1.4,1.4,0,0,1-1.68-1.32,77.2,77.2,0,0,0-3-10.42c-.35-1-.26-1.3.81-1.23.84.06,1.69,0,2.53,0,5.27,0,5.28,0,8.15,4.37A52.06,52.06,0,0,1,137.46,103.31Z"/><path class="cls-2" d="M62.5,165.52c4.07,0,8,0,11.83,0,.73,0,1,.26,1.14,1a86,86,0,0,0,3.24,11c.32.86,0,1-.75,1-2.27,0-4.55,0-6.82,0a1.48,1.48,0,0,1-1.32-.63A56.34,56.34,0,0,1,62.5,165.52Z"/><path class="cls-2" d="M137.45,165.52a57.18,57.18,0,0,1-7.3,12.27,1.62,1.62,0,0,1-1.5.66c-2.46,0-4.93,0-7.66,0,.55-1.68,1.1-3.22,1.56-4.79.67-2.31,1.31-4.62,1.88-7,.19-.79.38-1.22,1.34-1.2C129.6,165.56,133.42,165.52,137.45,165.52Z"/><path class="cls-2" d="M149.94,134.42c-.1-1.74-.15-3.49-.31-5.24-.08-.92.16-1.27,1.14-1.25q3.69.09,7.4,0c1,0,1.15.35,1.23,1.22a56.66,56.66,0,0,1,0,10.5c-.1,1-.43,1.29-1.41,1.27-2.4-.07-4.81-.06-7.21,0-.94,0-1.25-.28-1.16-1.23C149.79,137.94,149.84,136.19,149.94,134.42Z"/><path class="cls-2" d="M50,133.8c.09,1.73.15,3.81.32,5.88.07.94-.2,1.26-1.16,1.24-2.47-.06-4.94,0-7.4,0-.8,0-1.12-.19-1.2-1.06a56.6,56.6,0,0,1,0-10.89c.09-.9.46-1,1.22-1,2.47,0,4.94,0,7.4,0,1,0,1.24.31,1.14,1.24C50.16,130.59,50.12,132,50,133.8Z"/><path class="cls-2" d="M100.05,68.82a6.38,6.38,0,0,1-6.15-4.24,6.54,6.54,0,0,1,1.88-7.08c.67-.55,1.1-1,1.82.19a2.69,2.69,0,0,0,4.78,0c.65-1.11,1-.74,1.67-.24a6.61,6.61,0,0,1,2.06,7A6.45,6.45,0,0,1,100.05,68.82Z"/><path class="cls-2" d="M153.26,122.09c-1.21-.13-3.08.62-4-.3s-.67-2.64-1-4c-.58-2.45-1.12-4.92-1.84-7.33-.34-1.15,0-1.33,1-1.3,1.81,0,3.63.06,5.44,0a1.59,1.59,0,0,1,1.76,1.12,72.6,72.6,0,0,1,3.51,10.46c.24,1,.1,1.46-1.05,1.38S154.69,122.09,153.26,122.09Z"/><path class="cls-2" d="M53.9,109.17a82.37,82.37,0,0,0-2.74,12c-.12.9-.61,1-1.33,1-2.33,0-4.67,0-7,0-1,0-1.21-.38-1-1.27A63.58,63.58,0,0,1,45.52,110a1.23,1.23,0,0,1,1.31-.86C49.09,109.18,51.35,109.17,53.9,109.17Z"/><path class="cls-2" d="M146,159.66a86.37,86.37,0,0,0,2.76-12.08c.09-.7.47-.83,1-.83,2.47,0,4.94.05,7.41,0,1,0,1,.46.84,1.19a63,63,0,0,1-3.67,10.85,1.23,1.23,0,0,1-1.28.9C150.83,159.64,148.51,159.66,146,159.66Z"/><path class="cls-2" d="M53.91,159.66H49.17c-3.37,0-3.38,0-4.63-3.18a75.24,75.24,0,0,1-2.66-8.32c-.3-1.15,0-1.47,1.16-1.43,2.27.08,4.55,0,6.82,0,.73,0,1.19.08,1.31,1A82.41,82.41,0,0,0,53.91,159.66Z"/><path class="cls-2" d="M137.07,90.56a4.5,4.5,0,0,1,4.84,1.37,64.87,64.87,0,0,1,8.94,11.37h-6.36a.88.88,0,0,1-.86-.63A71.45,71.45,0,0,0,137.07,90.56Z"/><path class="cls-2" d="M62.84,90.57a71.9,71.9,0,0,0-6.45,12,1.13,1.13,0,0,1-1.18.77c-1.93,0-3.85,0-6.11,0a62.08,62.08,0,0,1,8.57-11C59.06,90.86,60.48,89.85,62.84,90.57Z"/><path class="cls-2" d="M113.42,192.36A46.41,46.41,0,0,0,118,185c.36-.76.94-.74,1.6-.73h12.5C129.69,186.91,119.55,191.32,113.42,192.36Z"/><path class="cls-2" d="M67.33,184.3c4.83,0,9.09,0,13.35,0,.81,0,1.08.43,1.42,1,1,1.8,2.13,3.55,3.18,5.33.25.42.92.82.57,1.32s-1.08.17-1.61,0A60.55,60.55,0,0,1,67.33,184.3Z"/><path class="cls-2" d="M150.84,165.52a59.09,59.09,0,0,1-10.1,12.42c-1.06,1-2.32.24-3.88.67a74.24,74.24,0,0,0,6.74-12.46c.32-.77.9-.62,1.45-.62C146.87,165.51,148.69,165.52,150.84,165.52Z"/><path class="cls-2" d="M62.86,178.28a4.62,4.62,0,0,1-5-1.52,69.64,69.64,0,0,1-8.82-11.24h6.2a1,1,0,0,1,1.05.62A74,74,0,0,0,62.86,178.28Z"/><path class="cls-2" d="M86.16,76.59c-1.48,2.39-3,4.66-4.17,7.1a1.21,1.21,0,0,1-1.17.83c-4.26,0-8.52,0-12.82-.2A48.08,48.08,0,0,1,86.16,76.59Z"/><path class="cls-2" d="M113.78,76.6a53,53,0,0,1,18.48,7.64,8.26,8.26,0,0,1-3.2.26c-3.12,0-6.24,0-9.36,0-.74,0-1.37,0-1.77-.84A61.37,61.37,0,0,0,113.78,76.6Z"/><path class="cls-2" d="M111.77,184.3c-2.36,3.85-4.7,7.17-8.87,9.19,0-3,0-5.59,0-8.22,0-.78.3-1,1-1C106.43,184.32,108.94,184.3,111.77,184.3Z"/><path class="cls-2" d="M97.05,193.49c-4.17-2-6.5-5.35-8.86-9.19,2.87,0,5.48,0,8.09,0,.8,0,.77.5.77,1Z"/><path class="cls-2" d="M102.9,75.27c4.21,2.08,6.6,5.38,8.88,9.24-2.86,0-5.43,0-8,0-.86,0-.89-.54-.88-1.17Z"/><path class="cls-2" d="M97.05,75.32c0,2.93,0,5.58,0,8.22,0,.79-.36,1-1.07,1-2.47,0-4.93,0-7.81,0C90.49,80.68,92.84,77.36,97.05,75.32Z"/></g></g></svg>