<svg xmlns="http://www.w3.org/2000/svg" viewBox="0 0 200.02 181.47"><defs><style>.cls-1{fill:#3bd8ff;}.cls-2{fill:#040404;}</style></defs><g id="Layer_2" data-name="Layer 2"><g id="Layer_1-2" data-name="Layer 1"><rect class="cls-1" x="15.63" y="44.98" width="167.01" height="131.98"/><path d="M165.18,65.89c-8.33,13.1-25.4,12-32.57,0-3.85,5.9-9.09,9.42-16.22,9.44S103.92,71.94,100.1,66C91.88,78.76,75,78.12,67.43,66c-3.84,5.91-9.12,9.35-16.26,9.34s-12.35-3.4-16.11-9.23c-.55-.1-.56.38-.71.6a18.05,18.05,0,0,1-13,8.41c-1.64.23-1.84.82-1.84,2.23q.06,48.78,0,97.57a5.48,5.48,0,0,1,0,.81c-.14,1,.24,1.32,1.23,1.24,2.14-.17,4.85.85,6.24-.44,1-.91.29-3.7.29-5.65,0-14.5,0-29,0-43.5a25,25,0,0,1,15.82-23.2c10.09-3.82,20.71-1.36,27.81,6.52a24.74,24.74,0,0,1,6.46,17.25c0,15.65,0,31.3-.06,47,0,1.69.4,2.1,2.1,2.1q49.59-.09,99.18,0c1.77,0,2-.53,2-2.14q-.08-45.12,0-90.24c0-.68-.07-9,0-9.71.24-1.27.72-1.22,2.1-1.16s2.26,0,2.39,1.23c.09.74.06,9.13.06,9.87q0,44.93,0,89.84c0,1.85.44,2.52,2.3,2.28,1.61-.2,2.86.39,3,2.22.1,1.53-1,2.3-3.1,2.3H5c-2.89,0-4-.62-4-2.24s1.14-2.3,4-2.3,5.55-.06,8.33,0c1.2,0,1.82-.24,1.59-1.55a3.08,3.08,0,0,1,0-.61q0-48.87,0-97.76c0-1.53-.37-2.15-1.91-2.62A18.47,18.47,0,0,1,.08,57.47c0-1.36.1-2.73,0-4.06a6.13,6.13,0,0,1,1.84-4.92C8,41.43,14,34.29,20.16,27.22a5.22,5.22,0,0,0,1.43-3.79c-.11-4.13-.07-8.27,0-12.4a10.69,10.69,0,0,1,11-11q67.49,0,135,0a10.62,10.62,0,0,1,11,10.83c.08,3.86.15,7.73,0,11.58a7.37,7.37,0,0,0,2.06,5.62c6.06,6.93,12,14,18,21A5.51,5.51,0,0,1,200,52.86c0,3.94.06,7.88-1.71,11.53-3.06,6.34-8.1,10.14-15.11,10.82-7.18.7-12.92-2.15-17.15-8C165.77,66.82,165.53,66.41,165.18,65.89Z"/><path d="M131.13,103.44H164c5.89,0,8.76,2.83,8.76,8.65q0,22.34,0,44.68c0,5.62-2.85,8.57-8.43,8.58q-33.41,0-66.82,0c-5.59,0-8.48-3-8.48-8.55V111.91c0-5.54,3-8.47,8.55-8.47Z"/><path class="cls-1" d="M100,24.52q-35.88,0-71.75,0c-1.74,0-2.31-.34-2.23-2.18.17-3.65,0-7.32.06-11,0-4.22,2.64-6.84,6.85-6.84H167.09c4.37,0,6.9,2.57,6.91,7,0,3.72-.08,7.45.05,11.18,0,1.53-.37,1.87-1.88,1.87Q136.1,24.47,100,24.52Z"/><path class="cls-1" d="M72.78,150.69c0,8.2,0,16.39,0,24.59,0,1.3-.3,1.68-1.65,1.67q-18.79-.07-37.58,0c-1.35,0-1.83-.24-1.83-1.73.06-15.85,0-31.7.06-47.54.06-10.63,7.24-18.85,17.68-20.56,9.43-1.53,19,4.45,22.2,13.85a21.84,21.84,0,0,1,1.09,7.18Q72.76,139.42,72.78,150.69Z"/><path class="cls-1" d="M70.7,49.24a22.55,22.55,0,0,1,1.2-4.79c1.29-4.61,2.6-9.22,3.89-13.83.24-.86.44-1.55,1.67-1.53,6.29.07,12.58.05,18.86,0,1.06,0,1.4.3,1.39,1.38,0,5.81,0,11.63,0,17.44,0,.87-.1,1.34-1.18,1.34C87.94,49.22,79.36,49.24,70.7,49.24Z"/><path class="cls-1" d="M129.52,49.24c-8.9,0-17.55,0-26.2,0-.86,0-1-.4-1-1.11,0-6,0-11.9,0-17.85,0-.87.28-1.19,1.17-1.18,6.42,0,12.84,0,19.27,0,.54,0,1,0,1.24.71C125.82,36.25,127.65,42.65,129.52,49.24Z"/><path class="cls-1" d="M38.86,49.24c3.8-6.68,7.45-13.05,11.07-19.44.38-.68.92-.68,1.54-.68,6.16,0,12.33,0,18.49,0,1.36,0,1.4.51,1.1,1.57-1.68,5.77-3.35,11.55-5,17.34a1.42,1.42,0,0,1-1.64,1.26C56.06,49.22,47.66,49.24,38.86,49.24Z"/><path class="cls-1" d="M161.19,49.24c-8.8,0-17.2,0-25.59,0A1.42,1.42,0,0,1,133.94,48c-1.61-5.8-3.28-11.57-4.95-17.34-.3-1-.32-1.6,1.07-1.59,6.16.06,12.33,0,18.49,0,.61,0,1.16,0,1.55.66C153.72,36.18,157.37,42.55,161.19,49.24Z"/><path class="cls-1" d="M45,29.12c-3.81,6.69-7.42,13-11,19.35a1.44,1.44,0,0,1-1.46.78q-12.38,0-24.75,0c-.2-.76.41-1,.73-1.39q7.5-8.81,15-17.6c.48-.55.86-1.15,1.77-1.15C31.76,29.13,38.17,29.12,45,29.12Z"/><path class="cls-1" d="M192.3,49.24H173.66c-2.37,0-5.18.74-7-.29s-2.54-3.82-3.71-5.86q-3.49-6.06-6.93-12.15c-.28-.5-.78-.93-.65-1.81,5.31,0,10.64.19,15.95-.07a7.51,7.51,0,0,1,7,3.23c4.15,5.26,8.64,10.24,13,15.34C191.68,48.06,192.27,48.38,192.3,49.24Z"/><path class="cls-1" d="M18.7,53.77c4.06,0,8.12.07,12.18,0,1.48,0,1.69.46,1.76,1.82A14.12,14.12,0,0,1,21.7,70.4c-8.81,1.88-16.6-4.32-17-13.54-.15-3.09-.15-3.09,2.86-3.09Z"/><path class="cls-1" d="M181.49,53.77h12.39c.71,0,1.4-.22,1.54,1A14.33,14.33,0,0,1,183.81,70.5a13.89,13.89,0,0,1-16.35-13.27c-.1-3.46-.1-3.46,3.27-3.46Z"/><path class="cls-1" d="M51.25,53.77c4,0,8,.1,12,0,1.68-.06,2,.53,1.94,2-.07,7.69-4.41,13.4-11.32,14.71A13.89,13.89,0,0,1,37.3,57.87c0-.4-.06-.81-.07-1.21-.11-2.89-.11-2.89,2.85-2.89Z"/><path class="cls-1" d="M148.86,53.77c4.12,0,8.25,0,12.38,0,1.23,0,1.59.29,1.61,1.56.14,7.92-4.32,13.86-11.5,15.19a13.89,13.89,0,0,1-16.43-13.17c-.13-3.55-.13-3.55,3.38-3.55Z"/><path class="cls-1" d="M116.23,53.77c4.13,0,8.26.06,12.39,0,1.38,0,1.65.42,1.66,1.71.05,8.07-4.38,13.78-11.81,15.1A13.9,13.9,0,0,1,102.4,57.8c-.24-4-.24-4,3.68-4Z"/><path class="cls-1" d="M83.8,53.77c4.06,0,8.12.07,12.18,0,1.48,0,1.74.47,1.74,1.83,0,7.8-4.35,13.59-11.31,14.9a13.88,13.88,0,0,1-16.58-13c-.2-3.71-.2-3.71,3.41-3.71Z"/><path class="cls-1" d="M130.9,160.71H97.58c-3.1,0-3.93-.84-3.94-4q0-22.35,0-44.69c0-3.05.84-3.92,3.82-3.92q33.53,0,67,0c2.82,0,3.73.94,3.73,3.8q0,22.46,0,44.9c0,3.06-.9,3.92-4,3.92Z"/><path class="cls-2" d="M65,147.65a16.28,16.28,0,0,1,0,2.42,2.17,2.17,0,0,1-2.2,2,2.11,2.11,0,0,1-2.3-2.08,36.53,36.53,0,0,1,0-4.44,2.14,2.14,0,0,1,2.22-2.36c1.59,0,2.27,1,2.38,2.44.05.67,0,1.35,0,2Z"/></g></g></svg>