<svg xmlns="http://www.w3.org/2000/svg" viewBox="0 0 200.06 189.92"><defs><style>.cls-1{fill:#3bd8ff;}.cls-2{fill:#fff;}</style></defs><g id="Layer_2" data-name="Layer 2"><g id="Layer_1-2" data-name="Layer 1"><path class="cls-1" d="M.33,123c.86-12.84,4.18-25.07,8.92-37,3.62-9.1,8.5-17.38,15.51-24.3A43.4,43.4,0,0,1,40.34,51.64a8.58,8.58,0,0,0,3.48-2.34,13.52,13.52,0,0,1,19.52-.17,10.38,10.38,0,0,0,4,2.63A46.42,46.42,0,0,1,86.39,65.88C95,76.14,99.52,88.31,103.13,100.94a122,122,0,0,1,4.19,24.37,9.33,9.33,0,0,1-6.1,9.48c-2.42.91-4.91,1.62-7.59,2.5a27.55,27.55,0,0,1,4.61,5.21A24.58,24.58,0,0,1,114,129.87c4.12-1.16,8.22-2.42,12.34-3.61,2.37-.68,4.75-1.33,7.14-1.92a2.12,2.12,0,0,0,.56-4,28.58,28.58,0,0,1-13.82-16,1.66,1.66,0,0,0-1.79-1.29c-5.52-.13-8.14-2.91-8.19-8.45,0-3.14-.08-6.19,2.32-8.78.83-.9.27-2.52.24-3.81a30.36,30.36,0,0,1,4.79-17.79c5.87-8.92,14.17-13.79,24.87-14.16,5.38-.19,10.83-.61,16.15.57,14.59,3.21,24.09,15.07,24.37,30.26,0,.91,0,1.83,0,2.74A4.54,4.54,0,0,0,184.07,87c2.19,2.75,2.14,10.23.08,13a7.19,7.19,0,0,1-6.43,3,1.94,1.94,0,0,0-2.23,1.53,28.66,28.66,0,0,1-13.76,15.8c-.84.46-1.82.71-1.62,2.06s1,1.59,2.14,1.85c7.14,1.71,14.19,3.78,21.12,6.14,10.75,3.66,16.66,12.25,16.68,23.54q0,15.83,0,31.65c0,3.35-.9,4.24-4.31,4.24H10.34c-3.9,0-4.64-.74-4.63-4.69,0-10.62,0-21.23.09-31.85a20.8,20.8,0,0,1,7.05-15.32,7.59,7.59,0,0,1,1.22-.7c-5.89-1.91-12-2.62-14.07-9.16v-3.13C.46,124.44,0,123.67.33,123Z"/><path class="cls-2" d="M.33,123.44a2,2,0,0,1-.33,2v-2A.21.21,0,0,1,.33,123.44Z"/><path class="cls-1" d="M87.1.06A18.77,18.77,0,0,1,98.7,4a1.81,1.81,0,0,0,2.66,0c6-4.39,12.56-5.22,19.31-2.13,7,3.24,10.87,9,11.22,16.73.32,6.78-2.33,12.71-6.57,17.9-6.41,7.84-14.78,13-23.91,17.05a3.11,3.11,0,0,1-2.65.06C88.43,49,78.91,43.17,72.56,33.42c-4-6.17-5.77-12.86-3.44-20.21A19.44,19.44,0,0,1,87.1.06Z"/><path class="cls-2" d="M53.59,184.47c-8.79,0-17.57,0-26.36,0-1.35,0-1.82-.3-1.74-1.71.12-2.27.07-4.55,0-6.83a2.93,2.93,0,0,0-2.75-3.17,3,3,0,0,0-3.06,3.11,62.25,62.25,0,0,0,0,6.83c.1,1.54-.46,1.87-1.86,1.76a39.73,39.73,0,0,0-4.88,0c-1,0-1.35-.2-1.35-1.28.06-9.76-.09-19.53.14-29.29A15.55,15.55,0,0,1,23.3,139.16c6.34-1.89,12.64-3.94,19.08-5.48a6.49,6.49,0,0,0,5.06-5.12c.25-1.06.68-1.3,1.71-1.11a24.45,24.45,0,0,0,8.74.07c.84-.15,1.34-.16,1.62,1,.7,2.93,2.69,4.58,5.64,5.25,6.65,1.5,13.16,3.56,19.64,5.64a15.76,15.76,0,0,1,11,15.24c.08,9.44,0,18.88,0,28.32,0,1.12-.16,1.66-1.46,1.56a33,33,0,0,0-5.07,0c-1.36.1-1.6-.44-1.59-1.66,0-8.07-.09-16.14.07-24.21A10.72,10.72,0,0,0,84,150a19.74,19.74,0,0,0-27.9.8c-2.18,2.28-2.62,2.28-4.83,0a19.77,19.77,0,0,0-29.74,1.29c-2.63,3.35-2.1,7.23-1.53,11,.2,1.32,1.5,1.94,2.88,1.8a2.67,2.67,0,0,0,2.53-2.32,15.17,15.17,0,0,0,.1-2.34c0-4.26,1.65-6.82,5.66-8.43,5.8-2.33,11.07-1.49,15.63,2.9,1.65,1.59,3.25,3.23,5.67,3.54a7.59,7.59,0,0,0,6.9-2.39c2.6-2.79,5.61-4.79,9.52-5.18a13.81,13.81,0,0,1,12.43,5.09,3.09,3.09,0,0,1,.51,2.21c0,8.26,0,16.53,0,24.8,0,1.37-.36,1.72-1.72,1.71C71.3,184.44,62.45,184.47,53.59,184.47Z"/><path class="cls-2" d="M169.72,132.82c4.55,1.4,8.63,2.47,12.58,3.9a17.46,17.46,0,0,1,11.85,16.69c.12,9.89,0,19.79.06,29.68,0,1.13-.34,1.42-1.42,1.39-2.67-.07-5.34-.1-8,0-1.47.06-2-.27-1.95-1.87.09-8.27,0-16.54,0-24.81a12.79,12.79,0,0,0,0-1.75,2.89,2.89,0,0,0-5.74-.19,10.54,10.54,0,0,0-.08,1.95c0,8.27,0,16.54,0,24.8,0,1.34-.14,1.89-1.73,1.88q-27.63-.1-55.27,0c-1.42,0-1.73-.42-1.67-1.74.11-2.21.07-4.43,0-6.64s-1.29-3.39-3-3.33-2.78,1.34-2.82,3.35c0,2.34,0,4.69,0,7,0,1-.24,1.35-1.3,1.32-2.79-.07-5.6-.07-8.39,0-1.11,0-1.26-.42-1.26-1.37,0-9.89-.09-19.79.06-29.68.13-8.12,4.83-14.35,12.56-17,3.25-1.11,6.58-2,9.87-3,.44-.13,1-.39,1.28,0s-.12.84-.33,1.23c-1,1.69-1.86,3.43-2.89,5.08a4.71,4.71,0,0,0,.11,5.61q11.46,17.66,22.85,35.37c1.67,2.57,3.92,2.59,5.57,0,7.67-11.83,15.29-23.7,23-35.53a4.57,4.57,0,0,0,.15-5.28C172.48,137.76,171.23,135.49,169.72,132.82Z"/><path class="cls-2" d="M124.28,91.09a42.49,42.49,0,0,1,.58-8.93c.27-1.33.88-1.62,2.08-1.68,4.64-.24,9,.93,13.38,2.25A97.28,97.28,0,0,0,155,86.5a35.61,35.61,0,0,0,15.05-1.06c.62-.17,1.48-.78,1.45.59-.14,5.31.53,10.63-1.08,15.88a23.57,23.57,0,0,1-45,0c-.3-1.06-.56-2.13-.79-3.21A38.52,38.52,0,0,1,124.28,91.09Z"/><path class="cls-2" d="M176.69,81.24c-.62-3.34-2.21-4.19-5.23-2.74-6.49,3.12-13.19,3-20,1.34-6.23-1.55-12.25-3.93-18.62-4.94a30.45,30.45,0,0,0-8.94,0A4.55,4.55,0,0,0,119.64,79c-.15.76-.33,1.52-.5,2.28-1-.08-.42-.72-.43-1.15.73-13.65,11.23-23.76,24.91-23.8,4.91,0,9.87-.53,14.74.71a24.63,24.63,0,0,1,18.7,22.3C177,80,177.73,80.79,176.69,81.24Z"/><path class="cls-2" d="M62.37,94.74a10,10,0,0,0-.56,5.08,2.9,2.9,0,0,0,2.93,3c1.71,0,2.83-1.22,2.9-3.21,0-.78,0-1.56,0-2.34A5,5,0,0,0,67.2,95c2.89,0,5.56,0,8.22,0,.7,0,1,.18,1.06,1,1,14.41-8.09,23.08-17.34,25.4A22.93,22.93,0,0,1,30.9,100.13c0-.91,0-1.82,0-2.73-.08-1.64-.17-3.16,1.72-4.08.9-.43,1.28-1.57,1.55-2.61.52-2.08,1.11-4.14,1.67-6.2.73-2.66,1.09-2.78,3.3-1a57.25,57.25,0,0,0,14.73,9A31.23,31.23,0,0,0,62.37,94.74Z"/><path class="cls-2" d="M72.22,89.08c-7.06.45-13.87-.27-20.19-3.84a87.54,87.54,0,0,1-10.41-7.19,6.77,6.77,0,0,0-9.08.22,7.15,7.15,0,0,0-2.06,3.47c-.55,1.93-1.08,3.87-1.56,5.83-.23,1-.46,1.73-1.72,1.52s-.67-1.25-.62-1.84c1-13.07,12.46-23.8,25.89-24.38a27.43,27.43,0,0,1,28.4,24.51c.13,1.38-.22,1.8-1.62,1.73C76.91,89,74.56,89.08,72.22,89.08Z"/><path class="cls-2" d="M67.77,58.72a43.06,43.06,0,0,1,16.2,14c7.72,10.74,11.86,23,14.88,35.7a114.18,114.18,0,0,1,2.57,17.35,3.58,3.58,0,0,1-2.79,4.12c-3.76,1.25-7.54,2.41-11.31,3.63a2.79,2.79,0,0,1-1.69-.07c-6.39-1.74-12.63-4-19.11-5.41a1.6,1.6,0,0,1-1.45-1.55c-.08-.92.46-1.21,1.14-1.56a28.52,28.52,0,0,0,14.23-15.85,1.92,1.92,0,0,1,2.1-1.46c5.1-.1,7.71-2.85,7.69-8,0-2,.3-4-.44-6a2.93,2.93,0,0,0-.73-1.36c-2.32-1.69-2.25-4.23-2.62-6.7-1.7-11.33-7.74-19.63-17.81-25C67.87,60.15,67.27,59.76,67.77,58.72Z"/><path class="cls-2" d="M39.61,58.75c.5,1.12-.25,1.43-1,1.81a33,33,0,0,0-17.23,22,15.52,15.52,0,0,0-.51,2.67,15.42,15.42,0,0,1-2.62,7.37c-2.21,3.53-1.91,7.91,0,11.75,1.25,2.56,3.8,3.45,6.59,3.3a1.71,1.71,0,0,1,2,1.36,27.7,27.7,0,0,0,13.83,15.68,1.73,1.73,0,0,1,1.16,1.93,1.63,1.63,0,0,1-1.47,1.55c-6.15,1.39-12.1,3.47-18.15,5.17a4.46,4.46,0,0,1-2.82,0c-3.45-1.15-6.93-2.18-10.39-3.3-2.49-.82-3.27-2.09-3.05-4.71A118.15,118.15,0,0,1,17.64,82.16c4.73-9.55,11.11-17.71,20.77-22.84C38.8,59.12,39.2,59,39.61,58.75Z"/><path class="cls-2" d="M164.45,135.44c1.34,2.37,2.42,4.29,3.53,6.19a1.3,1.3,0,0,1,0,1.58q-5.06,7.75-10.07,15.54a.46.46,0,0,1-.66.23C159.61,151.29,162,143.6,164.45,135.44Z"/><path class="cls-2" d="M137.79,158.59l-5.44-8.42c-1.45-2.23-2.9-4.46-4.32-6.71-.25-.39-.79-.72-.43-1.35,1.2-2.11,2.39-4.23,3.79-6.69,2.41,7.94,4.68,15.44,7,22.94Z"/><path class="cls-2" d="M61.43,57.82a35.69,35.69,0,0,0-15.43,0c.21-3.44,3.73-6.4,7.54-6.46A7.86,7.86,0,0,1,61.43,57.82Z"/><path class="cls-2" d="M148,169.11c-2.89-5-2.37-10.29-1.36-15.59.16-.83.23-1.67.35-2.51.07-.48.23-.84.83-.86s.89.35,1,.94c.46,3.47,1.25,6.93,1.31,10.4C150.18,164.09,148.8,166.57,148,169.11Z"/><path class="cls-2" d="M147.88,128.22a27.22,27.22,0,0,1-6.67-.84c-1-.19-1-.55-.76-1.55.38-2,1.25-2.29,3.06-1.89a24,24,0,0,0,9.47,0c2.4-.44,1.52,1.76,2.06,2.67s-.78.78-1.33.94A19.19,19.19,0,0,1,147.88,128.22Z"/><path class="cls-2" d="M138.92,140.07l-2.35-7.81a73.45,73.45,0,0,0,8.9,1.81C143.2,136.16,141.16,138,138.92,140.07Z"/><path class="cls-2" d="M159.27,132.24c-.85,2.79-1.58,5.19-2.37,7.81l-6.57-6A68.16,68.16,0,0,0,159.27,132.24Z"/><path class="cls-2" d="M177.39,93.9c0-.77,0-1.55,0-2.32,0-.48-.38-1.25.65-1.27.74,0,1.35.29,1.47,1a16.81,16.81,0,0,1,0,5.39c-.12.81-.92,1-1.68,1s-.46-.78-.48-1.23c0-.84,0-1.68,0-2.52Z"/><path class="cls-2" d="M118.45,94.21c0,.71,0,1.42,0,2.13,0,.5.4,1.27-.59,1.32-.78,0-1.5-.26-1.6-1.08a18.12,18.12,0,0,1,0-5.2,1.28,1.28,0,0,1,1.6-1c.94.12.48.89.53,1.37.07.83,0,1.67,0,2.51Z"/><path class="cls-2" d="M148,144.25c-1.55.43-2.6-.46-2.58-1.73s1.5-1.79,2.45-2.52c.29-.22,2.77,2.15,2.63,2.55C150.07,143.68,149.52,144.72,148,144.25Z"/><path class="cls-2" d="M82.34,98.3c0-.71,0-1.42,0-2.13,0-.45-.28-1.12.54-1.2a1.15,1.15,0,0,1,1.4,1,41.87,41.87,0,0,1,0,4.62,1.23,1.23,0,0,1-1.5,1.15c-1-.09-.5-.84-.52-1.34,0-.71,0-1.42,0-2.12Z"/><path class="cls-2" d="M25,98.49c0,.72,0,1.44,0,2.15,0,.47.25,1.13-.62,1.12-.61,0-1.29-.19-1.32-.89a50.23,50.23,0,0,1,0-5.06c0-.67.73-.88,1.35-.85.89.05.5.76.54,1.19.06.78,0,1.56,0,2.34Z"/><path class="cls-2" d="M176.69,81.24c.54-.55.11-1.29.37-1.89.56,1.14.3,2.33.28,3.64A1.88,1.88,0,0,1,176.69,81.24Z"/><path class="cls-2" d="M118.71,80.14c.23.35-.11.91.43,1.15a1.39,1.39,0,0,1-.66,1.69C118.44,82,118.18,81,118.71,80.14Z"/><path class="cls-2" d="M87.2,6.35a13.57,13.57,0,0,1,9.43,4c2.91,3,3.85,3,6.83-.06A13.21,13.21,0,0,1,126,21c-.7,7.72-5.19,13.14-10.77,17.86a65.07,65.07,0,0,1-14,8.8,2,2,0,0,1-2,.22c-8.3-4.09-16.1-8.85-21.46-16.67-3.24-4.73-4.84-9.92-3.11-15.67A13.32,13.32,0,0,1,87.2,6.35Z"/><path class="cls-2" d="M118.37,159.28a28.44,28.44,0,0,1,0,2.92,2.88,2.88,0,0,1-3,2.73,2.74,2.74,0,0,1-2.77-2.74,50.71,50.71,0,0,1,0-6,2.74,2.74,0,0,1,2.78-2.72,2.86,2.86,0,0,1,3,2.73C118.45,157.19,118.37,158.24,118.37,159.28Z"/><path class="cls-1" d="M148.85,113.87c-4,0-6.86-.94-9-3.39-1.36-1.52-1.47-3.09-.28-4.32s2.78-1.2,4.31.15c2.65,2.32,5.48,2.32,8.17,0,1.54-1.34,3.11-1.38,4.31-.1s1,2.75-.2,4.18A10.06,10.06,0,0,1,148.85,113.87Z"/><path class="cls-1" d="M139.45,93.19a10.42,10.42,0,0,1-.22,2.79,2.7,2.7,0,0,1-2.9,2.1,2.65,2.65,0,0,1-2.7-2.56,28.54,28.54,0,0,1,0-3.7A2.72,2.72,0,0,1,136.22,89a2.83,2.83,0,0,1,3.13,2.54A10.86,10.86,0,0,1,139.45,93.19Z"/><path class="cls-1" d="M162.28,93.77c0,.59,0,1.17-.09,1.75a2.85,2.85,0,0,1-5.63.26,12,12,0,0,1-.06-4.26A2.73,2.73,0,0,1,159.41,89a2.76,2.76,0,0,1,2.81,2.86c.06.65,0,1.3,0,2Z"/><path class="cls-1" d="M53.6,117.71a10.3,10.3,0,0,1-7.83-3.3c-1.4-1.55-1.49-3.06-.27-4.32s2.77-1.21,4.31.15q3.84,3.39,7.81-.07c1.45-1.27,3-1.32,4.16-.13a2.92,2.92,0,0,1,0,4.19A10.35,10.35,0,0,1,53.6,117.71Z"/><path class="cls-1" d="M45.57,98.27a15.54,15.54,0,0,1-.23,2,2.84,2.84,0,0,1-5.5.07,10.93,10.93,0,0,1-.07-4.45,2.62,2.62,0,0,1,2.78-2.45A2.65,2.65,0,0,1,45.42,96C45.52,96.68,45.52,97.4,45.57,98.27Z"/></g></g></svg>