<svg xmlns="http://www.w3.org/2000/svg" viewBox="0 0 200.06 189.92"><defs><style>.cls-1{fill:#404040;}.cls-2{fill:#3bd8ff;}.cls-3{fill:#5f5f5f;}.cls-4{fill:#525252;}.cls-5{fill:#010101;}.cls-6{fill:#020202;}</style></defs><g id="Layer_2" data-name="Layer 2"><g id="Layer_1-2" data-name="Layer 1"><path d="M.33,123c.86-12.84,4.18-25.07,8.92-37,3.62-9.1,8.5-17.38,15.51-24.3A43.4,43.4,0,0,1,40.34,51.64a8.58,8.58,0,0,0,3.48-2.34,13.52,13.52,0,0,1,19.52-.17,10.38,10.38,0,0,0,4,2.63A46.42,46.42,0,0,1,86.39,65.88C95,76.14,99.52,88.31,103.13,100.94a122,122,0,0,1,4.19,24.37,9.33,9.33,0,0,1-6.1,9.48c-2.42.91-4.91,1.62-7.59,2.5a27.55,27.55,0,0,1,4.61,5.21A24.58,24.58,0,0,1,114,129.87c4.12-1.16,8.22-2.42,12.34-3.61,2.37-.68,4.75-1.33,7.14-1.92a2.12,2.12,0,0,0,.56-4,28.58,28.58,0,0,1-13.82-16,1.66,1.66,0,0,0-1.79-1.29c-5.52-.13-8.14-2.91-8.19-8.45,0-3.14-.08-6.19,2.32-8.78.83-.9.27-2.52.24-3.81a30.36,30.36,0,0,1,4.79-17.79c5.87-8.92,14.17-13.79,24.87-14.16,5.38-.19,10.83-.61,16.15.57,14.59,3.21,24.09,15.07,24.37,30.26,0,.91,0,1.83,0,2.74A4.54,4.54,0,0,0,184.07,87c2.19,2.75,2.14,10.23.08,13a7.19,7.19,0,0,1-6.43,3,1.94,1.94,0,0,0-2.23,1.53,28.66,28.66,0,0,1-13.76,15.8c-.84.46-1.82.71-1.62,2.06s1,1.59,2.14,1.85c7.14,1.71,14.19,3.78,21.12,6.14,10.75,3.66,16.66,12.25,16.68,23.54q0,15.83,0,31.65c0,3.35-.9,4.24-4.31,4.24H10.34c-3.9,0-4.64-.74-4.63-4.69,0-10.62,0-21.23.09-31.85a20.8,20.8,0,0,1,7.05-15.32,7.59,7.59,0,0,1,1.22-.7c-5.89-1.91-12-2.62-14.07-9.16v-3.13C.46,124.44,0,123.67.33,123Z"/><path class="cls-1" d="M.33,123a2,2,0,0,1-.33,2v-1.95A.21.21,0,0,1,.33,123Z"/><path d="M87.1.06A18.77,18.77,0,0,1,98.7,4a1.81,1.81,0,0,0,2.66,0c6-4.39,12.56-5.22,19.31-2.13,7,3.24,10.87,9,11.22,16.73.32,6.78-2.33,12.71-6.57,17.9-6.41,7.84-14.78,13-23.91,17.05a3.11,3.11,0,0,1-2.65.06C88.43,49,78.91,43.17,72.56,33.42c-4-6.17-5.77-12.86-3.44-20.21A19.44,19.44,0,0,1,87.1.06Z"/><path class="cls-2" d="M53.59,184.05c-8.79,0-17.57,0-26.36,0-1.35,0-1.82-.3-1.74-1.7.12-2.28.07-4.56,0-6.84a2.93,2.93,0,0,0-2.75-3.17,3,3,0,0,0-3.06,3.11,62.25,62.25,0,0,0,0,6.83c.1,1.55-.46,1.87-1.86,1.77a41.81,41.81,0,0,0-4.88,0c-1,0-1.35-.2-1.35-1.27.06-9.77-.09-19.54.14-29.3A15.55,15.55,0,0,1,23.3,138.74c6.34-1.89,12.64-3.93,19.08-5.48a6.48,6.48,0,0,0,5.06-5.12c.25-1.06.68-1.3,1.71-1.11a24.45,24.45,0,0,0,8.74.07c.84-.15,1.34-.16,1.62,1,.7,2.92,2.69,4.57,5.64,5.24,6.65,1.5,13.16,3.56,19.64,5.64a15.77,15.77,0,0,1,11,15.25c.08,9.43,0,18.88,0,28.32,0,1.11-.16,1.65-1.46,1.55a33,33,0,0,0-5.07,0c-1.36.11-1.6-.44-1.59-1.65,0-8.08-.09-16.15.07-24.22A10.73,10.73,0,0,0,84,149.62a19.74,19.74,0,0,0-27.9.81c-2.18,2.27-2.62,2.27-4.83,0a19.76,19.76,0,0,0-29.74,1.29c-2.63,3.35-2.1,7.23-1.53,11a2.4,2.4,0,0,0,2.88,1.8,2.66,2.66,0,0,0,2.53-2.32,15,15,0,0,0,.1-2.33c0-4.27,1.65-6.83,5.66-8.44,5.8-2.33,11.07-1.49,15.63,2.9,1.65,1.59,3.25,3.24,5.67,3.55a7.64,7.64,0,0,0,6.9-2.39c2.6-2.79,5.61-4.8,9.52-5.19a13.81,13.81,0,0,1,12.43,5.09,3.09,3.09,0,0,1,.51,2.21c0,8.27,0,16.54,0,24.8,0,1.38-.36,1.72-1.72,1.71C71.3,184,62.45,184.05,53.59,184.05Z"/><path class="cls-2" d="M169.72,132.41c4.55,1.39,8.63,2.46,12.58,3.89A17.46,17.46,0,0,1,194.15,153c.12,9.89,0,19.79.06,29.69,0,1.12-.34,1.41-1.42,1.39-2.67-.08-5.34-.11-8,0-1.47.07-2-.26-1.95-1.87.09-8.27,0-16.53,0-24.8a12.89,12.89,0,0,0,0-1.76,2.89,2.89,0,0,0-5.74-.18,10.43,10.43,0,0,0-.08,1.94c0,8.27,0,16.54,0,24.81,0,1.33-.14,1.88-1.73,1.88q-27.63-.1-55.27,0c-1.42,0-1.73-.43-1.67-1.75.11-2.21.07-4.42,0-6.64,0-2.07-1.29-3.39-3-3.32s-2.78,1.34-2.82,3.34c0,2.34,0,4.69,0,7,0,1-.24,1.35-1.3,1.33-2.79-.08-5.6-.08-8.39,0-1.11,0-1.26-.42-1.26-1.37,0-9.9-.09-19.8.06-29.69.13-8.11,4.83-14.35,12.56-17,3.25-1.12,6.58-2,9.87-3,.44-.13,1-.38,1.28,0s-.12.84-.33,1.23c-1,1.7-1.86,3.43-2.89,5.08a4.73,4.73,0,0,0,.11,5.62q11.46,17.66,22.85,35.36c1.67,2.57,3.92,2.59,5.57,0,7.67-11.84,15.29-23.7,23-35.53a4.59,4.59,0,0,0,.15-5.29C172.48,137.34,171.23,135.07,169.72,132.41Z"/><path class="cls-2" d="M124.28,90.68a42.59,42.59,0,0,1,.58-8.94c.27-1.33.88-1.62,2.08-1.68,4.64-.24,9,.93,13.38,2.26A96.07,96.07,0,0,0,155,86.08a35.77,35.77,0,0,0,15.05-1c.62-.18,1.48-.78,1.45.59-.14,5.3.53,10.63-1.08,15.87a23.57,23.57,0,0,1-45,0c-.3-1.06-.56-2.13-.79-3.21A38.45,38.45,0,0,1,124.28,90.68Z"/><path class="cls-2" d="M176.69,80.82c-.62-3.34-2.21-4.19-5.23-2.74-6.49,3.12-13.19,3-20,1.34-6.23-1.54-12.25-3.93-18.62-4.94a30.79,30.79,0,0,0-8.94.06,4.53,4.53,0,0,0-4.27,4c-.15.76-.33,1.52-.5,2.28-1-.07-.42-.71-.43-1.15.73-13.65,11.23-23.76,24.91-23.8,4.91,0,9.87-.52,14.74.71a24.65,24.65,0,0,1,18.7,22.31C177,79.58,177.73,80.37,176.69,80.82Z"/><path class="cls-2" d="M62.37,94.32a10,10,0,0,0-.56,5.08,2.91,2.91,0,0,0,2.93,3c1.71,0,2.83-1.22,2.9-3.22,0-.78,0-1.56,0-2.34a5,5,0,0,0-.45-2.34c2.89,0,5.56,0,8.22,0,.7,0,1,.19,1.06,1,1,14.41-8.09,23.09-17.34,25.4A22.93,22.93,0,0,1,30.9,99.72c0-.91,0-1.83,0-2.74-.08-1.64-.17-3.16,1.72-4.07a3.8,3.8,0,0,0,1.55-2.62c.52-2.08,1.11-4.14,1.67-6.2.73-2.66,1.09-2.78,3.3-1a57.56,57.56,0,0,0,14.73,9A31.22,31.22,0,0,0,62.37,94.32Z"/><path class="cls-2" d="M72.22,88.67c-7.06.44-13.87-.28-20.19-3.85a87.54,87.54,0,0,1-10.41-7.19,6.78,6.78,0,0,0-9.08.22,7.19,7.19,0,0,0-2.06,3.47c-.55,1.93-1.08,3.88-1.56,5.83-.23.95-.46,1.74-1.72,1.53s-.67-1.26-.62-1.84C27.62,73.76,39,63,52.47,62.45A27.43,27.43,0,0,1,80.87,87c.13,1.38-.22,1.81-1.62,1.74C76.91,88.58,74.56,88.67,72.22,88.67Z"/><path class="cls-2" d="M67.77,58.31a43,43,0,0,1,16.2,14c7.72,10.74,11.86,23,14.88,35.71a113.86,113.86,0,0,1,2.57,17.34,3.57,3.57,0,0,1-2.79,4.12c-3.76,1.25-7.54,2.41-11.31,3.63a2.71,2.71,0,0,1-1.69-.07c-6.39-1.74-12.63-4-19.11-5.41a1.59,1.59,0,0,1-1.45-1.55c-.08-.92.46-1.21,1.14-1.56a28.5,28.5,0,0,0,14.23-15.84,1.93,1.93,0,0,1,2.1-1.47c5.1-.1,7.71-2.84,7.69-8,0-2,.3-4-.44-6a3,3,0,0,0-.73-1.36c-2.32-1.69-2.25-4.23-2.62-6.7-1.7-11.33-7.74-19.63-17.81-25C67.87,59.73,67.27,59.34,67.77,58.31Z"/><path class="cls-2" d="M39.61,58.34c.5,1.11-.25,1.43-1,1.81a33,33,0,0,0-17.23,22,15.45,15.45,0,0,0-.51,2.68,15.42,15.42,0,0,1-2.62,7.36c-2.21,3.53-1.91,7.91,0,11.75,1.25,2.56,3.8,3.45,6.59,3.3a1.71,1.71,0,0,1,2,1.36,27.67,27.67,0,0,0,13.83,15.68,1.73,1.73,0,0,1,1.16,1.93,1.63,1.63,0,0,1-1.47,1.55c-6.15,1.39-12.1,3.47-18.15,5.18a4.6,4.6,0,0,1-2.82,0c-3.45-1.16-6.93-2.18-10.39-3.31-2.49-.82-3.27-2.08-3.05-4.71A118.15,118.15,0,0,1,17.64,81.74C22.37,72.2,28.75,64,38.41,58.91,38.8,58.7,39.2,58.53,39.61,58.34Z"/><path class="cls-2" d="M164.45,135c1.34,2.37,2.42,4.29,3.53,6.2a1.29,1.29,0,0,1,0,1.57q-5.06,7.76-10.07,15.55a.47.47,0,0,1-.66.22Z"/><path class="cls-2" d="M137.79,158.18l-5.44-8.43c-1.45-2.23-2.9-4.46-4.32-6.7-.25-.4-.79-.73-.43-1.36l3.79-6.69c2.41,7.95,4.68,15.45,7,22.95Z"/><path class="cls-2" d="M61.43,57.4A35.69,35.69,0,0,0,46,57.4C46.21,54,49.73,51,53.54,51A7.85,7.85,0,0,1,61.43,57.4Z"/><path class="cls-2" d="M148,168.69c-2.89-5-2.37-10.29-1.36-15.59.16-.83.23-1.67.35-2.5.07-.48.23-.85.83-.87s.89.35,1,.94c.46,3.47,1.25,6.93,1.31,10.4C150.18,163.68,148.8,166.15,148,168.69Z"/><path class="cls-2" d="M147.88,127.8a26.74,26.74,0,0,1-6.67-.84c-1-.18-1-.55-.76-1.54.38-2,1.25-2.3,3.06-1.9a23.78,23.78,0,0,0,9.47,0c2.4-.43,1.52,1.76,2.06,2.67s-.78.79-1.33.95A19.51,19.51,0,0,1,147.88,127.8Z"/><path class="cls-2" d="M138.92,139.66l-2.35-7.82a75.44,75.44,0,0,0,8.9,1.82Z"/><path class="cls-2" d="M159.27,131.83c-.85,2.78-1.58,5.18-2.37,7.81l-6.57-6A69.79,69.79,0,0,0,159.27,131.83Z"/><path class="cls-2" d="M177.39,93.49c0-.78,0-1.56,0-2.33,0-.48-.38-1.25.65-1.26.74,0,1.35.28,1.47,1a16.8,16.8,0,0,1,0,5.39c-.12.8-.92,1-1.68,1s-.46-.78-.48-1.22c0-.84,0-1.68,0-2.52Z"/><path class="cls-2" d="M118.45,93.79c0,.71,0,1.43,0,2.13,0,.5.4,1.27-.59,1.32-.78,0-1.5-.26-1.6-1.08a18.05,18.05,0,0,1,0-5.19,1.29,1.29,0,0,1,1.6-1.06c.94.12.48.89.53,1.37.07.83,0,1.68,0,2.51Z"/><path class="cls-2" d="M148,143.83a1.83,1.83,0,0,1-2.58-1.72c0-1.2,1.5-1.8,2.45-2.53.29-.22,2.77,2.15,2.63,2.55C150.07,143.27,149.52,144.3,148,143.83Z"/><path class="cls-2" d="M82.34,97.88c0-.71,0-1.42,0-2.12,0-.45-.28-1.13.54-1.21a1.16,1.16,0,0,1,1.4,1,41.9,41.9,0,0,1,0,4.62,1.22,1.22,0,0,1-1.5,1.15c-1-.08-.5-.84-.52-1.34,0-.7,0-1.41,0-2.12Z"/><path class="cls-2" d="M25,98.08c0,.71,0,1.43,0,2.14,0,.47.25,1.13-.62,1.12-.61,0-1.29-.19-1.32-.89a50.24,50.24,0,0,1,0-5.06c0-.67.73-.88,1.35-.84.89,0,.5.75.54,1.19.06.77,0,1.56,0,2.34Z"/><path class="cls-3" d="M176.69,80.82c.54-.54.11-1.28.37-1.88.56,1.13.3,2.32.28,3.63A1.88,1.88,0,0,1,176.69,80.82Z"/><path class="cls-4" d="M118.71,79.72c.23.35-.11.92.43,1.15a1.39,1.39,0,0,1-.66,1.69C118.44,81.56,118.18,80.62,118.71,79.72Z"/><path class="cls-2" d="M87.2,5.93a13.54,13.54,0,0,1,9.43,4c2.91,3,3.85,3,6.83-.07A13.21,13.21,0,0,1,126,20.54c-.7,7.72-5.19,13.14-10.77,17.86a64.3,64.3,0,0,1-14,8.8,2,2,0,0,1-2,.22c-8.3-4.09-16.1-8.84-21.46-16.67-3.24-4.73-4.84-9.92-3.11-15.67A13.32,13.32,0,0,1,87.2,5.93Z"/><path d="M118.37,158.86a28.42,28.42,0,0,1,0,2.92,2.88,2.88,0,0,1-3,2.73,2.74,2.74,0,0,1-2.77-2.74,50.71,50.71,0,0,1,0-6,2.75,2.75,0,0,1,2.78-2.72,2.86,2.86,0,0,1,3,2.73C118.45,156.77,118.37,157.82,118.37,158.86Z"/><path d="M148.85,113.87c-4,0-6.86-.94-9-3.39-1.36-1.52-1.47-3.09-.28-4.32s2.78-1.2,4.31.15c2.65,2.32,5.48,2.32,8.17,0,1.54-1.34,3.11-1.38,4.31-.1s1,2.75-.2,4.18A10.06,10.06,0,0,1,148.85,113.87Z"/><path class="cls-5" d="M139.45,93.19a10.42,10.42,0,0,1-.22,2.79,2.7,2.7,0,0,1-2.9,2.1,2.65,2.65,0,0,1-2.7-2.56,28.54,28.54,0,0,1,0-3.7A2.72,2.72,0,0,1,136.22,89a2.83,2.83,0,0,1,3.13,2.54A10.86,10.86,0,0,1,139.45,93.19Z"/><path class="cls-5" d="M162.28,93.77c0,.59,0,1.17-.09,1.75a2.85,2.85,0,0,1-5.63.26,12,12,0,0,1-.06-4.26A2.73,2.73,0,0,1,159.41,89a2.76,2.76,0,0,1,2.81,2.86c.06.65,0,1.3,0,2Z"/><path d="M53.6,117.71a10.3,10.3,0,0,1-7.83-3.3c-1.4-1.55-1.49-3.06-.27-4.32s2.77-1.21,4.31.15q3.84,3.39,7.81-.07c1.45-1.27,3-1.32,4.16-.13a2.92,2.92,0,0,1,0,4.19A10.35,10.35,0,0,1,53.6,117.71Z"/><path class="cls-6" d="M45.57,98.27a15.54,15.54,0,0,1-.23,2,2.84,2.84,0,0,1-5.5.07,10.93,10.93,0,0,1-.07-4.45,2.62,2.62,0,0,1,2.78-2.45A2.65,2.65,0,0,1,45.42,96C45.52,96.68,45.52,97.4,45.57,98.27Z"/></g></g></svg>