<svg xmlns="http://www.w3.org/2000/svg" viewBox="0 0 199.77 169.1"><defs><style>.cls-1{fill:#fff;}.cls-2{fill:#3bd8ff;}</style></defs><g id="Layer_2" data-name="Layer 2"><g id="Layer_1-2" data-name="Layer 1"><path class="cls-1" d="M158.63,45.52c0,1.55.09,3.16.12,4.72.23,9.46,0,18.81-5.69,24.94-21.53,23.11-42.92,37.29-64.4,60.46-2.31,2.49-8.89,3.84-10.91,1.67-21.39-23-42.41-35.79-63.73-58.87C.44,63.74,0,35.48,13.27,21S51-5.38,65,8.68c3.93,3.93,5.42,5,12.74,10.06S82.94,22,88.32,16.39c4-4.15,12.26-4.3,16.44-8.22,11-10.31,21.35-1.94,34.88,4C152.25,17.76,158.48,31.86,158.63,45.52Z"/><path class="cls-2" d="M198.87,129c-4.48,21.3-22.92,37.92-44.34,39.88a50.6,50.6,0,0,1-53.43-36.2c-.13-.43-.28-.86-.51-1.54-1.74,1.44-3.43,2.8-5.09,4.19-8.14,6.81-17.21,6.95-25.33.22C55.55,123.42,40.56,111.72,26.48,99c-5.64-5.11-11.31-10.24-15.82-16.43A58.6,58.6,0,0,1,.05,56.23,3.91,3.91,0,0,1,3.4,51.56,3.86,3.86,0,0,1,7.78,55a52.62,52.62,0,0,0,16,30.67C35,96.56,47,106.41,59,116.29L75.46,129.8c4.62,3.8,9.72,3.84,14.38.06,2.77-2.25,5.48-4.59,8.29-6.82a2.39,2.39,0,0,0,1-2.3,50.68,50.68,0,0,1,40.27-52.32A47.66,47.66,0,0,1,153,67.49a1.45,1.45,0,0,0,1.76-1c10.54-23.84-3.32-51.85-28.65-57.78-9.12-2.13-17.66-.26-25.86,3.84a53.73,53.73,0,0,0-10.52,7c-5,4.17-8.86,4.22-13.93.13C68.9,14.17,61.4,9.9,52.58,8.36c-10.45-1.82-19.64,1.26-28,7.33a41.87,41.87,0,0,0-7.67,7.2,4,4,0,0,1-4.07,1.72c-3.08-.65-4.16-4-2.06-6.54A50.15,50.15,0,0,1,35,1.79C47.77-2.08,59.67.63,71,7a51.51,51.51,0,0,1,9.6,6.65c1.65,1.5,2.71,1.23,4.26-.1A54.92,54.92,0,0,1,109.62,1c14-2.91,26.41.82,37.41,9.56,9.87,7.85,16.35,17.89,18.35,30.5a52.79,52.79,0,0,1-2.62,26.12c-.48,1.37-.47,1.81,1.1,2.35q30.85,10.5,35.77,42.77c0,.17.25,5,.06,9.45A54,54,0,0,1,198.87,129Z"/><path class="cls-2" d="M4.71,33.7a3.76,3.76,0,0,1,4,3.85,3.93,3.93,0,0,1-3.77,3.92,4,4,0,0,1-4-3.92A3.86,3.86,0,0,1,4.71,33.7Z"/><path class="cls-1" d="M106.5,118.25c0-23.67,19.11-43,42.58-43.07a42.94,42.94,0,0,1,42.8,43c0,23.76-19.25,43.16-42.77,43.06A42.93,42.93,0,0,1,106.5,118.25Z"/><path class="cls-2" d="M149.6,90.72c1.56,0,3.12,0,4.68,0a8.6,8.6,0,0,1,8.57,8.58,28.19,28.19,0,0,1,0,3.9c-.15,1.45.44,1.79,1.75,1.66a28.28,28.28,0,0,1,3.32,0,8.67,8.67,0,0,1,9,8.78c.07,3.06.06,6.12,0,9.17a8.69,8.69,0,0,1-8.33,8.86c-.26,0-.52,0-.78,0-1.6.14-3.78-.73-4.63.35s-.25,3.1-.28,4.72a8.76,8.76,0,0,1-8.94,9.06c-3,.05-6,.06-9,0a8.69,8.69,0,0,1-8.76-8.62c-.09-1.8.81-4.18-.41-5.21-1.05-.88-3.36-.22-5.11-.33a8.57,8.57,0,0,1-8.48-8.86c-.05-3.12-.06-6.25,0-9.37a8.52,8.52,0,0,1,8.71-8.6c1.68,0,3.87.55,4.91-.29s.31-3.17.36-4.85c.16-5.48,3.62-8.91,9.13-9,1.43,0,2.86,0,4.3,0Z"/><path class="cls-1" d="M135.14,123.87c-1.5-.19-3.79.8-5-.38s-.42-3.58-.44-5.43c-.07-5.41,0-5.41,5.32-5.41,1.43,0,2.86,0,4.29,0,2.73-.06,4.26-1.48,4.35-4.19s.08-5.34,0-8c0-1.38.29-2,1.84-2,2.46.11,4.94.1,7.41,0,1.51-.06,1.9.56,1.86,2-.08,2.66-.06,5.34,0,8a3.88,3.88,0,0,0,4.13,4.18c2.73.06,5.47.07,8.2,0,1.29,0,1.74.45,1.71,1.71,0,2.53-.07,5.07,0,7.61,0,1.43-.45,2-1.91,2-2.6-.07-5.2,0-7.81,0-2.91.05-4.3,1.46-4.33,4.34,0,2.66-.06,5.33,0,8,0,1.36-.48,1.86-1.83,1.82-2.47-.07-4.95-.1-7.42,0-1.53.07-1.89-.61-1.85-2,.07-2.54.05-5.08,0-7.62-.05-3.14-1.43-4.52-4.53-4.57C137.91,123.86,136.67,123.87,135.14,123.87Z"/></g></g></svg>