<svg xmlns="http://www.w3.org/2000/svg" viewBox="0 0 131.85 199.66"><defs><style>.cls-1{fill:#3bd8ff;}.cls-2{fill:#fff;}</style></defs><g id="Layer_2" data-name="Layer 2"><g id="Layer_1-2" data-name="Layer 1"><path class="cls-1" d="M0,152.4V110.81c0-8.74,5.55-14.3,14.25-14.31,8.11,0,16.21,0,24.32,0,1.46,0,2-.34,2.23-1.85Q48.18,51.52,55.69,8.37A9.71,9.71,0,0,1,65.57,0q28.17,0,56.34,0a9.85,9.85,0,0,1,9.78,11.73q-7.53,43.67-15.07,87.34a16.49,16.49,0,0,0-.17,2.9q0,46.37,0,92.73c0,4-.91,4.91-4.85,4.91-2.63,0-5.27,0-7.9,0-2.44,0-3.59-1-3.9-3.37Q96,167.43,92.28,138.6c-.61-4.67-1.3-9.33-1.83-14-.15-1.26-.61-1.59-1.8-1.5a25.39,25.39,0,0,1-4.36,0c-1.32-.14-1.59.42-1.74,1.57-1.14,9.07-2.35,18.13-3.53,27.19q-2.92,22.35-5.84,44.69a3.27,3.27,0,0,1-3.53,3.09c-3,.05-6.09,0-9.14,0-2.71,0-3.94-1.23-3.94-3.94q0-12.36,0-24.74c0-15.32,0-30.63,0-45.95,0-1.52-.32-2-1.9-1.93q-13.2.14-26.4,0c-1.67,0-2.21.43-2.41,2.05-1.36,10.93-2.81,21.84-4.23,32.76q-2.51,19.25-5,38.51c-.29,2.2-1.49,3.22-3.81,3.25-2.91,0-5.82,0-8.73,0S0,198.46,0,195.44Q0,173.92,0,152.4Z"/><path class="cls-2" d="M111.83,8.76Q104.2,53.12,96.65,97.1c-.21,1.25-.69,1.52-1.88,1.52q-23.28-.06-46.56,0c-1.57,0-1.62-.57-1.41-1.77q6-34.26,11.88-68.51Q60,20.58,61.32,12.8c.53-3.2,1.45-4,4.63-4h45.88Z"/><path class="cls-2" d="M70.71,105.25H97.8c3.43,0,4.23-.61,4.82-4q5.14-29.64,10.25-59.29,2.55-14.82,5.08-29.65c.44-2.56,2-3.9,4-3.46s2.83,2.12,2.41,4.57c-4.68,27.12-9.24,54.27-14.11,81.35-1.32,7.32-1,14.61-1.08,21.93,0,1.55-.36,1.93-1.92,1.92q-16.41-.12-32.83,0c-1.51,0-2-.29-1.94-1.89C72.61,112.86,73,108.94,70.71,105.25Z"/><path class="cls-2" d="M35.85,118.56c-9.35,0-18.7,0-28,0-1.41,0-2-.25-1.84-1.77s0-3.19,0-4.78a6.6,6.6,0,0,1,6.66-6.77q23.26-.06,46.54,0A6.59,6.59,0,0,1,65.87,112c0,1.66-.09,3.33,0,5,.1,1.32-.34,1.6-1.6,1.59C54.82,118.53,45.33,118.56,35.85,118.56Z"/><path class="cls-2" d="M18.83,125.21C15.89,147.87,13,170.3,10,192.71c-.12.9.45,2.4-1.6,2.44s-2.5-.35-2.49-2.42Q6.08,160,6,127.3c0-1.7.36-2.21,2.12-2.13C11.59,125.32,15.12,125.21,18.83,125.21Z"/><path class="cls-2" d="M75.42,125.21c-2.75,20.91-5.46,41.62-8.18,62.33-.28,2.12-.58,4.24-.82,6.38s-1.88.89-2.87,1.13c-1.28.31-1-.77-1-1.45q0-33.45,0-66.89c0-.56-.46-1.5.77-1.5C67.35,125.22,71.35,125.21,75.42,125.21Z"/><path class="cls-2" d="M96.3,125.21c4,0,7.91,0,11.84,0,.66,0,1.09.12,1,.9,0,.21,0,.42,0,.62v66.89c0,.7.26,1.76-1,1.44-1-.26-2.58,1.08-2.86-1.15-1-7.82-2.08-15.63-3.1-23.44C100.2,155.44,98.27,140.42,96.3,125.21Z"/></g></g></svg>