<svg xmlns="http://www.w3.org/2000/svg" viewBox="0 0 199.25 199.24"><defs><style>.cls-1{fill:#565656;}.cls-2{fill:#727272;}.cls-3{fill:#141414;}.cls-4{fill:#3bd8ff;}</style></defs><g id="Layer_2" data-name="Layer 2"><g id="Layer_1-2" data-name="Layer 1"><path class="cls-1" d="M.34,175.56A1.86,1.86,0,0,1,0,175.5v-2.34A3,3,0,0,1,.34,175.56Z"/><path class="cls-2" d="M.34,167.28l0,1.88c0,.27-.13.31-.32.11v-1.94Z"/><path class="cls-3" d="M0,169.27a1.21,1.21,0,0,1,.32-.11c0,.7.32,1.46-.32,2.06Z"/><path d="M.34,167.28a18.27,18.27,0,0,1,3.91-9.56,11.62,11.62,0,0,1,6.43-4.08c2.51-.6,5-1.34,7.49-2-4-10.55-2.29-20.42,3.57-29.68,3-4.68,6.94-8.21,12.79-8.87,2.24-.26,4.34.46,6.75,1.11a80.65,80.65,0,0,1-2.74-8.58c-2.13-9.46-.11-18.08,5.2-26.06,3.25-4.88,7.19-9.18,10.88-13.7,4.2-5.15,8-10.51,9.34-17.22a28.8,28.8,0,0,0-.29-12.33c-.46-2-.38-3.75,1.4-5.05,1.49-1.09,3.18-.84,5.35.68A41.06,41.06,0,0,1,84.61,48.22c2.89-6.54,7.26-11.75,11.12-17.3,4.45-6.4,4-13,1-19.71-.77-1.71-1.6-3.39-2.47-5.05s-1-3.23.22-4.71A3.89,3.89,0,0,1,99.18.36q22.35,8.25,29.59,30.93c2.65,8.34,3,16.92,2.13,25.58,0,.43-.06.86-.12,1.68a29.49,29.49,0,0,0,7-11.39,34.18,34.18,0,0,0,1.12-4.11,3.83,3.83,0,0,1,3.19-3.44,3.94,3.94,0,0,1,4.24,2.06A92.49,92.49,0,0,1,158,67.34c4.29,15.07,4.88,30.23.9,45.48a5.54,5.54,0,0,0-.1,1c10.5-1.61,17.36,2.76,21.79,13.79,3.28,8.16,3.41,14.21.54,24,1.93.53,3.84,1.18,5.8,1.55,7.3,1.41,10.71,6.43,11.86,13.18,1.56,9.1-.65,17.48-5.91,25a19.42,19.42,0,0,1-11.11,7.88h-4.28c-18.38-4.24-36.45-9.61-54.7-14.36-7.27-1.89-14.52-3.9-21.79-5.83a5.38,5.38,0,0,0-2.87,0q-36,9.63-71.95,19.31c-1.56.42-3.2.37-4.75.83H17.12c-5-.83-8.49-3.79-11.23-7.81-3.28-4.81-5.73-9.94-5.69-16-.1-.77.22-1.57-.2-2.32v-1.94c.41-.66.11-1.4.2-2.09A5.5,5.5,0,0,1,.34,167.28Z"/><path class="cls-4" d="M72.46,42.49a29.18,29.18,0,0,1,7.3,14.29,53,53,0,0,1,.92,9.66,3.91,3.91,0,0,0,4,4.13c2.18,0,3.63-1.62,3.78-4.09,0-.46,0-.91,0-1.36a39.12,39.12,0,0,1,7.45-22.5c1.41-1.95,2.82-3.88,4.19-5.85,1.11-1.59,2.21-3.19,3.22-4.85A23.63,23.63,0,0,0,106,13.41c-.19-.8-.39-1.6-.68-2.75A39,39,0,0,1,118.3,24.74c4,7.37,5.36,15.33,5.27,23.61a77.88,77.88,0,0,1-2,16.37c-.41,1.84-.25,3.5,1.39,4.7s3.27.86,4.9-.11a39.68,39.68,0,0,0,15.85-17.43c.72.16.77.83,1,1.29,7.1,14.66,10.42,30,8.57,46.33a76.16,76.16,0,0,1-3.17,14.38,2,2,0,0,1-1.59,1.44q-10.61,2.79-21.18,5.66c-1.12.31-1.75.4-1.36-1.11a12.85,12.85,0,0,0,.29-2.71A3.87,3.87,0,0,0,123,113a3.75,3.75,0,0,0-4.38,3.17c-.39,2-.69,4.09-1,6.14A1.68,1.68,0,0,1,116.2,124c-5.14,1.31-10.24,2.73-15.36,4.12a4.64,4.64,0,0,1-2.48,0q-10-2.72-20-5.38c-.82-.21-1.35-.52-1.52-1.45-1.28-6.86-.78-13.41,3.28-19.57a43.55,43.55,0,0,0,3,5.5,19.85,19.85,0,0,0,4,4.26c1.83,1.44,3.5,1.54,5.3.07,8.7-7.1,14.71-15.92,17.09-27,.12-.57.26-1.14.45-2,.72,1,1.28,2,1.94,2.8a3.86,3.86,0,0,0,6.44-4.25,53.56,53.56,0,0,0-9.47-11.78,3.69,3.69,0,0,0-4.31-.74,3.61,3.61,0,0,0-2.24,3.93c1.23,11.6-3.08,21.15-10.85,29.43-1.56,1.65-1.56,1.63-2.69-.42A22.28,22.28,0,0,1,86,93.21c-.21-1.85-1-3.26-2.77-3.83a4.1,4.1,0,0,0-4.37,1.36c-7.59,7.73-11.45,16.85-10.33,27.78.16,1.57-.25,1.51-1.49,1.16-4.79-1.36-9.61-2.62-14.43-3.89a2.13,2.13,0,0,1-1.58-1c-3.09-5.74-5.63-11.63-5.61-18.34,0-5.77,2.32-10.68,5.55-15.25,3.49-4.93,7.66-9.31,11.37-14.06,4.5-5.78,8.18-12,9.4-19.33C72.06,46.15,72.22,44.44,72.46,42.49Z"/><path class="cls-4" d="M175.1,142.55c-.58,4.73-2,6.42-6.2,7.54L33.44,186.43c-.5.13-1,.23-1.67.38,2-11.18-.53-21.14-8.08-30,2.14-.6,4.21-1.19,6.28-1.75q65.86-17.64,131.73-35.31a6.21,6.21,0,0,1,6.12,1.35c3.79,3.26,5.73,7.58,6.91,12.32.23.92-.12,1.23-1,1.42-1.89.42-3.75,1-5.62,1.5-2.42.7-3.61,2.62-3.06,4.85s2.66,3.24,5.05,2.66c.81-.2,1.63-.4,2.44-.62S174.14,142.82,175.1,142.55Z"/><path class="cls-4" d="M83.85,132.6l-14.91,4c-13.61,3.65-27.23,7.25-40.81,11-1.8.5-2.57,0-3.16-1.57a21.54,21.54,0,0,1-.52-12.24c.21-1,.7-.71,1.25-.57,2.06.53,4.11,1.11,6.19,1.61A3.87,3.87,0,1,0,34,127.42c-2-.63-4.11-1.13-6.36-1.74A14.58,14.58,0,0,1,33.14,120a4.84,4.84,0,0,1,3.75-.4q23.49,6.31,47,12.6Z"/><path class="cls-4" d="M145.61,165.82l29.67-7.94c-7.15,9-9.81,18.92-7.76,30.38L114.7,174.12c4.44-1.2,8.4-2.08,12.24-3.35a11.79,11.79,0,0,1,7.54.13c2.41.73,4.87,1.32,7.3,2s4.27.18,5.27-1.56S147.63,167.86,145.61,165.82Z"/><path class="cls-4" d="M24.67,179.25c0,3.06-.29,5.62-1.54,8-1.6,3-3.84,3.63-6.72,1.77a16.58,16.58,0,0,1-6-7.47C8,176.14,6.93,170.58,8.52,164.74a10.53,10.53,0,0,1,1.13-2.65c1.48-2.46,3.43-3,5.93-1.59a13.44,13.44,0,0,1,4.67,4.57A26.3,26.3,0,0,1,24.67,179.25Z"/><path class="cls-4" d="M174.57,180.58a26.51,26.51,0,0,1,5-14.89,13,13,0,0,1,3.77-3.59c2.72-1.66,5-1.08,6.49,1.71a15.29,15.29,0,0,1,1.64,7.69,26.16,26.16,0,0,1-5.61,16.18,12.07,12.07,0,0,1-3.17,2.83c-2.76,1.67-4.9,1.11-6.47-1.71C174.81,186.28,174.58,183.52,174.57,180.58Z"/><path d="M125.29,100.8a3.88,3.88,0,1,1-7.76-.13,3.88,3.88,0,0,1,7.76.13Z"/><path class="cls-4" d="M120.3,147.67a3.58,3.58,0,0,1-2.83,3.18q-4.36,1.31-8.81,2.36a3.78,3.78,0,0,1-4.49-2.77,3.59,3.59,0,0,1,2.26-4.56c3.13-1,6.31-1.89,9.53-2.59C118.26,142.79,120.3,144.75,120.3,147.67Z"/><path class="cls-4" d="M61.15,164.62a3.77,3.77,0,0,1-3,3.81c-2.79.81-5.6,1.57-8.42,2.26A3.81,3.81,0,0,1,45,168a3.72,3.72,0,0,1,2.57-4.74c3-.91,6-1.73,9-2.42A3.78,3.78,0,0,1,61.15,164.62Z"/></g></g></svg>