<svg xmlns="http://www.w3.org/2000/svg" viewBox="0 0 175.79 200"><defs><style>.cls-1{fill:#3bd8ff;}</style></defs><g id="Layer_2" data-name="Layer 2"><g id="Layer_1-2" data-name="Layer 1"><path class="cls-1" d="M156.82,136.89c0-14.88,0-29.77,0-44.66,0-1.49.4-2.06,2.9-2,6.85.1,6.85,0,6.85,4.61v24.63a10.28,10.28,0,0,0,.1,2c.32,1.55-.09,11-.09,13.35,0,15.56-.05,31.11,0,46.67,0,1.73-.43,2.4-3.35,2.33-6.39-.17-6.4-.05-6.4-4.25Z"/><path class="cls-1" d="M12.49,138c0-14.88,0-29.77-.05-44.66,0-1.49.4-2.06,2.9-2,6.84.1,6.85,0,6.85,4.61q0,12.32,0,24.63a9.55,9.55,0,0,0,.1,2c.32,1.55-.09,11-.1,13.35,0,15.56,0,31.11,0,46.67,0,1.72-.43,2.4-3.35,2.33-6.4-.17-6.4,0-6.4-4.25Z"/><path d="M171.77,182.06c-1.71.08-2.14-.37-2.14-2.11.08-17.84.05-35.67.05-53.51,0-.65,0-1.3,0-2a2.73,2.73,0,0,0-2.7-2.79,2.83,2.83,0,0,0-3.07,2.63,14.07,14.07,0,0,0-.06,2V178c0,4,0,3.86-4,4-2,.09-2.28-.58-2.27-2.38q.09-42.18,0-84.36c0-4.54,0-4.48,4.6-4.52,1.38,0,1.73.38,1.71,1.73-.07,5.86,0,11.72,0,17.58,0,.52,0,1,0,1.56a3.05,3.05,0,0,0,2.91,3.08,3,3,0,0,0,2.91-3.22c0-6.12.09-12.24,0-18.36,0-1.82.33-2.49,2.3-2.39,2.88.15,3.84-1,3.84-3.86q0-5,0-10c0-2.79-.35-3.31-2.95-4.36-18.47-7.4-36.94-14.84-55.45-22.16-1.83-.72-2.54-1.59-2.29-3.5a22.08,22.08,0,0,0,0-3.9,1.63,1.63,0,0,1,1.09-1.78,8.46,8.46,0,0,0,4.8-8.09,8.43,8.43,0,0,0-5-8,2,2,0,0,1-1.24-1.71c-1.34-8.55-5.87-15-13.13-19.58C98.41,1.82,94.73.9,91,0H84c-.23.57-.77.35-1.18.45C71.07,3.29,63.75,10.53,61.19,22.38A3.6,3.6,0,0,1,59,25.33c-5.85,2.85-6.55,11.78-1,15.18a4.81,4.81,0,0,1,2.63,5.36,4.43,4.43,0,0,0,0,1.36c.36,1.83-.55,2.54-2.17,3.19C39.9,57.79,21.3,65.27,2.68,72.68a3.73,3.73,0,0,0-2.68,4c.1,3.38,0,6.77,0,10.15,0,3,.94,4.1,3.94,4,1.88-.08,2.2.57,2.2,2.29q-.07,43.35,0,86.7c0,2-.55,2.38-2.37,2.28C1,181.91.05,183,0,185.75c0,3.32,0,6.64,0,10S.87,200,4.24,200H171.6c3.29,0,4.18-.88,4.18-4.13s0-6.51,0-9.76S174.89,181.92,171.77,182.06ZM52.86,146.27q-13.47-.11-26.95,0c-1.5,0-1.86-.41-1.81-1.85.11-3.19.06-6.38,0-9.57,0-2.26-1.17-3.6-3-3.59s-2.88,1.29-2.88,3.63c0,15.16,0,30.33,0,45.5,0,1.69-.28,2.35-2.17,2.28-4.14-.17-4.15,0-4.15-4.14v-41.6c0-14.52,0-29,0-43.56,0-1.45.26-2,1.88-2,4.43.1,4.44,0,4.44,4.49q0,12,0,24a14.07,14.07,0,0,0,.06,2A2.68,2.68,0,0,0,21,124.3a2.73,2.73,0,0,0,2.89-1.87,5.82,5.82,0,0,0,.26-2.31c0-9,0-18,0-26.95,0-1.31.23-1.77,1.67-1.76q13.57.11,27.15,0c1.54,0,1.77.5,1.77,1.88q-.08,25.59,0,51.17C54.71,145.94,54.31,146.28,52.86,146.27Zm48.41,0q-13.48-.12-26.95,0c-1.39,0-1.71-.39-1.7-1.73.06-8.59,0-17.18,0-25.77s0-17.05,0-25.58c0-1.53.45-1.78,1.84-1.77q13.47.11,27,0c1.47,0,1.8.35,1.8,1.8q-.09,25.59,0,51.16C103.21,145.94,102.76,146.28,101.27,146.27Zm50.41-27.33c0,8.52,0,17,0,25.56,0,1.32-.28,1.77-1.69,1.76q-13.58-.09-27.13,0c-1.3,0-1.78-.23-1.78-1.67q.09-25.77,0-51.53c0-1.24.27-1.66,1.6-1.65q13.67.09,27.32,0c1.44,0,1.68.46,1.67,1.76C151.65,101.76,151.68,110.35,151.68,118.94Z"/><path class="cls-1" d="M68.41,73.43c1.52-3.09,2.92-5.93,4.33-8.76S75.62,59,77,56.14a1.83,1.83,0,0,1,1.93-1.2c6,.05,12,0,18,0,.72,0,1.34,0,1.76.82,2.79,5.71,5.65,11.39,8.48,17.09.05.1,0,.25,0,.56-3.69,0-7.38,0-11.08,0a13.88,13.88,0,0,0-2.14.07,2.67,2.67,0,0,0-2.49,3,2.64,2.64,0,0,0,2.51,2.74,18.09,18.09,0,0,0,2.33.08q35.83,0,71.66,0c1.58,0,2.1.31,2.05,2-.12,4.34,0,4.34-4.34,4.34q-78.69,0-157.37,0c-2,0-2.51-.43-2.42-2.42.17-3.92,0-3.93,4-3.93h69.5c.46,0,.91,0,1.37,0,2.5,0,3.76-1.06,3.71-3s-1.27-2.84-3.65-2.86c-3.32,0-6.64,0-10,0Z"/><path class="cls-1" d="M88.1,188.47q39.93,0,79.87,0c1.62,0,2.05.38,2,2-.12,4.3,0,4.3-4.35,4.3q-78.78,0-157.58,0c-1.76,0-2.26-.42-2.2-2.2.15-4.1,0-4.11,4.16-4.11Z"/><path class="cls-1" d="M108.93,24.85H107c-12.74,0-25.48-.05-38.22,0-1.94,0-2-.51-1.62-2.15A21.5,21.5,0,0,1,89.27,6.5C99.1,7,107.88,15.18,108.93,24.85Z"/><path class="cls-1" d="M60.53,136.91c0-14.51,0-29-.05-43.52,0-1.65.43-2,2-2,4.28.12,4.28,0,4.28,4.39q0,42.34,0,84.69c0,1.84-.52,2.23-2.24,2.18-4.07-.13-4.07,0-4.07-4.19Z"/><path class="cls-1" d="M115.29,137.14c0,14.57,0,29.14,0,43.71,0,1.46-.34,1.83-1.8,1.81-4.5-.09-4.5,0-4.5-4.55q0-42.26,0-84.5c0-1.79.45-2.27,2.22-2.21,4.08.13,4.09,0,4.09,4.17Z"/><path class="cls-1" d="M19.3,73q8.64-3.44,17.26-6.89c8.78-3.51,17.57-7,26.33-10.57,2.41-1,4.87-.45,7.31-.5,1.12,0,.38.81.18,1.22-2,4-4.31,7.89-5.87,12.06S60.45,73.7,56,73.55c-11.5-.38-23-.13-34.52-.13H19.35Z"/><path class="cls-1" d="M156.52,73.42H155q-19.62,0-39.24,0a2.33,2.33,0,0,1-2.53-1.51c-2.47-5.14-5-10.23-7.65-15.31-.66-1.29-.62-1.65,1-1.72a22.3,22.3,0,0,1,9.61,1.86C129,62,141.94,67.13,154.82,72.28c.58.23,1.15.49,1.72.73Z"/><path class="cls-1" d="M87.51,37H63.9a3.74,3.74,0,0,1-3-1,3.12,3.12,0,0,1,1-4.93,5,5,0,0,1,2.29-.34h47c.26,0,.52,0,.78,0,2.11.11,3.42,1.38,3.36,3.25s-1.32,3-3.36,3c-3.52,0-7,0-10.54,0Z"/><path class="cls-1" d="M87.8,49.11c-6.5,0-13,0-19.5,0-1.26,0-1.81-.18-1.8-1.65,0-4.65,0-4.65,4.64-4.65,12,0,24.06,0,36.08,0,1.54,0,2.15.24,2.1,2-.12,4.34,0,4.35-4.36,4.35Z"/><path class="cls-1" d="M39.42,158.36c-4.62,0-9.24,0-13.86,0-1.07,0-1.43-.25-1.46-1.38-.11-4.91-.15-4.91,4.73-4.91,8.07,0,16.14,0,24.21,0,1.2,0,1.67.21,1.67,1.57,0,4.73,0,4.73-4.74,4.73Z"/><path class="cls-1" d="M87.76,158.36c-4.55,0-9.09-.05-13.64,0-1.23,0-1.49-.35-1.5-1.52,0-4.78-.07-4.78,4.62-4.78,8.12,0,16.24,0,24.36,0,1.27,0,1.6.33,1.6,1.6,0,4.7,0,4.7-4.72,4.7Z"/><path class="cls-1" d="M136.4,158.36c-4.56,0-9.12-.05-13.67,0-1.3,0-1.62-.36-1.62-1.63,0-4.67,0-4.67,4.59-4.67,8.07,0,16.14,0,24.21,0,1.47,0,1.84.35,1.81,1.81-.08,4.5,0,4.5-4.58,4.5Z"/><path class="cls-1" d="M30.41,173.45c0,2.54-.05,5.07,0,7.61,0,1.1-.14,1.58-1.44,1.59-4.86,0-4.86.1-4.86-4.78,0-4,0-8.06,0-12.09,0-1.07.09-1.59,1.42-1.6,4.88,0,4.88-.09,4.88,4.78Z"/><path class="cls-1" d="M36.27,173.28c0-2.54,0-5.08,0-7.61,0-1,.12-1.46,1.33-1.48,5-.08,5-.13,5,4.88,0,4,0,7.94,0,11.9,0,1.19-.18,1.69-1.55,1.68-4.74,0-4.74.06-4.74-4.69Z"/><path class="cls-1" d="M54.67,173.64c0,2.48-.05,5,0,7.42,0,1.1-.13,1.59-1.44,1.6-4.85,0-4.85.09-4.85-4.78,0-4,0-8.08,0-12.11,0-1.07.09-1.58,1.42-1.59,4.87,0,4.87-.08,4.87,4.78Z"/><path class="cls-1" d="M78.92,173.25c0,2.73,0,5.45,0,8.17,0,.92-.24,1.18-1.19,1.22-5.1.22-5.1.25-5.1-4.87,0-4.09,0-8.18,0-12.26,0-1,.25-1.29,1.28-1.32,5-.11,5-.15,5,4.78Z"/><path class="cls-1" d="M91,173.45c0,2.67,0,5.33,0,8,0,.93-.26,1.17-1.19,1.2-5.09.21-5.09.23-5.09-4.88,0-4,0-8,0-12.07,0-1.21.29-1.5,1.49-1.5,4.8,0,4.8-.05,4.8,4.79Z"/><path class="cls-1" d="M103.16,173.24c0,2.73,0,5.45,0,8.18,0,.9-.22,1.18-1.17,1.22-5.11.22-5.11.25-5.11-4.87,0-4.08,0-8.17,0-12.26,0-1,.24-1.29,1.27-1.32,5-.12,5-.16,5,4.77Z"/><path class="cls-1" d="M127.42,173.25c0,2.67-.06,5.34,0,8,0,1.14-.36,1.37-1.43,1.38-4.86.06-4.86.1-4.86-4.76,0-4,0-8.08,0-12.11,0-1.1.14-1.58,1.45-1.59,4.85,0,4.85-.09,4.85,4.78Z"/><path class="cls-1" d="M139.55,173.57c0,2.48-.06,5,0,7.42,0,1.2-.18,1.67-1.55,1.67-4.74,0-4.75,0-4.75-4.71,0-4.1,0-8.2,0-12.3,0-1.07.23-1.44,1.38-1.46,4.92-.1,4.92-.15,4.92,4.7Z"/><path class="cls-1" d="M145.41,173.45c0-2.67,0-5.34,0-8,0-.91.24-1.2,1.19-1.26,5.1-.27,5.1-.3,5.1,4.71,0,4,0,8.07,0,12.1,0,1.2-.21,1.66-1.56,1.65-4.74,0-4.74,0-4.74-4.71Z"/></g></g></svg>