<svg xmlns="http://www.w3.org/2000/svg" viewBox="0 0 200.52 200.45"><defs><style>.cls-1{fill:#3bd8ff;}.cls-2{fill:#414141;}</style></defs><g id="Layer_2" data-name="Layer 2"><g id="Layer_1-2" data-name="Layer 1"><path d="M200.52,191.08c-.47.18-.34.65-.46,1-1.67,4.84-5,7.81-10.1,8.31a11.09,11.09,0,0,1-11.48-6.21c-4.57-8.47-9-17-13.55-25.52-2.68-5.06-5.38-10.11-8-15.19-.55-1.08-1-1.29-2.23-.85A59.17,59.17,0,0,1,142.07,156c-1.36.18-1.78.66-1.76,2.08q.1,12.93,0,25.84A10,10,0,0,1,124.67,192a9.9,9.9,0,0,1-4.37-8.71c0-8.42,0-16.84,0-25.26,0-1.39-.35-1.89-1.73-2.08a54.05,54.05,0,0,1-12.43-3.3c-1.38-.54-1.86-.19-2.5,1-7,13.31-14,26.58-21.06,39.87-2.17,4.12-5.45,6.66-10.15,6.91a11.58,11.58,0,0,1-11-16.76c4.33-8.67,9-17.17,13.53-25.74,2.91-5.53,5.82-11.06,8.8-16.55.57-1.06.68-1.73-.39-2.58a53.65,53.65,0,0,1-6.4-6.48c-.54.28-.49.71-.62,1.07a9.93,9.93,0,0,1-9.64,6.9c-23.51.22-44.86-17.45-49-40.6-.12-.64-.25-1.28-.34-1.92-.19-1.35.1-3.39-.65-3.89-1.06-.71-2.87-.27-4.36-.32a21.72,21.72,0,0,1-4.48-.28A9.88,9.88,0,0,1,.05,83.77Q0,70.17.05,56.56a9.77,9.77,0,0,1,9-9.67,48.45,48.45,0,0,1,6.26-.09c1.24,0,1.66-.32,1.78-1.57a48.28,48.28,0,0,1,9.2-24.37A49.39,49.39,0,0,1,61.1.37c.3,0,.66,0,.8-.37h1.56a.51.51,0,0,0,.79,0h4.3c6.12,1.17,8.8,4.46,8.8,10.86q0,26.7,0,53.41v1.57c0,2.27.22,2.39,2.38,1.59,10.41-3.86,21.24-5.77,32.23-7a183.94,183.94,0,0,1,27.16-.65c13.85.56,27.56,2.42,40.69,7.17,5.59,2,11,4.42,15.48,8.55,2.8,2.59,5.07,5.41,5.23,9.44v5.87a.91.91,0,0,0,0,1.18v2a67.5,67.5,0,0,1-2.5,13.37,68.56,68.56,0,0,1-16.34,27.9c-1.23,1.26-2.47,2.51-3.73,3.73a1.8,1.8,0,0,0-.38,2.43c4.42,8.57,9,17.06,13.51,25.59,2.79,5.3,5.55,10.62,8.44,15.87.69,1.24.6,2.63,1,3.91Z"/><path d="M111.24,0c2.38,1.53,2.78,2.62,2.07,5.41a10,10,0,0,1-3.56,5.46,25.07,25.07,0,0,0-2.07,1.77,2,2,0,0,0,0,3.1,27,27,0,0,0,2.07,1.78c5.1,4.09,5.14,10.88.09,15-3.93,3.19-3.93,3.64,0,6.78a9.54,9.54,0,0,1,3.78,7.41,3.27,3.27,0,0,1-2.89,3.38,3.15,3.15,0,0,1-3.6-2.58c-.18-1.81-1.25-2.77-2.48-3.75-5.82-4.6-5.77-11.19.12-15.79,3-2.37,3-3.44,0-5.85-5.88-4.62-5.9-11.21-.06-15.79,1.24-1,2.36-1.94,2.44-3.76.06-1.25,1.23-1.9,2.19-2.56Z"/><path d="M151.57,0c2.22,1.77,2.58,3.08,1.7,5.92a10.77,10.77,0,0,1-4.16,5.51c-2.76,2.07-2.87,3.51,0,5.44,5.83,4,6.33,11.9-.06,16.38-2.77,1.94-2.67,3.36.13,5.45A10.21,10.21,0,0,1,153.63,46c.23,2.21-.78,3.76-2.67,4.11a3.25,3.25,0,0,1-3.82-3A4.48,4.48,0,0,0,145,44c-6.29-4.33-5.78-12.26,0-16.21,2.84-1.93,2.86-3.49,0-5.43-5.75-3.9-6.45-11.9.11-16.33a4,4,0,0,0,2-3.17c.07-1.39,1.19-2,2.08-2.84Z"/><path d="M131.6,0c2.23,1.93,2.59,3.52,1.44,6.51a10.39,10.39,0,0,1-3.53,4.58c-3.4,2.6-3.38,3.55,0,6.17,4,3.11,5.2,7.47,3.3,11.58a10.44,10.44,0,0,1-3.18,3.89c-3.52,2.78-3.5,3.61.11,6.43a9.55,9.55,0,0,1,3.93,7.32,3.27,3.27,0,0,1-2.84,3.6,3.18,3.18,0,0,1-3.66-2.75,5,5,0,0,0-2.28-3.44c-6-4.86-6-11.22.07-16,2.86-2.25,2.87-3.36,0-5.61-6.11-4.85-6.17-11.19-.12-16,1.2-1,2.22-1.93,2.32-3.63.08-1.29,1.22-1.89,2.11-2.61Z"/><path class="cls-1" d="M200.52,92.38c-.63-.4-.44-.79,0-1.18Z"/><path class="cls-2" d="M64.25.36c-.26.39-.52.5-.79,0Z"/><path class="cls-1" d="M70.17,70.57v58.72c0,3.81-1,4.75-4.74,4.65a43.42,43.42,0,0,1-41.6-37.55,45.49,45.49,0,0,1-.37-6c0-13.18-.06-26.36,0-39.54.1-21,13.83-38.11,34.32-42.78a39.71,39.71,0,0,1,8.14-1c3.07,0,4.25,1.11,4.25,4.21Z"/><path class="cls-1" d="M192.47,100.21a61.72,61.72,0,0,1-6.81,18.21,63,63,0,0,1-11.51,14.73c-.82.77-1.16,1-1.92-.18a11.64,11.64,0,0,0-20.16,11.63c1,1.8.43,2.15-1.19,2.7a63.22,63.22,0,0,1-41.24-.05c-1.69-.56-1.85-1-1-2.58,3.93-7.64-.29-16.08-8.71-17.25-4.82-.67-8.7,1.3-11.31,5.41-.76,1.21-1.16,1.15-2.07.25a66.84,66.84,0,0,1-9-10.78,3.41,3.41,0,0,1-.65-2c0-5,0-10,0-15.06.59-.31,1,.06,1.47.24,11.23,4.49,23,6.54,35,7.66a171.29,171.29,0,0,0,29.7.35c13.67-1.09,27.21-2.85,40-8.24A75.33,75.33,0,0,0,192.47,100.21Z"/><path class="cls-1" d="M193.84,189.21a5,5,0,0,1-8.83,3.1,9.54,9.54,0,0,1-1-1.65q-12.91-24.37-25.82-48.78c-1.85-3.51-.36-7,3.22-7.76,2.25-.46,4.25.59,5.55,3q5.25,9.8,10.44,19.63l15.41,29.14A6.81,6.81,0,0,1,193.84,189.21Z"/><path class="cls-1" d="M103.4,139a5.69,5.69,0,0,1-.88,3Q89.6,166.38,76.69,190.77c-1.64,3.08-4.45,4.15-7.12,2.78s-3.42-4.29-1.78-7.4q12.93-24.5,25.91-49c1.38-2.61,3.48-3.62,5.92-3A4.91,4.91,0,0,1,103.4,139Z"/><path class="cls-1" d="M130.14,107.08c-2.73,0-5.47,0-8.21,0-1,0-1.3-.32-1.2-1.38q1.81-18.18,3.5-36.37c.15-1.55.54-2.25,2.3-2.13,2.79.19,5.6.08,8.4.06.87,0,1.35.07,1.45,1.2q1.67,18.39,3.51,36.76c.16,1.57-.35,1.91-1.73,1.88-2.67-.05-5.35,0-8,0Z"/><path class="cls-1" d="M117.57,69.46c-1.13,11.83-2.27,23.37-3.29,34.92-.17,1.9-.81,2.32-2.61,2-4.23-.73-8.49-1.29-12.75-1.9-1.06-.15-1.53-.37-1.15-1.72,3-10.89,6-21.81,8.89-32.74a1.75,1.75,0,0,1,1.83-1.55c2.34-.14,4.68-.42,7-.71C117.06,67.57,118.29,67.6,117.57,69.46Z"/><path class="cls-1" d="M144.4,67.68c3,.31,5.48.62,8,.81,1,.08,1.3.52,1.54,1.39q4.45,16.47,9,32.9c.35,1.26,0,1.53-1.15,1.73-4.36.76-8.75,1.32-13.13,1.91-1.6.21-2.07-.19-2.22-1.85-1-11.67-2.13-23.34-3.29-35C143,68.12,143,67.15,144.4,67.68Z"/><path class="cls-1" d="M99.72,70.17q-2.09,7.68-4.16,15.36c-1.41,5.2-2.89,10.4-4.23,15.62-.33,1.27-.69,1.48-2,1.1A87.32,87.32,0,0,1,78,98.08a1.76,1.76,0,0,1-1.21-1.91c0-5.93,0-11.86,0-17.8,0-.81,0-1.44,1-1.87A84.36,84.36,0,0,1,99.2,70C99.31,70,99.44,70.09,99.72,70.17Z"/><path class="cls-1" d="M16.77,70.62c0,5-.05,10,0,15,0,1.31-.37,1.7-1.65,1.61-1.62-.11-3.26,0-4.89,0a3.33,3.33,0,0,1-3.55-3.57q0-13.1,0-26.2a3.27,3.27,0,0,1,3.48-3.61c1.69-.08,3.39,0,5.08,0,1.22-.07,1.54.38,1.52,1.56C16.73,60.45,16.77,65.53,16.77,70.62Z"/><path class="cls-1" d="M160.81,69.75c3.12.7,5.89,1.33,8.66,1.93.78.16,1,.75,1.26,1.34,3.49,8.12,7,16.25,10.5,24.35.45,1,.19,1.37-.8,1.76-3.08,1.24-6.22,2.29-9.4,3.24-1,.31-1.31,0-1.57-.94C166.65,91,163.78,80.61,160.81,69.75Z"/><path class="cls-1" d="M133.66,171.44c0,4,0,8.09,0,12.13,0,2.38-1.24,3.83-3.19,3.91S127,186,127,183.61c0-8.29,0-16.57,0-24.86,0-1.09.28-1.56,1.41-1.4a8.93,8.93,0,0,0,1.37,0c3.93,0,3.93,0,3.93,4.08Z"/><path class="cls-1" d="M178.68,74.62c4.37,1.78,8.2,3.5,11.44,6.29,6.12,5.26,4,9.87-1.77,14-.65.46-.89.14-1.13-.42C184.44,88,181.66,81.55,178.68,74.62Z"/><path d="M30.16,48.51c.42-16.16,12.74-30.85,28.73-34.28,2.2-.47,4,.47,4.46,2.4s-.67,3.57-2.92,4.12a29.93,29.93,0,0,0-20.5,16.11,28.59,28.59,0,0,0-3.1,12.2,5.64,5.64,0,0,1-.33,2.3,3.12,3.12,0,0,1-3.62,2,3,3,0,0,1-2.71-2.89A15.85,15.85,0,0,1,30.16,48.51Z"/></g></g></svg>