<svg xmlns="http://www.w3.org/2000/svg" viewBox="0 0 199.68 167.17"><defs><style>.cls-1{fill:#3bd8ff;}.cls-2{fill:#fff;}</style></defs><g id="Layer_2" data-name="Layer 2"><g id="Layer_1-2" data-name="Layer 1"><path class="cls-1" d="M150.07,47a16.78,16.78,0,0,1,2.13-8.16c.82-1.61,1.67-3.21,2.52-4.8a11,11,0,0,0-.34-11.4c-.33-.55-.68-1.1-1-1.68a1.81,1.81,0,0,1,.61-2.56,1.72,1.72,0,0,1,2.58.44c3.08,4.5,4.58,9.31,2.58,14.72a36,36,0,0,1-3,6.1c-2.89,4.79-2.89,9.44.3,14.09.9,1.31.66,2.49-.44,3.13s-2,.24-2.88-1.09A16.85,16.85,0,0,1,150.07,47Z"/><path class="cls-1" d="M121.68,28.93a16.15,16.15,0,0,1-2.16,7.55q-1.2,2.35-2.45,4.68a11,11,0,0,0,.36,11.51c.31.52.66,1,.93,1.56a1.89,1.89,0,0,1-.7,2.65,1.81,1.81,0,0,1-2.57-.6c-3.22-4.76-4.55-9.8-2.2-15.38,1-2.31,2.24-4.48,3.4-6.69a11.32,11.32,0,0,0-.54-12c-.24-.4-.51-.78-.72-1.19a1.92,1.92,0,0,1,.7-2.66,1.8,1.8,0,0,1,2.57.6A17.21,17.21,0,0,1,121.68,28.93Z"/><path class="cls-1" d="M140.89,28.38A16.62,16.62,0,0,1,138.81,36q-1.22,2.41-2.52,4.8c-2.23,4.07-1.87,8,.48,11.89.27.43.55.86.79,1.31a1.79,1.79,0,0,1-.63,2.55,1.73,1.73,0,0,1-2.58-.46c-3.12-4.55-4.59-9.4-2.52-14.85a38.17,38.17,0,0,1,3-6c2.89-4.8,2.87-9.45-.32-14.1-.87-1.27-.68-2.36.35-3s2.11-.33,3,1A17.1,17.1,0,0,1,140.89,28.38Z"/><path class="cls-1" d="M35.54,157.72C25.35,151,19.23,142.1,17.83,130.48a115.63,115.63,0,0,1-.28-16.76c.07-2.56-.73-3.24-3.13-3a14.27,14.27,0,0,1-4.74-.35A12.71,12.71,0,0,1,0,97.35,12.5,12.5,0,0,1,12.09,85.7c7.32-.23,14.66-.25,22,0,3.53.12,4.73-.67,4.69-4.5-.21-20.65-.14-41.3-.08-61.95,0-10.44,5.79-17.6,15.09-19A17.5,17.5,0,0,1,74.12,16.62c.12,3.07.82,4,3.94,3.86,5.17-.27,5.53.13,5.33,5.32-.12,3,.23,4.84,3.9,4.24,2.4-.39,3.35,1.11,3.36,3.35v.8C90.56,47.26,92,45,80,45.17c-7.32.09-14.65-.1-22,.08-3.17.07-4.39-1.16-4.22-4.2a37.45,37.45,0,0,0,0-5.19c-.34-3.9.3-6.77,5.26-5.87,1.62.29,2.12-.55,2-2.06-.09-.92.07-1.87,0-2.79-.4-3.65,1.14-5.36,4.81-4.72s3.89-1.2,3.57-4a13.27,13.27,0,0,0-13-11.73A12.92,12.92,0,0,0,43.65,16.15a35.4,35.4,0,0,0-.17,4c0,20.39.08,40.77-.1,61.15,0,3.5.79,4.43,4.37,4.42q68.35-.19,136.7-.08c2.39,0,4.79-.1,7.09.8,5.36,2.1,8.87,7.93,8,13.36a12.77,12.77,0,0,1-12,10.95c-5.39.33-5.34.33-5.4,5.83-.07,6.24.45,12.51-1.23,18.67-2.56,9.41-8.14,16.59-16.52,22.32,2,1.84,3.83,3.39,5.52,5.07a2.34,2.34,0,1,1-3.3,3.33c-.1-.08-.24-.15-.3-.26-3.51-5.68-8.25-6.18-14.06-3.77-2.69,1.11-5.77.82-8.7.82q-43.77,0-87.54,0a37,37,0,0,1-13.33-2c-2.47-.94-3.92-.46-5.47,1.39A41.39,41.39,0,0,1,33,166.4a2.31,2.31,0,0,1-3.54-.11,2.19,2.19,0,0,1,.23-3.23C31.53,161.3,33.44,159.63,35.54,157.72Z"/><path class="cls-1" d="M65.88,52.39c-.08,1.66-.26,3.41-2.42,3.37-2.43,0-2.39-2-2.42-3.77s.4-3.45,2.41-3.4C65.74,48.64,65.88,50.59,65.88,52.39Z"/><path class="cls-1" d="M74.68,52.24c-.09,1.52,0,3.51-2.46,3.52-2.17,0-2.35-1.75-2.38-3.41s.15-3.74,2.45-3.76C74.31,48.57,74.66,50.33,74.68,52.24Z"/><path class="cls-1" d="M65.89,63.57c-.09,1.6-.13,3.53-2.59,3.43-2.17-.09-2.24-1.89-2.26-3.51,0-1.81.23-3.73,2.57-3.63C65.66,59.94,65.86,61.74,65.89,63.57Z"/><path class="cls-1" d="M74.68,63.93c-.13,1.71-.53,3.33-2.7,3.05-2.41-.3-2.13-2.33-2.12-4s.59-3.36,2.66-3.08C74.81,60.18,74.64,62.21,74.68,63.93Z"/><path class="cls-1" d="M83.06,52.28c0,1.87-.26,3.49-2.43,3.45-2.47,0-2.36-2-2.41-3.74s.44-3.42,2.44-3.37C82.93,48.68,83.17,50.56,83.06,52.28Z"/><path class="cls-1" d="M83.05,63.55c.06,1.86-.28,3.46-2.41,3.42-2.44,0-2.37-1.94-2.41-3.72s.47-3.41,2.43-3.36C82.91,60,83.18,61.81,83.05,63.55Z"/><path class="cls-2" d="M99.83,111.65c24.64,0,49.28,0,73.92-.06,2.85,0,4,.47,3.73,3.61-.49,5.82.44,11.7-.7,17.52-3,15.09-15.56,26-31,26.05q-45.94.24-91.89,0A31.88,31.88,0,0,1,22.3,127.21c-.08-4.13.16-8.27-.09-12.39-.16-2.69.77-3.23,3.3-3.22C50.28,111.69,75.06,111.65,99.83,111.65Z"/><path class="cls-2" d="M99.61,106.86q-42.77,0-85.52,0c-6.62,0-10.57-4.57-8.81-10a7.12,7.12,0,0,1,6.28-5.33A35.65,35.65,0,0,1,16,91.32H183.78c7.4,0,11.19,2.71,11.08,7.88-.1,5-3.88,7.66-10.93,7.67Z"/><path class="cls-2" d="M72.35,35.68c3.45,0,6.91.13,10.35,0C85,35.53,86,35.92,86,38.58c0,2.44-1,2.78-3,2.75-7-.11-14.06-.13-21.09,0-2.26,0-3.22-.3-3.27-2.94-.06-3,1.53-2.75,3.47-2.72C65.45,35.72,68.9,35.68,72.35,35.68Z"/><path class="cls-2" d="M71.9,30.9c-1.32,0-2.66-.11-4,0-1.92.19-2.15-.84-2.12-2.39s0-2.58,2-2.48c2.78.13,5.57.13,8.34,0,1.84-.08,2.58.41,2.55,2.4s-.51,2.67-2.47,2.48C74.82,30.78,73.35,30.9,71.9,30.9Z"/></g></g></svg>