<svg xmlns="http://www.w3.org/2000/svg" viewBox="0 0 200 193.97"><defs><style>.cls-1{fill:#3bd8ff;}.cls-2{fill:#fff;}</style></defs><g id="Layer_2" data-name="Layer 2"><g id="Layer_1-2" data-name="Layer 1"><path class="cls-1" d="M.33,116.57c1.31-9.6,6-17.12,14.22-22.2,7.18-4.43,14.58-8.5,21.88-12.74a3.89,3.89,0,0,1,3.55-.4,1.63,1.63,0,0,0,1.9-.42C56.81,69.17,70,55.93,80.15,39.78a101,101,0,0,0,7.53-14.49,3.61,3.61,0,0,0,.2-2.42,16.5,16.5,0,0,1,30.31-12.34c5.28,9,10.43,18,15.58,27,.71,1.25,1.16,1.69,2.72,1a18.45,18.45,0,0,1,18.33,31.64c-1.29,1-1.3,1.6-.53,2.9C159.52,82,164.72,90.92,169.8,99.9c5.43,9.6,1,21.19-9.35,24.29a15.79,15.79,0,0,1-15.8-3.51,6.68,6.68,0,0,0-4-1.71c-18.1-2-35.64.87-52.92,6a168,168,0,0,0-17.24,6.2c0,.64.47,1,.79,1.42q10.09,13.29,20.21,26.55c4,5.25,3.62,9.81-1.22,14.27C88.63,175,87,176.51,85.25,178c-4.8,4.33-10.64,3.82-14.55-1.29-7.28-9.5-14.59-19-21.8-28.52-1-1.27-1.59-1.31-2.93-.58A31,31,0,0,1,.48,126.25a12.27,12.27,0,0,1-.13-1.36c-.39-.62.12-1.4-.35-2v-4.3C.46,118,0,117.2.33,116.57Z"/><path class="cls-1" d="M186.47,71.84c-3,0-6,0-9,0-2.69,0-4.42-1.6-4.4-3.9s1.7-3.85,4.27-3.88q9.18-.09,18.35,0c2.66,0,4.37,1.75,4.29,4s-1.73,3.7-4.36,3.73C192.58,71.87,189.53,71.84,186.47,71.84Z"/><path class="cls-1" d="M163,4a4.4,4.4,0,0,1-.82,2.43q-4.42,7.67-8.85,15.32c-1.44,2.47-3.61,3.23-5.67,2s-2.53-3.42-1.09-5.92q4.49-7.84,9-15.66A3.89,3.89,0,0,1,163,4Z"/><path class="cls-1" d="M187.17,32.64A3.69,3.69,0,0,1,185.24,36c-5.21,3-10.41,6.07-15.66,9a3.79,3.79,0,0,1-5.26-1.35,3.68,3.68,0,0,1,1.24-5.26c5.34-3.19,10.71-6.33,16.17-9.3A3.74,3.74,0,0,1,187.17,32.64Z"/><path class="cls-2" d="M92.3,32.8l44.88,77.72c-.5.45-1,.26-1.49.23-20.12-1.19-39.43,2.71-58.31,9.27-3.55,1.23-7.06,2.61-10.54,4-1.08.44-1.53.23-2.09-.75q-9.68-16.89-19.48-33.73c-.71-1.22-.34-1.72.6-2.45A185.74,185.74,0,0,0,70.43,64.61,134.46,134.46,0,0,0,92.3,32.8Z"/><path class="cls-2" d="M154.15,117.1c-2.71,0-5.25-1.85-7.05-5q-10.95-19.08-22-38.12l-29-50.24c-2.62-4.55-1.78-9.45,2.06-12.16,4.37-3.08,10-1.73,12.87,3.14q7.83,13.45,15.58,27,17.72,30.69,35.44,61.38c1.27,2.21,2.08,4.44,1.51,7C162.67,114.25,159.29,117.07,154.15,117.1Z"/><path class="cls-2" d="M32.22,143.74c-12.21,0-21.29-6.85-24.13-16.82A23.08,23.08,0,0,1,18.1,101c5.69-3.5,11.56-6.72,17.32-10.11.9-.53,1.35-.55,1.93.47q10.84,18.92,21.81,37.77c.55.94.5,1.38-.49,1.94-5.65,3.2-11.25,6.49-16.89,9.7A21.26,21.26,0,0,1,32.22,143.74Z"/><path class="cls-2" d="M63.92,137c.49,0,.64.4.85.68l20.46,26.86a1.75,1.75,0,0,1-.31,2.71c-1.9,1.68-3.78,3.39-5.64,5.11-1.11,1-2,.91-2.92-.3Q65.59,158,54.76,143.9c-.72-.93-.61-1.31.37-1.84,2.67-1.47,5.3-3,7.95-4.54Z"/><path class="cls-2" d="M138.17,46.1a10.66,10.66,0,0,1,13.6,3.63,10.77,10.77,0,0,1-1.56,13.72c-.93.88-1.44,1.15-2.22-.24C144.8,57.49,141.48,51.84,138.17,46.1Z"/><path class="cls-2" d="M168.34,141a.79.79,0,0,1,0-1Z"/><path class="cls-2" d="M168.34,142.74a.79.79,0,0,1,0-1.05Z"/><path class="cls-2" d="M168.19,138.69c0-.18-.14-.41.15-.52v.53C168.28,138.82,168.23,138.81,168.19,138.69Z"/><path class="cls-2" d="M168.19,138.69h.15v.53C168.13,139.09,168.16,138.89,168.19,138.69Z"/><path class="cls-2" d="M168.18,144c0-.2-.05-.4.16-.54V144C168.29,144.06,168.24,144.06,168.18,144Z"/><path class="cls-2" d="M168.18,144h.16v.35C168.14,144.27,168.17,144.12,168.18,144Z"/><path class="cls-1" d="M127.67,194h-.62c-.16-.16-.38-.08-.57-.1s-.33,0-.45.1h-1a1.17,1.17,0,0,0-1,0h-.82a1.66,1.66,0,0,0-1.24,0h-.82c-.12-.13-.29-.09-.44-.1h-.35c-.15,0-.32,0-.44.1H119c-2.09-.32-4.21-.25-6.29-.7a52.27,52.27,0,0,1-23.38-11.45A51.59,51.59,0,0,1,71.15,149a68.1,68.1,0,0,1-.26-11.16,42.59,42.59,0,0,1,1.53-10.53A52.33,52.33,0,0,1,85.1,104.91a51.51,51.51,0,0,1,30.75-16,64.21,64.21,0,0,1,11.27-.27,42,42,0,0,1,7.83.86,53.48,53.48,0,0,1,35.91,27.85,49.21,49.21,0,0,1,4.95,15.17c.22,1.48.14,3,.38,4.47v.61c-.18.19-.08.41-.1.62s-.08.44.1.62v.82a1.64,1.64,0,0,0,0,1.23c0,.14.13,1.26.13,2.39s-.13,2.37-.13,2.55c-.32,2.25-.3,4.54-.81,6.79a53.38,53.38,0,0,1-37.92,39.87,36,36,0,0,1-9.1,1.34C128.13,193.88,127.88,193.8,127.67,194Z"/><path class="cls-2" d="M126.91,186.27h-.53c-.14-.14-.32-.07-.49-.09s-.28,0-.38.09h-.88a1,1,0,0,0-.88,0h-.7a1.36,1.36,0,0,0-1,0h-.71c-.1-.11-.24-.08-.37-.09h-.3c-.14,0-.27,0-.38.09h-.7c-1.78-.27-3.6-.21-5.37-.6a44.68,44.68,0,0,1-20-9.77,44.06,44.06,0,0,1-15.56-28,59.42,59.42,0,0,1-.22-9.53,35.84,35.84,0,0,1,1.31-9,44.52,44.52,0,0,1,10.82-19.11A44,44,0,0,1,116.82,96.6a55.14,55.14,0,0,1,9.62-.23,35.05,35.05,0,0,1,6.69.74,45.56,45.56,0,0,1,30.65,23.77,41.73,41.73,0,0,1,4.23,13c.19,1.27.12,2.55.33,3.82v.52c-.15.16-.07.35-.09.53s-.06.37.09.53v.7a1.36,1.36,0,0,0,0,1v.71a1.37,1.37,0,0,0,0,1.05v.7c-.14.14-.07.33-.09.49s0,.28.09.39v.88c-.28,1.92-.26,3.88-.7,5.79a45.55,45.55,0,0,1-32.37,34,30.55,30.55,0,0,1-7.77,1.15C127.3,186.19,127.09,186.12,126.91,186.27Z"/><path class="cls-1" d="M155.09,127.09a6.24,6.24,0,0,1-2,4.81l-21.15,19.76c-5.62,5.25-11.27,10.47-16.87,15.73-.53.49-.77.51-1.27,0q-10-10.76-20-21.48a5.86,5.86,0,0,1-1.46-6.3,5.66,5.66,0,0,1,5-4,6,6,0,0,1,5.3,2.16c3.9,4.2,7.83,8.36,11.71,12.58.56.61.84.55,1.4,0q9.42-8.87,18.89-17.68c3.47-3.23,6.93-6.46,10.42-9.66a5.73,5.73,0,0,1,6.51-1.12A5.65,5.65,0,0,1,155.09,127.09Z"/></g></g></svg>