<svg xmlns="http://www.w3.org/2000/svg" viewBox="0 0 199.88 171.43"><defs><style>.cls-1{fill:#fff;}.cls-2{fill:#3bd8ff;}</style></defs><g id="Layer_2" data-name="Layer 2"><g id="Layer_1-2" data-name="Layer 1"><path class="cls-1" d="M196.83,35.77c0,8.69,4.82,19-.88,26.08s16.33,3.45-14,3.23c-22.53-.17-49.6,9.26-49.66-3.74s2-45.17.92-52.47c-.34-2.14,1.64-3.29,31.44-3.27,27.72,0,30.67-2.67,30.29-.34C193.45,14.27,196.83,26.76,196.83,35.77Z"/><path class="cls-2" d="M0,112.71c.73-1.45,1-3.08,1.84-4.5a13.32,13.32,0,0,1,9.55-6.54A42.08,42.08,0,0,0,34.28,89.89c8.53-8.32,18.91-12,30.64-12,10.8,0,21.59,0,32.39,0a44.63,44.63,0,0,1,26,8.07c7.64,5.24,15.1,10.77,23.06,15.52a34.4,34.4,0,0,0,11.32,4c.83.17,1.15,0,1.14-.93q0-16.28,0-32.54c0-1.38-.74-1.25-1.6-1.24H138.73c-6,0-8.58-2.64-8.59-8.67,0-4.36,0-8.73,0-13.09,0-.4,0-.8,0-1.19.14-2,1.3-3.34,2.91-3.29s2.77,1.34,2.78,3.42c0,4.56,0,9.12,0,13.69,0,3.39,0,3.39,3.39,3.39h51.91c2.83,0,2.93-.1,2.93-3V8.64c0-2.69-.13-2.83-2.72-2.83H138.67c-2.68,0-2.82.15-2.82,3V27.21a8.56,8.56,0,0,1-.11,2,2.67,2.67,0,0,1-2.82,2.24,2.52,2.52,0,0,1-2.6-2.21,8.61,8.61,0,0,1-.17-1.76c0-6.42,0-12.83,0-19.25C130.18,2.84,133,0,138.23,0H191.7c5.32,0,8.13,2.88,8.13,8.35q0,27.08,0,54.16c0,5.39-2.74,8.22-8,8.25s-10.8.06-16.2,0c-1.45,0-2,.25-2,1.9q.12,17.16,0,34.32c0,1.48.5,1.89,1.76,2.11,4.73.84,9.54,1.51,13.61,4.4,6.77,4.81,11,11.09,10.85,19.85-.07,4.24,0,8.47,0,12.7-.05,6.89-4.46,11.59-11.26,11.37-3.32-.11-4.9.78-6.45,3.95-3.4,6.91-9.49,10.29-17.05,10-8-.32-13.73-4.43-16.82-12a2.49,2.49,0,0,0-2.8-1.87q-45.27.07-90.55,0c-1.26,0-2,.13-2.57,1.62a18.67,18.67,0,0,1-35.62-1.66,3,3,0,0,0-1.89-2.25c-2.69-1.12-5.29-2.49-8-3.55A10.54,10.54,0,0,1,0,144.45Z"/><path class="cls-2" d="M154.94,34.54V19.68c0-2.51.52-3.13,2.89-3.14,3.64,0,7.28-.06,10.91.13,5.37.27,8.88,3.92,9.23,9.34a18.33,18.33,0,0,1-.15,4.74c-1,4.9-4.23,7.81-9.17,8.18-2,.14-4,.19-6,.14-1.11,0-1.44.3-1.42,1.43.08,3,0,6.08,0,9.11,0,2.09-1,2.94-3.25,2.9s-3-.83-3-2.91C154.93,44.58,154.94,39.56,154.94,34.54Z"/><path class="cls-1" d="M5.5,128.16v-11.7c0-6.12,1.89-8.52,7.77-9.63A44.6,44.6,0,0,0,37.18,94.44a37.5,37.5,0,0,1,7.23-5.68,35.05,35.05,0,0,1,18.11-5.32c12.48-.08,25-.15,37.46,0a34.81,34.81,0,0,1,19.47,6.64c5,3.49,10.26,6.76,15.15,10.45a60.28,60.28,0,0,0,27.6,11.51,151,151,0,0,1,20,4.26c5.87,1.76,12.23,9.51,11.78,16.13-.3,4.41,0,8.85-.07,13.28,0,3.67-1.93,5.56-5.56,5.57-1.23,0-2.68.36-3.63-.18s-.5-2.16-.75-3.29c-1.9-8.72-9.85-15.27-18.37-15.14A19.16,19.16,0,0,0,147,148.05c-.66,3.27-.66,3.27-4,3.27q-43.71,0-87.41,0c-1.75,0-2.26-.46-2.41-2.24-.63-7.82-7.74-15-15.7-16.12-10-1.38-18.81,4.61-21.22,14.6-.3,1.21-.53,1.56-1.74,1-2.26-1.14-4.58-2.17-6.92-3.14A3.2,3.2,0,0,1,5.49,142C5.52,137.42,5.5,132.79,5.5,128.16Z"/><path class="cls-1" d="M34.6,165.29A13.37,13.37,0,1,1,47.77,152,13.29,13.29,0,0,1,34.6,165.29Z"/><path class="cls-1" d="M165.53,165.29a13.37,13.37,0,1,1,13.09-13.54A13.2,13.2,0,0,1,165.53,165.29Z"/><path class="cls-1" d="M167.75,89c0,5.35,0,10.7-.05,16,0,.65.89,2.13-.77,2-1.24-.11-2.81.14-2.72-2.3.22-6.27.07-12.55.07-18.82,0-4.49,0-9,0-13.47,0-1.32.09-2,1.72-2s1.82.49,1.8,1.92C167.7,77.86,167.75,83.41,167.75,89Z"/><path class="cls-1" d="M161,27.8V26.61c0-4.76,0-4.76,1.77-4.77,7.1,0,8.69,1,8.76,5.65.07,4.48-1.61,6.23-6,6.28s-4.49,0-4.49-4.59Z"/><path class="cls-2" d="M101,120.73H63.94c-.59,0-1.17,0-1.76,0a2.77,2.77,0,0,1-2.87-2.83,2.69,2.69,0,0,1,2.85-2.83c2.54-.08,5.08-.1,7.61,0,1.29,0,1.81-.21,1.79-1.69-.09-6-.08-12,0-18.06,0-1.3-.34-1.64-1.61-1.63-5.53,0-11.06-.16-16.34,2A27,27,0,0,0,45,100.92c-4.19,4-8.52,7.76-13.64,10.48-.94.5-1.62,1.17-1.29,2.35S31.28,115,32.23,115c3.51,0,7,0,10.54,0,2.25,0,3.41,1,3.39,2.9s-1.16,2.78-3.3,2.8c-3.71,0-7.41.06-11.12,0a7.2,7.2,0,0,1-7.22-5.49,7.09,7.09,0,0,1,3.3-8.34C33,103.89,37.43,100,41.91,96A30.9,30.9,0,0,1,62,88.08c12.55-.27,25.1-.22,37.66,0,6.9.11,13,2.56,18.74,6.39,7.2,4.85,14.21,10,21.57,14.6a8.71,8.71,0,0,1,4.34,6.67,4.28,4.28,0,0,1-3.9,5,19.12,19.12,0,0,1-2.14.06Z"/><path class="cls-2" d="M79.73,131c-1.3,0-2.6,0-3.9,0-1.89-.07-3.11-1.19-3.15-2.82a2.89,2.89,0,0,1,2.83-2.93c2.91-.12,5.84-.13,8.75,0a2.7,2.7,0,0,1,2.8,3.1c-.18,1.84-1.36,2.6-3,2.65C82.58,131,81.15,131,79.73,131Z"/><path class="cls-2" d="M43.41,152.25a8.72,8.72,0,0,1-8.48,8.8,8.83,8.83,0,0,1-8.75-8.8,8.74,8.74,0,0,1,8.74-8.75A8.64,8.64,0,0,1,43.41,152.25Z"/><path class="cls-2" d="M166,143.52a8.76,8.76,0,1,1-8.87,8.58A8.75,8.75,0,0,1,166,143.52Z"/><path class="cls-1" d="M137.49,114.69h-22.2c-12.16,0-24.32,0-36.48,0-1.49,0-1.82-.4-1.8-1.87.09-5.88.08-11.76,0-17.64,0-1.39.18-1.94,1.75-1.9,7.28.23,14.56-.22,21.84.27a27.74,27.74,0,0,1,13.62,4.82c7.67,5.07,15.06,10.57,22.87,15.42a5.71,5.71,0,0,0,.7.35Z"/><path class="cls-1" d="M37.55,152a3,3,0,0,1-3.07,2.91,2.9,2.9,0,0,1-2.77-3,3,3,0,0,1,2.83-3A3.12,3.12,0,0,1,37.55,152Z"/><path class="cls-1" d="M165.59,148.94a3,3,0,0,1,2.82,3.17,2.93,2.93,0,0,1-3,2.76,3,3,0,0,1-2.85-2.93A3.09,3.09,0,0,1,165.59,148.94Z"/></g></g></svg>