<svg xmlns="http://www.w3.org/2000/svg" viewBox="0 0 200 169.57"><defs><style>.cls-1{fill:#3bd8ff;}</style></defs><g id="Layer_2" data-name="Layer 2"><g id="Layer_1-2" data-name="Layer 1"><path d="M200,66c-1,2.67-1,5.53-1.7,8.27-3.57,14.15-11.4,25.4-22.67,34.55q-36,29.21-71.78,58.64c-3.4,2.78-4.38,2.81-7.75.05Q59.23,137.4,22.37,107.26A58.78,58.78,0,0,1,.72,68.82c-2.21-15.41.58-29.89,9.45-42.74C23.27,7.1,41.55-1.59,64.6.35A53.9,53.9,0,0,1,98.89,16.21c.89.89,1.28.75,2.1,0C113.22,4.3,128-1.07,144.85.18,169.9,2,186.62,15.65,196.06,38.59a53.38,53.38,0,0,1,3.56,14.92c0,.31,0,.66.38.78v2a.91.91,0,0,0,0,1.18v5.85a.51.51,0,0,0,0,.79Z"/><path d="M200,57.42c-.45-.39-.6-.79,0-1.18Z"/><path d="M200,64.06c-.53-.26-.42-.52,0-.79Z"/><path class="cls-1" d="M192.09,60.94c-.47,15.93-6.41,29.9-19.37,40.52Q136.95,130.77,101.13,160c-.77.63-1.24,1-2.24.14C74.81,140.41,50.64,120.75,26.58,101,15.43,91.77,9.46,79.72,8.12,65.43,6.74,50.63,10.7,37.4,20.33,26c18-21.45,48.72-22.64,68.23-8a72.14,72.14,0,0,1,8,7.41c2.32,2.37,4.45,2.45,6.69,0,5.58-6.07,12-11,19.76-13.84,31.32-11.46,62,8,68,38.16A65.74,65.74,0,0,1,192.09,60.94Z"/><path d="M100.54,71.26c21.84-.1,40,18.76,38.58,40.08a16.73,16.73,0,0,1-17.65,15.36c-6.36-.49-12.7-1.17-19-1.83-3.54-.36-7,.48-10.48.69-5.06.3-10.06,1.53-15.16,1A16.69,16.69,0,0,1,62.07,110.9C61.11,89.61,78.82,71.35,100.54,71.26Z"/><path d="M118.2,64.1a15.59,15.59,0,0,1-15.57-15.45,15.66,15.66,0,1,1,31.31.13A15.67,15.67,0,0,1,118.2,64.1Z"/><path d="M81.62,64.1a15.62,15.62,0,0,1,0-31.24A15.42,15.42,0,0,1,97.31,48.77,15.58,15.58,0,0,1,81.62,64.1Z"/><path d="M143.91,58.54a13.48,13.48,0,0,1,13.53,13.29,13.51,13.51,0,1,1-13.53-13.29Z"/><path d="M42.51,72A13.19,13.19,0,0,1,56.15,58.54a13.51,13.51,0,0,1,0,27A13.22,13.22,0,0,1,42.51,72Z"/><path class="cls-1" d="M69.86,109.19c.43-15.77,12.92-28.51,29.05-29.62a30.82,30.82,0,0,1,32,25.28,28.72,28.72,0,0,1,.44,5.62,9,9,0,0,1-10,8.84c-5.82-.55-11.64-1.08-17.45-1.75-5.51-.63-10.88.65-16.31,1-2.34.14-4.66.47-7,.68C73.86,119.82,69.68,115.93,69.86,109.19Z"/><path class="cls-1" d="M118.22,56.68a7.64,7.64,0,0,1-7.77-8A7.81,7.81,0,0,1,118.2,41a7.94,7.94,0,0,1,7.93,7.74A7.74,7.74,0,0,1,118.22,56.68Z"/><path class="cls-1" d="M89.5,48.81a7.83,7.83,0,1,1-15.66.06,7.83,7.83,0,0,1,15.66-.06Z"/><path class="cls-1" d="M138.24,72.43a5.69,5.69,0,0,1,11.38,0,5.69,5.69,0,1,1-11.38,0Z"/><path class="cls-1" d="M55.94,78.16a5.7,5.7,0,0,1-5.68-5.71A5.54,5.54,0,0,1,56,66.8a5.65,5.65,0,0,1,5.73,5.66A5.82,5.82,0,0,1,55.94,78.16Z"/></g></g></svg>