<svg xmlns="http://www.w3.org/2000/svg" viewBox="0 0 199.96 200"><defs><style>.cls-1{fill:#3bd8ff;}</style></defs><g id="Layer_2" data-name="Layer 2"><g id="Layer_1-2" data-name="Layer 1"><path d="M7.8,200c-.33-.6-1-.51-1.52-.72A10,10,0,0,1,.2,188.06Q9.38,143,18.59,97.93q6.09-29.88,12.22-59.76a9.75,9.75,0,0,1,10-8.14c11.26,0,22.52-.06,33.78,0,1.81,0,2.1-.52,2.08-2.16-.08-7.75,0-15.49,0-23.24a8.89,8.89,0,0,1,.17-2.13A3.25,3.25,0,0,1,80.25,0a3.12,3.12,0,0,1,3,3.06c.1,2.86.1,5.73,0,8.59,0,1.2.19,1.69,1.56,1.68q15.14-.09,30.27,0c1.29,0,1.67-.35,1.61-1.63-.1-2.21,0-4.43,0-6.64,0-3.54,1-5.12,3.37-5.07s3.3,1.63,3.3,5c0,7.75,0,15.5,0,23.24,0,1.49.39,1.82,1.84,1.81,11.06-.07,22.13,0,33.19,0,6.15,0,9.77,2.83,11,8.84q6.76,32.94,13.45,65.88,8.29,40.68,16.62,81.35c.15.72-.06,1.57.56,2.18v3.91c-1,4.45-3.62,7.15-8.2,7.81Z"/><path class="cls-1" d="M100,192.36H11.53C7.39,192.36,6.2,191,7,187q8.29-40.76,16.62-81.52L37.1,39.44c.6-3,1.49-3.74,4.46-3.74,11.13,0,22.25,0,33.38,0,1.37,0,1.72.33,1.71,1.71-.07,8,0,16,0,24a4.21,4.21,0,0,0,1,3.26,3.11,3.11,0,0,0,3.4.83,3.07,3.07,0,0,0,2.25-3.07c0-2.79.08-5.59,0-8.39,0-1.22.22-1.7,1.59-1.69q15.14.09,30.26,0c1.38,0,1.62.49,1.59,1.7-.08,2.6,0,5.2,0,7.81,0,2.33,1.29,3.81,3.23,3.85s3.41-1.5,3.42-3.91c0-8.07.06-16.15,0-24.22,0-1.54.41-1.9,1.91-1.89,11.07.07,22.13,0,33.19,0,2.9,0,3.86.79,4.43,3.56l28.83,141.28c.51,2.48,1,5,1.5,7.45a3.39,3.39,0,0,1-3.39,4.36c-.58,0-1.17,0-1.75,0Z"/><path class="cls-1" d="M100.16,29C95.09,29,90,29,85,29.07c-1.4,0-1.76-.41-1.7-1.75.11-2.34.07-4.68,0-7,0-1,.28-1.34,1.32-1.34q15.4,0,30.81,0c1.06,0,1.33.36,1.3,1.35-.06,2.4-.08,4.81,0,7.22,0,1.19-.3,1.55-1.52,1.54C110.18,29,105.17,29,100.16,29Z"/><path class="cls-1" d="M100,35.7c5.08,0,10.15,0,15.22,0,1.2,0,1.56.32,1.51,1.53-.09,2.4-.06,4.81,0,7.21,0,.91-.25,1.27-1.21,1.27q-15.49,0-31,0c-1,0-1.23-.35-1.21-1.26,0-2.41.09-4.82,0-7.22,0-1.2.3-1.55,1.51-1.53C89.83,35.74,94.9,35.7,100,35.7Z"/><path d="M99.78,186.69H23.63c-6.11,0-8.86-3.27-7.65-9.23q9.69-47.65,19.44-95.28,3.34-16.43,6.71-32.84c.84-4.11,3.17-6,7.36-6q8.2,0,16.4,0c2.65,0,4.1,1.25,4,3.41S68.45,50,65.92,50c-5.27,0-10.55,0-15.82,0-1.06,0-1.44.33-1.65,1.35Q35.54,114.91,22.53,178.48c-.29,1.43,0,1.57,1.31,1.57q76.14,0,152.29,0c1.29,0,1.57-.19,1.29-1.58q-8.4-40.84-16.68-81.72c-3.06-15-6.16-30-9.17-45.06-.27-1.35-.73-1.76-2.12-1.73-5.14.09-10.28,0-15.43,0-2.53,0-4-1.19-4-3.25s1.39-3.39,4-3.4c5.54,0,11.07,0,16.6,0,3.93,0,6.35,2,7.14,5.8q8.8,43,17.58,86.11l8.67,42.58c1.08,5.28-1.78,8.84-7.15,8.84Z"/><path d="M120.22,166.68a14.93,14.93,0,0,1-8.93-3.27c-1-.8-1.52-1-2.54-.08a14.16,14.16,0,0,1-8,3.26c-2.15.22-3.73-.83-4-2.73a3.16,3.16,0,0,1,3-3.78,9.49,9.49,0,0,0,7.33-4.85,3.3,3.3,0,0,1,5.8-.15,9.8,9.8,0,0,0,7.64,5,3.18,3.18,0,0,1,2.78,3.61A3.28,3.28,0,0,1,120.22,166.68Z"/><path d="M62.44,163.27a14.23,14.23,0,0,1-8-3.33c-1-.81-1.45-.68-2.33.05a14.17,14.17,0,0,1-8.37,3.28,3.31,3.31,0,1,1-.6-6.59,8.89,8.89,0,0,0,7.05-4.54c1.63-2.7,4.61-2.71,6.25,0a8.92,8.92,0,0,0,7,4.55,3.29,3.29,0,0,1,3.1,3.57C66.44,162.16,64.94,163.36,62.44,163.27Z"/><path d="M83.63,143.33a3.36,3.36,0,0,1-3.59-3,3.16,3.16,0,0,1,3-3.63,9.22,9.22,0,0,0,7.33-4.8,3.36,3.36,0,0,1,6,.06,9.22,9.22,0,0,0,7.35,4.75,3.21,3.21,0,0,1,2.89,3.54,3.31,3.31,0,0,1-3.63,3,14.17,14.17,0,0,1-8.37-3.26c-1-.82-1.51-.89-2.52,0A14.64,14.64,0,0,1,83.63,143.33Z"/><path d="M152.83,143.32a15,15,0,0,1-8.57-3.52c-.72-.62-1.14-.68-1.9,0a14.86,14.86,0,0,1-7.9,3.46c-2.35.35-4.13-.76-4.41-2.72s.92-3.5,3.35-3.85a9,9,0,0,0,6.74-4.43c1.71-2.83,4.63-2.87,6.32-.07a9.11,9.11,0,0,0,7.08,4.54,3.25,3.25,0,0,1,3.05,3.58A3.42,3.42,0,0,1,152.83,143.32Z"/><path d="M112.82,86.65a15,15,0,0,1-8.5-3.48c-.81-.71-1.27-.65-2,0a14.84,14.84,0,0,1-7.92,3.4c-2.33.33-4-.81-4.32-2.85s1-3.38,3.3-3.72a9.06,9.06,0,0,0,6.87-4.54c1.63-2.71,4.61-2.74,6.23,0a9.16,9.16,0,0,0,7,4.61,3.25,3.25,0,0,1,3.09,3.71A3.34,3.34,0,0,1,112.82,86.65Z"/><path d="M72.59,89.92a14.21,14.21,0,0,1-8.22-3.37,1.33,1.33,0,0,0-2.09,0,14.12,14.12,0,0,1-8.53,3.39A3.28,3.28,0,0,1,50,87.05a3.23,3.23,0,0,1,3-3.67,9.43,9.43,0,0,0,7.47-4.92,3.33,3.33,0,0,1,5.82.05,9.31,9.31,0,0,0,7.29,4.85,3.23,3.23,0,0,1,3,3.83C76.31,88.93,74.91,90,72.59,89.92Z"/><path d="M130.34,123.37c-4-.35-6.89-1.42-9.33-3.5-.8-.68-1.25-.72-2.07,0a14.69,14.69,0,0,1-8.14,3.41c-2.18.25-3.89-.94-4.14-2.89s1-3.35,3.18-3.66a9.32,9.32,0,0,0,7.16-4.79,3.32,3.32,0,0,1,5.92-.07,9.64,9.64,0,0,0,7.51,4.91,3.13,3.13,0,0,1,2.77,3.77A3.24,3.24,0,0,1,130.34,123.37Z"/><path d="M149.64,100a14.64,14.64,0,0,1-8.39-3.27c-.95-.8-1.49-1-2.5-.06a14.26,14.26,0,0,1-7.58,3.25c-2.44.36-4.23-.8-4.51-2.87s1.09-3.36,3.55-3.72a8.73,8.73,0,0,0,6.46-4.2c2-3.12,4.69-3.12,6.65,0a8.84,8.84,0,0,0,6.84,4.24,3.19,3.19,0,0,1,3.06,3.56A3.32,3.32,0,0,1,149.64,100Z"/><path d="M160.32,166.68a15.3,15.3,0,0,1-9.22-3.4c-.85-.72-1.31-.82-2.23,0a14.42,14.42,0,0,1-8.15,3.36c-2.11.21-3.76-.92-4-2.77a3.19,3.19,0,0,1,3-3.76,9.49,9.49,0,0,0,7.32-4.87,3.29,3.29,0,0,1,5.8-.1,9.82,9.82,0,0,0,7.65,5,3.14,3.14,0,0,1,2.74,3.63A3.27,3.27,0,0,1,160.32,166.68Z"/><path d="M90.51,116.69c-4-.3-6.9-1.3-9.28-3.34-1-.87-1.61-.74-2.55.05a14.37,14.37,0,0,1-8,3.2A3.34,3.34,0,0,1,66.75,114a3.14,3.14,0,0,1,2.87-3.86,9.6,9.6,0,0,0,7.48-5,3.29,3.29,0,0,1,5.8,0,9.62,9.62,0,0,0,7.49,4.94,3.22,3.22,0,0,1,2.89,3.53C93.1,115.46,91.53,116.74,90.51,116.69Z"/><path d="M62.52,133.25a13.65,13.65,0,0,1-7.84-3.14c-1-.85-1.57-1-2.68-.05a13.34,13.34,0,0,1-8.2,3.19c-2.1.1-3.51-1-3.76-2.84a3.19,3.19,0,0,1,2.92-3.7,9.32,9.32,0,0,0,7.47-4.91,3.33,3.33,0,0,1,5.82,0,9.44,9.44,0,0,0,7.5,4.89,3.19,3.19,0,0,1,2.84,3.59C66.4,132.17,65,133.31,62.52,133.25Z"/></g></g></svg>