<svg xmlns="http://www.w3.org/2000/svg" viewBox="0 0 200.02 200"><defs><style>.cls-1{fill:#070707;}.cls-2{fill:#3bd8ff;}</style></defs><g id="Layer_2" data-name="Layer 2"><g id="Layer_1-2" data-name="Layer 1"><path d="M55.47,199.61c-2-.67-2.37-2.17-2.07-4a149,149,0,0,0,1.85-14.9c1-14.52-3.65-26.55-15.3-35.66-4.35-3.4-8.72-6.8-12.74-10.6a42.22,42.22,0,0,1-13.62-28.69c-.12-1.71-.43-2.61-2.55-2.48-3.24.21-4.38-1.15-4.38-4.49q0-38.27,0-76.54c0-1.89-.43-2.41-2.32-2.32C1.16,20.08,0,18.85,0,15.67,0,11.83,0,8,0,4.15,0,1.21,1.23,0,4.2,0H65.9c2.85,0,4,1.2,4.07,4,0,3.9,0,7.81,0,11.72,0,3.09-1.15,4.31-4.25,4.17-1.9-.09-2.67.32-2.46,2.39a46,46,0,0,1,0,6.43c0,1.07.34,1.34,1.34,1.3a12.62,12.62,0,0,1,6.3.93,10,10,0,0,1-3.66,19c-1.28.1-3.07-.58-3.7.32s-.25,2.61-.25,4c0,13.48,0,26.95,0,40.43,0,1.65.42,2.17,2,2s3.48.47,4.32-.28c1-.9.27-2.94.32-4.49s0-3.12,0-4.68c.08-2.57,1.29-3.77,3.86-3.92.32,0,.65,0,1,0q57,0,114.05,0c4.21,0,7.66,1.38,9.82,5.15A23.49,23.49,0,0,1,200,91.8v3.51a8.87,8.87,0,0,1-4.84,7.07,3.22,3.22,0,0,0-1.64,2.71c-1.25,10.89-6.07,20.1-13.62,27.86a54.1,54.1,0,0,1-20.29,13.16c-2.38.88-2.42,1-2.45,3.52a130.73,130.73,0,0,0,1.56,24.28,60.38,60.38,0,0,0,7.19,19.48,6.79,6.79,0,0,1,1.06,2.9c.13,2.16-1,3.37-3.14,3.51H57.77A4.85,4.85,0,0,1,55.47,199.61Z"/><path class="cls-1" d="M164.49,199.62a1.84,1.84,0,0,0-.09.25s0,.09.07.13h-109v-.39Z"/><path class="cls-2" d="M60.72,193.16a137,137,0,0,0,1.41-15.29c.37-16-5.67-28.78-18.38-38.51a132.12,132.12,0,0,1-12.86-10.77c-6.74-6.66-10.09-14.81-10.82-24.16-.11-1.42.77-1.07,1.46-1.08H36.76c9.38,0,18.75,0,28.12,0,1.34,0,1.84.24,2,1.74,1.7,13.88,8.68,24.67,19.68,33a54.57,54.57,0,0,0,15.06,8c.88.31,1.54.55,1.53,1.8-.11,9.43,0,18.87-2,28.16a62.57,62.57,0,0,1-6.24,16.51,1.33,1.33,0,0,1-1.38.78l-32.41,0A1.38,1.38,0,0,1,60.72,193.16Z"/><path class="cls-2" d="M129.92,103.34c18.17,0,36.33,0,54.5,0,2,0,2,.63,1.76,2.22-2.46,14.51-11,24.52-23.52,31.42a51.75,51.75,0,0,1-24.48,6.33c-7.94.11-15.92.68-23.79-.69C97.76,139.65,84.7,131.55,77,116a34.8,34.8,0,0,1-3.29-11.56c-.11-.9.09-1.19,1-1.13.46,0,.91,0,1.37,0Z"/><path class="cls-2" d="M56.66,58.41c0,12.17,0,24.33.05,36.5,0,1.51-.42,1.78-1.84,1.78q-19.8-.09-39.62,0c-1.69,0-2-.52-2-2.07q.08-36.3,0-72.61c0-1.79.51-2.09,2.16-2.08q19.6.11,39.23,0c1.58,0,2.06.3,2.05,2C56.63,34.08,56.66,46.25,56.66,58.41Z"/><path class="cls-2" d="M157.36,193.27H102.42c.9-2.16,1.85-4.26,2.67-6.4,3.33-8.66,4.52-17.7,4.73-26.91.07-3.32.13-6.64.15-10,0-1,.09-1.5,1.38-1.27,10.52,1.86,21.11,1.42,31.7.85a28.46,28.46,0,0,0,5.19-.81c1.45-.35,1.84-.06,1.82,1.49,0,4.42,0,8.84.27,13.26.51,9.82,2.36,19.3,6.66,28.22C157.2,192.19,157.62,192.62,157.36,193.27Z"/><path class="cls-2" d="M133.78,96.65c-18.35,0-36.69,0-55,0-1.7,0-2.2-.37-2.15-2.12.14-4.59,0-4.59,4.72-4.59q53.37,0,106.76,0a11.65,11.65,0,0,1,2.89.25,3.22,3.22,0,0,1-.21,6.24,13.24,13.24,0,0,1-2.52.17Z"/><path class="cls-2" d="M34.82,13.31c-8.85,0-17.71,0-26.56,0-1.23,0-1.78-.24-1.62-1.58.21-1.65-.71-3.87.39-4.83.93-.82,3.09-.27,4.71-.27,16.53,0,33.06,0,49.6,0,1.59,0,2.24.32,2,2S64,12.18,63,13.07c-.86.75-2.84.24-4.33.24Z"/><path class="cls-2" d="M63.32,39.81c.49-1-1.3-3.41,2-3.17S70,37.8,70,40s-1.61,3.32-4.74,3.32C63.32,43.34,63.32,43.34,63.32,39.81Z"/></g></g></svg>