<svg xmlns="http://www.w3.org/2000/svg" viewBox="0 0 199.97 109.59"><defs><style>.cls-1{fill:#3bd8ff;}.cls-2{fill:#2a2a2a;}</style></defs><g id="Layer_2" data-name="Layer 2"><g id="Layer_1-2" data-name="Layer 1"><path class="cls-1" d="M99.94,24.06c15.1,0,30.21,0,45.31,0,2.19,0,3.16.2,3,1.56a24.91,24.91,0,0,0,0,5.66c.12,1.19-.47,1.54-2.7,1.52-8.85-.08-17.7,0-26.55,0-21.24,0-42.49-.05-63.73,0-3.37,0-4.21-.55-3.94-2.27a17.27,17.27,0,0,0,0-4.87c-.16-1.3.63-1.63,3-1.62C69.49,24.09,84.72,24.06,99.94,24.06Z"/><path class="cls-1" d="M155.66,69.67c5.92,0,11.84,0,17.76,0,9.44,0,15.75-6.19,16.49-15.64,1-12.71,2.21-25.39,3.33-38.09.18-1.94.36-3.88.51-5.83a3.17,3.17,0,0,0-1.82-3.37c-4.52-2.18-10.77,1.16-11.41,6.16-.36,2.9-.55,5.82-.81,8.74-.74,8.22-1.3,16.47-2.26,24.66-.77,6.57-5.35,10.35-12,10.39-7.94,0-15.87,0-23.81,0-5.7,0-9.36,3.85-9.2,9.53.06,2.38,1.08,3.43,3.5,3.44C142.52,69.69,149.09,69.67,155.66,69.67Z"/><path d="M64.37,75.28A8.75,8.75,0,0,0,73,66.55c.31-9.35-5.93-15.9-15.26-15.94-7.81,0-15.61,0-23.42,0-3.94,0-6.18-2-6.53-6-.73-8-1.35-16.08-2.1-24.1a83.06,83.06,0,0,0-1.1-10.08c-1.74-8.1-12.42-13-19.76-9.1A8.12,8.12,0,0,0,.31,7.53C0,8.73.5,10,0,11.19v2.34c.42.11.37.46.4.77C1.57,27.71,2.71,41.12,3.94,54.53,4.8,63.89,9.39,70.61,18.32,74c1.19.46,1.2.9.87,2-1.45,4.5-2.8,9-4.18,13.57q-2.29,7.53-4.58,15.08c-.13.43-.26.87-.35,1.31a2.79,2.79,0,0,0,2,3.5,2.77,2.77,0,0,0,3.52-2c1.07-3.19,2.06-6.42,3-9.66.29-1,.65-1.47,1.82-1.47q18.73.08,37.48,0a1.51,1.51,0,0,1,1.74,1.29c.9,3.11,1.86,6.21,2.84,9.3.66,2.09,2.09,3,3.72,2.5s2.47-2.1,1.82-4.25c-1.38-4.6-2.81-9.18-4.2-13.77-1.63-5.32-3.24-10.65-4.91-16.13C60.87,75.28,62.62,75.33,64.37,75.28ZM25,90.5c-4.19,0-4.19,0-2.95-4,1-3.22,2-6.44,2.95-9.67.3-1,.67-1.57,1.94-1.56,8.13.08,16.26,0,24.39,0,.94,0,1.5.14,1.82,1.21,1.33,4.61,2.77,9.18,4.25,14Z"/><path class="cls-2" d="M.31,7.53C.28,8.76.74,10,0,11.19V7.67Z"/><path d="M100.11,32.8h44.71c2.66,0,3.05-.6,1.84-3a7.41,7.41,0,0,0-7.15-4.16H80.74a10.86,10.86,0,0,1-2.14-.09,2.86,2.86,0,0,1-.49-5.47,5.62,5.62,0,0,1,2.3-.3q29.39,0,58.77,0c6.48,0,11.58,3.48,13.41,9.05s-1.22,9.75-7,9.78c-10.94.05-21.87,0-32.81,0a7.62,7.62,0,0,1-1.17,0c-1.25-.19-1.49.4-1.49,1.56q.06,25.18,0,50.37c0,1.26.4,1.47,1.55,1.47,7.34,0,11,5.58,11.31,12.1a5.32,5.32,0,0,1-4.55,5.31,9.25,9.25,0,0,1-1.75.12q-16.7,0-33.38,0c-4.84,0-7.24-3.14-6.06-7.84C79,95,81.65,92.67,88.78,92.06c1.13-.09,1-.67,1-1.39,0-3.13,0-6.25,0-9.38,0-13.53,0-27.07,0-40.6,0-1.58-.33-2.08-2-2.07-10.86.08-21.73.05-32.6,0a13.43,13.43,0,0,1-3.48-.3,6.81,6.81,0,0,1-4.69-8.27A13.25,13.25,0,0,1,59.55,19.86c1.82-.12,3.65-.09,5.47,0,2.07.07,3.39,1.34,3.31,3.06S67,25.62,65,25.67c-1.7,0-3.39-.06-5.08,0a7.28,7.28,0,0,0-6.73,4.51c-.9,2-.53,2.56,1.66,2.59.39,0,.78,0,1.17,0Z"/><path d="M194.44,1.06C186.16-1.67,176,2.1,175,12.77c-1,10.49-1.87,21-2.78,31.5-.37,4.28-2.52,6.32-6.78,6.33-7.75,0-15.5,0-23.24,0-9.51,0-16,7.09-15.2,16.56a8.7,8.7,0,0,0,8.29,8.08c1.86.09,3.74,0,5.74,0-.19.75-.3,1.31-.47,1.86q-4.16,13.58-8.34,27.16c-.9,2.93-.37,4.58,1.64,5.17,1.83.53,3.11-.6,4-3.51.79-2.61,1.65-5.2,2.36-7.83a2,2,0,0,1,2.35-1.8q17.87.12,35.74,0c2,0,3,.36,3.44,2.49a75.24,75.24,0,0,0,2.68,8.74,2.71,2.71,0,0,0,3.39,1.91,2.85,2.85,0,0,0,2.12-3.44,11.41,11.41,0,0,0-.39-1.5l-8.25-27c-.86-2.82-.86-2.82,1.78-4,.42-.19.82-.41,1.22-.61,2.17-1.12,2.88-2.66,2-4.34s-2.42-1.93-4.55-.9a15.15,15.15,0,0,1-6.54,1.71q-19.53,0-39.06,0c-2.26,0-3.27-1.11-3.34-3.4-.18-5.68,3.48-9.53,9.17-9.56,7.61,0,15.23,0,22.85,0,8.3,0,12.67-4.23,13.3-12.51.76-9.92,1.67-19.83,2.62-29.74.55-5.8,3.25-8.11,9.08-8.07,3.38,0,4.57,1.32,4.21,4.73-1.68,15.91-2.37,31.91-4.58,47.77a2.87,2.87,0,0,0,2.27,3.53c1.55.33,2.94-.59,3.45-2.42a29,29,0,0,0,.92-5.56q1.26-14.58,2.56-29.17c.43-4.86.92-9.71,1.27-14.58C200.25,6.09,198.18,2.3,194.44,1.06ZM147,76c.22-.75.82-.69,1.41-.68h25c.58,0,1.09-.06,1.33.74,1.42,4.77,2.92,9.53,4.43,14.42H142.6C144.09,85.57,145.54,80.77,147,76Z"/><path class="cls-1" d="M44,69.44c-5.92,0-11.84,0-17.76,0-9.44,0-15.75-6.19-16.48-15.64-1-12.7-2.22-25.39-3.34-38.08-.17-2-.35-3.89-.5-5.83A3.15,3.15,0,0,1,7.7,6.51c4.53-2.19,10.78,1.16,11.41,6.15.37,2.9.55,5.83.81,8.74.74,8.23,1.3,16.47,2.26,24.67.77,6.56,5.36,10.34,12,10.38,7.94,0,15.88,0,23.81,0,5.71,0,9.36,3.84,9.21,9.52-.07,2.38-1.09,3.43-3.5,3.44C57.12,69.46,50.54,69.44,44,69.44Z"/><path class="cls-1" d="M104.34,65.44c0,8.32,0,16.65,0,25,0,1.21-.2,1.74-1.56,1.65a46.31,46.31,0,0,0-5.65,0c-1.2.07-1.54-.25-1.53-1.48.08-4.88,0-9.76,0-14.64,0-11.71,0-23.42,0-35.13,0-1.86.55-2.32,2.26-2.17a31.8,31.8,0,0,0,4.88,0c1.3-.09,1.63.34,1.62,1.62C104.31,48.65,104.34,57.05,104.34,65.44Z"/><path class="cls-1" d="M117,103.66H83c.74-4.59,2.11-5.77,6.69-5.77h20.66C114.91,97.89,116.25,99,117,103.66Z"/></g></g></svg>