<svg xmlns="http://www.w3.org/2000/svg" viewBox="0 0 200 180.82"><defs><style>.cls-1{fill:#3bd8ff;}</style></defs><g id="Layer_2" data-name="Layer 2"><g id="Layer_1-2" data-name="Layer 1"><path d="M200,77.34a6.73,6.73,0,0,1-3.31,2.84c-2.29,1.06-4.48,2.36-6.81,3.35a2.38,2.38,0,0,0-1.59,2.66c0,21.8,0,43.6.06,65.4,0,1.92-.8,2.76-2.3,3.79-4.12,2.83-7.92,2.84-12.07,0-1.59-1.08-2.36-2-2.35-4,.06-18.87,0-37.74,0-56.61,0-2.1,0-2.1-1.88-1.16-8.83,4.4-17.63,8.85-26.49,13.19a2.5,2.5,0,0,0-1.61,2.65c0,21.67,0,43.34.08,65,0,2.22-.89,3.22-2.67,4.38-3.94,2.57-7.46,2.6-11.42,0-1.87-1.21-2.71-2.26-2.7-4.54.1-18.68,0-37.35,0-56V116c-1.72.69-3.11.08-4.52-.63q-25-12.5-49.95-25l-1.87-.93c-.12.15-.27.24-.26.31.63,3.41-1.13,5-4,6.46a8.41,8.41,0,0,1-8.62,0c-3.13-1.57-4.58-3.3-4.13-6.83.3-2.37,0-4.81.08-7.22a1.8,1.8,0,0,0-1.22-1.9q-13.6-6.73-27.14-13.59c-1.44-.73-1.67-.4-1.66,1.08,0,15.55,0,31.11.07,46.66,0,2.2-.85,3.17-2.65,4.35-3.95,2.59-7.41,2.63-11.39,0C5.82,117.69,5,116.63,5,114.38c.09-18.29,0-36.57.09-54.86,0-1.35-.32-2.17-1.64-2.63C.84,56-.14,54.12,0,51.32c.19-3.51.1-7,0-10.54a4.33,4.33,0,0,1,2.6-4.37Q38.52,18.53,74.36.57A5.3,5.3,0,0,1,79.52.8Q136.76,29.47,194,58.1c2.16,1.08,4.65,1.71,6,4Z"/><path class="cls-1" d="M11.09,39.77C32.78,28.92,54.17,18.22,75.56,7.49a2.51,2.51,0,0,1,2.53,0q55.3,27.72,110.63,55.38a4,4,0,0,1,.37.21c-.33.61-1,.72-1.52,1q-31.22,15.63-62.43,31.27a3.18,3.18,0,0,1-3.2,0Q67.49,68,13,40.8C12.46,40.52,11.9,40.21,11.09,39.77Z"/><path class="cls-1" d="M120.15,107.69,97.39,96.33q-44.1-22-88.22-44.06c-1.74-.86-2.64-1.78-2.32-3.77a22.16,22.16,0,0,0,0-3.29L21.5,52.49q48.36,24.18,96.75,48.32c1.51.76,2.15,1.58,1.93,3.24A30.73,30.73,0,0,0,120.15,107.69Z"/><path class="cls-1" d="M193.51,68.57c0,1.85,0,3.45,0,5.05,0,1.11-.86,1.17-1.5,1.49q-21.28,10.68-42.6,21.33c-7,3.48-13.93,6.92-20.86,10.45-1.43.73-1.64.59-1.82-1.07-.35-3,.85-4.48,3.57-5.81,20.3-10,40.5-20.16,60.73-30.27Z"/><path class="cls-1" d="M181.82,153.56V89.44a3.07,3.07,0,0,1,2.67-3.1c.53-.08.71.11.7.6s0,.91,0,1.36v60.85C185.19,152.28,185.19,152.28,181.82,153.56Z"/><path class="cls-1" d="M178.52,89.5v19.87q0,21.07,0,42.13c0,.62.53,2-.48,1.82s-2.7-.34-2.83-2.09c0-.45,0-.91,0-1.37v-56C175.17,90.79,175.17,90.79,178.52,89.5Z"/><path class="cls-1" d="M135.21,176.9v-63c0-3.17,0-3.17,3.28-4.29v62.85C138.49,175.56,138.49,175.56,135.21,176.9Z"/><path class="cls-1" d="M8.53,59.57c3.39,1.13,3.39,1.13,3.39,4.25q0,25.54,0,51.09c0,.62.41,1.88-.36,1.79a3.47,3.47,0,0,1-3-1.8,2.19,2.19,0,0,1,0-.77Z"/><path class="cls-1" d="M131.77,176.84c-3.24-1.2-3.24-1.2-3.24-4.31V117c0-3,0-3,3.24-4Z"/><path class="cls-1" d="M15.2,89.74c0-8.26,0-16.52,0-24.79,0-.64-.45-2,.42-1.87,1.06.18,2.66.39,2.91,2a6.4,6.4,0,0,1,0,1v47.61a3,3,0,0,1-2.74,3c-1.15,0-.6-.95-.61-1.44,0-8.13,0-16.26,0-24.39Z"/><path class="cls-1" d="M58.51,93.5c-3.27-1.07-3.27-1.07-3.27-4.1V83c3.27.88,3.27.88,3.27,4.11Z"/><path class="cls-1" d="M61.93,93.56V86.12c1.25.75,2.94.6,3.22,2.3C65.72,91.84,65.44,92.2,61.93,93.56Z"/></g></g></svg>