<svg xmlns="http://www.w3.org/2000/svg" viewBox="0 0 200 193.79"><defs><style>.cls-1{fill:#3bd8ff;}.cls-2{fill:#fff;}</style></defs><g id="Layer_2" data-name="Layer 2"><g id="Layer_1-2" data-name="Layer 1"><path class="cls-1" d="M1.16,124.32A169.16,169.16,0,0,1,41.07,54.21C65.69,28.1,95.74,11.43,130.72,3.64A161.92,161.92,0,0,1,160,.08,16.68,16.68,0,0,1,162.45,0H172a110,110,0,0,1,14.63.84,16.28,16.28,0,0,1,12.57,9c.64,1.21.5,2.64.85,3.93v5.26c-.46.32-.36.86-.47,1.29A15.3,15.3,0,0,1,182.9,31.8c-27.75-3-54.31,1.29-79.26,13.89C75.72,59.8,54.41,80.75,40.28,108.79a144.05,144.05,0,0,0-9.71,25.14c-1.81,6.36-5.69,10.63-12.35,12A15.44,15.44,0,0,1,.33,134.23,18.56,18.56,0,0,1,0,129.64,26.77,26.77,0,0,1,1.16,124.32Z"/><path class="cls-1" d="M157.34,193.05c-18.68-4.87-25.6-28.1-12.45-42.23,7.46-8,16.76-10.36,27.08-7,10.13,3.34,16,10.72,17.42,21.3a25.6,25.6,0,0,1-23.08,28.56,41.13,41.13,0,0,1-4.73,0A26,26,0,0,1,157.34,193.05Z"/><path class="cls-1" d="M167,47c3.51.15,7.74-.09,11.87.79a15.36,15.36,0,0,1-.37,30.16c-2.75.53-5.5.11-8.24,0a90.38,90.38,0,0,0-40.8,7.5c-25.64,11.43-43.26,30.29-52.3,57-1.33,3.92-3.09,7.55-6.62,10a15.46,15.46,0,0,1-17.39.21c-5.77-4.07-8.22-10.42-6.26-17a118.26,118.26,0,0,1,21.38-41c17.1-21.21,38.55-36,65-43.29A126.27,126.27,0,0,1,167,47Z"/><path class="cls-1" d="M109.09,164.13c-11.83,0-19.25-10.84-15.14-20.93,9.87-24.25,27.72-39.62,52.77-46.74A65.06,65.06,0,0,1,167.36,94a15.28,15.28,0,0,1,14.71,14.67,15.44,15.44,0,0,1-13.17,15.86c-3.81.55-7.67.54-11.47,1.25-15.08,2.84-25.88,11.29-32.87,24.81-1.1,2.13-1.89,4.43-3.31,6.39C118,161.5,113.68,164,109.09,164.13Z"/><path class="cls-2" d="M166.49,7.36a181.28,181.28,0,0,1,18.49,1c4.94.48,8.08,3.74,8.07,8.34a8,8,0,0,1-8,7.87c-2.23,0-4.45-.31-6.68-.49A147.49,147.49,0,0,0,64.22,64.72c-19.7,18.62-32.88,41.18-40.31,67.16-1.07,3.75-3.17,6.36-7.18,6.87-5.88.76-10.25-4.4-8.7-10.26A153.82,153.82,0,0,1,20.5,96.42c16.24-31.07,40.27-54.42,71-71A149.61,149.61,0,0,1,140.72,9.31c2.51-.38,5-.73,7.55-1A160.66,160.66,0,0,1,166.49,7.36Z"/><path class="cls-2" d="M164.23,149.8a18.38,18.38,0,1,1-18.35,18.34A18.37,18.37,0,0,1,164.23,149.8Z"/><path class="cls-2" d="M167.49,54.32a72.19,72.19,0,0,1,9.48.5,7.93,7.93,0,0,1,7.08,8.73,7.81,7.81,0,0,1-8.3,7.27c-4.55-.14-9.09-.39-13.65-.21a97.51,97.51,0,0,0-39.47,10.15A99.36,99.36,0,0,0,71.77,136.6c-.77,2-1.34,4.07-2.17,6-1.37,3.22-3.81,5.13-7.38,5.18a7.67,7.67,0,0,1-7.41-4.51,8.48,8.48,0,0,1-.26-6.63A117.05,117.05,0,0,1,98.76,76,113.83,113.83,0,0,1,148.3,55.7,120.35,120.35,0,0,1,167.49,54.32Z"/><path class="cls-2" d="M175.12,109.4c0,4.41-3.71,8-8.49,8a54.53,54.53,0,0,0-31.55,10.25,53.82,53.82,0,0,0-18.63,23.42c-1.75,4.1-5.26,6.29-9,5.64a7.94,7.94,0,0,1-6.3-10.84A62.9,62.9,0,0,1,109.87,130c11.76-15.58,27.33-24.86,46.58-28a44.8,44.8,0,0,1,11.5-.64A8,8,0,0,1,175.12,109.4Z"/></g></g></svg>